G04 #@! TF.FileFunction,Copper,L1,Top,Signal*
%FSLAX45Y45*%
G04 Gerber Fmt 4.5, Leading zero omitted, Abs format (unit mm)*
G04 Created by KiCad (PCBNEW 4.0.1-stable) date 2017年09月08日金曜日 13:41:55*
%MOMM*%
G01*
G04 APERTURE LIST*
%ADD10C,0.100000*%
%ADD11C,1.400000*%
%ADD12O,3.000000X1.250000*%
%ADD13O,2.500000X1.800000*%
%ADD14C,1.250000*%
%ADD15O,2.500000X2.300000*%
%ADD16O,1.400000X1.400000*%
%ADD17C,2.800000*%
%ADD18O,1.800000X3.000000*%
%ADD19O,3.500000X1.500000*%
%ADD20O,4.000000X1.500000*%
%ADD21R,1.400000X0.400000*%
%ADD22C,1.300000*%
%ADD23O,1.540000X1.000000*%
%ADD24C,1.000000*%
%ADD25O,1.000000X2.000000*%
%ADD26C,0.600000*%
%ADD27C,1.000000*%
%ADD28C,0.400000*%
%ADD29C,0.508000*%
%ADD30C,0.254000*%
G04 APERTURE END LIST*
D10*
D11*
X18478500Y-10985500D03*
X18478500Y-11493500D03*
X18478500Y-12192000D03*
X18478500Y-12700000D03*
X19621500Y-13652500D03*
X19113500Y-13652500D03*
X19621500Y-13970000D03*
X19113500Y-13970000D03*
D12*
X19736200Y-12954000D03*
X19736200Y-12694000D03*
D13*
X20331400Y-13184000D03*
X20331400Y-12464000D03*
D14*
X19837400Y-12954000D03*
X19837400Y-12694000D03*
D15*
X20331400Y-13209000D03*
X20331400Y-12442000D03*
D16*
X19431000Y-11620500D03*
X19431000Y-11370500D03*
X19431000Y-11170500D03*
X19431000Y-10920500D03*
D17*
X19702000Y-11927500D03*
X19702000Y-10613500D03*
D11*
X18034000Y-10541000D03*
X18034000Y-10795000D03*
X18034000Y-11049000D03*
X18034000Y-11303000D03*
X18034000Y-11557000D03*
X18034000Y-11811000D03*
X18034000Y-12065000D03*
X18034000Y-12319000D03*
X18034000Y-12573000D03*
X18034000Y-12827000D03*
X18034000Y-13081000D03*
X18034000Y-13335000D03*
X18034000Y-13589000D03*
X18034000Y-13843000D03*
X15494000Y-10541000D03*
X15494000Y-10795000D03*
X15494000Y-11049000D03*
X15494000Y-11303000D03*
X15494000Y-11557000D03*
X15494000Y-11811000D03*
X15494000Y-12065000D03*
X15494000Y-12319000D03*
X15494000Y-12573000D03*
X15494000Y-12827000D03*
X15494000Y-13081000D03*
X15494000Y-13335000D03*
X15494000Y-13589000D03*
X15494000Y-13843000D03*
X19050000Y-12319000D03*
X19050000Y-12573000D03*
X19050000Y-12827000D03*
X19050000Y-13081000D03*
X19050000Y-13335000D03*
D18*
X13728700Y-11341100D03*
D19*
X14228700Y-11341100D03*
D20*
X14198700Y-10966100D03*
X14198700Y-11716100D03*
D11*
X18923000Y-10985500D03*
X18923000Y-11239500D03*
X18923000Y-11493500D03*
D21*
X16469000Y-11769500D03*
X16469000Y-11834500D03*
X16469000Y-11899500D03*
X16469000Y-11964500D03*
X16469000Y-12029500D03*
X16469000Y-12094500D03*
X16469000Y-12159500D03*
X16469000Y-12224500D03*
X16469000Y-12289500D03*
X16469000Y-12354500D03*
X16469000Y-12419500D03*
X16469000Y-12484500D03*
X16469000Y-12549500D03*
X16469000Y-12614500D03*
X17059000Y-12614500D03*
X17059000Y-12549500D03*
X17059000Y-12484500D03*
X17059000Y-12419500D03*
X17059000Y-12354500D03*
X17059000Y-12289500D03*
X17059000Y-12224500D03*
X17059000Y-12159500D03*
X17059000Y-12094500D03*
X17059000Y-12029500D03*
X17059000Y-11964500D03*
X17059000Y-11899500D03*
X17059000Y-11834500D03*
X17059000Y-11769500D03*
D11*
X14160500Y-13525500D03*
X14414500Y-13525500D03*
X15303500Y-10096500D03*
X14287500Y-10096500D03*
X14795500Y-10477500D03*
X14795500Y-11493500D03*
X14795500Y-11874500D03*
X14795500Y-12890500D03*
X14795500Y-14287500D03*
X14795500Y-13271500D03*
X13589000Y-12255500D03*
X14239000Y-12255500D03*
X13589000Y-12705500D03*
X14239000Y-12705500D03*
D22*
X18478500Y-13462000D03*
X18478500Y-13942000D03*
D23*
X19140500Y-14351000D03*
D24*
X19367500Y-14351000D03*
D23*
X19594500Y-14351000D03*
D25*
X19797500Y-14351000D03*
X18937500Y-14351000D03*
D26*
X19240500Y-11874500D03*
D27*
X19140500Y-14351000D02*
X19140500Y-14197000D01*
X19367500Y-13970000D02*
X19367500Y-11684000D01*
X19140500Y-14197000D02*
X19367500Y-13970000D01*
X19367500Y-11684000D02*
X19431000Y-11620500D01*
X19431000Y-11620500D02*
X19367500Y-11684000D01*
X19367500Y-11684000D02*
X18923000Y-11239500D01*
X18478500Y-10985500D02*
X18732500Y-11239500D01*
X18732500Y-11239500D02*
X18923000Y-11239500D01*
D28*
X17049000Y-12159500D02*
X16909300Y-12159500D01*
X16909300Y-12159500D02*
X16903700Y-12153900D01*
X16479000Y-12224500D02*
X16618700Y-12224500D01*
X16618700Y-12224500D02*
X16624300Y-12230100D01*
D29*
X19837400Y-12694000D02*
X19513900Y-12694000D01*
X19513900Y-12694000D02*
X19507200Y-12687300D01*
X19507200Y-12687300D02*
X19507200Y-12585700D01*
X19507200Y-12585700D02*
X19558000Y-12534900D01*
X19558000Y-12534900D02*
X19989800Y-12534900D01*
X19989800Y-12534900D02*
X20053300Y-12598400D01*
X20053300Y-12598400D02*
X20053300Y-12674600D01*
X20053300Y-12674600D02*
X20033900Y-12694000D01*
X20033900Y-12694000D02*
X19837400Y-12694000D01*
D28*
X16479000Y-12224500D02*
X15588500Y-12224500D01*
X15588500Y-12224500D02*
X15494000Y-12319000D01*
X17049000Y-12159500D02*
X17939500Y-12159500D01*
X17939500Y-12159500D02*
X18034000Y-12065000D01*
X19837400Y-12694000D02*
X19843400Y-12694000D01*
D27*
X18923000Y-11493500D02*
X18732500Y-11493500D01*
X18478500Y-11747500D02*
X18478500Y-12192000D01*
X18732500Y-11493500D02*
X18478500Y-11747500D01*
D28*
X16479000Y-12159500D02*
X15588500Y-12159500D01*
X15588500Y-12159500D02*
X15494000Y-12065000D01*
X17049000Y-12224500D02*
X17939500Y-12224500D01*
X17939500Y-12224500D02*
X18034000Y-12319000D01*
D27*
X18034000Y-12319000D02*
X18351500Y-12319000D01*
X18351500Y-12319000D02*
X18478500Y-12192000D01*
X18478500Y-12192000D02*
X18542000Y-12192000D01*
X18542000Y-12192000D02*
X18732500Y-12382500D01*
X18859500Y-13081000D02*
X19050000Y-13081000D01*
X18732500Y-12954000D02*
X18859500Y-13081000D01*
X18732500Y-12382500D02*
X18732500Y-12954000D01*
X15494000Y-12065000D02*
X14986000Y-12065000D01*
X14986000Y-12065000D02*
X14795500Y-11874500D01*
X19594500Y-14351000D02*
X19594500Y-14251000D01*
X19837400Y-14008100D02*
X19837400Y-12954000D01*
X19594500Y-14251000D02*
X19837400Y-14008100D01*
X19367500Y-14351000D02*
X19594500Y-14351000D01*
D28*
X16479000Y-11769500D02*
X16231000Y-11769500D01*
X15938500Y-10985500D02*
X15494000Y-10541000D01*
X15938500Y-11477000D02*
X15938500Y-10985500D01*
X16231000Y-11769500D02*
X15938500Y-11477000D01*
D27*
X15494000Y-10541000D02*
X15303500Y-10350500D01*
X15303500Y-10350500D02*
X15303500Y-10096500D01*
D28*
X16479000Y-11834500D02*
X16168250Y-11834500D01*
X15843250Y-11144250D02*
X15494000Y-10795000D01*
X15843250Y-11509500D02*
X15843250Y-11144250D01*
X16168250Y-11834500D02*
X15843250Y-11509500D01*
D27*
X15494000Y-10795000D02*
X15113000Y-10795000D01*
X15113000Y-10795000D02*
X14795500Y-10477500D01*
D28*
X16479000Y-12094500D02*
X15777500Y-12094500D01*
X15777500Y-12094500D02*
X15494000Y-11811000D01*
D27*
X14795500Y-13271500D02*
X14541500Y-13271500D01*
X14414500Y-13398500D02*
X14414500Y-13525500D01*
X14541500Y-13271500D02*
X14414500Y-13398500D01*
X19371500Y-11370500D02*
X19113500Y-11112500D01*
X19113500Y-11112500D02*
X19113500Y-10858500D01*
X19113500Y-10858500D02*
X18986500Y-10731500D01*
X18986500Y-10731500D02*
X18351500Y-10731500D01*
X18351500Y-10731500D02*
X18224500Y-10858500D01*
X18224500Y-10858500D02*
X18224500Y-10985500D01*
X18224500Y-10985500D02*
X18161000Y-11049000D01*
X18161000Y-11049000D02*
X18034000Y-11049000D01*
X19431000Y-11370500D02*
X19371500Y-11370500D01*
D28*
X17049000Y-11899500D02*
X17425500Y-11899500D01*
X17780000Y-11303000D02*
X18034000Y-11049000D01*
X17780000Y-11545000D02*
X17780000Y-11303000D01*
X17425500Y-11899500D02*
X17780000Y-11545000D01*
X17049000Y-11769500D02*
X17299250Y-11769500D01*
X17589500Y-10985500D02*
X18034000Y-10541000D01*
X17589500Y-11479250D02*
X17589500Y-10985500D01*
X17299250Y-11769500D02*
X17589500Y-11479250D01*
D27*
X19431000Y-11170500D02*
X19425500Y-11170500D01*
X19425500Y-11170500D02*
X19240500Y-10985500D01*
X19240500Y-10985500D02*
X19240500Y-10668000D01*
X19240500Y-10668000D02*
X19113500Y-10541000D01*
X19113500Y-10541000D02*
X18034000Y-10541000D01*
X19050000Y-12827000D02*
X19184000Y-12827000D01*
X19240500Y-12770500D02*
X19240500Y-11874500D01*
X19184000Y-12827000D02*
X19240500Y-12770500D01*
D28*
X17049000Y-11834500D02*
X17363500Y-11834500D01*
X17684750Y-11144250D02*
X18034000Y-10795000D01*
X17684750Y-11513250D02*
X17684750Y-11144250D01*
X17363500Y-11834500D02*
X17684750Y-11513250D01*
X17049000Y-11964500D02*
X17486750Y-11964500D01*
X17875250Y-11461750D02*
X18034000Y-11303000D01*
X17875250Y-11576000D02*
X17875250Y-11461750D01*
X17486750Y-11964500D02*
X17875250Y-11576000D01*
X17049000Y-12029500D02*
X17561500Y-12029500D01*
X17561500Y-12029500D02*
X18034000Y-11557000D01*
X17049000Y-12094500D02*
X17750500Y-12094500D01*
X17750500Y-12094500D02*
X18034000Y-11811000D01*
X17049000Y-12419500D02*
X17484500Y-12419500D01*
X17875250Y-12922250D02*
X18034000Y-13081000D01*
X17875250Y-12810250D02*
X17875250Y-12922250D01*
X17484500Y-12419500D02*
X17875250Y-12810250D01*
X17049000Y-12484500D02*
X17423250Y-12484500D01*
X17780000Y-13081000D02*
X18034000Y-13335000D01*
X17780000Y-12841250D02*
X17780000Y-13081000D01*
X17423250Y-12484500D02*
X17780000Y-12841250D01*
X16479000Y-12029500D02*
X15966500Y-12029500D01*
X15966500Y-12029500D02*
X15494000Y-11557000D01*
X17049000Y-12549500D02*
X17361250Y-12549500D01*
X17684750Y-13239750D02*
X18034000Y-13589000D01*
X17684750Y-12873000D02*
X17684750Y-13239750D01*
X17361250Y-12549500D02*
X17684750Y-12873000D01*
X17049000Y-12614500D02*
X17300750Y-12614500D01*
X17589500Y-13398500D02*
X18034000Y-13843000D01*
X17589500Y-12903250D02*
X17589500Y-13398500D01*
X17300750Y-12614500D02*
X17589500Y-12903250D01*
X17049000Y-12289500D02*
X17750500Y-12289500D01*
X17750500Y-12289500D02*
X18034000Y-12573000D01*
D27*
X18478500Y-13462000D02*
X18669000Y-13652500D01*
X18669000Y-13652500D02*
X19113500Y-13652500D01*
X18034000Y-12573000D02*
X18097500Y-12573000D01*
X18097500Y-12573000D02*
X18478500Y-12954000D01*
X18478500Y-12954000D02*
X18478500Y-13462000D01*
D28*
X17049000Y-12354500D02*
X17561500Y-12354500D01*
X17561500Y-12354500D02*
X18034000Y-12827000D01*
D27*
X19113500Y-13970000D02*
X18506500Y-13970000D01*
X18506500Y-13970000D02*
X18478500Y-13942000D01*
X18034000Y-12827000D02*
X18161000Y-12827000D01*
X18288000Y-13751500D02*
X18478500Y-13942000D01*
X18288000Y-12954000D02*
X18288000Y-13751500D01*
X18161000Y-12827000D02*
X18288000Y-12954000D01*
D28*
X16479000Y-11899500D02*
X16105500Y-11899500D01*
X15748000Y-11303000D02*
X15494000Y-11049000D01*
X15748000Y-11542000D02*
X15748000Y-11303000D01*
X16105500Y-11899500D02*
X15748000Y-11542000D01*
X16479000Y-11964500D02*
X16042750Y-11964500D01*
X15652750Y-11461750D02*
X15494000Y-11303000D01*
X15652750Y-11574500D02*
X15652750Y-11461750D01*
X16042750Y-11964500D02*
X15652750Y-11574500D01*
X16479000Y-12289500D02*
X15777500Y-12289500D01*
X15777500Y-12289500D02*
X15494000Y-12573000D01*
X16479000Y-12354500D02*
X15966500Y-12354500D01*
X15966500Y-12354500D02*
X15494000Y-12827000D01*
X16479000Y-12419500D02*
X16042750Y-12419500D01*
X15652750Y-12922250D02*
X15494000Y-13081000D01*
X15652750Y-12809500D02*
X15652750Y-12922250D01*
X16042750Y-12419500D02*
X15652750Y-12809500D01*
X16479000Y-12484500D02*
X16105500Y-12484500D01*
X15748000Y-13081000D02*
X15494000Y-13335000D01*
X15748000Y-12842000D02*
X15748000Y-13081000D01*
X16105500Y-12484500D02*
X15748000Y-12842000D01*
X16479000Y-12549500D02*
X16168250Y-12549500D01*
X15843250Y-13239750D02*
X15494000Y-13589000D01*
X15843250Y-12874500D02*
X15843250Y-13239750D01*
X16168250Y-12549500D02*
X15843250Y-12874500D01*
D27*
X14239000Y-12705500D02*
X14610500Y-12705500D01*
X14610500Y-12705500D02*
X14795500Y-12890500D01*
X13589000Y-12705500D02*
X14239000Y-12705500D01*
X15494000Y-13589000D02*
X15303500Y-13589000D01*
X15303500Y-13589000D02*
X15176500Y-13462000D01*
X15176500Y-13462000D02*
X15176500Y-13017500D01*
X15176500Y-13017500D02*
X15049500Y-12890500D01*
X15049500Y-12890500D02*
X14795500Y-12890500D01*
D28*
X16479000Y-12614500D02*
X16231000Y-12614500D01*
X15938500Y-13398500D02*
X15494000Y-13843000D01*
X15938500Y-12907000D02*
X15938500Y-13398500D01*
X16231000Y-12614500D02*
X15938500Y-12907000D01*
D27*
X14795500Y-14287500D02*
X15240000Y-13843000D01*
X15240000Y-13843000D02*
X15494000Y-13843000D01*
X14228700Y-11341100D02*
X14643100Y-11341100D01*
X14643100Y-11341100D02*
X14795500Y-11493500D01*
X14198700Y-10966100D02*
X14198700Y-10185300D01*
X14198700Y-10185300D02*
X14287500Y-10096500D01*
X14198700Y-11716100D02*
X14198700Y-11371100D01*
X14198700Y-11371100D02*
X14228700Y-11341100D01*
X14198700Y-10966100D02*
X14198700Y-11311100D01*
X14198700Y-11311100D02*
X14228700Y-11341100D01*
X14228700Y-11341100D02*
X14249400Y-11341100D01*
D30*
G36*
X20211425Y-9631094D02*
X20141839Y-9659209D01*
X20079038Y-9700304D01*
X20025416Y-9752815D01*
X19983015Y-9814741D01*
X19953449Y-9883723D01*
X19937845Y-9957134D01*
X19936797Y-10032179D01*
X19950345Y-10105997D01*
X19977973Y-10175778D01*
X20018629Y-10238863D01*
X20070764Y-10292851D01*
X20132393Y-10335684D01*
X20201167Y-10365730D01*
X20274468Y-10381847D01*
X20349502Y-10383418D01*
X20423414Y-10370386D01*
X20493386Y-10343245D01*
X20556754Y-10303031D01*
X20611104Y-10251274D01*
X20654366Y-10189946D01*
X20684892Y-10121383D01*
X20701519Y-10048197D01*
X20702300Y-9992295D01*
X20702300Y-10666407D01*
X20693413Y-10671212D01*
X20689078Y-10674136D01*
X20684702Y-10676999D01*
X20684077Y-10677509D01*
X20673551Y-10686217D01*
X20669864Y-10689929D01*
X20666129Y-10693587D01*
X20665616Y-10694208D01*
X20656981Y-10704795D01*
X20654087Y-10709150D01*
X20651133Y-10713466D01*
X20650749Y-10714174D01*
X20644336Y-10726237D01*
X20642341Y-10731077D01*
X20640283Y-10735878D01*
X20640045Y-10736648D01*
X20636096Y-10749726D01*
X20635080Y-10754857D01*
X20633993Y-10759972D01*
X20633909Y-10760773D01*
X20632575Y-10774370D01*
X20632575Y-10776789D01*
X20632306Y-10779194D01*
X20632300Y-10780000D01*
X20632300Y-11765000D01*
X20632301Y-11765010D01*
X20632300Y-11765201D01*
X20632302Y-11765689D01*
X20632557Y-11768197D01*
X20632539Y-11770718D01*
X20632618Y-11771520D01*
X20634046Y-11785107D01*
X20635097Y-11790225D01*
X20636077Y-11795367D01*
X20636310Y-11796138D01*
X20640350Y-11809189D01*
X20642376Y-11814009D01*
X20644336Y-11818858D01*
X20644714Y-11819570D01*
X20651212Y-11831587D01*
X20654137Y-11835924D01*
X20656999Y-11840298D01*
X20657509Y-11840923D01*
X20666217Y-11851449D01*
X20669929Y-11855136D01*
X20673587Y-11858871D01*
X20674208Y-11859384D01*
X20684795Y-11868019D01*
X20689150Y-11870913D01*
X20693466Y-11873867D01*
X20694174Y-11874251D01*
X20702300Y-11878571D01*
X20702300Y-12441406D01*
X20693413Y-12446212D01*
X20689078Y-12449136D01*
X20684702Y-12451999D01*
X20684077Y-12452509D01*
X20673551Y-12461217D01*
X20669864Y-12464929D01*
X20666129Y-12468587D01*
X20665616Y-12469208D01*
X20656981Y-12479795D01*
X20654087Y-12484150D01*
X20651133Y-12488466D01*
X20650749Y-12489174D01*
X20644336Y-12501237D01*
X20642341Y-12506077D01*
X20640283Y-12510878D01*
X20640045Y-12511648D01*
X20636096Y-12524726D01*
X20635080Y-12529857D01*
X20633993Y-12534972D01*
X20633909Y-12535773D01*
X20632575Y-12549370D01*
X20632575Y-12551789D01*
X20632306Y-12554194D01*
X20632300Y-12555000D01*
X20632300Y-13090000D01*
X20632301Y-13090010D01*
X20632300Y-13090201D01*
X20632302Y-13090689D01*
X20632557Y-13093197D01*
X20632539Y-13095718D01*
X20632618Y-13096520D01*
X20634046Y-13110107D01*
X20635096Y-13115223D01*
X20636077Y-13120367D01*
X20636310Y-13121138D01*
X20640350Y-13134189D01*
X20642376Y-13139009D01*
X20644336Y-13143858D01*
X20644714Y-13144570D01*
X20651212Y-13156587D01*
X20654137Y-13160924D01*
X20656999Y-13165298D01*
X20657509Y-13165923D01*
X20666217Y-13176449D01*
X20669929Y-13180136D01*
X20673587Y-13183871D01*
X20674208Y-13184384D01*
X20684795Y-13193019D01*
X20689150Y-13195913D01*
X20693466Y-13198867D01*
X20694174Y-13199251D01*
X20702300Y-13203571D01*
X20702300Y-14080371D01*
X20688139Y-14008852D01*
X20659539Y-13939464D01*
X20618006Y-13876952D01*
X20565123Y-13823698D01*
X20502902Y-13781730D01*
X20433715Y-13752646D01*
X20360197Y-13737555D01*
X20285147Y-13737031D01*
X20211425Y-13751094D01*
X20141839Y-13779209D01*
X20079038Y-13820304D01*
X20025416Y-13872815D01*
X19983015Y-13934741D01*
X19953449Y-14003723D01*
X19947120Y-14033500D01*
X19936572Y-14033500D01*
X19937856Y-14029452D01*
X19937916Y-14028916D01*
X19938074Y-14028399D01*
X19939033Y-14018960D01*
X19940090Y-14009534D01*
X19940097Y-14008479D01*
X19940099Y-14008458D01*
X19940098Y-14008440D01*
X19940100Y-14008100D01*
X19940100Y-13183004D01*
X20152844Y-13183004D01*
X20154055Y-13196312D01*
X20152844Y-13207829D01*
X20155811Y-13240424D01*
X20165052Y-13271821D01*
X20180215Y-13300826D01*
X20200723Y-13326333D01*
X20225795Y-13347371D01*
X20254476Y-13363139D01*
X20285673Y-13373035D01*
X20318199Y-13376684D01*
X20320540Y-13376700D01*
X20342260Y-13376700D01*
X20374833Y-13373506D01*
X20406165Y-13364046D01*
X20435064Y-13348681D01*
X20460427Y-13327995D01*
X20481289Y-13302777D01*
X20496856Y-13273986D01*
X20506535Y-13242721D01*
X20509956Y-13210171D01*
X20508728Y-13196682D01*
X20509956Y-13184996D01*
X20507432Y-13157261D01*
X20499569Y-13130544D01*
X20486666Y-13105863D01*
X20469215Y-13084158D01*
X20447881Y-13066256D01*
X20423475Y-13052839D01*
X20396929Y-13044418D01*
X20369252Y-13041314D01*
X20367260Y-13041300D01*
X20295540Y-13041300D01*
X20267823Y-13044018D01*
X20241162Y-13052067D01*
X20216571Y-13065142D01*
X20194989Y-13082744D01*
X20177237Y-13104203D01*
X20163990Y-13128701D01*
X20155755Y-13155306D01*
X20152844Y-13183004D01*
X19940100Y-13183004D01*
X19940100Y-13006574D01*
X19947239Y-12990539D01*
X19952245Y-12968508D01*
X19952605Y-12942704D01*
X19948217Y-12920542D01*
X19939608Y-12899655D01*
X19927106Y-12880838D01*
X19911187Y-12864807D01*
X19892457Y-12852174D01*
X19871630Y-12843419D01*
X19849500Y-12838877D01*
X19826909Y-12838719D01*
X19826375Y-12838821D01*
X19826289Y-12838811D01*
X19824681Y-12838800D01*
X19647719Y-12838800D01*
X19625343Y-12840994D01*
X19603820Y-12847492D01*
X19583969Y-12858047D01*
X19566545Y-12872257D01*
X19552214Y-12889581D01*
X19541521Y-12909358D01*
X19534872Y-12930836D01*
X19532522Y-12953196D01*
X19534560Y-12975586D01*
X19540908Y-12997155D01*
X19551324Y-13017079D01*
X19565412Y-13034601D01*
X19582635Y-13049053D01*
X19602337Y-13059884D01*
X19623768Y-13066683D01*
X19646111Y-13069189D01*
X19647719Y-13069200D01*
X19734700Y-13069200D01*
X19734700Y-13604912D01*
X19732162Y-13598138D01*
X19728181Y-13590690D01*
X19707826Y-13584134D01*
X19639461Y-13652500D01*
X19707826Y-13720866D01*
X19728181Y-13714310D01*
X19734700Y-13699981D01*
X19734700Y-13922412D01*
X19732162Y-13915638D01*
X19728181Y-13908190D01*
X19707826Y-13901634D01*
X19639461Y-13970000D01*
X19640875Y-13971414D01*
X19622914Y-13989375D01*
X19621500Y-13987960D01*
X19553134Y-14056326D01*
X19559690Y-14076681D01*
X19581690Y-14086690D01*
X19605220Y-14092214D01*
X19607953Y-14092308D01*
X19521880Y-14178380D01*
X19515858Y-14185712D01*
X19509761Y-14192978D01*
X19509501Y-14193451D01*
X19509158Y-14193868D01*
X19504675Y-14202229D01*
X19500105Y-14210542D01*
X19499942Y-14211057D01*
X19499686Y-14211533D01*
X19496913Y-14220603D01*
X19494044Y-14229647D01*
X19493984Y-14230185D01*
X19493826Y-14230701D01*
X19492868Y-14240131D01*
X19491952Y-14248300D01*
X19368489Y-14248300D01*
X19358147Y-14248228D01*
X19338363Y-14252002D01*
X19319689Y-14259546D01*
X19302836Y-14270575D01*
X19288447Y-14284666D01*
X19277068Y-14301284D01*
X19269134Y-14319796D01*
X19267605Y-14326988D01*
X19263349Y-14312528D01*
X19254063Y-14294765D01*
X19243200Y-14281254D01*
X19243200Y-14239540D01*
X19440120Y-14042620D01*
X19446142Y-14035288D01*
X19452239Y-14028022D01*
X19452500Y-14027548D01*
X19452842Y-14027131D01*
X19457324Y-14018773D01*
X19461895Y-14010458D01*
X19462059Y-14009943D01*
X19462314Y-14009467D01*
X19465086Y-14000398D01*
X19467956Y-13991352D01*
X19468016Y-13990815D01*
X19468174Y-13990299D01*
X19469132Y-13980865D01*
X19469467Y-13977875D01*
X19498458Y-13977875D01*
X19502359Y-14001728D01*
X19510838Y-14024362D01*
X19514819Y-14031810D01*
X19535174Y-14038366D01*
X19603540Y-13970000D01*
X19535174Y-13901634D01*
X19514819Y-13908190D01*
X19504810Y-13930190D01*
X19499286Y-13953720D01*
X19498458Y-13977875D01*
X19469467Y-13977875D01*
X19470190Y-13971434D01*
X19470197Y-13970379D01*
X19470199Y-13970358D01*
X19470198Y-13970340D01*
X19470200Y-13970000D01*
X19470200Y-13883674D01*
X19553134Y-13883674D01*
X19621500Y-13952039D01*
X19689866Y-13883674D01*
X19683310Y-13863319D01*
X19661310Y-13853310D01*
X19637780Y-13847786D01*
X19613625Y-13846958D01*
X19589772Y-13850859D01*
X19567138Y-13859338D01*
X19559690Y-13863319D01*
X19553134Y-13883674D01*
X19470200Y-13883674D01*
X19470200Y-13738826D01*
X19553134Y-13738826D01*
X19559690Y-13759181D01*
X19581690Y-13769190D01*
X19605220Y-13774714D01*
X19629376Y-13775542D01*
X19653229Y-13771641D01*
X19675862Y-13763162D01*
X19683310Y-13759181D01*
X19689866Y-13738826D01*
X19621500Y-13670460D01*
X19553134Y-13738826D01*
X19470200Y-13738826D01*
X19470200Y-13660375D01*
X19498458Y-13660375D01*
X19502359Y-13684228D01*
X19510838Y-13706862D01*
X19514819Y-13714310D01*
X19535174Y-13720866D01*
X19603540Y-13652500D01*
X19535174Y-13584134D01*
X19514819Y-13590690D01*
X19504810Y-13612690D01*
X19499286Y-13636220D01*
X19498458Y-13660375D01*
X19470200Y-13660375D01*
X19470200Y-13566174D01*
X19553134Y-13566174D01*
X19621500Y-13634539D01*
X19689866Y-13566174D01*
X19683310Y-13545819D01*
X19661310Y-13535810D01*
X19637780Y-13530286D01*
X19613625Y-13529458D01*
X19589772Y-13533359D01*
X19567138Y-13541838D01*
X19559690Y-13545819D01*
X19553134Y-13566174D01*
X19470200Y-13566174D01*
X19470200Y-12663545D01*
X19537599Y-12663545D01*
X19547469Y-12681300D01*
X19722506Y-12681300D01*
X19721931Y-12702173D01*
X19722703Y-12706700D01*
X19547469Y-12706700D01*
X19537599Y-12724455D01*
X19545859Y-12747442D01*
X19558261Y-12766478D01*
X19574139Y-12782729D01*
X19592882Y-12795571D01*
X19613770Y-12804509D01*
X19636000Y-12809200D01*
X19723500Y-12809200D01*
X19723500Y-12711375D01*
X19725745Y-12724543D01*
X19733849Y-12745739D01*
X19736851Y-12751355D01*
X19748900Y-12754826D01*
X19748900Y-12764539D01*
X19746610Y-12766829D01*
X19748900Y-12769119D01*
X19748900Y-12809200D01*
X19835814Y-12809200D01*
X19845573Y-12809469D01*
X19867943Y-12805655D01*
X19889139Y-12797551D01*
X19894755Y-12794549D01*
X19898135Y-12782816D01*
X19898261Y-12782729D01*
X19914139Y-12766478D01*
X19920767Y-12756305D01*
X19937949Y-12751355D01*
X19947207Y-12730637D01*
X19952244Y-12708511D01*
X19952869Y-12685827D01*
X19949055Y-12663457D01*
X19940951Y-12642261D01*
X19937949Y-12636645D01*
X19920767Y-12631695D01*
X19914139Y-12621522D01*
X19898261Y-12605270D01*
X19898135Y-12605184D01*
X19894755Y-12593451D01*
X19874037Y-12584193D01*
X19851911Y-12579156D01*
X19829227Y-12578531D01*
X19827651Y-12578800D01*
X19748900Y-12578800D01*
X19748900Y-12618881D01*
X19746610Y-12621171D01*
X19748900Y-12623461D01*
X19748900Y-12633174D01*
X19736851Y-12636645D01*
X19727593Y-12657363D01*
X19723500Y-12675342D01*
X19723500Y-12578800D01*
X19636000Y-12578800D01*
X19613770Y-12583491D01*
X19592882Y-12592429D01*
X19574139Y-12605270D01*
X19558261Y-12621522D01*
X19545859Y-12640558D01*
X19537599Y-12663545D01*
X19470200Y-12663545D01*
X19470200Y-12463004D01*
X20152844Y-12463004D01*
X20155368Y-12490739D01*
X20163231Y-12517456D01*
X20176134Y-12542137D01*
X20193585Y-12563842D01*
X20214919Y-12581744D01*
X20239325Y-12595161D01*
X20265871Y-12603582D01*
X20284539Y-12605676D01*
X20285673Y-12606035D01*
X20318199Y-12609684D01*
X20320540Y-12609700D01*
X20342260Y-12609700D01*
X20374833Y-12606506D01*
X20377525Y-12605693D01*
X20394977Y-12603982D01*
X20421639Y-12595933D01*
X20446229Y-12582858D01*
X20467811Y-12565256D01*
X20485564Y-12543797D01*
X20498810Y-12519298D01*
X20507045Y-12492694D01*
X20509956Y-12464996D01*
X20508892Y-12453296D01*
X20509956Y-12443171D01*
X20506989Y-12410576D01*
X20497749Y-12379178D01*
X20482585Y-12350174D01*
X20462077Y-12324666D01*
X20437005Y-12303628D01*
X20408324Y-12287861D01*
X20377127Y-12277965D01*
X20344601Y-12274316D01*
X20342260Y-12274300D01*
X20320540Y-12274300D01*
X20287967Y-12277494D01*
X20256635Y-12286954D01*
X20227736Y-12302319D01*
X20202373Y-12323005D01*
X20181511Y-12348223D01*
X20165944Y-12377014D01*
X20156265Y-12408279D01*
X20152844Y-12440829D01*
X20153926Y-12452710D01*
X20152844Y-12463004D01*
X19470200Y-12463004D01*
X19470200Y-11943703D01*
X19509047Y-11943703D01*
X19515869Y-11980872D01*
X19529780Y-12016009D01*
X19550252Y-12047774D01*
X19576503Y-12074958D01*
X19607535Y-12096526D01*
X19642164Y-12111655D01*
X19679073Y-12119770D01*
X19716855Y-12120562D01*
X19754072Y-12113999D01*
X19789305Y-12100333D01*
X19821212Y-12080084D01*
X19848579Y-12054023D01*
X19870362Y-12023143D01*
X19885733Y-11988620D01*
X19894106Y-11951769D01*
X19894708Y-11908605D01*
X19887368Y-11871534D01*
X19872967Y-11836595D01*
X19852054Y-11805119D01*
X19825426Y-11778304D01*
X19794096Y-11757171D01*
X19759259Y-11742527D01*
X19722240Y-11734928D01*
X19684451Y-11734664D01*
X19647330Y-11741746D01*
X19612291Y-11755902D01*
X19580669Y-11776595D01*
X19553669Y-11803035D01*
X19532319Y-11834217D01*
X19517431Y-11868951D01*
X19509574Y-11905916D01*
X19509047Y-11943703D01*
X19470200Y-11943703D01*
X19470200Y-11736850D01*
X19476964Y-11734859D01*
X19498186Y-11723765D01*
X19516849Y-11708759D01*
X19532241Y-11690415D01*
X19543778Y-11669430D01*
X19551019Y-11646604D01*
X19553688Y-11622807D01*
X19553700Y-11621094D01*
X19553700Y-11619906D01*
X19551363Y-11596074D01*
X19544442Y-11573149D01*
X19533199Y-11552005D01*
X19518064Y-11533448D01*
X19499613Y-11518183D01*
X19478548Y-11506794D01*
X19455672Y-11499712D01*
X19431857Y-11497209D01*
X19408008Y-11499380D01*
X19385036Y-11506141D01*
X19363814Y-11517235D01*
X19353926Y-11525186D01*
X19043112Y-11214372D01*
X19041032Y-11203864D01*
X19031862Y-11181617D01*
X19018546Y-11161575D01*
X19001590Y-11144501D01*
X18981642Y-11131045D01*
X18959459Y-11121720D01*
X18935888Y-11116882D01*
X18911826Y-11116714D01*
X18888189Y-11121223D01*
X18865879Y-11130237D01*
X18855849Y-11136800D01*
X18775040Y-11136800D01*
X18710066Y-11071826D01*
X18854634Y-11071826D01*
X18861190Y-11092181D01*
X18883190Y-11102190D01*
X18906720Y-11107714D01*
X18930876Y-11108542D01*
X18954729Y-11104641D01*
X18977362Y-11096162D01*
X18984810Y-11092181D01*
X18991366Y-11071826D01*
X18923000Y-11003461D01*
X18854634Y-11071826D01*
X18710066Y-11071826D01*
X18631615Y-10993376D01*
X18799958Y-10993376D01*
X18803859Y-11017229D01*
X18812338Y-11039862D01*
X18816319Y-11047310D01*
X18836674Y-11053866D01*
X18905040Y-10985500D01*
X18836674Y-10917134D01*
X18816319Y-10923690D01*
X18806310Y-10945690D01*
X18800786Y-10969220D01*
X18799958Y-10993376D01*
X18631615Y-10993376D01*
X18598612Y-10960372D01*
X18596532Y-10949864D01*
X18587362Y-10927617D01*
X18574046Y-10907575D01*
X18557090Y-10890501D01*
X18537142Y-10877045D01*
X18514959Y-10867720D01*
X18491388Y-10862882D01*
X18467326Y-10862714D01*
X18443689Y-10867223D01*
X18421379Y-10876237D01*
X18401244Y-10889413D01*
X18384052Y-10906248D01*
X18370457Y-10926103D01*
X18360978Y-10948220D01*
X18355975Y-10971757D01*
X18355639Y-10995817D01*
X18359983Y-11019484D01*
X18368841Y-11041857D01*
X18381876Y-11062084D01*
X18398591Y-11079393D01*
X18418350Y-11093126D01*
X18440400Y-11102759D01*
X18453371Y-11105611D01*
X18659880Y-11312120D01*
X18667211Y-11318141D01*
X18674478Y-11324239D01*
X18674951Y-11324499D01*
X18675368Y-11324842D01*
X18683731Y-11329326D01*
X18692042Y-11333895D01*
X18692557Y-11334058D01*
X18693033Y-11334314D01*
X18702103Y-11337087D01*
X18711148Y-11339956D01*
X18711685Y-11340016D01*
X18712201Y-11340174D01*
X18721631Y-11341132D01*
X18731066Y-11342190D01*
X18732123Y-11342197D01*
X18732142Y-11342199D01*
X18732159Y-11342198D01*
X18732500Y-11342200D01*
X18855763Y-11342200D01*
X18862850Y-11347126D01*
X18884900Y-11356759D01*
X18897871Y-11359611D01*
X18909431Y-11371170D01*
X18888189Y-11375223D01*
X18865879Y-11384237D01*
X18855849Y-11390800D01*
X18732500Y-11390800D01*
X18723058Y-11391726D01*
X18713608Y-11392552D01*
X18713089Y-11392703D01*
X18712552Y-11392756D01*
X18703468Y-11395499D01*
X18694361Y-11398145D01*
X18693882Y-11398393D01*
X18693364Y-11398549D01*
X18684984Y-11403005D01*
X18676566Y-11407369D01*
X18676144Y-11407705D01*
X18675667Y-11407959D01*
X18668317Y-11413953D01*
X18660901Y-11419873D01*
X18660149Y-11420615D01*
X18660134Y-11420627D01*
X18660122Y-11420641D01*
X18659880Y-11420880D01*
X18600642Y-11480119D01*
X18597641Y-11461771D01*
X18589162Y-11439138D01*
X18585181Y-11431690D01*
X18564826Y-11425134D01*
X18496461Y-11493500D01*
X18497875Y-11494914D01*
X18479914Y-11512875D01*
X18478500Y-11511460D01*
X18410134Y-11579826D01*
X18416690Y-11600181D01*
X18438690Y-11610190D01*
X18462220Y-11615714D01*
X18464953Y-11615808D01*
X18405880Y-11674880D01*
X18399858Y-11682212D01*
X18393761Y-11689478D01*
X18393501Y-11689951D01*
X18393158Y-11690368D01*
X18388675Y-11698729D01*
X18384105Y-11707042D01*
X18383942Y-11707557D01*
X18383686Y-11708033D01*
X18380913Y-11717103D01*
X18378044Y-11726147D01*
X18377984Y-11726685D01*
X18377826Y-11727201D01*
X18376868Y-11736631D01*
X18375810Y-11746066D01*
X18375803Y-11747122D01*
X18375801Y-11747141D01*
X18375802Y-11747159D01*
X18375800Y-11747500D01*
X18375800Y-12124799D01*
X18370457Y-12132603D01*
X18360978Y-12154720D01*
X18358396Y-12166864D01*
X18308960Y-12216300D01*
X18101174Y-12216300D01*
X18092642Y-12210545D01*
X18070459Y-12201220D01*
X18046888Y-12196382D01*
X18022826Y-12196214D01*
X18015437Y-12197623D01*
X18001133Y-12183320D01*
X18017720Y-12187214D01*
X18041876Y-12188042D01*
X18065729Y-12184141D01*
X18088362Y-12175662D01*
X18095810Y-12171681D01*
X18102366Y-12151326D01*
X18034000Y-12082960D01*
X17965634Y-12151326D01*
X17967615Y-12157477D01*
X17967438Y-12157383D01*
X17961009Y-12155417D01*
X17954615Y-12153389D01*
X17954236Y-12153346D01*
X17953870Y-12153234D01*
X17947181Y-12152555D01*
X17940515Y-12151807D01*
X17939768Y-12151802D01*
X17939754Y-12151800D01*
X17939740Y-12151802D01*
X17939500Y-12151800D01*
X17794721Y-12151800D01*
X17795940Y-12150805D01*
X17801184Y-12146619D01*
X17801716Y-12146094D01*
X17801727Y-12146086D01*
X17801735Y-12146076D01*
X17801907Y-12145907D01*
X17915680Y-12032133D01*
X17911786Y-12048720D01*
X17910958Y-12072875D01*
X17914859Y-12096728D01*
X17923338Y-12119362D01*
X17927319Y-12126810D01*
X17947674Y-12133366D01*
X18016040Y-12065000D01*
X18051961Y-12065000D01*
X18120326Y-12133366D01*
X18140681Y-12126810D01*
X18150690Y-12104810D01*
X18156214Y-12081280D01*
X18157042Y-12057124D01*
X18153141Y-12033271D01*
X18144662Y-12010638D01*
X18140681Y-12003190D01*
X18120326Y-11996634D01*
X18051961Y-12065000D01*
X18016040Y-12065000D01*
X18014625Y-12063586D01*
X18032586Y-12045625D01*
X18034000Y-12047039D01*
X18102366Y-11978674D01*
X18095810Y-11958319D01*
X18073810Y-11948310D01*
X18050280Y-11942786D01*
X18026125Y-11941958D01*
X18002272Y-11945859D01*
X18001765Y-11946049D01*
X18015291Y-11932523D01*
X18019402Y-11933426D01*
X18043459Y-11933930D01*
X18067156Y-11929752D01*
X18089590Y-11921050D01*
X18109907Y-11908157D01*
X18127333Y-11891563D01*
X18141203Y-11871900D01*
X18150990Y-11849917D01*
X18156322Y-11826453D01*
X18156705Y-11798969D01*
X18152032Y-11775364D01*
X18142862Y-11753117D01*
X18129546Y-11733075D01*
X18112590Y-11716001D01*
X18092642Y-11702545D01*
X18070459Y-11693220D01*
X18046888Y-11688382D01*
X18022826Y-11688214D01*
X18001539Y-11692274D01*
X18015291Y-11678523D01*
X18019402Y-11679426D01*
X18043459Y-11679930D01*
X18067156Y-11675752D01*
X18089590Y-11667050D01*
X18109907Y-11654157D01*
X18127333Y-11637563D01*
X18141203Y-11617900D01*
X18150990Y-11595917D01*
X18156322Y-11572453D01*
X18156705Y-11544969D01*
X18152032Y-11521364D01*
X18143793Y-11501375D01*
X18355458Y-11501375D01*
X18359359Y-11525228D01*
X18367838Y-11547862D01*
X18371819Y-11555310D01*
X18392174Y-11561866D01*
X18460540Y-11493500D01*
X18392174Y-11425134D01*
X18371819Y-11431690D01*
X18361810Y-11453690D01*
X18356286Y-11477220D01*
X18355458Y-11501375D01*
X18143793Y-11501375D01*
X18142862Y-11499117D01*
X18129546Y-11479075D01*
X18112590Y-11462001D01*
X18092642Y-11448545D01*
X18070459Y-11439220D01*
X18046888Y-11434382D01*
X18022826Y-11434214D01*
X18001539Y-11438274D01*
X18015291Y-11424523D01*
X18019402Y-11425426D01*
X18043459Y-11425930D01*
X18067156Y-11421752D01*
X18089590Y-11413050D01*
X18098850Y-11407174D01*
X18410134Y-11407174D01*
X18478500Y-11475539D01*
X18546866Y-11407174D01*
X18540310Y-11386819D01*
X18518310Y-11376810D01*
X18494780Y-11371286D01*
X18470625Y-11370458D01*
X18446772Y-11374359D01*
X18424138Y-11382838D01*
X18416690Y-11386819D01*
X18410134Y-11407174D01*
X18098850Y-11407174D01*
X18109907Y-11400157D01*
X18127333Y-11383563D01*
X18141203Y-11363900D01*
X18150990Y-11341917D01*
X18156322Y-11318453D01*
X18156705Y-11290969D01*
X18152032Y-11267364D01*
X18142862Y-11245117D01*
X18129546Y-11225075D01*
X18112590Y-11208001D01*
X18092642Y-11194545D01*
X18070459Y-11185220D01*
X18046888Y-11180382D01*
X18022826Y-11180214D01*
X18001539Y-11184274D01*
X18015291Y-11170523D01*
X18019402Y-11171426D01*
X18043459Y-11171930D01*
X18067156Y-11167752D01*
X18089590Y-11159050D01*
X18101173Y-11151700D01*
X18161000Y-11151700D01*
X18170443Y-11150774D01*
X18179892Y-11149948D01*
X18180411Y-11149797D01*
X18180948Y-11149744D01*
X18190029Y-11147003D01*
X18199140Y-11144356D01*
X18199619Y-11144107D01*
X18200136Y-11143951D01*
X18208508Y-11139499D01*
X18216935Y-11135132D01*
X18217357Y-11134794D01*
X18217833Y-11134541D01*
X18225180Y-11128549D01*
X18232599Y-11122627D01*
X18233351Y-11121885D01*
X18233366Y-11121873D01*
X18233377Y-11121859D01*
X18233620Y-11121620D01*
X18297120Y-11058120D01*
X18303142Y-11050788D01*
X18309239Y-11043522D01*
X18309499Y-11043049D01*
X18309842Y-11042632D01*
X18314326Y-11034269D01*
X18318895Y-11025958D01*
X18319059Y-11025443D01*
X18319314Y-11024967D01*
X18322088Y-11015894D01*
X18324956Y-11006853D01*
X18325016Y-11006316D01*
X18325174Y-11005799D01*
X18326133Y-10996360D01*
X18327190Y-10986934D01*
X18327197Y-10985879D01*
X18327199Y-10985859D01*
X18327198Y-10985840D01*
X18327200Y-10985500D01*
X18327200Y-10901040D01*
X18394040Y-10834200D01*
X18943960Y-10834200D01*
X19000150Y-10890390D01*
X18991366Y-10899173D01*
X18984810Y-10878819D01*
X18962810Y-10868810D01*
X18939280Y-10863286D01*
X18915125Y-10862458D01*
X18891272Y-10866359D01*
X18868638Y-10874838D01*
X18861190Y-10878819D01*
X18854634Y-10899174D01*
X18923000Y-10967540D01*
X18924414Y-10966125D01*
X18942375Y-10984086D01*
X18940961Y-10985500D01*
X19009326Y-11053866D01*
X19010800Y-11053391D01*
X19010800Y-11112500D01*
X19011726Y-11121943D01*
X19012553Y-11131392D01*
X19012703Y-11131911D01*
X19012756Y-11132448D01*
X19015498Y-11141529D01*
X19018145Y-11150640D01*
X19018393Y-11151119D01*
X19018549Y-11151636D01*
X19023001Y-11160008D01*
X19027369Y-11168435D01*
X19027706Y-11168857D01*
X19027959Y-11169333D01*
X19033951Y-11176680D01*
X19039873Y-11184099D01*
X19040615Y-11184851D01*
X19040627Y-11184866D01*
X19040641Y-11184877D01*
X19040880Y-11185120D01*
X19298880Y-11443120D01*
X19306212Y-11449142D01*
X19313478Y-11455239D01*
X19313952Y-11455499D01*
X19314369Y-11455842D01*
X19322729Y-11460325D01*
X19331042Y-11464895D01*
X19331557Y-11465058D01*
X19332033Y-11465314D01*
X19341103Y-11468087D01*
X19350148Y-11470956D01*
X19350685Y-11471016D01*
X19351201Y-11471174D01*
X19360631Y-11472132D01*
X19361705Y-11472252D01*
X19362387Y-11472817D01*
X19383452Y-11484206D01*
X19406328Y-11491288D01*
X19430143Y-11493791D01*
X19453992Y-11491620D01*
X19476964Y-11484859D01*
X19498186Y-11473765D01*
X19516849Y-11458759D01*
X19532241Y-11440415D01*
X19543778Y-11419430D01*
X19551019Y-11396604D01*
X19553688Y-11372807D01*
X19553700Y-11371094D01*
X19553700Y-11369906D01*
X19551363Y-11346074D01*
X19544442Y-11323149D01*
X19533199Y-11302005D01*
X19518064Y-11283448D01*
X19502331Y-11270432D01*
X19516849Y-11258759D01*
X19532241Y-11240415D01*
X19543778Y-11219430D01*
X19551019Y-11196604D01*
X19553688Y-11172807D01*
X19553700Y-11171094D01*
X19553700Y-11169906D01*
X19551363Y-11146074D01*
X19544442Y-11123149D01*
X19533199Y-11102005D01*
X19518064Y-11083448D01*
X19499613Y-11068183D01*
X19478548Y-11056794D01*
X19455672Y-11049712D01*
X19449280Y-11049041D01*
X19443440Y-11043200D01*
X19443700Y-11043200D01*
X19443700Y-11029286D01*
X19462635Y-11039052D01*
X19470561Y-11036648D01*
X19492460Y-11026699D01*
X19511997Y-11012668D01*
X19528422Y-10995095D01*
X19541103Y-10974656D01*
X19549552Y-10952135D01*
X19539867Y-10933200D01*
X19443700Y-10933200D01*
X19443700Y-10935200D01*
X19418300Y-10935200D01*
X19418300Y-10933200D01*
X19416300Y-10933200D01*
X19416300Y-10907800D01*
X19418300Y-10907800D01*
X19418300Y-10811714D01*
X19443700Y-10811714D01*
X19443700Y-10907800D01*
X19539867Y-10907800D01*
X19549552Y-10888865D01*
X19541103Y-10866344D01*
X19528422Y-10845905D01*
X19511997Y-10828332D01*
X19492460Y-10814301D01*
X19470561Y-10804352D01*
X19462635Y-10801948D01*
X19443700Y-10811714D01*
X19418300Y-10811714D01*
X19399365Y-10801948D01*
X19391440Y-10804352D01*
X19369540Y-10814301D01*
X19350003Y-10828332D01*
X19343200Y-10835611D01*
X19343200Y-10668000D01*
X19342274Y-10658558D01*
X19341448Y-10649108D01*
X19341297Y-10648589D01*
X19341244Y-10648052D01*
X19338503Y-10638973D01*
X19335856Y-10629861D01*
X19335774Y-10629703D01*
X19509047Y-10629703D01*
X19515869Y-10666872D01*
X19529780Y-10702009D01*
X19550252Y-10733774D01*
X19576503Y-10760959D01*
X19607535Y-10782526D01*
X19642164Y-10797655D01*
X19679073Y-10805770D01*
X19716855Y-10806562D01*
X19754072Y-10800000D01*
X19789305Y-10786334D01*
X19821212Y-10766084D01*
X19848579Y-10740023D01*
X19870362Y-10709143D01*
X19885733Y-10674620D01*
X19894106Y-10637769D01*
X19894708Y-10594605D01*
X19887368Y-10557534D01*
X19872967Y-10522595D01*
X19852054Y-10491119D01*
X19825426Y-10464304D01*
X19794096Y-10443172D01*
X19759259Y-10428527D01*
X19722240Y-10420928D01*
X19684451Y-10420665D01*
X19647330Y-10427746D01*
X19612291Y-10441902D01*
X19580669Y-10462595D01*
X19553669Y-10489036D01*
X19532319Y-10520217D01*
X19517431Y-10554951D01*
X19509574Y-10591916D01*
X19509047Y-10629703D01*
X19335774Y-10629703D01*
X19335607Y-10629381D01*
X19335451Y-10628864D01*
X19330999Y-10620492D01*
X19326632Y-10612066D01*
X19326294Y-10611643D01*
X19326041Y-10611167D01*
X19320049Y-10603820D01*
X19314127Y-10596401D01*
X19313385Y-10595649D01*
X19313373Y-10595634D01*
X19313359Y-10595623D01*
X19313120Y-10595380D01*
X19186120Y-10468380D01*
X19178788Y-10462358D01*
X19171522Y-10456261D01*
X19171049Y-10456001D01*
X19170632Y-10455658D01*
X19162271Y-10451175D01*
X19153958Y-10446605D01*
X19153443Y-10446442D01*
X19152967Y-10446186D01*
X19143897Y-10443413D01*
X19134853Y-10440544D01*
X19134315Y-10440484D01*
X19133799Y-10440326D01*
X19124369Y-10439368D01*
X19114934Y-10438310D01*
X19113878Y-10438303D01*
X19113859Y-10438301D01*
X19113841Y-10438302D01*
X19113500Y-10438300D01*
X18101174Y-10438300D01*
X18092642Y-10432545D01*
X18070459Y-10423220D01*
X18046888Y-10418382D01*
X18022826Y-10418214D01*
X17999189Y-10422723D01*
X17976879Y-10431737D01*
X17956744Y-10444913D01*
X17939552Y-10461748D01*
X17925957Y-10481603D01*
X17916478Y-10503720D01*
X17911475Y-10527257D01*
X17911139Y-10551317D01*
X17912648Y-10559539D01*
X17538093Y-10934093D01*
X17533832Y-10939281D01*
X17529514Y-10944427D01*
X17529330Y-10944762D01*
X17529088Y-10945057D01*
X17525915Y-10950974D01*
X17522679Y-10956860D01*
X17522563Y-10957225D01*
X17522383Y-10957562D01*
X17520417Y-10963991D01*
X17518389Y-10970385D01*
X17518346Y-10970764D01*
X17518234Y-10971130D01*
X17517555Y-10977819D01*
X17516807Y-10984485D01*
X17516802Y-10985232D01*
X17516800Y-10985246D01*
X17516802Y-10985260D01*
X17516800Y-10985500D01*
X17516800Y-11449137D01*
X17269137Y-11696800D01*
X17130794Y-11696800D01*
X17129000Y-11696545D01*
X16989000Y-11696545D01*
X16980608Y-11697214D01*
X16966374Y-11701622D01*
X16953931Y-11709821D01*
X16944265Y-11721162D01*
X16938142Y-11734747D01*
X16936045Y-11749500D01*
X16936045Y-11789500D01*
X16936714Y-11797892D01*
X16937873Y-11801635D01*
X16936045Y-11814500D01*
X16936045Y-11854500D01*
X16936714Y-11862892D01*
X16937873Y-11866635D01*
X16936045Y-11879500D01*
X16936045Y-11919500D01*
X16936714Y-11927892D01*
X16937873Y-11931635D01*
X16936045Y-11944500D01*
X16936045Y-11984500D01*
X16936714Y-11992892D01*
X16937873Y-11996635D01*
X16936045Y-12009500D01*
X16936045Y-12049500D01*
X16936714Y-12057892D01*
X16937873Y-12061635D01*
X16936045Y-12074500D01*
X16936045Y-12114500D01*
X16936714Y-12122892D01*
X16937845Y-12126543D01*
X16936300Y-12134309D01*
X16936300Y-12136325D01*
X16948892Y-12148917D01*
X16949322Y-12149569D01*
X16960662Y-12159235D01*
X16961700Y-12159702D01*
X16953931Y-12164821D01*
X16949944Y-12169500D01*
X16949475Y-12169500D01*
X16936300Y-12182675D01*
X16936300Y-12184690D01*
X16937793Y-12192198D01*
X16936045Y-12204500D01*
X16936045Y-12244500D01*
X16936714Y-12252892D01*
X16937873Y-12256635D01*
X16936045Y-12269500D01*
X16936045Y-12309500D01*
X16936714Y-12317892D01*
X16937873Y-12321635D01*
X16936045Y-12334500D01*
X16936045Y-12374500D01*
X16936714Y-12382892D01*
X16937873Y-12386635D01*
X16936045Y-12399500D01*
X16936045Y-12439500D01*
X16936714Y-12447892D01*
X16937873Y-12451635D01*
X16936045Y-12464500D01*
X16936045Y-12504500D01*
X16936714Y-12512892D01*
X16937873Y-12516635D01*
X16936045Y-12529500D01*
X16936045Y-12569500D01*
X16936714Y-12577892D01*
X16937873Y-12581635D01*
X16936045Y-12594500D01*
X16936045Y-12634500D01*
X16936714Y-12642892D01*
X16941122Y-12657126D01*
X16949322Y-12669569D01*
X16960662Y-12679235D01*
X16974247Y-12685358D01*
X16989000Y-12687455D01*
X17129000Y-12687455D01*
X17132197Y-12687200D01*
X17270637Y-12687200D01*
X17516800Y-12933363D01*
X17516800Y-13398500D01*
X17517455Y-13405182D01*
X17518041Y-13411873D01*
X17518147Y-13412241D01*
X17518185Y-13412621D01*
X17520125Y-13419048D01*
X17521999Y-13425498D01*
X17522175Y-13425838D01*
X17522286Y-13426204D01*
X17525441Y-13432139D01*
X17528529Y-13438095D01*
X17528767Y-13438393D01*
X17528947Y-13438732D01*
X17533195Y-13443940D01*
X17537381Y-13449184D01*
X17537906Y-13449716D01*
X17537914Y-13449727D01*
X17537924Y-13449735D01*
X17538093Y-13449907D01*
X17912521Y-13824334D01*
X17911475Y-13829257D01*
X17911139Y-13853317D01*
X17915483Y-13876984D01*
X17924341Y-13899357D01*
X17937376Y-13919584D01*
X17954091Y-13936893D01*
X17973850Y-13950626D01*
X17995900Y-13960259D01*
X18019402Y-13965426D01*
X18043459Y-13965930D01*
X18067156Y-13961752D01*
X18089590Y-13953050D01*
X18109907Y-13940157D01*
X18127333Y-13923563D01*
X18141203Y-13903900D01*
X18150990Y-13881917D01*
X18156322Y-13858453D01*
X18156705Y-13830969D01*
X18152032Y-13807364D01*
X18142862Y-13785117D01*
X18129546Y-13765075D01*
X18112590Y-13748001D01*
X18092642Y-13734545D01*
X18070459Y-13725220D01*
X18046888Y-13720382D01*
X18022826Y-13720214D01*
X18015437Y-13721623D01*
X18001249Y-13707435D01*
X18019402Y-13711426D01*
X18043459Y-13711930D01*
X18067156Y-13707752D01*
X18089590Y-13699050D01*
X18109907Y-13686157D01*
X18127333Y-13669563D01*
X18141203Y-13649900D01*
X18150990Y-13627917D01*
X18156322Y-13604453D01*
X18156705Y-13576969D01*
X18152032Y-13553364D01*
X18142862Y-13531117D01*
X18129546Y-13511075D01*
X18112590Y-13494001D01*
X18092642Y-13480545D01*
X18070459Y-13471220D01*
X18046888Y-13466382D01*
X18022826Y-13466214D01*
X18015437Y-13467623D01*
X18001249Y-13453435D01*
X18019402Y-13457426D01*
X18043459Y-13457930D01*
X18067156Y-13453752D01*
X18089590Y-13445050D01*
X18109907Y-13432157D01*
X18127333Y-13415563D01*
X18141203Y-13395900D01*
X18150990Y-13373917D01*
X18156322Y-13350453D01*
X18156705Y-13322969D01*
X18152032Y-13299364D01*
X18142862Y-13277117D01*
X18129546Y-13257075D01*
X18112590Y-13240001D01*
X18092642Y-13226545D01*
X18070459Y-13217220D01*
X18046888Y-13212382D01*
X18022826Y-13212214D01*
X18015437Y-13213623D01*
X18001249Y-13199435D01*
X18019402Y-13203426D01*
X18043459Y-13203930D01*
X18067156Y-13199752D01*
X18089590Y-13191050D01*
X18109907Y-13178157D01*
X18127333Y-13161563D01*
X18141203Y-13141900D01*
X18150990Y-13119917D01*
X18156322Y-13096453D01*
X18156705Y-13068969D01*
X18152032Y-13045364D01*
X18142862Y-13023117D01*
X18129546Y-13003075D01*
X18112590Y-12986001D01*
X18092642Y-12972545D01*
X18070459Y-12963220D01*
X18046888Y-12958382D01*
X18022826Y-12958214D01*
X18015437Y-12959623D01*
X18001249Y-12945435D01*
X18019402Y-12949426D01*
X18043459Y-12949930D01*
X18067156Y-12945752D01*
X18089590Y-12937050D01*
X18101173Y-12929700D01*
X18118460Y-12929700D01*
X18185300Y-12996540D01*
X18185300Y-13751500D01*
X18186226Y-13760943D01*
X18187053Y-13770392D01*
X18187203Y-13770911D01*
X18187256Y-13771448D01*
X18189998Y-13780529D01*
X18192645Y-13789639D01*
X18192893Y-13790119D01*
X18193049Y-13790636D01*
X18197501Y-13799008D01*
X18201869Y-13807434D01*
X18202206Y-13807857D01*
X18202459Y-13808333D01*
X18208451Y-13815680D01*
X18214373Y-13823099D01*
X18215115Y-13823851D01*
X18215127Y-13823866D01*
X18215141Y-13823877D01*
X18215380Y-13824120D01*
X18249900Y-13858640D01*
X18249900Y-14058900D01*
X18250147Y-14061391D01*
X18262847Y-14124891D01*
X18264733Y-14129445D01*
X18290133Y-14167545D01*
X18291720Y-14169480D01*
X18342520Y-14220280D01*
X18344455Y-14221867D01*
X18382555Y-14247267D01*
X18386520Y-14249021D01*
X18437320Y-14261721D01*
X18440400Y-14262100D01*
X18516600Y-14262100D01*
X18519680Y-14261721D01*
X18570480Y-14249021D01*
X18574445Y-14247267D01*
X18612545Y-14221867D01*
X18614480Y-14220280D01*
X18652580Y-14182180D01*
X18654167Y-14180245D01*
X18679567Y-14142145D01*
X18680792Y-14139817D01*
X18706192Y-14076317D01*
X18706888Y-14072700D01*
X19046263Y-14072700D01*
X19053350Y-14077626D01*
X19075400Y-14087259D01*
X19098902Y-14092426D01*
X19099815Y-14092445D01*
X19067880Y-14124380D01*
X19061858Y-14131712D01*
X19055761Y-14138978D01*
X19055501Y-14139451D01*
X19055158Y-14139868D01*
X19050675Y-14148229D01*
X19046105Y-14156542D01*
X19045942Y-14157057D01*
X19045686Y-14157533D01*
X19042913Y-14166603D01*
X19040044Y-14175647D01*
X19039984Y-14176185D01*
X19039826Y-14176701D01*
X19038868Y-14186131D01*
X19037810Y-14195566D01*
X19037803Y-14196622D01*
X19037801Y-14196641D01*
X19037802Y-14196659D01*
X19037800Y-14197000D01*
X19037800Y-14278842D01*
X19032451Y-14261125D01*
X19023041Y-14243428D01*
X19010373Y-14227895D01*
X18994929Y-14215119D01*
X18977298Y-14205586D01*
X18958151Y-14199659D01*
X18938217Y-14197564D01*
X18918256Y-14199380D01*
X18899028Y-14205039D01*
X18881265Y-14214325D01*
X18865645Y-14226885D01*
X18852761Y-14242239D01*
X18843105Y-14259803D01*
X18837044Y-14278909D01*
X18834810Y-14298827D01*
X18834800Y-14300261D01*
X18834800Y-14401739D01*
X18836756Y-14421687D01*
X18842549Y-14440875D01*
X18851959Y-14458572D01*
X18864627Y-14474105D01*
X18880071Y-14486881D01*
X18897702Y-14496414D01*
X18916716Y-14502300D01*
X13735845Y-14502300D01*
X13803414Y-14490386D01*
X13873386Y-14463245D01*
X13936754Y-14423031D01*
X13991104Y-14371274D01*
X14034366Y-14309946D01*
X14064892Y-14241383D01*
X14081519Y-14168197D01*
X14082716Y-14082474D01*
X14068139Y-14008852D01*
X14039539Y-13939464D01*
X13998006Y-13876952D01*
X13945122Y-13823698D01*
X13882902Y-13781730D01*
X13813715Y-13752646D01*
X13740197Y-13737555D01*
X13665147Y-13737031D01*
X13591425Y-13751094D01*
X13521839Y-13779209D01*
X13459038Y-13820304D01*
X13405416Y-13872815D01*
X13363015Y-13934741D01*
X13333449Y-14003723D01*
X13317845Y-14077134D01*
X13317700Y-14087511D01*
X13317700Y-13611826D01*
X14092134Y-13611826D01*
X14098690Y-13632181D01*
X14120690Y-13642190D01*
X14144220Y-13647714D01*
X14168375Y-13648542D01*
X14192228Y-13644641D01*
X14214862Y-13636162D01*
X14222310Y-13632181D01*
X14228866Y-13611826D01*
X14160500Y-13543460D01*
X14092134Y-13611826D01*
X13317700Y-13611826D01*
X13317700Y-13533375D01*
X14037458Y-13533375D01*
X14041359Y-13557228D01*
X14049838Y-13579862D01*
X14053819Y-13587310D01*
X14074174Y-13593866D01*
X14142539Y-13525500D01*
X14178460Y-13525500D01*
X14246826Y-13593866D01*
X14267181Y-13587310D01*
X14277190Y-13565310D01*
X14282714Y-13541780D01*
X14282918Y-13535817D01*
X14291639Y-13535817D01*
X14295982Y-13559484D01*
X14304841Y-13581857D01*
X14317875Y-13602084D01*
X14334591Y-13619393D01*
X14354350Y-13633126D01*
X14376400Y-13642759D01*
X14399901Y-13647926D01*
X14423959Y-13648430D01*
X14447656Y-13644252D01*
X14470090Y-13635550D01*
X14490407Y-13622657D01*
X14507833Y-13606063D01*
X14521703Y-13586400D01*
X14531490Y-13564417D01*
X14536821Y-13540953D01*
X14537205Y-13513469D01*
X14532531Y-13489864D01*
X14523362Y-13467617D01*
X14517200Y-13458343D01*
X14517200Y-13441040D01*
X14584040Y-13374200D01*
X14728263Y-13374200D01*
X14735350Y-13379126D01*
X14757400Y-13388759D01*
X14780901Y-13393926D01*
X14804959Y-13394430D01*
X14828656Y-13390252D01*
X14851090Y-13381550D01*
X14871407Y-13368657D01*
X14888833Y-13352063D01*
X14902703Y-13332400D01*
X14912490Y-13310417D01*
X14917821Y-13286953D01*
X14918205Y-13259469D01*
X14913531Y-13235864D01*
X14904362Y-13213617D01*
X14891046Y-13193575D01*
X14874090Y-13176501D01*
X14854141Y-13163045D01*
X14831959Y-13153720D01*
X14808388Y-13148882D01*
X14784326Y-13148714D01*
X14760689Y-13153223D01*
X14738378Y-13162237D01*
X14728349Y-13168800D01*
X14541500Y-13168800D01*
X14532058Y-13169726D01*
X14522608Y-13170552D01*
X14522089Y-13170703D01*
X14521552Y-13170756D01*
X14512472Y-13173497D01*
X14503360Y-13176144D01*
X14502881Y-13176393D01*
X14502364Y-13176549D01*
X14493992Y-13181001D01*
X14485565Y-13185368D01*
X14485143Y-13185706D01*
X14484667Y-13185959D01*
X14477320Y-13191951D01*
X14469901Y-13197873D01*
X14469149Y-13198615D01*
X14469134Y-13198627D01*
X14469123Y-13198641D01*
X14468880Y-13198880D01*
X14341880Y-13325880D01*
X14335858Y-13333212D01*
X14329761Y-13340478D01*
X14329500Y-13340951D01*
X14329158Y-13341368D01*
X14324675Y-13349729D01*
X14320105Y-13358042D01*
X14319942Y-13358557D01*
X14319686Y-13359033D01*
X14316913Y-13368103D01*
X14314044Y-13377147D01*
X14313984Y-13377685D01*
X14313826Y-13378201D01*
X14312868Y-13387631D01*
X14311810Y-13397066D01*
X14311803Y-13398122D01*
X14311801Y-13398141D01*
X14311802Y-13398159D01*
X14311800Y-13398500D01*
X14311800Y-13458299D01*
X14306457Y-13466103D01*
X14296978Y-13488220D01*
X14291975Y-13511757D01*
X14291639Y-13535817D01*
X14282918Y-13535817D01*
X14283542Y-13517624D01*
X14279641Y-13493771D01*
X14271162Y-13471138D01*
X14267181Y-13463690D01*
X14246826Y-13457134D01*
X14178460Y-13525500D01*
X14142539Y-13525500D01*
X14074174Y-13457134D01*
X14053819Y-13463690D01*
X14043810Y-13485690D01*
X14038286Y-13509220D01*
X14037458Y-13533375D01*
X13317700Y-13533375D01*
X13317700Y-13439174D01*
X14092134Y-13439174D01*
X14160500Y-13507539D01*
X14228866Y-13439174D01*
X14222310Y-13418819D01*
X14200310Y-13408810D01*
X14176780Y-13403286D01*
X14152624Y-13402458D01*
X14128771Y-13406359D01*
X14106138Y-13414838D01*
X14098690Y-13418819D01*
X14092134Y-13439174D01*
X13317700Y-13439174D01*
X13317700Y-12715817D01*
X13466139Y-12715817D01*
X13470482Y-12739484D01*
X13479341Y-12761857D01*
X13492375Y-12782084D01*
X13509091Y-12799393D01*
X13528850Y-12813126D01*
X13550900Y-12822759D01*
X13574401Y-12827926D01*
X13598459Y-12828430D01*
X13622156Y-12824252D01*
X13644590Y-12815550D01*
X13656172Y-12808200D01*
X14171763Y-12808200D01*
X14178850Y-12813126D01*
X14200900Y-12822759D01*
X14224401Y-12827926D01*
X14248459Y-12828430D01*
X14272156Y-12824252D01*
X14294590Y-12815550D01*
X14306172Y-12808200D01*
X14567960Y-12808200D01*
X14675350Y-12915590D01*
X14676982Y-12924484D01*
X14685841Y-12946857D01*
X14698875Y-12967084D01*
X14715591Y-12984393D01*
X14735350Y-12998126D01*
X14757400Y-13007759D01*
X14780901Y-13012926D01*
X14804959Y-13013430D01*
X14828656Y-13009252D01*
X14851090Y-13000550D01*
X14862672Y-12993200D01*
X15006960Y-12993200D01*
X15073800Y-13060040D01*
X15073800Y-13462000D01*
X15074726Y-13471443D01*
X15075552Y-13480892D01*
X15075703Y-13481411D01*
X15075756Y-13481948D01*
X15078497Y-13491029D01*
X15081144Y-13500139D01*
X15081393Y-13500619D01*
X15081549Y-13501136D01*
X15086001Y-13509508D01*
X15090368Y-13517934D01*
X15090706Y-13518357D01*
X15090959Y-13518833D01*
X15096951Y-13526180D01*
X15102873Y-13533599D01*
X15103615Y-13534351D01*
X15103627Y-13534366D01*
X15103641Y-13534377D01*
X15103880Y-13534620D01*
X15230880Y-13661620D01*
X15238214Y-13667644D01*
X15245478Y-13673739D01*
X15245951Y-13673999D01*
X15246368Y-13674342D01*
X15254731Y-13678826D01*
X15263042Y-13683395D01*
X15263557Y-13683558D01*
X15264033Y-13683814D01*
X15273103Y-13686587D01*
X15282147Y-13689456D01*
X15282685Y-13689516D01*
X15283201Y-13689674D01*
X15292631Y-13690632D01*
X15302066Y-13691690D01*
X15303122Y-13691697D01*
X15303141Y-13691699D01*
X15303159Y-13691698D01*
X15303500Y-13691700D01*
X15426763Y-13691700D01*
X15433850Y-13696626D01*
X15455900Y-13706259D01*
X15479401Y-13711426D01*
X15503459Y-13711930D01*
X15526280Y-13707906D01*
X15512627Y-13721560D01*
X15506888Y-13720382D01*
X15482826Y-13720214D01*
X15459189Y-13724723D01*
X15436878Y-13733737D01*
X15426849Y-13740300D01*
X15240000Y-13740300D01*
X15230558Y-13741226D01*
X15221108Y-13742052D01*
X15220589Y-13742203D01*
X15220052Y-13742256D01*
X15210972Y-13744997D01*
X15201860Y-13747644D01*
X15201381Y-13747893D01*
X15200864Y-13748049D01*
X15192492Y-13752501D01*
X15184065Y-13756868D01*
X15183643Y-13757206D01*
X15183167Y-13757459D01*
X15175820Y-13763451D01*
X15168401Y-13769373D01*
X15167649Y-13770115D01*
X15167634Y-13770127D01*
X15167622Y-13770141D01*
X15167380Y-13770380D01*
X14770388Y-14167372D01*
X14760689Y-14169223D01*
X14738378Y-14178237D01*
X14718244Y-14191412D01*
X14701051Y-14208248D01*
X14687457Y-14228103D01*
X14677978Y-14250220D01*
X14672975Y-14273757D01*
X14672639Y-14297817D01*
X14676982Y-14321484D01*
X14685841Y-14343857D01*
X14698875Y-14364084D01*
X14715591Y-14381393D01*
X14735350Y-14395126D01*
X14757400Y-14404759D01*
X14780901Y-14409926D01*
X14804959Y-14410430D01*
X14828656Y-14406252D01*
X14851090Y-14397550D01*
X14871407Y-14384657D01*
X14888833Y-14368063D01*
X14902703Y-14348400D01*
X14912490Y-14326417D01*
X14915627Y-14312613D01*
X15282540Y-13945700D01*
X15426763Y-13945700D01*
X15433850Y-13950626D01*
X15455900Y-13960259D01*
X15479401Y-13965426D01*
X15503459Y-13965930D01*
X15527156Y-13961752D01*
X15549590Y-13953050D01*
X15569907Y-13940157D01*
X15587333Y-13923563D01*
X15601203Y-13903900D01*
X15610990Y-13881917D01*
X15616321Y-13858453D01*
X15616705Y-13830969D01*
X15615406Y-13824407D01*
X15989907Y-13449907D01*
X15994166Y-13444722D01*
X15998486Y-13439573D01*
X15998670Y-13439238D01*
X15998912Y-13438943D01*
X16002085Y-13433026D01*
X16005321Y-13427140D01*
X16005437Y-13426775D01*
X16005617Y-13426438D01*
X16007582Y-13420013D01*
X16009611Y-13413615D01*
X16009654Y-13413235D01*
X16009766Y-13412870D01*
X16010444Y-13406190D01*
X16011193Y-13399515D01*
X16011198Y-13398767D01*
X16011199Y-13398754D01*
X16011198Y-13398741D01*
X16011200Y-13398500D01*
X16011200Y-12937113D01*
X16261113Y-12687200D01*
X16397206Y-12687200D01*
X16399000Y-12687455D01*
X16539000Y-12687455D01*
X16547392Y-12686786D01*
X16561626Y-12682378D01*
X16574069Y-12674178D01*
X16583735Y-12662838D01*
X16589858Y-12649253D01*
X16591955Y-12634500D01*
X16591955Y-12594500D01*
X16591286Y-12586108D01*
X16590127Y-12582365D01*
X16591955Y-12569500D01*
X16591955Y-12529500D01*
X16591286Y-12521108D01*
X16590127Y-12517365D01*
X16591955Y-12504500D01*
X16591955Y-12464500D01*
X16591286Y-12456108D01*
X16590127Y-12452365D01*
X16591955Y-12439500D01*
X16591955Y-12399500D01*
X16591286Y-12391108D01*
X16590127Y-12387365D01*
X16591955Y-12374500D01*
X16591955Y-12334500D01*
X16591286Y-12326108D01*
X16590127Y-12322365D01*
X16591955Y-12309500D01*
X16591955Y-12269500D01*
X16591286Y-12261108D01*
X16590155Y-12257457D01*
X16591700Y-12249690D01*
X16591700Y-12247675D01*
X16579108Y-12235083D01*
X16578678Y-12234431D01*
X16567338Y-12224765D01*
X16566300Y-12224298D01*
X16574069Y-12219178D01*
X16578056Y-12214500D01*
X16578525Y-12214500D01*
X16591700Y-12201325D01*
X16591700Y-12199309D01*
X16590207Y-12191802D01*
X16591955Y-12179500D01*
X16591955Y-12139500D01*
X16591286Y-12131108D01*
X16590127Y-12127365D01*
X16591955Y-12114500D01*
X16591955Y-12074500D01*
X16591286Y-12066108D01*
X16590127Y-12062365D01*
X16591955Y-12049500D01*
X16591955Y-12009500D01*
X16591286Y-12001108D01*
X16590127Y-11997365D01*
X16591955Y-11984500D01*
X16591955Y-11944500D01*
X16591286Y-11936108D01*
X16590127Y-11932365D01*
X16591955Y-11919500D01*
X16591955Y-11879500D01*
X16591286Y-11871108D01*
X16590127Y-11867365D01*
X16591955Y-11854500D01*
X16591955Y-11814500D01*
X16591286Y-11806108D01*
X16590127Y-11802365D01*
X16591955Y-11789500D01*
X16591955Y-11749500D01*
X16591286Y-11741108D01*
X16586878Y-11726873D01*
X16578678Y-11714431D01*
X16567338Y-11704765D01*
X16553753Y-11698642D01*
X16539000Y-11696545D01*
X16399000Y-11696545D01*
X16395803Y-11696800D01*
X16261113Y-11696800D01*
X16011200Y-11446887D01*
X16011200Y-10985500D01*
X16010545Y-10978818D01*
X16009959Y-10972127D01*
X16009853Y-10971759D01*
X16009815Y-10971379D01*
X16007875Y-10964952D01*
X16006001Y-10958502D01*
X16005825Y-10958162D01*
X16005714Y-10957796D01*
X16002559Y-10951861D01*
X15999471Y-10945905D01*
X15999233Y-10945607D01*
X15999053Y-10945268D01*
X15994805Y-10940060D01*
X15990619Y-10934816D01*
X15990095Y-10934284D01*
X15990086Y-10934273D01*
X15990076Y-10934265D01*
X15989907Y-10934093D01*
X15615571Y-10559757D01*
X15616321Y-10556453D01*
X15616705Y-10528969D01*
X15612031Y-10505364D01*
X15602862Y-10483117D01*
X15589546Y-10463075D01*
X15572590Y-10446001D01*
X15552641Y-10432545D01*
X15530459Y-10423220D01*
X15519136Y-10420896D01*
X15406200Y-10307960D01*
X15406200Y-10163784D01*
X15410703Y-10157400D01*
X15420490Y-10135418D01*
X15425821Y-10111953D01*
X15426205Y-10084469D01*
X15421531Y-10060864D01*
X15412362Y-10038617D01*
X15399046Y-10018575D01*
X15382090Y-10001501D01*
X15362141Y-9988045D01*
X15339959Y-9978720D01*
X15316388Y-9973882D01*
X15292326Y-9973714D01*
X15268689Y-9978223D01*
X15246378Y-9987237D01*
X15226244Y-10000413D01*
X15209051Y-10017248D01*
X15195457Y-10037103D01*
X15185978Y-10059220D01*
X15180975Y-10082757D01*
X15180639Y-10106817D01*
X15184982Y-10130484D01*
X15193841Y-10152857D01*
X15200800Y-10163656D01*
X15200800Y-10350500D01*
X15201726Y-10359943D01*
X15202552Y-10369392D01*
X15202703Y-10369911D01*
X15202756Y-10370448D01*
X15205497Y-10379529D01*
X15208144Y-10388640D01*
X15208393Y-10389119D01*
X15208549Y-10389636D01*
X15213001Y-10398008D01*
X15217368Y-10406435D01*
X15217706Y-10406857D01*
X15217959Y-10407333D01*
X15223951Y-10414680D01*
X15229873Y-10422099D01*
X15230615Y-10422851D01*
X15230627Y-10422866D01*
X15230641Y-10422877D01*
X15230880Y-10423120D01*
X15373850Y-10566090D01*
X15375482Y-10574984D01*
X15384341Y-10597357D01*
X15397375Y-10617584D01*
X15414091Y-10634893D01*
X15433850Y-10648626D01*
X15455900Y-10658259D01*
X15479401Y-10663426D01*
X15503459Y-10663930D01*
X15512519Y-10662333D01*
X15526618Y-10676432D01*
X15506888Y-10672382D01*
X15482826Y-10672214D01*
X15459189Y-10676723D01*
X15436878Y-10685737D01*
X15426849Y-10692300D01*
X15155540Y-10692300D01*
X14915612Y-10452372D01*
X14913531Y-10441864D01*
X14904362Y-10419617D01*
X14891046Y-10399575D01*
X14874090Y-10382501D01*
X14854141Y-10369045D01*
X14831959Y-10359720D01*
X14808388Y-10354882D01*
X14784326Y-10354714D01*
X14760689Y-10359223D01*
X14738378Y-10368237D01*
X14718244Y-10381413D01*
X14701051Y-10398248D01*
X14687457Y-10418103D01*
X14677978Y-10440220D01*
X14672975Y-10463757D01*
X14672639Y-10487817D01*
X14676982Y-10511484D01*
X14685841Y-10533857D01*
X14698875Y-10554084D01*
X14715591Y-10571393D01*
X14735350Y-10585126D01*
X14757400Y-10594759D01*
X14770371Y-10597611D01*
X15040380Y-10867620D01*
X15047712Y-10873642D01*
X15054978Y-10879739D01*
X15055451Y-10880000D01*
X15055868Y-10880342D01*
X15064229Y-10884825D01*
X15072542Y-10889395D01*
X15073057Y-10889558D01*
X15073533Y-10889814D01*
X15082603Y-10892587D01*
X15091647Y-10895456D01*
X15092185Y-10895516D01*
X15092701Y-10895674D01*
X15102131Y-10896632D01*
X15111566Y-10897690D01*
X15112622Y-10897697D01*
X15112641Y-10897699D01*
X15112659Y-10897698D01*
X15113000Y-10897700D01*
X15426763Y-10897700D01*
X15433850Y-10902626D01*
X15455900Y-10912259D01*
X15479401Y-10917426D01*
X15503459Y-10917930D01*
X15512519Y-10916333D01*
X15526618Y-10930432D01*
X15506888Y-10926382D01*
X15482826Y-10926214D01*
X15459189Y-10930723D01*
X15436878Y-10939737D01*
X15416744Y-10952913D01*
X15399551Y-10969748D01*
X15385957Y-10989603D01*
X15376478Y-11011720D01*
X15371475Y-11035257D01*
X15371139Y-11059317D01*
X15375482Y-11082984D01*
X15384341Y-11105357D01*
X15397375Y-11125584D01*
X15414091Y-11142893D01*
X15433850Y-11156626D01*
X15455900Y-11166259D01*
X15479401Y-11171426D01*
X15503459Y-11171930D01*
X15512519Y-11170333D01*
X15526618Y-11184432D01*
X15506888Y-11180382D01*
X15482826Y-11180214D01*
X15459189Y-11184723D01*
X15436878Y-11193737D01*
X15416744Y-11206912D01*
X15399551Y-11223748D01*
X15385957Y-11243603D01*
X15376478Y-11265720D01*
X15371475Y-11289257D01*
X15371139Y-11313317D01*
X15375482Y-11336984D01*
X15384341Y-11359357D01*
X15397375Y-11379584D01*
X15414091Y-11396893D01*
X15433850Y-11410626D01*
X15455900Y-11420259D01*
X15479401Y-11425426D01*
X15503459Y-11425930D01*
X15512519Y-11424333D01*
X15526618Y-11438432D01*
X15506888Y-11434382D01*
X15482826Y-11434214D01*
X15459189Y-11438723D01*
X15436878Y-11447737D01*
X15416744Y-11460912D01*
X15399551Y-11477748D01*
X15385957Y-11497603D01*
X15376478Y-11519720D01*
X15371475Y-11543257D01*
X15371139Y-11567317D01*
X15375482Y-11590984D01*
X15384341Y-11613357D01*
X15397375Y-11633584D01*
X15414091Y-11650893D01*
X15433850Y-11664626D01*
X15455900Y-11674259D01*
X15479401Y-11679426D01*
X15503459Y-11679930D01*
X15512519Y-11678333D01*
X15526618Y-11692432D01*
X15506888Y-11688382D01*
X15482826Y-11688214D01*
X15459189Y-11692723D01*
X15436878Y-11701737D01*
X15416744Y-11714912D01*
X15399551Y-11731748D01*
X15385957Y-11751603D01*
X15376478Y-11773720D01*
X15371475Y-11797257D01*
X15371139Y-11821317D01*
X15375482Y-11844984D01*
X15384341Y-11867357D01*
X15397375Y-11887584D01*
X15414091Y-11904893D01*
X15433850Y-11918626D01*
X15455900Y-11928259D01*
X15479401Y-11933426D01*
X15503459Y-11933930D01*
X15512519Y-11932333D01*
X15526618Y-11946432D01*
X15506888Y-11942382D01*
X15482826Y-11942214D01*
X15459189Y-11946723D01*
X15436878Y-11955737D01*
X15426849Y-11962300D01*
X15028540Y-11962300D01*
X14915612Y-11849372D01*
X14913531Y-11838864D01*
X14904362Y-11816617D01*
X14891046Y-11796575D01*
X14874090Y-11779501D01*
X14854141Y-11766045D01*
X14831959Y-11756720D01*
X14808388Y-11751882D01*
X14784326Y-11751714D01*
X14760689Y-11756223D01*
X14738378Y-11765237D01*
X14718244Y-11778412D01*
X14701051Y-11795248D01*
X14687457Y-11815103D01*
X14677978Y-11837220D01*
X14672975Y-11860757D01*
X14672639Y-11884817D01*
X14676982Y-11908484D01*
X14685841Y-11930857D01*
X14698875Y-11951084D01*
X14715591Y-11968393D01*
X14735350Y-11982126D01*
X14757400Y-11991759D01*
X14770371Y-11994611D01*
X14913380Y-12137620D01*
X14920712Y-12143642D01*
X14927978Y-12149739D01*
X14928451Y-12149999D01*
X14928868Y-12150342D01*
X14937229Y-12154825D01*
X14945542Y-12159395D01*
X14946057Y-12159558D01*
X14946533Y-12159814D01*
X14955603Y-12162587D01*
X14964647Y-12165456D01*
X14965185Y-12165516D01*
X14965701Y-12165674D01*
X14975135Y-12166632D01*
X14984566Y-12167690D01*
X14985621Y-12167697D01*
X14985641Y-12167699D01*
X14985660Y-12167698D01*
X14986000Y-12167700D01*
X15426763Y-12167700D01*
X15433850Y-12172626D01*
X15455900Y-12182259D01*
X15479401Y-12187426D01*
X15503459Y-12187930D01*
X15512519Y-12186333D01*
X15526867Y-12200680D01*
X15510280Y-12196786D01*
X15486124Y-12195958D01*
X15462271Y-12199859D01*
X15439638Y-12208338D01*
X15432190Y-12212319D01*
X15425634Y-12232674D01*
X15494000Y-12301039D01*
X15562366Y-12232674D01*
X15560385Y-12226522D01*
X15560562Y-12226617D01*
X15566991Y-12228583D01*
X15573385Y-12230611D01*
X15573764Y-12230654D01*
X15574130Y-12230766D01*
X15580819Y-12231445D01*
X15587485Y-12232193D01*
X15588232Y-12232198D01*
X15588246Y-12232200D01*
X15588260Y-12232198D01*
X15588500Y-12232200D01*
X15733279Y-12232200D01*
X15732062Y-12233193D01*
X15726816Y-12237381D01*
X15726284Y-12237905D01*
X15726273Y-12237914D01*
X15726265Y-12237924D01*
X15726093Y-12238093D01*
X15612320Y-12351867D01*
X15616214Y-12335280D01*
X15617042Y-12311124D01*
X15613141Y-12287271D01*
X15604662Y-12264638D01*
X15600681Y-12257190D01*
X15580326Y-12250634D01*
X15511960Y-12319000D01*
X15513375Y-12320414D01*
X15495414Y-12338375D01*
X15494000Y-12336960D01*
X15425634Y-12405326D01*
X15432190Y-12425681D01*
X15454190Y-12435690D01*
X15477720Y-12441214D01*
X15501875Y-12442042D01*
X15525728Y-12438141D01*
X15526235Y-12437951D01*
X15512627Y-12451560D01*
X15506888Y-12450382D01*
X15482826Y-12450214D01*
X15459189Y-12454723D01*
X15436878Y-12463737D01*
X15416744Y-12476912D01*
X15399551Y-12493748D01*
X15385957Y-12513603D01*
X15376478Y-12535720D01*
X15371475Y-12559257D01*
X15371139Y-12583317D01*
X15375482Y-12606984D01*
X15384341Y-12629357D01*
X15397375Y-12649584D01*
X15414091Y-12666893D01*
X15433850Y-12680626D01*
X15455900Y-12690259D01*
X15479401Y-12695426D01*
X15503459Y-12695930D01*
X15526280Y-12691906D01*
X15512627Y-12705560D01*
X15506888Y-12704382D01*
X15482826Y-12704214D01*
X15459189Y-12708723D01*
X15436878Y-12717737D01*
X15416744Y-12730912D01*
X15399551Y-12747748D01*
X15385957Y-12767603D01*
X15376478Y-12789720D01*
X15371475Y-12813257D01*
X15371139Y-12837317D01*
X15375482Y-12860984D01*
X15384341Y-12883357D01*
X15397375Y-12903584D01*
X15414091Y-12920893D01*
X15433850Y-12934626D01*
X15455900Y-12944259D01*
X15479401Y-12949426D01*
X15503459Y-12949930D01*
X15526280Y-12945906D01*
X15512627Y-12959560D01*
X15506888Y-12958382D01*
X15482826Y-12958214D01*
X15459189Y-12962723D01*
X15436878Y-12971737D01*
X15416744Y-12984912D01*
X15399551Y-13001748D01*
X15385957Y-13021603D01*
X15376478Y-13043720D01*
X15371475Y-13067257D01*
X15371139Y-13091317D01*
X15375482Y-13114984D01*
X15384341Y-13137357D01*
X15397375Y-13157584D01*
X15414091Y-13174893D01*
X15433850Y-13188626D01*
X15455900Y-13198259D01*
X15479401Y-13203426D01*
X15503459Y-13203930D01*
X15526280Y-13199906D01*
X15512627Y-13213560D01*
X15506888Y-13212382D01*
X15482826Y-13212214D01*
X15459189Y-13216723D01*
X15436878Y-13225737D01*
X15416744Y-13238912D01*
X15399551Y-13255748D01*
X15385957Y-13275603D01*
X15376478Y-13297720D01*
X15371475Y-13321257D01*
X15371139Y-13345317D01*
X15375482Y-13368984D01*
X15384341Y-13391357D01*
X15397375Y-13411584D01*
X15414091Y-13428893D01*
X15433850Y-13442626D01*
X15455900Y-13452259D01*
X15479401Y-13457426D01*
X15503459Y-13457930D01*
X15526280Y-13453906D01*
X15512627Y-13467560D01*
X15506888Y-13466382D01*
X15482826Y-13466214D01*
X15459189Y-13470723D01*
X15436878Y-13479737D01*
X15426849Y-13486300D01*
X15346040Y-13486300D01*
X15279200Y-13419460D01*
X15279200Y-13017500D01*
X15278274Y-13008058D01*
X15277447Y-12998608D01*
X15277297Y-12998089D01*
X15277244Y-12997552D01*
X15274503Y-12988472D01*
X15271855Y-12979360D01*
X15271607Y-12978881D01*
X15271451Y-12978364D01*
X15266999Y-12969992D01*
X15262631Y-12961565D01*
X15262294Y-12961143D01*
X15262041Y-12960667D01*
X15256049Y-12953320D01*
X15250127Y-12945901D01*
X15249385Y-12945149D01*
X15249373Y-12945134D01*
X15249359Y-12945123D01*
X15249120Y-12944880D01*
X15122120Y-12817880D01*
X15114788Y-12811858D01*
X15107522Y-12805761D01*
X15107048Y-12805500D01*
X15106631Y-12805158D01*
X15098271Y-12800675D01*
X15089958Y-12796105D01*
X15089443Y-12795942D01*
X15088967Y-12795686D01*
X15079897Y-12792913D01*
X15070852Y-12790044D01*
X15070315Y-12789984D01*
X15069799Y-12789826D01*
X15060369Y-12788868D01*
X15050934Y-12787810D01*
X15049877Y-12787803D01*
X15049858Y-12787801D01*
X15049841Y-12787802D01*
X15049500Y-12787800D01*
X14862674Y-12787800D01*
X14854141Y-12782045D01*
X14831959Y-12772720D01*
X14820636Y-12770396D01*
X14683120Y-12632880D01*
X14675788Y-12626858D01*
X14668522Y-12620761D01*
X14668048Y-12620500D01*
X14667631Y-12620158D01*
X14659271Y-12615675D01*
X14650958Y-12611105D01*
X14650443Y-12610942D01*
X14649967Y-12610686D01*
X14640897Y-12607913D01*
X14631852Y-12605044D01*
X14631315Y-12604984D01*
X14630799Y-12604826D01*
X14621369Y-12603868D01*
X14611934Y-12602810D01*
X14610877Y-12602803D01*
X14610858Y-12602801D01*
X14610841Y-12602802D01*
X14610500Y-12602800D01*
X14306174Y-12602800D01*
X14297641Y-12597045D01*
X14275459Y-12587720D01*
X14251888Y-12582882D01*
X14227826Y-12582714D01*
X14204189Y-12587223D01*
X14181878Y-12596237D01*
X14171849Y-12602800D01*
X13656174Y-12602800D01*
X13647641Y-12597045D01*
X13625459Y-12587720D01*
X13601888Y-12582882D01*
X13577826Y-12582714D01*
X13554189Y-12587223D01*
X13531878Y-12596237D01*
X13511744Y-12609412D01*
X13494551Y-12626248D01*
X13480957Y-12646103D01*
X13471478Y-12668220D01*
X13466475Y-12691757D01*
X13466139Y-12715817D01*
X13317700Y-12715817D01*
X13317700Y-12341826D01*
X13520634Y-12341826D01*
X13527190Y-12362181D01*
X13549190Y-12372190D01*
X13572720Y-12377714D01*
X13596875Y-12378542D01*
X13620728Y-12374641D01*
X13643362Y-12366162D01*
X13650810Y-12362181D01*
X13657366Y-12341826D01*
X14170634Y-12341826D01*
X14177190Y-12362181D01*
X14199190Y-12372190D01*
X14222720Y-12377714D01*
X14246875Y-12378542D01*
X14270728Y-12374641D01*
X14293362Y-12366162D01*
X14300810Y-12362181D01*
X14307366Y-12341826D01*
X14292415Y-12326875D01*
X15370958Y-12326875D01*
X15374859Y-12350728D01*
X15383338Y-12373362D01*
X15387319Y-12380810D01*
X15407674Y-12387366D01*
X15476039Y-12319000D01*
X15407674Y-12250634D01*
X15387319Y-12257190D01*
X15377310Y-12279190D01*
X15371786Y-12302720D01*
X15370958Y-12326875D01*
X14292415Y-12326875D01*
X14239000Y-12273460D01*
X14170634Y-12341826D01*
X13657366Y-12341826D01*
X13589000Y-12273460D01*
X13520634Y-12341826D01*
X13317700Y-12341826D01*
X13317700Y-12263375D01*
X13465958Y-12263375D01*
X13469859Y-12287228D01*
X13478338Y-12309862D01*
X13482319Y-12317310D01*
X13502674Y-12323866D01*
X13571039Y-12255500D01*
X13606960Y-12255500D01*
X13675326Y-12323866D01*
X13695681Y-12317310D01*
X13705690Y-12295310D01*
X13711214Y-12271780D01*
X13711502Y-12263375D01*
X14115958Y-12263375D01*
X14119859Y-12287228D01*
X14128338Y-12309862D01*
X14132319Y-12317310D01*
X14152674Y-12323866D01*
X14221039Y-12255500D01*
X14256960Y-12255500D01*
X14325326Y-12323866D01*
X14345681Y-12317310D01*
X14355690Y-12295310D01*
X14361214Y-12271780D01*
X14362042Y-12247624D01*
X14358141Y-12223771D01*
X14349662Y-12201138D01*
X14345681Y-12193690D01*
X14325326Y-12187134D01*
X14256960Y-12255500D01*
X14221039Y-12255500D01*
X14152674Y-12187134D01*
X14132319Y-12193690D01*
X14122310Y-12215690D01*
X14116786Y-12239220D01*
X14115958Y-12263375D01*
X13711502Y-12263375D01*
X13712042Y-12247624D01*
X13708141Y-12223771D01*
X13699662Y-12201138D01*
X13695681Y-12193690D01*
X13675326Y-12187134D01*
X13606960Y-12255500D01*
X13571039Y-12255500D01*
X13502674Y-12187134D01*
X13482319Y-12193690D01*
X13472310Y-12215690D01*
X13466786Y-12239220D01*
X13465958Y-12263375D01*
X13317700Y-12263375D01*
X13317700Y-12169174D01*
X13520634Y-12169174D01*
X13589000Y-12237539D01*
X13657366Y-12169174D01*
X14170634Y-12169174D01*
X14239000Y-12237539D01*
X14307366Y-12169174D01*
X14300810Y-12148819D01*
X14278810Y-12138810D01*
X14255280Y-12133286D01*
X14231124Y-12132458D01*
X14207271Y-12136359D01*
X14184638Y-12144838D01*
X14177190Y-12148819D01*
X14170634Y-12169174D01*
X13657366Y-12169174D01*
X13650810Y-12148819D01*
X13628810Y-12138810D01*
X13605280Y-12133286D01*
X13581124Y-12132458D01*
X13557271Y-12136359D01*
X13534638Y-12144838D01*
X13527190Y-12148819D01*
X13520634Y-12169174D01*
X13317700Y-12169174D01*
X13317700Y-11963700D01*
X13564000Y-11963700D01*
X13568016Y-11963048D01*
X13598016Y-11953048D01*
X13601214Y-11951452D01*
X13602980Y-11949980D01*
X13622980Y-11929980D01*
X13625127Y-11927123D01*
X13626048Y-11925016D01*
X13636048Y-11895016D01*
X13636700Y-11891000D01*
X13636700Y-11641000D01*
X13636048Y-11636984D01*
X13626048Y-11606984D01*
X13624452Y-11603786D01*
X13622980Y-11602020D01*
X13602980Y-11582020D01*
X13600123Y-11579873D01*
X13598016Y-11578952D01*
X13568016Y-11568952D01*
X13564000Y-11568300D01*
X13317700Y-11568300D01*
X13317700Y-11353800D01*
X13586000Y-11353800D01*
X13586000Y-11413800D01*
X13591220Y-11441395D01*
X13601722Y-11467442D01*
X13617105Y-11490939D01*
X13636776Y-11510984D01*
X13659980Y-11526806D01*
X13685824Y-11537797D01*
X13693922Y-11539497D01*
X13716000Y-11530001D01*
X13716000Y-11353800D01*
X13741400Y-11353800D01*
X13741400Y-11530001D01*
X13763478Y-11539497D01*
X13771576Y-11537797D01*
X13797420Y-11526806D01*
X13820624Y-11510984D01*
X13840295Y-11490939D01*
X13855677Y-11467442D01*
X13866180Y-11441395D01*
X13871400Y-11413800D01*
X13871400Y-11353800D01*
X13741400Y-11353800D01*
X13716000Y-11353800D01*
X13586000Y-11353800D01*
X13317700Y-11353800D01*
X13317700Y-11268400D01*
X13586000Y-11268400D01*
X13586000Y-11328400D01*
X13716000Y-11328400D01*
X13716000Y-11152199D01*
X13741400Y-11152199D01*
X13741400Y-11328400D01*
X13871400Y-11328400D01*
X13871400Y-11268400D01*
X13866180Y-11240805D01*
X13855677Y-11214758D01*
X13840295Y-11191260D01*
X13820624Y-11171216D01*
X13797420Y-11155394D01*
X13771576Y-11144403D01*
X13763478Y-11142703D01*
X13741400Y-11152199D01*
X13716000Y-11152199D01*
X13693922Y-11142703D01*
X13685824Y-11144403D01*
X13659980Y-11155394D01*
X13636776Y-11171216D01*
X13617105Y-11191260D01*
X13601722Y-11214758D01*
X13591220Y-11240805D01*
X13586000Y-11268400D01*
X13317700Y-11268400D01*
X13317700Y-11113700D01*
X13564000Y-11113700D01*
X13568016Y-11113048D01*
X13598016Y-11103048D01*
X13601214Y-11101452D01*
X13602980Y-11099980D01*
X13622980Y-11079980D01*
X13625127Y-11077123D01*
X13626048Y-11075016D01*
X13636048Y-11045016D01*
X13636700Y-11041000D01*
X13636700Y-10965209D01*
X13944780Y-10965209D01*
X13947039Y-10990029D01*
X13954076Y-11013937D01*
X13965622Y-11036024D01*
X13981239Y-11055447D01*
X14000331Y-11071467D01*
X14022171Y-11083474D01*
X14045927Y-11091009D01*
X14070694Y-11093788D01*
X14072477Y-11093800D01*
X14096000Y-11093800D01*
X14096000Y-11217883D01*
X14078936Y-11223035D01*
X14056930Y-11234736D01*
X14037616Y-11250488D01*
X14021730Y-11269691D01*
X14009876Y-11291614D01*
X14002506Y-11315422D01*
X13999901Y-11340208D01*
X14002160Y-11365029D01*
X14009197Y-11388937D01*
X14020743Y-11411024D01*
X14036360Y-11430447D01*
X14055452Y-11446467D01*
X14077292Y-11458474D01*
X14096000Y-11464408D01*
X14096000Y-11588400D01*
X14072477Y-11588400D01*
X14047674Y-11590832D01*
X14023815Y-11598035D01*
X14001809Y-11609736D01*
X13982495Y-11625488D01*
X13966609Y-11644691D01*
X13954755Y-11666614D01*
X13947385Y-11690422D01*
X13944780Y-11715208D01*
X13947039Y-11740029D01*
X13954076Y-11763937D01*
X13965622Y-11786024D01*
X13981239Y-11805447D01*
X14000331Y-11821467D01*
X14022171Y-11833474D01*
X14045927Y-11841009D01*
X14070694Y-11843788D01*
X14072477Y-11843800D01*
X14324923Y-11843800D01*
X14349726Y-11841368D01*
X14373585Y-11834164D01*
X14395591Y-11822464D01*
X14414904Y-11806712D01*
X14430791Y-11787509D01*
X14442645Y-11765586D01*
X14450014Y-11741778D01*
X14452620Y-11716991D01*
X14450361Y-11692171D01*
X14443324Y-11668263D01*
X14431777Y-11646176D01*
X14416161Y-11626753D01*
X14397069Y-11610733D01*
X14375229Y-11598726D01*
X14351473Y-11591191D01*
X14326706Y-11588412D01*
X14324923Y-11588400D01*
X14301400Y-11588400D01*
X14301400Y-11468800D01*
X14329802Y-11468800D01*
X14354605Y-11466368D01*
X14378464Y-11459164D01*
X14400470Y-11447464D01*
X14404962Y-11443800D01*
X14600560Y-11443800D01*
X14675350Y-11518590D01*
X14676982Y-11527484D01*
X14685841Y-11549857D01*
X14698875Y-11570084D01*
X14715591Y-11587393D01*
X14735350Y-11601126D01*
X14757400Y-11610759D01*
X14780901Y-11615926D01*
X14804959Y-11616430D01*
X14828656Y-11612252D01*
X14851090Y-11603550D01*
X14871407Y-11590657D01*
X14888833Y-11574063D01*
X14902703Y-11554400D01*
X14912490Y-11532417D01*
X14917821Y-11508953D01*
X14918205Y-11481469D01*
X14913531Y-11457864D01*
X14904362Y-11435617D01*
X14891046Y-11415575D01*
X14874090Y-11398501D01*
X14854141Y-11385045D01*
X14831959Y-11375720D01*
X14820636Y-11373396D01*
X14715720Y-11268480D01*
X14708388Y-11262458D01*
X14701122Y-11256361D01*
X14700648Y-11256100D01*
X14700231Y-11255758D01*
X14691871Y-11251275D01*
X14683558Y-11246705D01*
X14683043Y-11246542D01*
X14682567Y-11246286D01*
X14673497Y-11243513D01*
X14664452Y-11240644D01*
X14663915Y-11240584D01*
X14663399Y-11240426D01*
X14653969Y-11239468D01*
X14644534Y-11238410D01*
X14643477Y-11238403D01*
X14643458Y-11238401D01*
X14643441Y-11238402D01*
X14643100Y-11238400D01*
X14405126Y-11238400D01*
X14401948Y-11235733D01*
X14380108Y-11223726D01*
X14356352Y-11216191D01*
X14331585Y-11213412D01*
X14329802Y-11213400D01*
X14301400Y-11213400D01*
X14301400Y-11093800D01*
X14324923Y-11093800D01*
X14349726Y-11091368D01*
X14373585Y-11084165D01*
X14395591Y-11072464D01*
X14414904Y-11056712D01*
X14430791Y-11037509D01*
X14442645Y-11015586D01*
X14450014Y-10991778D01*
X14452620Y-10966992D01*
X14450361Y-10942171D01*
X14443324Y-10918263D01*
X14431777Y-10896176D01*
X14416161Y-10876753D01*
X14397069Y-10860733D01*
X14375229Y-10848726D01*
X14351473Y-10841191D01*
X14326706Y-10838412D01*
X14324923Y-10838400D01*
X14301400Y-10838400D01*
X14301400Y-10227840D01*
X14312560Y-10216679D01*
X14320656Y-10215252D01*
X14343090Y-10206550D01*
X14363407Y-10193657D01*
X14380833Y-10177063D01*
X14394703Y-10157400D01*
X14404490Y-10135418D01*
X14409821Y-10111953D01*
X14410205Y-10084469D01*
X14405531Y-10060864D01*
X14396362Y-10038617D01*
X14383046Y-10018575D01*
X14366090Y-10001501D01*
X14346141Y-9988045D01*
X14323959Y-9978720D01*
X14300388Y-9973882D01*
X14276326Y-9973714D01*
X14252689Y-9978223D01*
X14230378Y-9987237D01*
X14210244Y-10000413D01*
X14193051Y-10017248D01*
X14179457Y-10037103D01*
X14169978Y-10059220D01*
X14167396Y-10071364D01*
X14126080Y-10112680D01*
X14120058Y-10120012D01*
X14113961Y-10127278D01*
X14113700Y-10127752D01*
X14113358Y-10128169D01*
X14108875Y-10136529D01*
X14104305Y-10144842D01*
X14104142Y-10145357D01*
X14103886Y-10145833D01*
X14101113Y-10154903D01*
X14098244Y-10163948D01*
X14098184Y-10164485D01*
X14098026Y-10165001D01*
X14097068Y-10174431D01*
X14096010Y-10183866D01*
X14096003Y-10184923D01*
X14096001Y-10184942D01*
X14096002Y-10184959D01*
X14096000Y-10185300D01*
X14096000Y-10838400D01*
X14072477Y-10838400D01*
X14047674Y-10840832D01*
X14023815Y-10848036D01*
X14001809Y-10859736D01*
X13982495Y-10875488D01*
X13966609Y-10894691D01*
X13954755Y-10916614D01*
X13947385Y-10940422D01*
X13944780Y-10965209D01*
X13636700Y-10965209D01*
X13636700Y-10791000D01*
X13636048Y-10786984D01*
X13626048Y-10756984D01*
X13624452Y-10753786D01*
X13622980Y-10752020D01*
X13602980Y-10732020D01*
X13600123Y-10729873D01*
X13598016Y-10728952D01*
X13568016Y-10718952D01*
X13564000Y-10718300D01*
X13317700Y-10718300D01*
X13317700Y-10037099D01*
X13330345Y-10105997D01*
X13357973Y-10175778D01*
X13398629Y-10238863D01*
X13450764Y-10292851D01*
X13512393Y-10335684D01*
X13581167Y-10365730D01*
X13654468Y-10381847D01*
X13729502Y-10383418D01*
X13803414Y-10370386D01*
X13873386Y-10343245D01*
X13936754Y-10303031D01*
X13991104Y-10251274D01*
X14034366Y-10189946D01*
X14064892Y-10121383D01*
X14081519Y-10048197D01*
X14082716Y-9962474D01*
X14068139Y-9888852D01*
X14039539Y-9819464D01*
X13998006Y-9756952D01*
X13945122Y-9703698D01*
X13882902Y-9661730D01*
X13813715Y-9632646D01*
X13740903Y-9617700D01*
X20281640Y-9617700D01*
X20211425Y-9631094D01*
X20211425Y-9631094D01*
G37*
X20211425Y-9631094D02*
X20141839Y-9659209D01*
X20079038Y-9700304D01*
X20025416Y-9752815D01*
X19983015Y-9814741D01*
X19953449Y-9883723D01*
X19937845Y-9957134D01*
X19936797Y-10032179D01*
X19950345Y-10105997D01*
X19977973Y-10175778D01*
X20018629Y-10238863D01*
X20070764Y-10292851D01*
X20132393Y-10335684D01*
X20201167Y-10365730D01*
X20274468Y-10381847D01*
X20349502Y-10383418D01*
X20423414Y-10370386D01*
X20493386Y-10343245D01*
X20556754Y-10303031D01*
X20611104Y-10251274D01*
X20654366Y-10189946D01*
X20684892Y-10121383D01*
X20701519Y-10048197D01*
X20702300Y-9992295D01*
X20702300Y-10666407D01*
X20693413Y-10671212D01*
X20689078Y-10674136D01*
X20684702Y-10676999D01*
X20684077Y-10677509D01*
X20673551Y-10686217D01*
X20669864Y-10689929D01*
X20666129Y-10693587D01*
X20665616Y-10694208D01*
X20656981Y-10704795D01*
X20654087Y-10709150D01*
X20651133Y-10713466D01*
X20650749Y-10714174D01*
X20644336Y-10726237D01*
X20642341Y-10731077D01*
X20640283Y-10735878D01*
X20640045Y-10736648D01*
X20636096Y-10749726D01*
X20635080Y-10754857D01*
X20633993Y-10759972D01*
X20633909Y-10760773D01*
X20632575Y-10774370D01*
X20632575Y-10776789D01*
X20632306Y-10779194D01*
X20632300Y-10780000D01*
X20632300Y-11765000D01*
X20632301Y-11765010D01*
X20632300Y-11765201D01*
X20632302Y-11765689D01*
X20632557Y-11768197D01*
X20632539Y-11770718D01*
X20632618Y-11771520D01*
X20634046Y-11785107D01*
X20635097Y-11790225D01*
X20636077Y-11795367D01*
X20636310Y-11796138D01*
X20640350Y-11809189D01*
X20642376Y-11814009D01*
X20644336Y-11818858D01*
X20644714Y-11819570D01*
X20651212Y-11831587D01*
X20654137Y-11835924D01*
X20656999Y-11840298D01*
X20657509Y-11840923D01*
X20666217Y-11851449D01*
X20669929Y-11855136D01*
X20673587Y-11858871D01*
X20674208Y-11859384D01*
X20684795Y-11868019D01*
X20689150Y-11870913D01*
X20693466Y-11873867D01*
X20694174Y-11874251D01*
X20702300Y-11878571D01*
X20702300Y-12441406D01*
X20693413Y-12446212D01*
X20689078Y-12449136D01*
X20684702Y-12451999D01*
X20684077Y-12452509D01*
X20673551Y-12461217D01*
X20669864Y-12464929D01*
X20666129Y-12468587D01*
X20665616Y-12469208D01*
X20656981Y-12479795D01*
X20654087Y-12484150D01*
X20651133Y-12488466D01*
X20650749Y-12489174D01*
X20644336Y-12501237D01*
X20642341Y-12506077D01*
X20640283Y-12510878D01*
X20640045Y-12511648D01*
X20636096Y-12524726D01*
X20635080Y-12529857D01*
X20633993Y-12534972D01*
X20633909Y-12535773D01*
X20632575Y-12549370D01*
X20632575Y-12551789D01*
X20632306Y-12554194D01*
X20632300Y-12555000D01*
X20632300Y-13090000D01*
X20632301Y-13090010D01*
X20632300Y-13090201D01*
X20632302Y-13090689D01*
X20632557Y-13093197D01*
X20632539Y-13095718D01*
X20632618Y-13096520D01*
X20634046Y-13110107D01*
X20635096Y-13115223D01*
X20636077Y-13120367D01*
X20636310Y-13121138D01*
X20640350Y-13134189D01*
X20642376Y-13139009D01*
X20644336Y-13143858D01*
X20644714Y-13144570D01*
X20651212Y-13156587D01*
X20654137Y-13160924D01*
X20656999Y-13165298D01*
X20657509Y-13165923D01*
X20666217Y-13176449D01*
X20669929Y-13180136D01*
X20673587Y-13183871D01*
X20674208Y-13184384D01*
X20684795Y-13193019D01*
X20689150Y-13195913D01*
X20693466Y-13198867D01*
X20694174Y-13199251D01*
X20702300Y-13203571D01*
X20702300Y-14080371D01*
X20688139Y-14008852D01*
X20659539Y-13939464D01*
X20618006Y-13876952D01*
X20565123Y-13823698D01*
X20502902Y-13781730D01*
X20433715Y-13752646D01*
X20360197Y-13737555D01*
X20285147Y-13737031D01*
X20211425Y-13751094D01*
X20141839Y-13779209D01*
X20079038Y-13820304D01*
X20025416Y-13872815D01*
X19983015Y-13934741D01*
X19953449Y-14003723D01*
X19947120Y-14033500D01*
X19936572Y-14033500D01*
X19937856Y-14029452D01*
X19937916Y-14028916D01*
X19938074Y-14028399D01*
X19939033Y-14018960D01*
X19940090Y-14009534D01*
X19940097Y-14008479D01*
X19940099Y-14008458D01*
X19940098Y-14008440D01*
X19940100Y-14008100D01*
X19940100Y-13183004D01*
X20152844Y-13183004D01*
X20154055Y-13196312D01*
X20152844Y-13207829D01*
X20155811Y-13240424D01*
X20165052Y-13271821D01*
X20180215Y-13300826D01*
X20200723Y-13326333D01*
X20225795Y-13347371D01*
X20254476Y-13363139D01*
X20285673Y-13373035D01*
X20318199Y-13376684D01*
X20320540Y-13376700D01*
X20342260Y-13376700D01*
X20374833Y-13373506D01*
X20406165Y-13364046D01*
X20435064Y-13348681D01*
X20460427Y-13327995D01*
X20481289Y-13302777D01*
X20496856Y-13273986D01*
X20506535Y-13242721D01*
X20509956Y-13210171D01*
X20508728Y-13196682D01*
X20509956Y-13184996D01*
X20507432Y-13157261D01*
X20499569Y-13130544D01*
X20486666Y-13105863D01*
X20469215Y-13084158D01*
X20447881Y-13066256D01*
X20423475Y-13052839D01*
X20396929Y-13044418D01*
X20369252Y-13041314D01*
X20367260Y-13041300D01*
X20295540Y-13041300D01*
X20267823Y-13044018D01*
X20241162Y-13052067D01*
X20216571Y-13065142D01*
X20194989Y-13082744D01*
X20177237Y-13104203D01*
X20163990Y-13128701D01*
X20155755Y-13155306D01*
X20152844Y-13183004D01*
X19940100Y-13183004D01*
X19940100Y-13006574D01*
X19947239Y-12990539D01*
X19952245Y-12968508D01*
X19952605Y-12942704D01*
X19948217Y-12920542D01*
X19939608Y-12899655D01*
X19927106Y-12880838D01*
X19911187Y-12864807D01*
X19892457Y-12852174D01*
X19871630Y-12843419D01*
X19849500Y-12838877D01*
X19826909Y-12838719D01*
X19826375Y-12838821D01*
X19826289Y-12838811D01*
X19824681Y-12838800D01*
X19647719Y-12838800D01*
X19625343Y-12840994D01*
X19603820Y-12847492D01*
X19583969Y-12858047D01*
X19566545Y-12872257D01*
X19552214Y-12889581D01*
X19541521Y-12909358D01*
X19534872Y-12930836D01*
X19532522Y-12953196D01*
X19534560Y-12975586D01*
X19540908Y-12997155D01*
X19551324Y-13017079D01*
X19565412Y-13034601D01*
X19582635Y-13049053D01*
X19602337Y-13059884D01*
X19623768Y-13066683D01*
X19646111Y-13069189D01*
X19647719Y-13069200D01*
X19734700Y-13069200D01*
X19734700Y-13604912D01*
X19732162Y-13598138D01*
X19728181Y-13590690D01*
X19707826Y-13584134D01*
X19639461Y-13652500D01*
X19707826Y-13720866D01*
X19728181Y-13714310D01*
X19734700Y-13699981D01*
X19734700Y-13922412D01*
X19732162Y-13915638D01*
X19728181Y-13908190D01*
X19707826Y-13901634D01*
X19639461Y-13970000D01*
X19640875Y-13971414D01*
X19622914Y-13989375D01*
X19621500Y-13987960D01*
X19553134Y-14056326D01*
X19559690Y-14076681D01*
X19581690Y-14086690D01*
X19605220Y-14092214D01*
X19607953Y-14092308D01*
X19521880Y-14178380D01*
X19515858Y-14185712D01*
X19509761Y-14192978D01*
X19509501Y-14193451D01*
X19509158Y-14193868D01*
X19504675Y-14202229D01*
X19500105Y-14210542D01*
X19499942Y-14211057D01*
X19499686Y-14211533D01*
X19496913Y-14220603D01*
X19494044Y-14229647D01*
X19493984Y-14230185D01*
X19493826Y-14230701D01*
X19492868Y-14240131D01*
X19491952Y-14248300D01*
X19368489Y-14248300D01*
X19358147Y-14248228D01*
X19338363Y-14252002D01*
X19319689Y-14259546D01*
X19302836Y-14270575D01*
X19288447Y-14284666D01*
X19277068Y-14301284D01*
X19269134Y-14319796D01*
X19267605Y-14326988D01*
X19263349Y-14312528D01*
X19254063Y-14294765D01*
X19243200Y-14281254D01*
X19243200Y-14239540D01*
X19440120Y-14042620D01*
X19446142Y-14035288D01*
X19452239Y-14028022D01*
X19452500Y-14027548D01*
X19452842Y-14027131D01*
X19457324Y-14018773D01*
X19461895Y-14010458D01*
X19462059Y-14009943D01*
X19462314Y-14009467D01*
X19465086Y-14000398D01*
X19467956Y-13991352D01*
X19468016Y-13990815D01*
X19468174Y-13990299D01*
X19469132Y-13980865D01*
X19469467Y-13977875D01*
X19498458Y-13977875D01*
X19502359Y-14001728D01*
X19510838Y-14024362D01*
X19514819Y-14031810D01*
X19535174Y-14038366D01*
X19603540Y-13970000D01*
X19535174Y-13901634D01*
X19514819Y-13908190D01*
X19504810Y-13930190D01*
X19499286Y-13953720D01*
X19498458Y-13977875D01*
X19469467Y-13977875D01*
X19470190Y-13971434D01*
X19470197Y-13970379D01*
X19470199Y-13970358D01*
X19470198Y-13970340D01*
X19470200Y-13970000D01*
X19470200Y-13883674D01*
X19553134Y-13883674D01*
X19621500Y-13952039D01*
X19689866Y-13883674D01*
X19683310Y-13863319D01*
X19661310Y-13853310D01*
X19637780Y-13847786D01*
X19613625Y-13846958D01*
X19589772Y-13850859D01*
X19567138Y-13859338D01*
X19559690Y-13863319D01*
X19553134Y-13883674D01*
X19470200Y-13883674D01*
X19470200Y-13738826D01*
X19553134Y-13738826D01*
X19559690Y-13759181D01*
X19581690Y-13769190D01*
X19605220Y-13774714D01*
X19629376Y-13775542D01*
X19653229Y-13771641D01*
X19675862Y-13763162D01*
X19683310Y-13759181D01*
X19689866Y-13738826D01*
X19621500Y-13670460D01*
X19553134Y-13738826D01*
X19470200Y-13738826D01*
X19470200Y-13660375D01*
X19498458Y-13660375D01*
X19502359Y-13684228D01*
X19510838Y-13706862D01*
X19514819Y-13714310D01*
X19535174Y-13720866D01*
X19603540Y-13652500D01*
X19535174Y-13584134D01*
X19514819Y-13590690D01*
X19504810Y-13612690D01*
X19499286Y-13636220D01*
X19498458Y-13660375D01*
X19470200Y-13660375D01*
X19470200Y-13566174D01*
X19553134Y-13566174D01*
X19621500Y-13634539D01*
X19689866Y-13566174D01*
X19683310Y-13545819D01*
X19661310Y-13535810D01*
X19637780Y-13530286D01*
X19613625Y-13529458D01*
X19589772Y-13533359D01*
X19567138Y-13541838D01*
X19559690Y-13545819D01*
X19553134Y-13566174D01*
X19470200Y-13566174D01*
X19470200Y-12663545D01*
X19537599Y-12663545D01*
X19547469Y-12681300D01*
X19722506Y-12681300D01*
X19721931Y-12702173D01*
X19722703Y-12706700D01*
X19547469Y-12706700D01*
X19537599Y-12724455D01*
X19545859Y-12747442D01*
X19558261Y-12766478D01*
X19574139Y-12782729D01*
X19592882Y-12795571D01*
X19613770Y-12804509D01*
X19636000Y-12809200D01*
X19723500Y-12809200D01*
X19723500Y-12711375D01*
X19725745Y-12724543D01*
X19733849Y-12745739D01*
X19736851Y-12751355D01*
X19748900Y-12754826D01*
X19748900Y-12764539D01*
X19746610Y-12766829D01*
X19748900Y-12769119D01*
X19748900Y-12809200D01*
X19835814Y-12809200D01*
X19845573Y-12809469D01*
X19867943Y-12805655D01*
X19889139Y-12797551D01*
X19894755Y-12794549D01*
X19898135Y-12782816D01*
X19898261Y-12782729D01*
X19914139Y-12766478D01*
X19920767Y-12756305D01*
X19937949Y-12751355D01*
X19947207Y-12730637D01*
X19952244Y-12708511D01*
X19952869Y-12685827D01*
X19949055Y-12663457D01*
X19940951Y-12642261D01*
X19937949Y-12636645D01*
X19920767Y-12631695D01*
X19914139Y-12621522D01*
X19898261Y-12605270D01*
X19898135Y-12605184D01*
X19894755Y-12593451D01*
X19874037Y-12584193D01*
X19851911Y-12579156D01*
X19829227Y-12578531D01*
X19827651Y-12578800D01*
X19748900Y-12578800D01*
X19748900Y-12618881D01*
X19746610Y-12621171D01*
X19748900Y-12623461D01*
X19748900Y-12633174D01*
X19736851Y-12636645D01*
X19727593Y-12657363D01*
X19723500Y-12675342D01*
X19723500Y-12578800D01*
X19636000Y-12578800D01*
X19613770Y-12583491D01*
X19592882Y-12592429D01*
X19574139Y-12605270D01*
X19558261Y-12621522D01*
X19545859Y-12640558D01*
X19537599Y-12663545D01*
X19470200Y-12663545D01*
X19470200Y-12463004D01*
X20152844Y-12463004D01*
X20155368Y-12490739D01*
X20163231Y-12517456D01*
X20176134Y-12542137D01*
X20193585Y-12563842D01*
X20214919Y-12581744D01*
X20239325Y-12595161D01*
X20265871Y-12603582D01*
X20284539Y-12605676D01*
X20285673Y-12606035D01*
X20318199Y-12609684D01*
X20320540Y-12609700D01*
X20342260Y-12609700D01*
X20374833Y-12606506D01*
X20377525Y-12605693D01*
X20394977Y-12603982D01*
X20421639Y-12595933D01*
X20446229Y-12582858D01*
X20467811Y-12565256D01*
X20485564Y-12543797D01*
X20498810Y-12519298D01*
X20507045Y-12492694D01*
X20509956Y-12464996D01*
X20508892Y-12453296D01*
X20509956Y-12443171D01*
X20506989Y-12410576D01*
X20497749Y-12379178D01*
X20482585Y-12350174D01*
X20462077Y-12324666D01*
X20437005Y-12303628D01*
X20408324Y-12287861D01*
X20377127Y-12277965D01*
X20344601Y-12274316D01*
X20342260Y-12274300D01*
X20320540Y-12274300D01*
X20287967Y-12277494D01*
X20256635Y-12286954D01*
X20227736Y-12302319D01*
X20202373Y-12323005D01*
X20181511Y-12348223D01*
X20165944Y-12377014D01*
X20156265Y-12408279D01*
X20152844Y-12440829D01*
X20153926Y-12452710D01*
X20152844Y-12463004D01*
X19470200Y-12463004D01*
X19470200Y-11943703D01*
X19509047Y-11943703D01*
X19515869Y-11980872D01*
X19529780Y-12016009D01*
X19550252Y-12047774D01*
X19576503Y-12074958D01*
X19607535Y-12096526D01*
X19642164Y-12111655D01*
X19679073Y-12119770D01*
X19716855Y-12120562D01*
X19754072Y-12113999D01*
X19789305Y-12100333D01*
X19821212Y-12080084D01*
X19848579Y-12054023D01*
X19870362Y-12023143D01*
X19885733Y-11988620D01*
X19894106Y-11951769D01*
X19894708Y-11908605D01*
X19887368Y-11871534D01*
X19872967Y-11836595D01*
X19852054Y-11805119D01*
X19825426Y-11778304D01*
X19794096Y-11757171D01*
X19759259Y-11742527D01*
X19722240Y-11734928D01*
X19684451Y-11734664D01*
X19647330Y-11741746D01*
X19612291Y-11755902D01*
X19580669Y-11776595D01*
X19553669Y-11803035D01*
X19532319Y-11834217D01*
X19517431Y-11868951D01*
X19509574Y-11905916D01*
X19509047Y-11943703D01*
X19470200Y-11943703D01*
X19470200Y-11736850D01*
X19476964Y-11734859D01*
X19498186Y-11723765D01*
X19516849Y-11708759D01*
X19532241Y-11690415D01*
X19543778Y-11669430D01*
X19551019Y-11646604D01*
X19553688Y-11622807D01*
X19553700Y-11621094D01*
X19553700Y-11619906D01*
X19551363Y-11596074D01*
X19544442Y-11573149D01*
X19533199Y-11552005D01*
X19518064Y-11533448D01*
X19499613Y-11518183D01*
X19478548Y-11506794D01*
X19455672Y-11499712D01*
X19431857Y-11497209D01*
X19408008Y-11499380D01*
X19385036Y-11506141D01*
X19363814Y-11517235D01*
X19353926Y-11525186D01*
X19043112Y-11214372D01*
X19041032Y-11203864D01*
X19031862Y-11181617D01*
X19018546Y-11161575D01*
X19001590Y-11144501D01*
X18981642Y-11131045D01*
X18959459Y-11121720D01*
X18935888Y-11116882D01*
X18911826Y-11116714D01*
X18888189Y-11121223D01*
X18865879Y-11130237D01*
X18855849Y-11136800D01*
X18775040Y-11136800D01*
X18710066Y-11071826D01*
X18854634Y-11071826D01*
X18861190Y-11092181D01*
X18883190Y-11102190D01*
X18906720Y-11107714D01*
X18930876Y-11108542D01*
X18954729Y-11104641D01*
X18977362Y-11096162D01*
X18984810Y-11092181D01*
X18991366Y-11071826D01*
X18923000Y-11003461D01*
X18854634Y-11071826D01*
X18710066Y-11071826D01*
X18631615Y-10993376D01*
X18799958Y-10993376D01*
X18803859Y-11017229D01*
X18812338Y-11039862D01*
X18816319Y-11047310D01*
X18836674Y-11053866D01*
X18905040Y-10985500D01*
X18836674Y-10917134D01*
X18816319Y-10923690D01*
X18806310Y-10945690D01*
X18800786Y-10969220D01*
X18799958Y-10993376D01*
X18631615Y-10993376D01*
X18598612Y-10960372D01*
X18596532Y-10949864D01*
X18587362Y-10927617D01*
X18574046Y-10907575D01*
X18557090Y-10890501D01*
X18537142Y-10877045D01*
X18514959Y-10867720D01*
X18491388Y-10862882D01*
X18467326Y-10862714D01*
X18443689Y-10867223D01*
X18421379Y-10876237D01*
X18401244Y-10889413D01*
X18384052Y-10906248D01*
X18370457Y-10926103D01*
X18360978Y-10948220D01*
X18355975Y-10971757D01*
X18355639Y-10995817D01*
X18359983Y-11019484D01*
X18368841Y-11041857D01*
X18381876Y-11062084D01*
X18398591Y-11079393D01*
X18418350Y-11093126D01*
X18440400Y-11102759D01*
X18453371Y-11105611D01*
X18659880Y-11312120D01*
X18667211Y-11318141D01*
X18674478Y-11324239D01*
X18674951Y-11324499D01*
X18675368Y-11324842D01*
X18683731Y-11329326D01*
X18692042Y-11333895D01*
X18692557Y-11334058D01*
X18693033Y-11334314D01*
X18702103Y-11337087D01*
X18711148Y-11339956D01*
X18711685Y-11340016D01*
X18712201Y-11340174D01*
X18721631Y-11341132D01*
X18731066Y-11342190D01*
X18732123Y-11342197D01*
X18732142Y-11342199D01*
X18732159Y-11342198D01*
X18732500Y-11342200D01*
X18855763Y-11342200D01*
X18862850Y-11347126D01*
X18884900Y-11356759D01*
X18897871Y-11359611D01*
X18909431Y-11371170D01*
X18888189Y-11375223D01*
X18865879Y-11384237D01*
X18855849Y-11390800D01*
X18732500Y-11390800D01*
X18723058Y-11391726D01*
X18713608Y-11392552D01*
X18713089Y-11392703D01*
X18712552Y-11392756D01*
X18703468Y-11395499D01*
X18694361Y-11398145D01*
X18693882Y-11398393D01*
X18693364Y-11398549D01*
X18684984Y-11403005D01*
X18676566Y-11407369D01*
X18676144Y-11407705D01*
X18675667Y-11407959D01*
X18668317Y-11413953D01*
X18660901Y-11419873D01*
X18660149Y-11420615D01*
X18660134Y-11420627D01*
X18660122Y-11420641D01*
X18659880Y-11420880D01*
X18600642Y-11480119D01*
X18597641Y-11461771D01*
X18589162Y-11439138D01*
X18585181Y-11431690D01*
X18564826Y-11425134D01*
X18496461Y-11493500D01*
X18497875Y-11494914D01*
X18479914Y-11512875D01*
X18478500Y-11511460D01*
X18410134Y-11579826D01*
X18416690Y-11600181D01*
X18438690Y-11610190D01*
X18462220Y-11615714D01*
X18464953Y-11615808D01*
X18405880Y-11674880D01*
X18399858Y-11682212D01*
X18393761Y-11689478D01*
X18393501Y-11689951D01*
X18393158Y-11690368D01*
X18388675Y-11698729D01*
X18384105Y-11707042D01*
X18383942Y-11707557D01*
X18383686Y-11708033D01*
X18380913Y-11717103D01*
X18378044Y-11726147D01*
X18377984Y-11726685D01*
X18377826Y-11727201D01*
X18376868Y-11736631D01*
X18375810Y-11746066D01*
X18375803Y-11747122D01*
X18375801Y-11747141D01*
X18375802Y-11747159D01*
X18375800Y-11747500D01*
X18375800Y-12124799D01*
X18370457Y-12132603D01*
X18360978Y-12154720D01*
X18358396Y-12166864D01*
X18308960Y-12216300D01*
X18101174Y-12216300D01*
X18092642Y-12210545D01*
X18070459Y-12201220D01*
X18046888Y-12196382D01*
X18022826Y-12196214D01*
X18015437Y-12197623D01*
X18001133Y-12183320D01*
X18017720Y-12187214D01*
X18041876Y-12188042D01*
X18065729Y-12184141D01*
X18088362Y-12175662D01*
X18095810Y-12171681D01*
X18102366Y-12151326D01*
X18034000Y-12082960D01*
X17965634Y-12151326D01*
X17967615Y-12157477D01*
X17967438Y-12157383D01*
X17961009Y-12155417D01*
X17954615Y-12153389D01*
X17954236Y-12153346D01*
X17953870Y-12153234D01*
X17947181Y-12152555D01*
X17940515Y-12151807D01*
X17939768Y-12151802D01*
X17939754Y-12151800D01*
X17939740Y-12151802D01*
X17939500Y-12151800D01*
X17794721Y-12151800D01*
X17795940Y-12150805D01*
X17801184Y-12146619D01*
X17801716Y-12146094D01*
X17801727Y-12146086D01*
X17801735Y-12146076D01*
X17801907Y-12145907D01*
X17915680Y-12032133D01*
X17911786Y-12048720D01*
X17910958Y-12072875D01*
X17914859Y-12096728D01*
X17923338Y-12119362D01*
X17927319Y-12126810D01*
X17947674Y-12133366D01*
X18016040Y-12065000D01*
X18051961Y-12065000D01*
X18120326Y-12133366D01*
X18140681Y-12126810D01*
X18150690Y-12104810D01*
X18156214Y-12081280D01*
X18157042Y-12057124D01*
X18153141Y-12033271D01*
X18144662Y-12010638D01*
X18140681Y-12003190D01*
X18120326Y-11996634D01*
X18051961Y-12065000D01*
X18016040Y-12065000D01*
X18014625Y-12063586D01*
X18032586Y-12045625D01*
X18034000Y-12047039D01*
X18102366Y-11978674D01*
X18095810Y-11958319D01*
X18073810Y-11948310D01*
X18050280Y-11942786D01*
X18026125Y-11941958D01*
X18002272Y-11945859D01*
X18001765Y-11946049D01*
X18015291Y-11932523D01*
X18019402Y-11933426D01*
X18043459Y-11933930D01*
X18067156Y-11929752D01*
X18089590Y-11921050D01*
X18109907Y-11908157D01*
X18127333Y-11891563D01*
X18141203Y-11871900D01*
X18150990Y-11849917D01*
X18156322Y-11826453D01*
X18156705Y-11798969D01*
X18152032Y-11775364D01*
X18142862Y-11753117D01*
X18129546Y-11733075D01*
X18112590Y-11716001D01*
X18092642Y-11702545D01*
X18070459Y-11693220D01*
X18046888Y-11688382D01*
X18022826Y-11688214D01*
X18001539Y-11692274D01*
X18015291Y-11678523D01*
X18019402Y-11679426D01*
X18043459Y-11679930D01*
X18067156Y-11675752D01*
X18089590Y-11667050D01*
X18109907Y-11654157D01*
X18127333Y-11637563D01*
X18141203Y-11617900D01*
X18150990Y-11595917D01*
X18156322Y-11572453D01*
X18156705Y-11544969D01*
X18152032Y-11521364D01*
X18143793Y-11501375D01*
X18355458Y-11501375D01*
X18359359Y-11525228D01*
X18367838Y-11547862D01*
X18371819Y-11555310D01*
X18392174Y-11561866D01*
X18460540Y-11493500D01*
X18392174Y-11425134D01*
X18371819Y-11431690D01*
X18361810Y-11453690D01*
X18356286Y-11477220D01*
X18355458Y-11501375D01*
X18143793Y-11501375D01*
X18142862Y-11499117D01*
X18129546Y-11479075D01*
X18112590Y-11462001D01*
X18092642Y-11448545D01*
X18070459Y-11439220D01*
X18046888Y-11434382D01*
X18022826Y-11434214D01*
X18001539Y-11438274D01*
X18015291Y-11424523D01*
X18019402Y-11425426D01*
X18043459Y-11425930D01*
X18067156Y-11421752D01*
X18089590Y-11413050D01*
X18098850Y-11407174D01*
X18410134Y-11407174D01*
X18478500Y-11475539D01*
X18546866Y-11407174D01*
X18540310Y-11386819D01*
X18518310Y-11376810D01*
X18494780Y-11371286D01*
X18470625Y-11370458D01*
X18446772Y-11374359D01*
X18424138Y-11382838D01*
X18416690Y-11386819D01*
X18410134Y-11407174D01*
X18098850Y-11407174D01*
X18109907Y-11400157D01*
X18127333Y-11383563D01*
X18141203Y-11363900D01*
X18150990Y-11341917D01*
X18156322Y-11318453D01*
X18156705Y-11290969D01*
X18152032Y-11267364D01*
X18142862Y-11245117D01*
X18129546Y-11225075D01*
X18112590Y-11208001D01*
X18092642Y-11194545D01*
X18070459Y-11185220D01*
X18046888Y-11180382D01*
X18022826Y-11180214D01*
X18001539Y-11184274D01*
X18015291Y-11170523D01*
X18019402Y-11171426D01*
X18043459Y-11171930D01*
X18067156Y-11167752D01*
X18089590Y-11159050D01*
X18101173Y-11151700D01*
X18161000Y-11151700D01*
X18170443Y-11150774D01*
X18179892Y-11149948D01*
X18180411Y-11149797D01*
X18180948Y-11149744D01*
X18190029Y-11147003D01*
X18199140Y-11144356D01*
X18199619Y-11144107D01*
X18200136Y-11143951D01*
X18208508Y-11139499D01*
X18216935Y-11135132D01*
X18217357Y-11134794D01*
X18217833Y-11134541D01*
X18225180Y-11128549D01*
X18232599Y-11122627D01*
X18233351Y-11121885D01*
X18233366Y-11121873D01*
X18233377Y-11121859D01*
X18233620Y-11121620D01*
X18297120Y-11058120D01*
X18303142Y-11050788D01*
X18309239Y-11043522D01*
X18309499Y-11043049D01*
X18309842Y-11042632D01*
X18314326Y-11034269D01*
X18318895Y-11025958D01*
X18319059Y-11025443D01*
X18319314Y-11024967D01*
X18322088Y-11015894D01*
X18324956Y-11006853D01*
X18325016Y-11006316D01*
X18325174Y-11005799D01*
X18326133Y-10996360D01*
X18327190Y-10986934D01*
X18327197Y-10985879D01*
X18327199Y-10985859D01*
X18327198Y-10985840D01*
X18327200Y-10985500D01*
X18327200Y-10901040D01*
X18394040Y-10834200D01*
X18943960Y-10834200D01*
X19000150Y-10890390D01*
X18991366Y-10899173D01*
X18984810Y-10878819D01*
X18962810Y-10868810D01*
X18939280Y-10863286D01*
X18915125Y-10862458D01*
X18891272Y-10866359D01*
X18868638Y-10874838D01*
X18861190Y-10878819D01*
X18854634Y-10899174D01*
X18923000Y-10967540D01*
X18924414Y-10966125D01*
X18942375Y-10984086D01*
X18940961Y-10985500D01*
X19009326Y-11053866D01*
X19010800Y-11053391D01*
X19010800Y-11112500D01*
X19011726Y-11121943D01*
X19012553Y-11131392D01*
X19012703Y-11131911D01*
X19012756Y-11132448D01*
X19015498Y-11141529D01*
X19018145Y-11150640D01*
X19018393Y-11151119D01*
X19018549Y-11151636D01*
X19023001Y-11160008D01*
X19027369Y-11168435D01*
X19027706Y-11168857D01*
X19027959Y-11169333D01*
X19033951Y-11176680D01*
X19039873Y-11184099D01*
X19040615Y-11184851D01*
X19040627Y-11184866D01*
X19040641Y-11184877D01*
X19040880Y-11185120D01*
X19298880Y-11443120D01*
X19306212Y-11449142D01*
X19313478Y-11455239D01*
X19313952Y-11455499D01*
X19314369Y-11455842D01*
X19322729Y-11460325D01*
X19331042Y-11464895D01*
X19331557Y-11465058D01*
X19332033Y-11465314D01*
X19341103Y-11468087D01*
X19350148Y-11470956D01*
X19350685Y-11471016D01*
X19351201Y-11471174D01*
X19360631Y-11472132D01*
X19361705Y-11472252D01*
X19362387Y-11472817D01*
X19383452Y-11484206D01*
X19406328Y-11491288D01*
X19430143Y-11493791D01*
X19453992Y-11491620D01*
X19476964Y-11484859D01*
X19498186Y-11473765D01*
X19516849Y-11458759D01*
X19532241Y-11440415D01*
X19543778Y-11419430D01*
X19551019Y-11396604D01*
X19553688Y-11372807D01*
X19553700Y-11371094D01*
X19553700Y-11369906D01*
X19551363Y-11346074D01*
X19544442Y-11323149D01*
X19533199Y-11302005D01*
X19518064Y-11283448D01*
X19502331Y-11270432D01*
X19516849Y-11258759D01*
X19532241Y-11240415D01*
X19543778Y-11219430D01*
X19551019Y-11196604D01*
X19553688Y-11172807D01*
X19553700Y-11171094D01*
X19553700Y-11169906D01*
X19551363Y-11146074D01*
X19544442Y-11123149D01*
X19533199Y-11102005D01*
X19518064Y-11083448D01*
X19499613Y-11068183D01*
X19478548Y-11056794D01*
X19455672Y-11049712D01*
X19449280Y-11049041D01*
X19443440Y-11043200D01*
X19443700Y-11043200D01*
X19443700Y-11029286D01*
X19462635Y-11039052D01*
X19470561Y-11036648D01*
X19492460Y-11026699D01*
X19511997Y-11012668D01*
X19528422Y-10995095D01*
X19541103Y-10974656D01*
X19549552Y-10952135D01*
X19539867Y-10933200D01*
X19443700Y-10933200D01*
X19443700Y-10935200D01*
X19418300Y-10935200D01*
X19418300Y-10933200D01*
X19416300Y-10933200D01*
X19416300Y-10907800D01*
X19418300Y-10907800D01*
X19418300Y-10811714D01*
X19443700Y-10811714D01*
X19443700Y-10907800D01*
X19539867Y-10907800D01*
X19549552Y-10888865D01*
X19541103Y-10866344D01*
X19528422Y-10845905D01*
X19511997Y-10828332D01*
X19492460Y-10814301D01*
X19470561Y-10804352D01*
X19462635Y-10801948D01*
X19443700Y-10811714D01*
X19418300Y-10811714D01*
X19399365Y-10801948D01*
X19391440Y-10804352D01*
X19369540Y-10814301D01*
X19350003Y-10828332D01*
X19343200Y-10835611D01*
X19343200Y-10668000D01*
X19342274Y-10658558D01*
X19341448Y-10649108D01*
X19341297Y-10648589D01*
X19341244Y-10648052D01*
X19338503Y-10638973D01*
X19335856Y-10629861D01*
X19335774Y-10629703D01*
X19509047Y-10629703D01*
X19515869Y-10666872D01*
X19529780Y-10702009D01*
X19550252Y-10733774D01*
X19576503Y-10760959D01*
X19607535Y-10782526D01*
X19642164Y-10797655D01*
X19679073Y-10805770D01*
X19716855Y-10806562D01*
X19754072Y-10800000D01*
X19789305Y-10786334D01*
X19821212Y-10766084D01*
X19848579Y-10740023D01*
X19870362Y-10709143D01*
X19885733Y-10674620D01*
X19894106Y-10637769D01*
X19894708Y-10594605D01*
X19887368Y-10557534D01*
X19872967Y-10522595D01*
X19852054Y-10491119D01*
X19825426Y-10464304D01*
X19794096Y-10443172D01*
X19759259Y-10428527D01*
X19722240Y-10420928D01*
X19684451Y-10420665D01*
X19647330Y-10427746D01*
X19612291Y-10441902D01*
X19580669Y-10462595D01*
X19553669Y-10489036D01*
X19532319Y-10520217D01*
X19517431Y-10554951D01*
X19509574Y-10591916D01*
X19509047Y-10629703D01*
X19335774Y-10629703D01*
X19335607Y-10629381D01*
X19335451Y-10628864D01*
X19330999Y-10620492D01*
X19326632Y-10612066D01*
X19326294Y-10611643D01*
X19326041Y-10611167D01*
X19320049Y-10603820D01*
X19314127Y-10596401D01*
X19313385Y-10595649D01*
X19313373Y-10595634D01*
X19313359Y-10595623D01*
X19313120Y-10595380D01*
X19186120Y-10468380D01*
X19178788Y-10462358D01*
X19171522Y-10456261D01*
X19171049Y-10456001D01*
X19170632Y-10455658D01*
X19162271Y-10451175D01*
X19153958Y-10446605D01*
X19153443Y-10446442D01*
X19152967Y-10446186D01*
X19143897Y-10443413D01*
X19134853Y-10440544D01*
X19134315Y-10440484D01*
X19133799Y-10440326D01*
X19124369Y-10439368D01*
X19114934Y-10438310D01*
X19113878Y-10438303D01*
X19113859Y-10438301D01*
X19113841Y-10438302D01*
X19113500Y-10438300D01*
X18101174Y-10438300D01*
X18092642Y-10432545D01*
X18070459Y-10423220D01*
X18046888Y-10418382D01*
X18022826Y-10418214D01*
X17999189Y-10422723D01*
X17976879Y-10431737D01*
X17956744Y-10444913D01*
X17939552Y-10461748D01*
X17925957Y-10481603D01*
X17916478Y-10503720D01*
X17911475Y-10527257D01*
X17911139Y-10551317D01*
X17912648Y-10559539D01*
X17538093Y-10934093D01*
X17533832Y-10939281D01*
X17529514Y-10944427D01*
X17529330Y-10944762D01*
X17529088Y-10945057D01*
X17525915Y-10950974D01*
X17522679Y-10956860D01*
X17522563Y-10957225D01*
X17522383Y-10957562D01*
X17520417Y-10963991D01*
X17518389Y-10970385D01*
X17518346Y-10970764D01*
X17518234Y-10971130D01*
X17517555Y-10977819D01*
X17516807Y-10984485D01*
X17516802Y-10985232D01*
X17516800Y-10985246D01*
X17516802Y-10985260D01*
X17516800Y-10985500D01*
X17516800Y-11449137D01*
X17269137Y-11696800D01*
X17130794Y-11696800D01*
X17129000Y-11696545D01*
X16989000Y-11696545D01*
X16980608Y-11697214D01*
X16966374Y-11701622D01*
X16953931Y-11709821D01*
X16944265Y-11721162D01*
X16938142Y-11734747D01*
X16936045Y-11749500D01*
X16936045Y-11789500D01*
X16936714Y-11797892D01*
X16937873Y-11801635D01*
X16936045Y-11814500D01*
X16936045Y-11854500D01*
X16936714Y-11862892D01*
X16937873Y-11866635D01*
X16936045Y-11879500D01*
X16936045Y-11919500D01*
X16936714Y-11927892D01*
X16937873Y-11931635D01*
X16936045Y-11944500D01*
X16936045Y-11984500D01*
X16936714Y-11992892D01*
X16937873Y-11996635D01*
X16936045Y-12009500D01*
X16936045Y-12049500D01*
X16936714Y-12057892D01*
X16937873Y-12061635D01*
X16936045Y-12074500D01*
X16936045Y-12114500D01*
X16936714Y-12122892D01*
X16937845Y-12126543D01*
X16936300Y-12134309D01*
X16936300Y-12136325D01*
X16948892Y-12148917D01*
X16949322Y-12149569D01*
X16960662Y-12159235D01*
X16961700Y-12159702D01*
X16953931Y-12164821D01*
X16949944Y-12169500D01*
X16949475Y-12169500D01*
X16936300Y-12182675D01*
X16936300Y-12184690D01*
X16937793Y-12192198D01*
X16936045Y-12204500D01*
X16936045Y-12244500D01*
X16936714Y-12252892D01*
X16937873Y-12256635D01*
X16936045Y-12269500D01*
X16936045Y-12309500D01*
X16936714Y-12317892D01*
X16937873Y-12321635D01*
X16936045Y-12334500D01*
X16936045Y-12374500D01*
X16936714Y-12382892D01*
X16937873Y-12386635D01*
X16936045Y-12399500D01*
X16936045Y-12439500D01*
X16936714Y-12447892D01*
X16937873Y-12451635D01*
X16936045Y-12464500D01*
X16936045Y-12504500D01*
X16936714Y-12512892D01*
X16937873Y-12516635D01*
X16936045Y-12529500D01*
X16936045Y-12569500D01*
X16936714Y-12577892D01*
X16937873Y-12581635D01*
X16936045Y-12594500D01*
X16936045Y-12634500D01*
X16936714Y-12642892D01*
X16941122Y-12657126D01*
X16949322Y-12669569D01*
X16960662Y-12679235D01*
X16974247Y-12685358D01*
X16989000Y-12687455D01*
X17129000Y-12687455D01*
X17132197Y-12687200D01*
X17270637Y-12687200D01*
X17516800Y-12933363D01*
X17516800Y-13398500D01*
X17517455Y-13405182D01*
X17518041Y-13411873D01*
X17518147Y-13412241D01*
X17518185Y-13412621D01*
X17520125Y-13419048D01*
X17521999Y-13425498D01*
X17522175Y-13425838D01*
X17522286Y-13426204D01*
X17525441Y-13432139D01*
X17528529Y-13438095D01*
X17528767Y-13438393D01*
X17528947Y-13438732D01*
X17533195Y-13443940D01*
X17537381Y-13449184D01*
X17537906Y-13449716D01*
X17537914Y-13449727D01*
X17537924Y-13449735D01*
X17538093Y-13449907D01*
X17912521Y-13824334D01*
X17911475Y-13829257D01*
X17911139Y-13853317D01*
X17915483Y-13876984D01*
X17924341Y-13899357D01*
X17937376Y-13919584D01*
X17954091Y-13936893D01*
X17973850Y-13950626D01*
X17995900Y-13960259D01*
X18019402Y-13965426D01*
X18043459Y-13965930D01*
X18067156Y-13961752D01*
X18089590Y-13953050D01*
X18109907Y-13940157D01*
X18127333Y-13923563D01*
X18141203Y-13903900D01*
X18150990Y-13881917D01*
X18156322Y-13858453D01*
X18156705Y-13830969D01*
X18152032Y-13807364D01*
X18142862Y-13785117D01*
X18129546Y-13765075D01*
X18112590Y-13748001D01*
X18092642Y-13734545D01*
X18070459Y-13725220D01*
X18046888Y-13720382D01*
X18022826Y-13720214D01*
X18015437Y-13721623D01*
X18001249Y-13707435D01*
X18019402Y-13711426D01*
X18043459Y-13711930D01*
X18067156Y-13707752D01*
X18089590Y-13699050D01*
X18109907Y-13686157D01*
X18127333Y-13669563D01*
X18141203Y-13649900D01*
X18150990Y-13627917D01*
X18156322Y-13604453D01*
X18156705Y-13576969D01*
X18152032Y-13553364D01*
X18142862Y-13531117D01*
X18129546Y-13511075D01*
X18112590Y-13494001D01*
X18092642Y-13480545D01*
X18070459Y-13471220D01*
X18046888Y-13466382D01*
X18022826Y-13466214D01*
X18015437Y-13467623D01*
X18001249Y-13453435D01*
X18019402Y-13457426D01*
X18043459Y-13457930D01*
X18067156Y-13453752D01*
X18089590Y-13445050D01*
X18109907Y-13432157D01*
X18127333Y-13415563D01*
X18141203Y-13395900D01*
X18150990Y-13373917D01*
X18156322Y-13350453D01*
X18156705Y-13322969D01*
X18152032Y-13299364D01*
X18142862Y-13277117D01*
X18129546Y-13257075D01*
X18112590Y-13240001D01*
X18092642Y-13226545D01*
X18070459Y-13217220D01*
X18046888Y-13212382D01*
X18022826Y-13212214D01*
X18015437Y-13213623D01*
X18001249Y-13199435D01*
X18019402Y-13203426D01*
X18043459Y-13203930D01*
X18067156Y-13199752D01*
X18089590Y-13191050D01*
X18109907Y-13178157D01*
X18127333Y-13161563D01*
X18141203Y-13141900D01*
X18150990Y-13119917D01*
X18156322Y-13096453D01*
X18156705Y-13068969D01*
X18152032Y-13045364D01*
X18142862Y-13023117D01*
X18129546Y-13003075D01*
X18112590Y-12986001D01*
X18092642Y-12972545D01*
X18070459Y-12963220D01*
X18046888Y-12958382D01*
X18022826Y-12958214D01*
X18015437Y-12959623D01*
X18001249Y-12945435D01*
X18019402Y-12949426D01*
X18043459Y-12949930D01*
X18067156Y-12945752D01*
X18089590Y-12937050D01*
X18101173Y-12929700D01*
X18118460Y-12929700D01*
X18185300Y-12996540D01*
X18185300Y-13751500D01*
X18186226Y-13760943D01*
X18187053Y-13770392D01*
X18187203Y-13770911D01*
X18187256Y-13771448D01*
X18189998Y-13780529D01*
X18192645Y-13789639D01*
X18192893Y-13790119D01*
X18193049Y-13790636D01*
X18197501Y-13799008D01*
X18201869Y-13807434D01*
X18202206Y-13807857D01*
X18202459Y-13808333D01*
X18208451Y-13815680D01*
X18214373Y-13823099D01*
X18215115Y-13823851D01*
X18215127Y-13823866D01*
X18215141Y-13823877D01*
X18215380Y-13824120D01*
X18249900Y-13858640D01*
X18249900Y-14058900D01*
X18250147Y-14061391D01*
X18262847Y-14124891D01*
X18264733Y-14129445D01*
X18290133Y-14167545D01*
X18291720Y-14169480D01*
X18342520Y-14220280D01*
X18344455Y-14221867D01*
X18382555Y-14247267D01*
X18386520Y-14249021D01*
X18437320Y-14261721D01*
X18440400Y-14262100D01*
X18516600Y-14262100D01*
X18519680Y-14261721D01*
X18570480Y-14249021D01*
X18574445Y-14247267D01*
X18612545Y-14221867D01*
X18614480Y-14220280D01*
X18652580Y-14182180D01*
X18654167Y-14180245D01*
X18679567Y-14142145D01*
X18680792Y-14139817D01*
X18706192Y-14076317D01*
X18706888Y-14072700D01*
X19046263Y-14072700D01*
X19053350Y-14077626D01*
X19075400Y-14087259D01*
X19098902Y-14092426D01*
X19099815Y-14092445D01*
X19067880Y-14124380D01*
X19061858Y-14131712D01*
X19055761Y-14138978D01*
X19055501Y-14139451D01*
X19055158Y-14139868D01*
X19050675Y-14148229D01*
X19046105Y-14156542D01*
X19045942Y-14157057D01*
X19045686Y-14157533D01*
X19042913Y-14166603D01*
X19040044Y-14175647D01*
X19039984Y-14176185D01*
X19039826Y-14176701D01*
X19038868Y-14186131D01*
X19037810Y-14195566D01*
X19037803Y-14196622D01*
X19037801Y-14196641D01*
X19037802Y-14196659D01*
X19037800Y-14197000D01*
X19037800Y-14278842D01*
X19032451Y-14261125D01*
X19023041Y-14243428D01*
X19010373Y-14227895D01*
X18994929Y-14215119D01*
X18977298Y-14205586D01*
X18958151Y-14199659D01*
X18938217Y-14197564D01*
X18918256Y-14199380D01*
X18899028Y-14205039D01*
X18881265Y-14214325D01*
X18865645Y-14226885D01*
X18852761Y-14242239D01*
X18843105Y-14259803D01*
X18837044Y-14278909D01*
X18834810Y-14298827D01*
X18834800Y-14300261D01*
X18834800Y-14401739D01*
X18836756Y-14421687D01*
X18842549Y-14440875D01*
X18851959Y-14458572D01*
X18864627Y-14474105D01*
X18880071Y-14486881D01*
X18897702Y-14496414D01*
X18916716Y-14502300D01*
X13735845Y-14502300D01*
X13803414Y-14490386D01*
X13873386Y-14463245D01*
X13936754Y-14423031D01*
X13991104Y-14371274D01*
X14034366Y-14309946D01*
X14064892Y-14241383D01*
X14081519Y-14168197D01*
X14082716Y-14082474D01*
X14068139Y-14008852D01*
X14039539Y-13939464D01*
X13998006Y-13876952D01*
X13945122Y-13823698D01*
X13882902Y-13781730D01*
X13813715Y-13752646D01*
X13740197Y-13737555D01*
X13665147Y-13737031D01*
X13591425Y-13751094D01*
X13521839Y-13779209D01*
X13459038Y-13820304D01*
X13405416Y-13872815D01*
X13363015Y-13934741D01*
X13333449Y-14003723D01*
X13317845Y-14077134D01*
X13317700Y-14087511D01*
X13317700Y-13611826D01*
X14092134Y-13611826D01*
X14098690Y-13632181D01*
X14120690Y-13642190D01*
X14144220Y-13647714D01*
X14168375Y-13648542D01*
X14192228Y-13644641D01*
X14214862Y-13636162D01*
X14222310Y-13632181D01*
X14228866Y-13611826D01*
X14160500Y-13543460D01*
X14092134Y-13611826D01*
X13317700Y-13611826D01*
X13317700Y-13533375D01*
X14037458Y-13533375D01*
X14041359Y-13557228D01*
X14049838Y-13579862D01*
X14053819Y-13587310D01*
X14074174Y-13593866D01*
X14142539Y-13525500D01*
X14178460Y-13525500D01*
X14246826Y-13593866D01*
X14267181Y-13587310D01*
X14277190Y-13565310D01*
X14282714Y-13541780D01*
X14282918Y-13535817D01*
X14291639Y-13535817D01*
X14295982Y-13559484D01*
X14304841Y-13581857D01*
X14317875Y-13602084D01*
X14334591Y-13619393D01*
X14354350Y-13633126D01*
X14376400Y-13642759D01*
X14399901Y-13647926D01*
X14423959Y-13648430D01*
X14447656Y-13644252D01*
X14470090Y-13635550D01*
X14490407Y-13622657D01*
X14507833Y-13606063D01*
X14521703Y-13586400D01*
X14531490Y-13564417D01*
X14536821Y-13540953D01*
X14537205Y-13513469D01*
X14532531Y-13489864D01*
X14523362Y-13467617D01*
X14517200Y-13458343D01*
X14517200Y-13441040D01*
X14584040Y-13374200D01*
X14728263Y-13374200D01*
X14735350Y-13379126D01*
X14757400Y-13388759D01*
X14780901Y-13393926D01*
X14804959Y-13394430D01*
X14828656Y-13390252D01*
X14851090Y-13381550D01*
X14871407Y-13368657D01*
X14888833Y-13352063D01*
X14902703Y-13332400D01*
X14912490Y-13310417D01*
X14917821Y-13286953D01*
X14918205Y-13259469D01*
X14913531Y-13235864D01*
X14904362Y-13213617D01*
X14891046Y-13193575D01*
X14874090Y-13176501D01*
X14854141Y-13163045D01*
X14831959Y-13153720D01*
X14808388Y-13148882D01*
X14784326Y-13148714D01*
X14760689Y-13153223D01*
X14738378Y-13162237D01*
X14728349Y-13168800D01*
X14541500Y-13168800D01*
X14532058Y-13169726D01*
X14522608Y-13170552D01*
X14522089Y-13170703D01*
X14521552Y-13170756D01*
X14512472Y-13173497D01*
X14503360Y-13176144D01*
X14502881Y-13176393D01*
X14502364Y-13176549D01*
X14493992Y-13181001D01*
X14485565Y-13185368D01*
X14485143Y-13185706D01*
X14484667Y-13185959D01*
X14477320Y-13191951D01*
X14469901Y-13197873D01*
X14469149Y-13198615D01*
X14469134Y-13198627D01*
X14469123Y-13198641D01*
X14468880Y-13198880D01*
X14341880Y-13325880D01*
X14335858Y-13333212D01*
X14329761Y-13340478D01*
X14329500Y-13340951D01*
X14329158Y-13341368D01*
X14324675Y-13349729D01*
X14320105Y-13358042D01*
X14319942Y-13358557D01*
X14319686Y-13359033D01*
X14316913Y-13368103D01*
X14314044Y-13377147D01*
X14313984Y-13377685D01*
X14313826Y-13378201D01*
X14312868Y-13387631D01*
X14311810Y-13397066D01*
X14311803Y-13398122D01*
X14311801Y-13398141D01*
X14311802Y-13398159D01*
X14311800Y-13398500D01*
X14311800Y-13458299D01*
X14306457Y-13466103D01*
X14296978Y-13488220D01*
X14291975Y-13511757D01*
X14291639Y-13535817D01*
X14282918Y-13535817D01*
X14283542Y-13517624D01*
X14279641Y-13493771D01*
X14271162Y-13471138D01*
X14267181Y-13463690D01*
X14246826Y-13457134D01*
X14178460Y-13525500D01*
X14142539Y-13525500D01*
X14074174Y-13457134D01*
X14053819Y-13463690D01*
X14043810Y-13485690D01*
X14038286Y-13509220D01*
X14037458Y-13533375D01*
X13317700Y-13533375D01*
X13317700Y-13439174D01*
X14092134Y-13439174D01*
X14160500Y-13507539D01*
X14228866Y-13439174D01*
X14222310Y-13418819D01*
X14200310Y-13408810D01*
X14176780Y-13403286D01*
X14152624Y-13402458D01*
X14128771Y-13406359D01*
X14106138Y-13414838D01*
X14098690Y-13418819D01*
X14092134Y-13439174D01*
X13317700Y-13439174D01*
X13317700Y-12715817D01*
X13466139Y-12715817D01*
X13470482Y-12739484D01*
X13479341Y-12761857D01*
X13492375Y-12782084D01*
X13509091Y-12799393D01*
X13528850Y-12813126D01*
X13550900Y-12822759D01*
X13574401Y-12827926D01*
X13598459Y-12828430D01*
X13622156Y-12824252D01*
X13644590Y-12815550D01*
X13656172Y-12808200D01*
X14171763Y-12808200D01*
X14178850Y-12813126D01*
X14200900Y-12822759D01*
X14224401Y-12827926D01*
X14248459Y-12828430D01*
X14272156Y-12824252D01*
X14294590Y-12815550D01*
X14306172Y-12808200D01*
X14567960Y-12808200D01*
X14675350Y-12915590D01*
X14676982Y-12924484D01*
X14685841Y-12946857D01*
X14698875Y-12967084D01*
X14715591Y-12984393D01*
X14735350Y-12998126D01*
X14757400Y-13007759D01*
X14780901Y-13012926D01*
X14804959Y-13013430D01*
X14828656Y-13009252D01*
X14851090Y-13000550D01*
X14862672Y-12993200D01*
X15006960Y-12993200D01*
X15073800Y-13060040D01*
X15073800Y-13462000D01*
X15074726Y-13471443D01*
X15075552Y-13480892D01*
X15075703Y-13481411D01*
X15075756Y-13481948D01*
X15078497Y-13491029D01*
X15081144Y-13500139D01*
X15081393Y-13500619D01*
X15081549Y-13501136D01*
X15086001Y-13509508D01*
X15090368Y-13517934D01*
X15090706Y-13518357D01*
X15090959Y-13518833D01*
X15096951Y-13526180D01*
X15102873Y-13533599D01*
X15103615Y-13534351D01*
X15103627Y-13534366D01*
X15103641Y-13534377D01*
X15103880Y-13534620D01*
X15230880Y-13661620D01*
X15238214Y-13667644D01*
X15245478Y-13673739D01*
X15245951Y-13673999D01*
X15246368Y-13674342D01*
X15254731Y-13678826D01*
X15263042Y-13683395D01*
X15263557Y-13683558D01*
X15264033Y-13683814D01*
X15273103Y-13686587D01*
X15282147Y-13689456D01*
X15282685Y-13689516D01*
X15283201Y-13689674D01*
X15292631Y-13690632D01*
X15302066Y-13691690D01*
X15303122Y-13691697D01*
X15303141Y-13691699D01*
X15303159Y-13691698D01*
X15303500Y-13691700D01*
X15426763Y-13691700D01*
X15433850Y-13696626D01*
X15455900Y-13706259D01*
X15479401Y-13711426D01*
X15503459Y-13711930D01*
X15526280Y-13707906D01*
X15512627Y-13721560D01*
X15506888Y-13720382D01*
X15482826Y-13720214D01*
X15459189Y-13724723D01*
X15436878Y-13733737D01*
X15426849Y-13740300D01*
X15240000Y-13740300D01*
X15230558Y-13741226D01*
X15221108Y-13742052D01*
X15220589Y-13742203D01*
X15220052Y-13742256D01*
X15210972Y-13744997D01*
X15201860Y-13747644D01*
X15201381Y-13747893D01*
X15200864Y-13748049D01*
X15192492Y-13752501D01*
X15184065Y-13756868D01*
X15183643Y-13757206D01*
X15183167Y-13757459D01*
X15175820Y-13763451D01*
X15168401Y-13769373D01*
X15167649Y-13770115D01*
X15167634Y-13770127D01*
X15167622Y-13770141D01*
X15167380Y-13770380D01*
X14770388Y-14167372D01*
X14760689Y-14169223D01*
X14738378Y-14178237D01*
X14718244Y-14191412D01*
X14701051Y-14208248D01*
X14687457Y-14228103D01*
X14677978Y-14250220D01*
X14672975Y-14273757D01*
X14672639Y-14297817D01*
X14676982Y-14321484D01*
X14685841Y-14343857D01*
X14698875Y-14364084D01*
X14715591Y-14381393D01*
X14735350Y-14395126D01*
X14757400Y-14404759D01*
X14780901Y-14409926D01*
X14804959Y-14410430D01*
X14828656Y-14406252D01*
X14851090Y-14397550D01*
X14871407Y-14384657D01*
X14888833Y-14368063D01*
X14902703Y-14348400D01*
X14912490Y-14326417D01*
X14915627Y-14312613D01*
X15282540Y-13945700D01*
X15426763Y-13945700D01*
X15433850Y-13950626D01*
X15455900Y-13960259D01*
X15479401Y-13965426D01*
X15503459Y-13965930D01*
X15527156Y-13961752D01*
X15549590Y-13953050D01*
X15569907Y-13940157D01*
X15587333Y-13923563D01*
X15601203Y-13903900D01*
X15610990Y-13881917D01*
X15616321Y-13858453D01*
X15616705Y-13830969D01*
X15615406Y-13824407D01*
X15989907Y-13449907D01*
X15994166Y-13444722D01*
X15998486Y-13439573D01*
X15998670Y-13439238D01*
X15998912Y-13438943D01*
X16002085Y-13433026D01*
X16005321Y-13427140D01*
X16005437Y-13426775D01*
X16005617Y-13426438D01*
X16007582Y-13420013D01*
X16009611Y-13413615D01*
X16009654Y-13413235D01*
X16009766Y-13412870D01*
X16010444Y-13406190D01*
X16011193Y-13399515D01*
X16011198Y-13398767D01*
X16011199Y-13398754D01*
X16011198Y-13398741D01*
X16011200Y-13398500D01*
X16011200Y-12937113D01*
X16261113Y-12687200D01*
X16397206Y-12687200D01*
X16399000Y-12687455D01*
X16539000Y-12687455D01*
X16547392Y-12686786D01*
X16561626Y-12682378D01*
X16574069Y-12674178D01*
X16583735Y-12662838D01*
X16589858Y-12649253D01*
X16591955Y-12634500D01*
X16591955Y-12594500D01*
X16591286Y-12586108D01*
X16590127Y-12582365D01*
X16591955Y-12569500D01*
X16591955Y-12529500D01*
X16591286Y-12521108D01*
X16590127Y-12517365D01*
X16591955Y-12504500D01*
X16591955Y-12464500D01*
X16591286Y-12456108D01*
X16590127Y-12452365D01*
X16591955Y-12439500D01*
X16591955Y-12399500D01*
X16591286Y-12391108D01*
X16590127Y-12387365D01*
X16591955Y-12374500D01*
X16591955Y-12334500D01*
X16591286Y-12326108D01*
X16590127Y-12322365D01*
X16591955Y-12309500D01*
X16591955Y-12269500D01*
X16591286Y-12261108D01*
X16590155Y-12257457D01*
X16591700Y-12249690D01*
X16591700Y-12247675D01*
X16579108Y-12235083D01*
X16578678Y-12234431D01*
X16567338Y-12224765D01*
X16566300Y-12224298D01*
X16574069Y-12219178D01*
X16578056Y-12214500D01*
X16578525Y-12214500D01*
X16591700Y-12201325D01*
X16591700Y-12199309D01*
X16590207Y-12191802D01*
X16591955Y-12179500D01*
X16591955Y-12139500D01*
X16591286Y-12131108D01*
X16590127Y-12127365D01*
X16591955Y-12114500D01*
X16591955Y-12074500D01*
X16591286Y-12066108D01*
X16590127Y-12062365D01*
X16591955Y-12049500D01*
X16591955Y-12009500D01*
X16591286Y-12001108D01*
X16590127Y-11997365D01*
X16591955Y-11984500D01*
X16591955Y-11944500D01*
X16591286Y-11936108D01*
X16590127Y-11932365D01*
X16591955Y-11919500D01*
X16591955Y-11879500D01*
X16591286Y-11871108D01*
X16590127Y-11867365D01*
X16591955Y-11854500D01*
X16591955Y-11814500D01*
X16591286Y-11806108D01*
X16590127Y-11802365D01*
X16591955Y-11789500D01*
X16591955Y-11749500D01*
X16591286Y-11741108D01*
X16586878Y-11726873D01*
X16578678Y-11714431D01*
X16567338Y-11704765D01*
X16553753Y-11698642D01*
X16539000Y-11696545D01*
X16399000Y-11696545D01*
X16395803Y-11696800D01*
X16261113Y-11696800D01*
X16011200Y-11446887D01*
X16011200Y-10985500D01*
X16010545Y-10978818D01*
X16009959Y-10972127D01*
X16009853Y-10971759D01*
X16009815Y-10971379D01*
X16007875Y-10964952D01*
X16006001Y-10958502D01*
X16005825Y-10958162D01*
X16005714Y-10957796D01*
X16002559Y-10951861D01*
X15999471Y-10945905D01*
X15999233Y-10945607D01*
X15999053Y-10945268D01*
X15994805Y-10940060D01*
X15990619Y-10934816D01*
X15990095Y-10934284D01*
X15990086Y-10934273D01*
X15990076Y-10934265D01*
X15989907Y-10934093D01*
X15615571Y-10559757D01*
X15616321Y-10556453D01*
X15616705Y-10528969D01*
X15612031Y-10505364D01*
X15602862Y-10483117D01*
X15589546Y-10463075D01*
X15572590Y-10446001D01*
X15552641Y-10432545D01*
X15530459Y-10423220D01*
X15519136Y-10420896D01*
X15406200Y-10307960D01*
X15406200Y-10163784D01*
X15410703Y-10157400D01*
X15420490Y-10135418D01*
X15425821Y-10111953D01*
X15426205Y-10084469D01*
X15421531Y-10060864D01*
X15412362Y-10038617D01*
X15399046Y-10018575D01*
X15382090Y-10001501D01*
X15362141Y-9988045D01*
X15339959Y-9978720D01*
X15316388Y-9973882D01*
X15292326Y-9973714D01*
X15268689Y-9978223D01*
X15246378Y-9987237D01*
X15226244Y-10000413D01*
X15209051Y-10017248D01*
X15195457Y-10037103D01*
X15185978Y-10059220D01*
X15180975Y-10082757D01*
X15180639Y-10106817D01*
X15184982Y-10130484D01*
X15193841Y-10152857D01*
X15200800Y-10163656D01*
X15200800Y-10350500D01*
X15201726Y-10359943D01*
X15202552Y-10369392D01*
X15202703Y-10369911D01*
X15202756Y-10370448D01*
X15205497Y-10379529D01*
X15208144Y-10388640D01*
X15208393Y-10389119D01*
X15208549Y-10389636D01*
X15213001Y-10398008D01*
X15217368Y-10406435D01*
X15217706Y-10406857D01*
X15217959Y-10407333D01*
X15223951Y-10414680D01*
X15229873Y-10422099D01*
X15230615Y-10422851D01*
X15230627Y-10422866D01*
X15230641Y-10422877D01*
X15230880Y-10423120D01*
X15373850Y-10566090D01*
X15375482Y-10574984D01*
X15384341Y-10597357D01*
X15397375Y-10617584D01*
X15414091Y-10634893D01*
X15433850Y-10648626D01*
X15455900Y-10658259D01*
X15479401Y-10663426D01*
X15503459Y-10663930D01*
X15512519Y-10662333D01*
X15526618Y-10676432D01*
X15506888Y-10672382D01*
X15482826Y-10672214D01*
X15459189Y-10676723D01*
X15436878Y-10685737D01*
X15426849Y-10692300D01*
X15155540Y-10692300D01*
X14915612Y-10452372D01*
X14913531Y-10441864D01*
X14904362Y-10419617D01*
X14891046Y-10399575D01*
X14874090Y-10382501D01*
X14854141Y-10369045D01*
X14831959Y-10359720D01*
X14808388Y-10354882D01*
X14784326Y-10354714D01*
X14760689Y-10359223D01*
X14738378Y-10368237D01*
X14718244Y-10381413D01*
X14701051Y-10398248D01*
X14687457Y-10418103D01*
X14677978Y-10440220D01*
X14672975Y-10463757D01*
X14672639Y-10487817D01*
X14676982Y-10511484D01*
X14685841Y-10533857D01*
X14698875Y-10554084D01*
X14715591Y-10571393D01*
X14735350Y-10585126D01*
X14757400Y-10594759D01*
X14770371Y-10597611D01*
X15040380Y-10867620D01*
X15047712Y-10873642D01*
X15054978Y-10879739D01*
X15055451Y-10880000D01*
X15055868Y-10880342D01*
X15064229Y-10884825D01*
X15072542Y-10889395D01*
X15073057Y-10889558D01*
X15073533Y-10889814D01*
X15082603Y-10892587D01*
X15091647Y-10895456D01*
X15092185Y-10895516D01*
X15092701Y-10895674D01*
X15102131Y-10896632D01*
X15111566Y-10897690D01*
X15112622Y-10897697D01*
X15112641Y-10897699D01*
X15112659Y-10897698D01*
X15113000Y-10897700D01*
X15426763Y-10897700D01*
X15433850Y-10902626D01*
X15455900Y-10912259D01*
X15479401Y-10917426D01*
X15503459Y-10917930D01*
X15512519Y-10916333D01*
X15526618Y-10930432D01*
X15506888Y-10926382D01*
X15482826Y-10926214D01*
X15459189Y-10930723D01*
X15436878Y-10939737D01*
X15416744Y-10952913D01*
X15399551Y-10969748D01*
X15385957Y-10989603D01*
X15376478Y-11011720D01*
X15371475Y-11035257D01*
X15371139Y-11059317D01*
X15375482Y-11082984D01*
X15384341Y-11105357D01*
X15397375Y-11125584D01*
X15414091Y-11142893D01*
X15433850Y-11156626D01*
X15455900Y-11166259D01*
X15479401Y-11171426D01*
X15503459Y-11171930D01*
X15512519Y-11170333D01*
X15526618Y-11184432D01*
X15506888Y-11180382D01*
X15482826Y-11180214D01*
X15459189Y-11184723D01*
X15436878Y-11193737D01*
X15416744Y-11206912D01*
X15399551Y-11223748D01*
X15385957Y-11243603D01*
X15376478Y-11265720D01*
X15371475Y-11289257D01*
X15371139Y-11313317D01*
X15375482Y-11336984D01*
X15384341Y-11359357D01*
X15397375Y-11379584D01*
X15414091Y-11396893D01*
X15433850Y-11410626D01*
X15455900Y-11420259D01*
X15479401Y-11425426D01*
X15503459Y-11425930D01*
X15512519Y-11424333D01*
X15526618Y-11438432D01*
X15506888Y-11434382D01*
X15482826Y-11434214D01*
X15459189Y-11438723D01*
X15436878Y-11447737D01*
X15416744Y-11460912D01*
X15399551Y-11477748D01*
X15385957Y-11497603D01*
X15376478Y-11519720D01*
X15371475Y-11543257D01*
X15371139Y-11567317D01*
X15375482Y-11590984D01*
X15384341Y-11613357D01*
X15397375Y-11633584D01*
X15414091Y-11650893D01*
X15433850Y-11664626D01*
X15455900Y-11674259D01*
X15479401Y-11679426D01*
X15503459Y-11679930D01*
X15512519Y-11678333D01*
X15526618Y-11692432D01*
X15506888Y-11688382D01*
X15482826Y-11688214D01*
X15459189Y-11692723D01*
X15436878Y-11701737D01*
X15416744Y-11714912D01*
X15399551Y-11731748D01*
X15385957Y-11751603D01*
X15376478Y-11773720D01*
X15371475Y-11797257D01*
X15371139Y-11821317D01*
X15375482Y-11844984D01*
X15384341Y-11867357D01*
X15397375Y-11887584D01*
X15414091Y-11904893D01*
X15433850Y-11918626D01*
X15455900Y-11928259D01*
X15479401Y-11933426D01*
X15503459Y-11933930D01*
X15512519Y-11932333D01*
X15526618Y-11946432D01*
X15506888Y-11942382D01*
X15482826Y-11942214D01*
X15459189Y-11946723D01*
X15436878Y-11955737D01*
X15426849Y-11962300D01*
X15028540Y-11962300D01*
X14915612Y-11849372D01*
X14913531Y-11838864D01*
X14904362Y-11816617D01*
X14891046Y-11796575D01*
X14874090Y-11779501D01*
X14854141Y-11766045D01*
X14831959Y-11756720D01*
X14808388Y-11751882D01*
X14784326Y-11751714D01*
X14760689Y-11756223D01*
X14738378Y-11765237D01*
X14718244Y-11778412D01*
X14701051Y-11795248D01*
X14687457Y-11815103D01*
X14677978Y-11837220D01*
X14672975Y-11860757D01*
X14672639Y-11884817D01*
X14676982Y-11908484D01*
X14685841Y-11930857D01*
X14698875Y-11951084D01*
X14715591Y-11968393D01*
X14735350Y-11982126D01*
X14757400Y-11991759D01*
X14770371Y-11994611D01*
X14913380Y-12137620D01*
X14920712Y-12143642D01*
X14927978Y-12149739D01*
X14928451Y-12149999D01*
X14928868Y-12150342D01*
X14937229Y-12154825D01*
X14945542Y-12159395D01*
X14946057Y-12159558D01*
X14946533Y-12159814D01*
X14955603Y-12162587D01*
X14964647Y-12165456D01*
X14965185Y-12165516D01*
X14965701Y-12165674D01*
X14975135Y-12166632D01*
X14984566Y-12167690D01*
X14985621Y-12167697D01*
X14985641Y-12167699D01*
X14985660Y-12167698D01*
X14986000Y-12167700D01*
X15426763Y-12167700D01*
X15433850Y-12172626D01*
X15455900Y-12182259D01*
X15479401Y-12187426D01*
X15503459Y-12187930D01*
X15512519Y-12186333D01*
X15526867Y-12200680D01*
X15510280Y-12196786D01*
X15486124Y-12195958D01*
X15462271Y-12199859D01*
X15439638Y-12208338D01*
X15432190Y-12212319D01*
X15425634Y-12232674D01*
X15494000Y-12301039D01*
X15562366Y-12232674D01*
X15560385Y-12226522D01*
X15560562Y-12226617D01*
X15566991Y-12228583D01*
X15573385Y-12230611D01*
X15573764Y-12230654D01*
X15574130Y-12230766D01*
X15580819Y-12231445D01*
X15587485Y-12232193D01*
X15588232Y-12232198D01*
X15588246Y-12232200D01*
X15588260Y-12232198D01*
X15588500Y-12232200D01*
X15733279Y-12232200D01*
X15732062Y-12233193D01*
X15726816Y-12237381D01*
X15726284Y-12237905D01*
X15726273Y-12237914D01*
X15726265Y-12237924D01*
X15726093Y-12238093D01*
X15612320Y-12351867D01*
X15616214Y-12335280D01*
X15617042Y-12311124D01*
X15613141Y-12287271D01*
X15604662Y-12264638D01*
X15600681Y-12257190D01*
X15580326Y-12250634D01*
X15511960Y-12319000D01*
X15513375Y-12320414D01*
X15495414Y-12338375D01*
X15494000Y-12336960D01*
X15425634Y-12405326D01*
X15432190Y-12425681D01*
X15454190Y-12435690D01*
X15477720Y-12441214D01*
X15501875Y-12442042D01*
X15525728Y-12438141D01*
X15526235Y-12437951D01*
X15512627Y-12451560D01*
X15506888Y-12450382D01*
X15482826Y-12450214D01*
X15459189Y-12454723D01*
X15436878Y-12463737D01*
X15416744Y-12476912D01*
X15399551Y-12493748D01*
X15385957Y-12513603D01*
X15376478Y-12535720D01*
X15371475Y-12559257D01*
X15371139Y-12583317D01*
X15375482Y-12606984D01*
X15384341Y-12629357D01*
X15397375Y-12649584D01*
X15414091Y-12666893D01*
X15433850Y-12680626D01*
X15455900Y-12690259D01*
X15479401Y-12695426D01*
X15503459Y-12695930D01*
X15526280Y-12691906D01*
X15512627Y-12705560D01*
X15506888Y-12704382D01*
X15482826Y-12704214D01*
X15459189Y-12708723D01*
X15436878Y-12717737D01*
X15416744Y-12730912D01*
X15399551Y-12747748D01*
X15385957Y-12767603D01*
X15376478Y-12789720D01*
X15371475Y-12813257D01*
X15371139Y-12837317D01*
X15375482Y-12860984D01*
X15384341Y-12883357D01*
X15397375Y-12903584D01*
X15414091Y-12920893D01*
X15433850Y-12934626D01*
X15455900Y-12944259D01*
X15479401Y-12949426D01*
X15503459Y-12949930D01*
X15526280Y-12945906D01*
X15512627Y-12959560D01*
X15506888Y-12958382D01*
X15482826Y-12958214D01*
X15459189Y-12962723D01*
X15436878Y-12971737D01*
X15416744Y-12984912D01*
X15399551Y-13001748D01*
X15385957Y-13021603D01*
X15376478Y-13043720D01*
X15371475Y-13067257D01*
X15371139Y-13091317D01*
X15375482Y-13114984D01*
X15384341Y-13137357D01*
X15397375Y-13157584D01*
X15414091Y-13174893D01*
X15433850Y-13188626D01*
X15455900Y-13198259D01*
X15479401Y-13203426D01*
X15503459Y-13203930D01*
X15526280Y-13199906D01*
X15512627Y-13213560D01*
X15506888Y-13212382D01*
X15482826Y-13212214D01*
X15459189Y-13216723D01*
X15436878Y-13225737D01*
X15416744Y-13238912D01*
X15399551Y-13255748D01*
X15385957Y-13275603D01*
X15376478Y-13297720D01*
X15371475Y-13321257D01*
X15371139Y-13345317D01*
X15375482Y-13368984D01*
X15384341Y-13391357D01*
X15397375Y-13411584D01*
X15414091Y-13428893D01*
X15433850Y-13442626D01*
X15455900Y-13452259D01*
X15479401Y-13457426D01*
X15503459Y-13457930D01*
X15526280Y-13453906D01*
X15512627Y-13467560D01*
X15506888Y-13466382D01*
X15482826Y-13466214D01*
X15459189Y-13470723D01*
X15436878Y-13479737D01*
X15426849Y-13486300D01*
X15346040Y-13486300D01*
X15279200Y-13419460D01*
X15279200Y-13017500D01*
X15278274Y-13008058D01*
X15277447Y-12998608D01*
X15277297Y-12998089D01*
X15277244Y-12997552D01*
X15274503Y-12988472D01*
X15271855Y-12979360D01*
X15271607Y-12978881D01*
X15271451Y-12978364D01*
X15266999Y-12969992D01*
X15262631Y-12961565D01*
X15262294Y-12961143D01*
X15262041Y-12960667D01*
X15256049Y-12953320D01*
X15250127Y-12945901D01*
X15249385Y-12945149D01*
X15249373Y-12945134D01*
X15249359Y-12945123D01*
X15249120Y-12944880D01*
X15122120Y-12817880D01*
X15114788Y-12811858D01*
X15107522Y-12805761D01*
X15107048Y-12805500D01*
X15106631Y-12805158D01*
X15098271Y-12800675D01*
X15089958Y-12796105D01*
X15089443Y-12795942D01*
X15088967Y-12795686D01*
X15079897Y-12792913D01*
X15070852Y-12790044D01*
X15070315Y-12789984D01*
X15069799Y-12789826D01*
X15060369Y-12788868D01*
X15050934Y-12787810D01*
X15049877Y-12787803D01*
X15049858Y-12787801D01*
X15049841Y-12787802D01*
X15049500Y-12787800D01*
X14862674Y-12787800D01*
X14854141Y-12782045D01*
X14831959Y-12772720D01*
X14820636Y-12770396D01*
X14683120Y-12632880D01*
X14675788Y-12626858D01*
X14668522Y-12620761D01*
X14668048Y-12620500D01*
X14667631Y-12620158D01*
X14659271Y-12615675D01*
X14650958Y-12611105D01*
X14650443Y-12610942D01*
X14649967Y-12610686D01*
X14640897Y-12607913D01*
X14631852Y-12605044D01*
X14631315Y-12604984D01*
X14630799Y-12604826D01*
X14621369Y-12603868D01*
X14611934Y-12602810D01*
X14610877Y-12602803D01*
X14610858Y-12602801D01*
X14610841Y-12602802D01*
X14610500Y-12602800D01*
X14306174Y-12602800D01*
X14297641Y-12597045D01*
X14275459Y-12587720D01*
X14251888Y-12582882D01*
X14227826Y-12582714D01*
X14204189Y-12587223D01*
X14181878Y-12596237D01*
X14171849Y-12602800D01*
X13656174Y-12602800D01*
X13647641Y-12597045D01*
X13625459Y-12587720D01*
X13601888Y-12582882D01*
X13577826Y-12582714D01*
X13554189Y-12587223D01*
X13531878Y-12596237D01*
X13511744Y-12609412D01*
X13494551Y-12626248D01*
X13480957Y-12646103D01*
X13471478Y-12668220D01*
X13466475Y-12691757D01*
X13466139Y-12715817D01*
X13317700Y-12715817D01*
X13317700Y-12341826D01*
X13520634Y-12341826D01*
X13527190Y-12362181D01*
X13549190Y-12372190D01*
X13572720Y-12377714D01*
X13596875Y-12378542D01*
X13620728Y-12374641D01*
X13643362Y-12366162D01*
X13650810Y-12362181D01*
X13657366Y-12341826D01*
X14170634Y-12341826D01*
X14177190Y-12362181D01*
X14199190Y-12372190D01*
X14222720Y-12377714D01*
X14246875Y-12378542D01*
X14270728Y-12374641D01*
X14293362Y-12366162D01*
X14300810Y-12362181D01*
X14307366Y-12341826D01*
X14292415Y-12326875D01*
X15370958Y-12326875D01*
X15374859Y-12350728D01*
X15383338Y-12373362D01*
X15387319Y-12380810D01*
X15407674Y-12387366D01*
X15476039Y-12319000D01*
X15407674Y-12250634D01*
X15387319Y-12257190D01*
X15377310Y-12279190D01*
X15371786Y-12302720D01*
X15370958Y-12326875D01*
X14292415Y-12326875D01*
X14239000Y-12273460D01*
X14170634Y-12341826D01*
X13657366Y-12341826D01*
X13589000Y-12273460D01*
X13520634Y-12341826D01*
X13317700Y-12341826D01*
X13317700Y-12263375D01*
X13465958Y-12263375D01*
X13469859Y-12287228D01*
X13478338Y-12309862D01*
X13482319Y-12317310D01*
X13502674Y-12323866D01*
X13571039Y-12255500D01*
X13606960Y-12255500D01*
X13675326Y-12323866D01*
X13695681Y-12317310D01*
X13705690Y-12295310D01*
X13711214Y-12271780D01*
X13711502Y-12263375D01*
X14115958Y-12263375D01*
X14119859Y-12287228D01*
X14128338Y-12309862D01*
X14132319Y-12317310D01*
X14152674Y-12323866D01*
X14221039Y-12255500D01*
X14256960Y-12255500D01*
X14325326Y-12323866D01*
X14345681Y-12317310D01*
X14355690Y-12295310D01*
X14361214Y-12271780D01*
X14362042Y-12247624D01*
X14358141Y-12223771D01*
X14349662Y-12201138D01*
X14345681Y-12193690D01*
X14325326Y-12187134D01*
X14256960Y-12255500D01*
X14221039Y-12255500D01*
X14152674Y-12187134D01*
X14132319Y-12193690D01*
X14122310Y-12215690D01*
X14116786Y-12239220D01*
X14115958Y-12263375D01*
X13711502Y-12263375D01*
X13712042Y-12247624D01*
X13708141Y-12223771D01*
X13699662Y-12201138D01*
X13695681Y-12193690D01*
X13675326Y-12187134D01*
X13606960Y-12255500D01*
X13571039Y-12255500D01*
X13502674Y-12187134D01*
X13482319Y-12193690D01*
X13472310Y-12215690D01*
X13466786Y-12239220D01*
X13465958Y-12263375D01*
X13317700Y-12263375D01*
X13317700Y-12169174D01*
X13520634Y-12169174D01*
X13589000Y-12237539D01*
X13657366Y-12169174D01*
X14170634Y-12169174D01*
X14239000Y-12237539D01*
X14307366Y-12169174D01*
X14300810Y-12148819D01*
X14278810Y-12138810D01*
X14255280Y-12133286D01*
X14231124Y-12132458D01*
X14207271Y-12136359D01*
X14184638Y-12144838D01*
X14177190Y-12148819D01*
X14170634Y-12169174D01*
X13657366Y-12169174D01*
X13650810Y-12148819D01*
X13628810Y-12138810D01*
X13605280Y-12133286D01*
X13581124Y-12132458D01*
X13557271Y-12136359D01*
X13534638Y-12144838D01*
X13527190Y-12148819D01*
X13520634Y-12169174D01*
X13317700Y-12169174D01*
X13317700Y-11963700D01*
X13564000Y-11963700D01*
X13568016Y-11963048D01*
X13598016Y-11953048D01*
X13601214Y-11951452D01*
X13602980Y-11949980D01*
X13622980Y-11929980D01*
X13625127Y-11927123D01*
X13626048Y-11925016D01*
X13636048Y-11895016D01*
X13636700Y-11891000D01*
X13636700Y-11641000D01*
X13636048Y-11636984D01*
X13626048Y-11606984D01*
X13624452Y-11603786D01*
X13622980Y-11602020D01*
X13602980Y-11582020D01*
X13600123Y-11579873D01*
X13598016Y-11578952D01*
X13568016Y-11568952D01*
X13564000Y-11568300D01*
X13317700Y-11568300D01*
X13317700Y-11353800D01*
X13586000Y-11353800D01*
X13586000Y-11413800D01*
X13591220Y-11441395D01*
X13601722Y-11467442D01*
X13617105Y-11490939D01*
X13636776Y-11510984D01*
X13659980Y-11526806D01*
X13685824Y-11537797D01*
X13693922Y-11539497D01*
X13716000Y-11530001D01*
X13716000Y-11353800D01*
X13741400Y-11353800D01*
X13741400Y-11530001D01*
X13763478Y-11539497D01*
X13771576Y-11537797D01*
X13797420Y-11526806D01*
X13820624Y-11510984D01*
X13840295Y-11490939D01*
X13855677Y-11467442D01*
X13866180Y-11441395D01*
X13871400Y-11413800D01*
X13871400Y-11353800D01*
X13741400Y-11353800D01*
X13716000Y-11353800D01*
X13586000Y-11353800D01*
X13317700Y-11353800D01*
X13317700Y-11268400D01*
X13586000Y-11268400D01*
X13586000Y-11328400D01*
X13716000Y-11328400D01*
X13716000Y-11152199D01*
X13741400Y-11152199D01*
X13741400Y-11328400D01*
X13871400Y-11328400D01*
X13871400Y-11268400D01*
X13866180Y-11240805D01*
X13855677Y-11214758D01*
X13840295Y-11191260D01*
X13820624Y-11171216D01*
X13797420Y-11155394D01*
X13771576Y-11144403D01*
X13763478Y-11142703D01*
X13741400Y-11152199D01*
X13716000Y-11152199D01*
X13693922Y-11142703D01*
X13685824Y-11144403D01*
X13659980Y-11155394D01*
X13636776Y-11171216D01*
X13617105Y-11191260D01*
X13601722Y-11214758D01*
X13591220Y-11240805D01*
X13586000Y-11268400D01*
X13317700Y-11268400D01*
X13317700Y-11113700D01*
X13564000Y-11113700D01*
X13568016Y-11113048D01*
X13598016Y-11103048D01*
X13601214Y-11101452D01*
X13602980Y-11099980D01*
X13622980Y-11079980D01*
X13625127Y-11077123D01*
X13626048Y-11075016D01*
X13636048Y-11045016D01*
X13636700Y-11041000D01*
X13636700Y-10965209D01*
X13944780Y-10965209D01*
X13947039Y-10990029D01*
X13954076Y-11013937D01*
X13965622Y-11036024D01*
X13981239Y-11055447D01*
X14000331Y-11071467D01*
X14022171Y-11083474D01*
X14045927Y-11091009D01*
X14070694Y-11093788D01*
X14072477Y-11093800D01*
X14096000Y-11093800D01*
X14096000Y-11217883D01*
X14078936Y-11223035D01*
X14056930Y-11234736D01*
X14037616Y-11250488D01*
X14021730Y-11269691D01*
X14009876Y-11291614D01*
X14002506Y-11315422D01*
X13999901Y-11340208D01*
X14002160Y-11365029D01*
X14009197Y-11388937D01*
X14020743Y-11411024D01*
X14036360Y-11430447D01*
X14055452Y-11446467D01*
X14077292Y-11458474D01*
X14096000Y-11464408D01*
X14096000Y-11588400D01*
X14072477Y-11588400D01*
X14047674Y-11590832D01*
X14023815Y-11598035D01*
X14001809Y-11609736D01*
X13982495Y-11625488D01*
X13966609Y-11644691D01*
X13954755Y-11666614D01*
X13947385Y-11690422D01*
X13944780Y-11715208D01*
X13947039Y-11740029D01*
X13954076Y-11763937D01*
X13965622Y-11786024D01*
X13981239Y-11805447D01*
X14000331Y-11821467D01*
X14022171Y-11833474D01*
X14045927Y-11841009D01*
X14070694Y-11843788D01*
X14072477Y-11843800D01*
X14324923Y-11843800D01*
X14349726Y-11841368D01*
X14373585Y-11834164D01*
X14395591Y-11822464D01*
X14414904Y-11806712D01*
X14430791Y-11787509D01*
X14442645Y-11765586D01*
X14450014Y-11741778D01*
X14452620Y-11716991D01*
X14450361Y-11692171D01*
X14443324Y-11668263D01*
X14431777Y-11646176D01*
X14416161Y-11626753D01*
X14397069Y-11610733D01*
X14375229Y-11598726D01*
X14351473Y-11591191D01*
X14326706Y-11588412D01*
X14324923Y-11588400D01*
X14301400Y-11588400D01*
X14301400Y-11468800D01*
X14329802Y-11468800D01*
X14354605Y-11466368D01*
X14378464Y-11459164D01*
X14400470Y-11447464D01*
X14404962Y-11443800D01*
X14600560Y-11443800D01*
X14675350Y-11518590D01*
X14676982Y-11527484D01*
X14685841Y-11549857D01*
X14698875Y-11570084D01*
X14715591Y-11587393D01*
X14735350Y-11601126D01*
X14757400Y-11610759D01*
X14780901Y-11615926D01*
X14804959Y-11616430D01*
X14828656Y-11612252D01*
X14851090Y-11603550D01*
X14871407Y-11590657D01*
X14888833Y-11574063D01*
X14902703Y-11554400D01*
X14912490Y-11532417D01*
X14917821Y-11508953D01*
X14918205Y-11481469D01*
X14913531Y-11457864D01*
X14904362Y-11435617D01*
X14891046Y-11415575D01*
X14874090Y-11398501D01*
X14854141Y-11385045D01*
X14831959Y-11375720D01*
X14820636Y-11373396D01*
X14715720Y-11268480D01*
X14708388Y-11262458D01*
X14701122Y-11256361D01*
X14700648Y-11256100D01*
X14700231Y-11255758D01*
X14691871Y-11251275D01*
X14683558Y-11246705D01*
X14683043Y-11246542D01*
X14682567Y-11246286D01*
X14673497Y-11243513D01*
X14664452Y-11240644D01*
X14663915Y-11240584D01*
X14663399Y-11240426D01*
X14653969Y-11239468D01*
X14644534Y-11238410D01*
X14643477Y-11238403D01*
X14643458Y-11238401D01*
X14643441Y-11238402D01*
X14643100Y-11238400D01*
X14405126Y-11238400D01*
X14401948Y-11235733D01*
X14380108Y-11223726D01*
X14356352Y-11216191D01*
X14331585Y-11213412D01*
X14329802Y-11213400D01*
X14301400Y-11213400D01*
X14301400Y-11093800D01*
X14324923Y-11093800D01*
X14349726Y-11091368D01*
X14373585Y-11084165D01*
X14395591Y-11072464D01*
X14414904Y-11056712D01*
X14430791Y-11037509D01*
X14442645Y-11015586D01*
X14450014Y-10991778D01*
X14452620Y-10966992D01*
X14450361Y-10942171D01*
X14443324Y-10918263D01*
X14431777Y-10896176D01*
X14416161Y-10876753D01*
X14397069Y-10860733D01*
X14375229Y-10848726D01*
X14351473Y-10841191D01*
X14326706Y-10838412D01*
X14324923Y-10838400D01*
X14301400Y-10838400D01*
X14301400Y-10227840D01*
X14312560Y-10216679D01*
X14320656Y-10215252D01*
X14343090Y-10206550D01*
X14363407Y-10193657D01*
X14380833Y-10177063D01*
X14394703Y-10157400D01*
X14404490Y-10135418D01*
X14409821Y-10111953D01*
X14410205Y-10084469D01*
X14405531Y-10060864D01*
X14396362Y-10038617D01*
X14383046Y-10018575D01*
X14366090Y-10001501D01*
X14346141Y-9988045D01*
X14323959Y-9978720D01*
X14300388Y-9973882D01*
X14276326Y-9973714D01*
X14252689Y-9978223D01*
X14230378Y-9987237D01*
X14210244Y-10000413D01*
X14193051Y-10017248D01*
X14179457Y-10037103D01*
X14169978Y-10059220D01*
X14167396Y-10071364D01*
X14126080Y-10112680D01*
X14120058Y-10120012D01*
X14113961Y-10127278D01*
X14113700Y-10127752D01*
X14113358Y-10128169D01*
X14108875Y-10136529D01*
X14104305Y-10144842D01*
X14104142Y-10145357D01*
X14103886Y-10145833D01*
X14101113Y-10154903D01*
X14098244Y-10163948D01*
X14098184Y-10164485D01*
X14098026Y-10165001D01*
X14097068Y-10174431D01*
X14096010Y-10183866D01*
X14096003Y-10184923D01*
X14096001Y-10184942D01*
X14096002Y-10184959D01*
X14096000Y-10185300D01*
X14096000Y-10838400D01*
X14072477Y-10838400D01*
X14047674Y-10840832D01*
X14023815Y-10848036D01*
X14001809Y-10859736D01*
X13982495Y-10875488D01*
X13966609Y-10894691D01*
X13954755Y-10916614D01*
X13947385Y-10940422D01*
X13944780Y-10965209D01*
X13636700Y-10965209D01*
X13636700Y-10791000D01*
X13636048Y-10786984D01*
X13626048Y-10756984D01*
X13624452Y-10753786D01*
X13622980Y-10752020D01*
X13602980Y-10732020D01*
X13600123Y-10729873D01*
X13598016Y-10728952D01*
X13568016Y-10718952D01*
X13564000Y-10718300D01*
X13317700Y-10718300D01*
X13317700Y-10037099D01*
X13330345Y-10105997D01*
X13357973Y-10175778D01*
X13398629Y-10238863D01*
X13450764Y-10292851D01*
X13512393Y-10335684D01*
X13581167Y-10365730D01*
X13654468Y-10381847D01*
X13729502Y-10383418D01*
X13803414Y-10370386D01*
X13873386Y-10343245D01*
X13936754Y-10303031D01*
X13991104Y-10251274D01*
X14034366Y-10189946D01*
X14064892Y-10121383D01*
X14081519Y-10048197D01*
X14082716Y-9962474D01*
X14068139Y-9888852D01*
X14039539Y-9819464D01*
X13998006Y-9756952D01*
X13945122Y-9703698D01*
X13882902Y-9661730D01*
X13813715Y-9632646D01*
X13740903Y-9617700D01*
X20281640Y-9617700D01*
X20211425Y-9631094D01*
G36*
X19264800Y-11726540D02*
X19264800Y-11775027D01*
X19261151Y-11773898D01*
X19241217Y-11771802D01*
X19221256Y-11773619D01*
X19202028Y-11779278D01*
X19184265Y-11788564D01*
X19168645Y-11801124D01*
X19155761Y-11816478D01*
X19146105Y-11834042D01*
X19140044Y-11853147D01*
X19137810Y-11873066D01*
X19137800Y-11874500D01*
X19137800Y-12233275D01*
X19128590Y-12224001D01*
X19108642Y-12210545D01*
X19086459Y-12201220D01*
X19062888Y-12196382D01*
X19038826Y-12196214D01*
X19015189Y-12200723D01*
X18992879Y-12209737D01*
X18972744Y-12222912D01*
X18955552Y-12239748D01*
X18941957Y-12259603D01*
X18932478Y-12281720D01*
X18927475Y-12305257D01*
X18927139Y-12329317D01*
X18931483Y-12352984D01*
X18940341Y-12375357D01*
X18953376Y-12395584D01*
X18970091Y-12412893D01*
X18989850Y-12426626D01*
X19011900Y-12436259D01*
X19035402Y-12441426D01*
X19059459Y-12441930D01*
X19083156Y-12437752D01*
X19105590Y-12429050D01*
X19125907Y-12416157D01*
X19137800Y-12404831D01*
X19137800Y-12487275D01*
X19128590Y-12478001D01*
X19108642Y-12464545D01*
X19086459Y-12455220D01*
X19062888Y-12450382D01*
X19038826Y-12450214D01*
X19015189Y-12454723D01*
X18992879Y-12463737D01*
X18972744Y-12476912D01*
X18955552Y-12493748D01*
X18941957Y-12513603D01*
X18932478Y-12535720D01*
X18927475Y-12559257D01*
X18927139Y-12583317D01*
X18931483Y-12606984D01*
X18940341Y-12629357D01*
X18953376Y-12649584D01*
X18970091Y-12666893D01*
X18989850Y-12680626D01*
X19011900Y-12690259D01*
X19035402Y-12695426D01*
X19059459Y-12695930D01*
X19083156Y-12691752D01*
X19105590Y-12683050D01*
X19125907Y-12670157D01*
X19137800Y-12658831D01*
X19137800Y-12724300D01*
X19117174Y-12724300D01*
X19108642Y-12718545D01*
X19086459Y-12709220D01*
X19062888Y-12704382D01*
X19038826Y-12704214D01*
X19015189Y-12708723D01*
X18992879Y-12717737D01*
X18972744Y-12730912D01*
X18955552Y-12747748D01*
X18941957Y-12767603D01*
X18932478Y-12789720D01*
X18927475Y-12813257D01*
X18927139Y-12837317D01*
X18931483Y-12860984D01*
X18940341Y-12883357D01*
X18953376Y-12903584D01*
X18970091Y-12920893D01*
X18989850Y-12934626D01*
X19011900Y-12944259D01*
X19035402Y-12949426D01*
X19059459Y-12949930D01*
X19083156Y-12945752D01*
X19105590Y-12937050D01*
X19117173Y-12929700D01*
X19184000Y-12929700D01*
X19193442Y-12928774D01*
X19202892Y-12927947D01*
X19203410Y-12927797D01*
X19203948Y-12927744D01*
X19213029Y-12925002D01*
X19222139Y-12922355D01*
X19222619Y-12922107D01*
X19223136Y-12921951D01*
X19231508Y-12917499D01*
X19239934Y-12913131D01*
X19240357Y-12912794D01*
X19240833Y-12912541D01*
X19248180Y-12906549D01*
X19255599Y-12900627D01*
X19256351Y-12899885D01*
X19256366Y-12899873D01*
X19256377Y-12899859D01*
X19256620Y-12899620D01*
X19264800Y-12891440D01*
X19264800Y-13927460D01*
X19235889Y-13956371D01*
X19231532Y-13934364D01*
X19222362Y-13912117D01*
X19209046Y-13892075D01*
X19192090Y-13875001D01*
X19172142Y-13861545D01*
X19149959Y-13852220D01*
X19126388Y-13847382D01*
X19102326Y-13847214D01*
X19078689Y-13851723D01*
X19056379Y-13860737D01*
X19046349Y-13867300D01*
X18707100Y-13867300D01*
X18707100Y-13755200D01*
X19046263Y-13755200D01*
X19053350Y-13760126D01*
X19075400Y-13769759D01*
X19098902Y-13774926D01*
X19122959Y-13775430D01*
X19146656Y-13771252D01*
X19169090Y-13762550D01*
X19189407Y-13749657D01*
X19206833Y-13733063D01*
X19220703Y-13713400D01*
X19230490Y-13691417D01*
X19235822Y-13667953D01*
X19236205Y-13640469D01*
X19231532Y-13616864D01*
X19222362Y-13594617D01*
X19209046Y-13574575D01*
X19192090Y-13557501D01*
X19172142Y-13544045D01*
X19149959Y-13534720D01*
X19126388Y-13529882D01*
X19102326Y-13529714D01*
X19078689Y-13534223D01*
X19056379Y-13543237D01*
X19046349Y-13549800D01*
X18711540Y-13549800D01*
X18707100Y-13545360D01*
X18707100Y-13421326D01*
X18981634Y-13421326D01*
X18988190Y-13441681D01*
X19010190Y-13451690D01*
X19033720Y-13457214D01*
X19057876Y-13458042D01*
X19081729Y-13454141D01*
X19104362Y-13445662D01*
X19111810Y-13441681D01*
X19118366Y-13421326D01*
X19050000Y-13352960D01*
X18981634Y-13421326D01*
X18707100Y-13421326D01*
X18707100Y-13342875D01*
X18926958Y-13342875D01*
X18930859Y-13366728D01*
X18939338Y-13389362D01*
X18943319Y-13396810D01*
X18963674Y-13403366D01*
X19032040Y-13335000D01*
X19067961Y-13335000D01*
X19136326Y-13403366D01*
X19156681Y-13396810D01*
X19166690Y-13374810D01*
X19172214Y-13351280D01*
X19173042Y-13327124D01*
X19169141Y-13303271D01*
X19160662Y-13280638D01*
X19156681Y-13273190D01*
X19136326Y-13266634D01*
X19067961Y-13335000D01*
X19032040Y-13335000D01*
X18963674Y-13266634D01*
X18943319Y-13273190D01*
X18933310Y-13295190D01*
X18927786Y-13318720D01*
X18926958Y-13342875D01*
X18707100Y-13342875D01*
X18707100Y-13335000D01*
X18706448Y-13330984D01*
X18681048Y-13254784D01*
X18679567Y-13251755D01*
X18677513Y-13248674D01*
X18981634Y-13248674D01*
X19050000Y-13317039D01*
X19118366Y-13248674D01*
X19111810Y-13228319D01*
X19089810Y-13218310D01*
X19066280Y-13212786D01*
X19042125Y-13211958D01*
X19018272Y-13215859D01*
X18995638Y-13224338D01*
X18988190Y-13228319D01*
X18981634Y-13248674D01*
X18677513Y-13248674D01*
X18654167Y-13213655D01*
X18651220Y-13210540D01*
X18600420Y-13172440D01*
X18598480Y-13171241D01*
X18581200Y-13162601D01*
X18581200Y-12954000D01*
X18580274Y-12944557D01*
X18579448Y-12935108D01*
X18579297Y-12934589D01*
X18579244Y-12934052D01*
X18576503Y-12924971D01*
X18573856Y-12915860D01*
X18573607Y-12915381D01*
X18573451Y-12914864D01*
X18568999Y-12906492D01*
X18564632Y-12898065D01*
X18564294Y-12897643D01*
X18564041Y-12897167D01*
X18558049Y-12889820D01*
X18552127Y-12882401D01*
X18551385Y-12881649D01*
X18551373Y-12881634D01*
X18551359Y-12881622D01*
X18551120Y-12881380D01*
X18491881Y-12822141D01*
X18510229Y-12819141D01*
X18532862Y-12810662D01*
X18540310Y-12806681D01*
X18546866Y-12786326D01*
X18478500Y-12717960D01*
X18477086Y-12719375D01*
X18459125Y-12701414D01*
X18460540Y-12700000D01*
X18496461Y-12700000D01*
X18564826Y-12768366D01*
X18585181Y-12761810D01*
X18595190Y-12739810D01*
X18600714Y-12716280D01*
X18601542Y-12692124D01*
X18597641Y-12668271D01*
X18589162Y-12645638D01*
X18585181Y-12638190D01*
X18564826Y-12631634D01*
X18496461Y-12700000D01*
X18460540Y-12700000D01*
X18392174Y-12631634D01*
X18371819Y-12638190D01*
X18361810Y-12660190D01*
X18356286Y-12683720D01*
X18356192Y-12686452D01*
X18283413Y-12613674D01*
X18410134Y-12613674D01*
X18478500Y-12682039D01*
X18546866Y-12613674D01*
X18540310Y-12593319D01*
X18518310Y-12583310D01*
X18494780Y-12577786D01*
X18470625Y-12576958D01*
X18446772Y-12580859D01*
X18424138Y-12589338D01*
X18416690Y-12593319D01*
X18410134Y-12613674D01*
X18283413Y-12613674D01*
X18170120Y-12500380D01*
X18162788Y-12494358D01*
X18155522Y-12488261D01*
X18155049Y-12488000D01*
X18154632Y-12487658D01*
X18146269Y-12483174D01*
X18137958Y-12478605D01*
X18137443Y-12478442D01*
X18136967Y-12478186D01*
X18127897Y-12475413D01*
X18118853Y-12472544D01*
X18118315Y-12472484D01*
X18117799Y-12472326D01*
X18108369Y-12471368D01*
X18101638Y-12470613D01*
X18092642Y-12464545D01*
X18070459Y-12455220D01*
X18046888Y-12450382D01*
X18022826Y-12450214D01*
X18015437Y-12451623D01*
X18001249Y-12437435D01*
X18019402Y-12441426D01*
X18043459Y-12441930D01*
X18067156Y-12437752D01*
X18089590Y-12429050D01*
X18101173Y-12421700D01*
X18351500Y-12421700D01*
X18360943Y-12420774D01*
X18370392Y-12419947D01*
X18370911Y-12419797D01*
X18371448Y-12419744D01*
X18380529Y-12417002D01*
X18389640Y-12414355D01*
X18390119Y-12414107D01*
X18390636Y-12413951D01*
X18399008Y-12409499D01*
X18407435Y-12405131D01*
X18407857Y-12404794D01*
X18408333Y-12404541D01*
X18415680Y-12398549D01*
X18423099Y-12392627D01*
X18423851Y-12391885D01*
X18423866Y-12391873D01*
X18423877Y-12391859D01*
X18424120Y-12391620D01*
X18503560Y-12312179D01*
X18511656Y-12310752D01*
X18514434Y-12309674D01*
X18629800Y-12425040D01*
X18629800Y-12954000D01*
X18630726Y-12963443D01*
X18631553Y-12972892D01*
X18631703Y-12973411D01*
X18631756Y-12973948D01*
X18634498Y-12983029D01*
X18637145Y-12992139D01*
X18637393Y-12992619D01*
X18637549Y-12993136D01*
X18642001Y-13001508D01*
X18646369Y-13009934D01*
X18646706Y-13010357D01*
X18646959Y-13010833D01*
X18652951Y-13018180D01*
X18658873Y-13025599D01*
X18659615Y-13026351D01*
X18659627Y-13026366D01*
X18659641Y-13026377D01*
X18659880Y-13026620D01*
X18786880Y-13153620D01*
X18794214Y-13159644D01*
X18801478Y-13165739D01*
X18801951Y-13165999D01*
X18802368Y-13166342D01*
X18810731Y-13170826D01*
X18819042Y-13175395D01*
X18819557Y-13175558D01*
X18820033Y-13175814D01*
X18829103Y-13178587D01*
X18838148Y-13181456D01*
X18838685Y-13181516D01*
X18839201Y-13181674D01*
X18848631Y-13182632D01*
X18858066Y-13183690D01*
X18859123Y-13183697D01*
X18859142Y-13183699D01*
X18859159Y-13183698D01*
X18859500Y-13183700D01*
X18982763Y-13183700D01*
X18989850Y-13188626D01*
X19011900Y-13198259D01*
X19035402Y-13203426D01*
X19059459Y-13203930D01*
X19083156Y-13199752D01*
X19105590Y-13191050D01*
X19125907Y-13178157D01*
X19143333Y-13161563D01*
X19157203Y-13141900D01*
X19166990Y-13119917D01*
X19172322Y-13096453D01*
X19172705Y-13068969D01*
X19168032Y-13045364D01*
X19158862Y-13023117D01*
X19145546Y-13003075D01*
X19128590Y-12986001D01*
X19108642Y-12972545D01*
X19086459Y-12963220D01*
X19062888Y-12958382D01*
X19038826Y-12958214D01*
X19015189Y-12962723D01*
X18992879Y-12971737D01*
X18982849Y-12978300D01*
X18902040Y-12978300D01*
X18835200Y-12911460D01*
X18835200Y-12382500D01*
X18834274Y-12373057D01*
X18833448Y-12363608D01*
X18833297Y-12363089D01*
X18833244Y-12362552D01*
X18830503Y-12353471D01*
X18827856Y-12344360D01*
X18827607Y-12343881D01*
X18827451Y-12343364D01*
X18822999Y-12334992D01*
X18818632Y-12326565D01*
X18818294Y-12326143D01*
X18818041Y-12325667D01*
X18812049Y-12318320D01*
X18806127Y-12310901D01*
X18805385Y-12310149D01*
X18805373Y-12310134D01*
X18805359Y-12310123D01*
X18805120Y-12309880D01*
X18614620Y-12119380D01*
X18607288Y-12113358D01*
X18600022Y-12107261D01*
X18599549Y-12107000D01*
X18599132Y-12106658D01*
X18590771Y-12102175D01*
X18582458Y-12097605D01*
X18581943Y-12097442D01*
X18581467Y-12097186D01*
X18581200Y-12097105D01*
X18581200Y-11790040D01*
X18775040Y-11596200D01*
X18855763Y-11596200D01*
X18862850Y-11601126D01*
X18884900Y-11610759D01*
X18908402Y-11615926D01*
X18932459Y-11616430D01*
X18956156Y-11612252D01*
X18978590Y-11603550D01*
X18998907Y-11590657D01*
X19016333Y-11574063D01*
X19030203Y-11554400D01*
X19039990Y-11532417D01*
X19045322Y-11508953D01*
X19045348Y-11507087D01*
X19264800Y-11726540D01*
X19264800Y-11726540D01*
G37*
X19264800Y-11726540D02*
X19264800Y-11775027D01*
X19261151Y-11773898D01*
X19241217Y-11771802D01*
X19221256Y-11773619D01*
X19202028Y-11779278D01*
X19184265Y-11788564D01*
X19168645Y-11801124D01*
X19155761Y-11816478D01*
X19146105Y-11834042D01*
X19140044Y-11853147D01*
X19137810Y-11873066D01*
X19137800Y-11874500D01*
X19137800Y-12233275D01*
X19128590Y-12224001D01*
X19108642Y-12210545D01*
X19086459Y-12201220D01*
X19062888Y-12196382D01*
X19038826Y-12196214D01*
X19015189Y-12200723D01*
X18992879Y-12209737D01*
X18972744Y-12222912D01*
X18955552Y-12239748D01*
X18941957Y-12259603D01*
X18932478Y-12281720D01*
X18927475Y-12305257D01*
X18927139Y-12329317D01*
X18931483Y-12352984D01*
X18940341Y-12375357D01*
X18953376Y-12395584D01*
X18970091Y-12412893D01*
X18989850Y-12426626D01*
X19011900Y-12436259D01*
X19035402Y-12441426D01*
X19059459Y-12441930D01*
X19083156Y-12437752D01*
X19105590Y-12429050D01*
X19125907Y-12416157D01*
X19137800Y-12404831D01*
X19137800Y-12487275D01*
X19128590Y-12478001D01*
X19108642Y-12464545D01*
X19086459Y-12455220D01*
X19062888Y-12450382D01*
X19038826Y-12450214D01*
X19015189Y-12454723D01*
X18992879Y-12463737D01*
X18972744Y-12476912D01*
X18955552Y-12493748D01*
X18941957Y-12513603D01*
X18932478Y-12535720D01*
X18927475Y-12559257D01*
X18927139Y-12583317D01*
X18931483Y-12606984D01*
X18940341Y-12629357D01*
X18953376Y-12649584D01*
X18970091Y-12666893D01*
X18989850Y-12680626D01*
X19011900Y-12690259D01*
X19035402Y-12695426D01*
X19059459Y-12695930D01*
X19083156Y-12691752D01*
X19105590Y-12683050D01*
X19125907Y-12670157D01*
X19137800Y-12658831D01*
X19137800Y-12724300D01*
X19117174Y-12724300D01*
X19108642Y-12718545D01*
X19086459Y-12709220D01*
X19062888Y-12704382D01*
X19038826Y-12704214D01*
X19015189Y-12708723D01*
X18992879Y-12717737D01*
X18972744Y-12730912D01*
X18955552Y-12747748D01*
X18941957Y-12767603D01*
X18932478Y-12789720D01*
X18927475Y-12813257D01*
X18927139Y-12837317D01*
X18931483Y-12860984D01*
X18940341Y-12883357D01*
X18953376Y-12903584D01*
X18970091Y-12920893D01*
X18989850Y-12934626D01*
X19011900Y-12944259D01*
X19035402Y-12949426D01*
X19059459Y-12949930D01*
X19083156Y-12945752D01*
X19105590Y-12937050D01*
X19117173Y-12929700D01*
X19184000Y-12929700D01*
X19193442Y-12928774D01*
X19202892Y-12927947D01*
X19203410Y-12927797D01*
X19203948Y-12927744D01*
X19213029Y-12925002D01*
X19222139Y-12922355D01*
X19222619Y-12922107D01*
X19223136Y-12921951D01*
X19231508Y-12917499D01*
X19239934Y-12913131D01*
X19240357Y-12912794D01*
X19240833Y-12912541D01*
X19248180Y-12906549D01*
X19255599Y-12900627D01*
X19256351Y-12899885D01*
X19256366Y-12899873D01*
X19256377Y-12899859D01*
X19256620Y-12899620D01*
X19264800Y-12891440D01*
X19264800Y-13927460D01*
X19235889Y-13956371D01*
X19231532Y-13934364D01*
X19222362Y-13912117D01*
X19209046Y-13892075D01*
X19192090Y-13875001D01*
X19172142Y-13861545D01*
X19149959Y-13852220D01*
X19126388Y-13847382D01*
X19102326Y-13847214D01*
X19078689Y-13851723D01*
X19056379Y-13860737D01*
X19046349Y-13867300D01*
X18707100Y-13867300D01*
X18707100Y-13755200D01*
X19046263Y-13755200D01*
X19053350Y-13760126D01*
X19075400Y-13769759D01*
X19098902Y-13774926D01*
X19122959Y-13775430D01*
X19146656Y-13771252D01*
X19169090Y-13762550D01*
X19189407Y-13749657D01*
X19206833Y-13733063D01*
X19220703Y-13713400D01*
X19230490Y-13691417D01*
X19235822Y-13667953D01*
X19236205Y-13640469D01*
X19231532Y-13616864D01*
X19222362Y-13594617D01*
X19209046Y-13574575D01*
X19192090Y-13557501D01*
X19172142Y-13544045D01*
X19149959Y-13534720D01*
X19126388Y-13529882D01*
X19102326Y-13529714D01*
X19078689Y-13534223D01*
X19056379Y-13543237D01*
X19046349Y-13549800D01*
X18711540Y-13549800D01*
X18707100Y-13545360D01*
X18707100Y-13421326D01*
X18981634Y-13421326D01*
X18988190Y-13441681D01*
X19010190Y-13451690D01*
X19033720Y-13457214D01*
X19057876Y-13458042D01*
X19081729Y-13454141D01*
X19104362Y-13445662D01*
X19111810Y-13441681D01*
X19118366Y-13421326D01*
X19050000Y-13352960D01*
X18981634Y-13421326D01*
X18707100Y-13421326D01*
X18707100Y-13342875D01*
X18926958Y-13342875D01*
X18930859Y-13366728D01*
X18939338Y-13389362D01*
X18943319Y-13396810D01*
X18963674Y-13403366D01*
X19032040Y-13335000D01*
X19067961Y-13335000D01*
X19136326Y-13403366D01*
X19156681Y-13396810D01*
X19166690Y-13374810D01*
X19172214Y-13351280D01*
X19173042Y-13327124D01*
X19169141Y-13303271D01*
X19160662Y-13280638D01*
X19156681Y-13273190D01*
X19136326Y-13266634D01*
X19067961Y-13335000D01*
X19032040Y-13335000D01*
X18963674Y-13266634D01*
X18943319Y-13273190D01*
X18933310Y-13295190D01*
X18927786Y-13318720D01*
X18926958Y-13342875D01*
X18707100Y-13342875D01*
X18707100Y-13335000D01*
X18706448Y-13330984D01*
X18681048Y-13254784D01*
X18679567Y-13251755D01*
X18677513Y-13248674D01*
X18981634Y-13248674D01*
X19050000Y-13317039D01*
X19118366Y-13248674D01*
X19111810Y-13228319D01*
X19089810Y-13218310D01*
X19066280Y-13212786D01*
X19042125Y-13211958D01*
X19018272Y-13215859D01*
X18995638Y-13224338D01*
X18988190Y-13228319D01*
X18981634Y-13248674D01*
X18677513Y-13248674D01*
X18654167Y-13213655D01*
X18651220Y-13210540D01*
X18600420Y-13172440D01*
X18598480Y-13171241D01*
X18581200Y-13162601D01*
X18581200Y-12954000D01*
X18580274Y-12944557D01*
X18579448Y-12935108D01*
X18579297Y-12934589D01*
X18579244Y-12934052D01*
X18576503Y-12924971D01*
X18573856Y-12915860D01*
X18573607Y-12915381D01*
X18573451Y-12914864D01*
X18568999Y-12906492D01*
X18564632Y-12898065D01*
X18564294Y-12897643D01*
X18564041Y-12897167D01*
X18558049Y-12889820D01*
X18552127Y-12882401D01*
X18551385Y-12881649D01*
X18551373Y-12881634D01*
X18551359Y-12881622D01*
X18551120Y-12881380D01*
X18491881Y-12822141D01*
X18510229Y-12819141D01*
X18532862Y-12810662D01*
X18540310Y-12806681D01*
X18546866Y-12786326D01*
X18478500Y-12717960D01*
X18477086Y-12719375D01*
X18459125Y-12701414D01*
X18460540Y-12700000D01*
X18496461Y-12700000D01*
X18564826Y-12768366D01*
X18585181Y-12761810D01*
X18595190Y-12739810D01*
X18600714Y-12716280D01*
X18601542Y-12692124D01*
X18597641Y-12668271D01*
X18589162Y-12645638D01*
X18585181Y-12638190D01*
X18564826Y-12631634D01*
X18496461Y-12700000D01*
X18460540Y-12700000D01*
X18392174Y-12631634D01*
X18371819Y-12638190D01*
X18361810Y-12660190D01*
X18356286Y-12683720D01*
X18356192Y-12686452D01*
X18283413Y-12613674D01*
X18410134Y-12613674D01*
X18478500Y-12682039D01*
X18546866Y-12613674D01*
X18540310Y-12593319D01*
X18518310Y-12583310D01*
X18494780Y-12577786D01*
X18470625Y-12576958D01*
X18446772Y-12580859D01*
X18424138Y-12589338D01*
X18416690Y-12593319D01*
X18410134Y-12613674D01*
X18283413Y-12613674D01*
X18170120Y-12500380D01*
X18162788Y-12494358D01*
X18155522Y-12488261D01*
X18155049Y-12488000D01*
X18154632Y-12487658D01*
X18146269Y-12483174D01*
X18137958Y-12478605D01*
X18137443Y-12478442D01*
X18136967Y-12478186D01*
X18127897Y-12475413D01*
X18118853Y-12472544D01*
X18118315Y-12472484D01*
X18117799Y-12472326D01*
X18108369Y-12471368D01*
X18101638Y-12470613D01*
X18092642Y-12464545D01*
X18070459Y-12455220D01*
X18046888Y-12450382D01*
X18022826Y-12450214D01*
X18015437Y-12451623D01*
X18001249Y-12437435D01*
X18019402Y-12441426D01*
X18043459Y-12441930D01*
X18067156Y-12437752D01*
X18089590Y-12429050D01*
X18101173Y-12421700D01*
X18351500Y-12421700D01*
X18360943Y-12420774D01*
X18370392Y-12419947D01*
X18370911Y-12419797D01*
X18371448Y-12419744D01*
X18380529Y-12417002D01*
X18389640Y-12414355D01*
X18390119Y-12414107D01*
X18390636Y-12413951D01*
X18399008Y-12409499D01*
X18407435Y-12405131D01*
X18407857Y-12404794D01*
X18408333Y-12404541D01*
X18415680Y-12398549D01*
X18423099Y-12392627D01*
X18423851Y-12391885D01*
X18423866Y-12391873D01*
X18423877Y-12391859D01*
X18424120Y-12391620D01*
X18503560Y-12312179D01*
X18511656Y-12310752D01*
X18514434Y-12309674D01*
X18629800Y-12425040D01*
X18629800Y-12954000D01*
X18630726Y-12963443D01*
X18631553Y-12972892D01*
X18631703Y-12973411D01*
X18631756Y-12973948D01*
X18634498Y-12983029D01*
X18637145Y-12992139D01*
X18637393Y-12992619D01*
X18637549Y-12993136D01*
X18642001Y-13001508D01*
X18646369Y-13009934D01*
X18646706Y-13010357D01*
X18646959Y-13010833D01*
X18652951Y-13018180D01*
X18658873Y-13025599D01*
X18659615Y-13026351D01*
X18659627Y-13026366D01*
X18659641Y-13026377D01*
X18659880Y-13026620D01*
X18786880Y-13153620D01*
X18794214Y-13159644D01*
X18801478Y-13165739D01*
X18801951Y-13165999D01*
X18802368Y-13166342D01*
X18810731Y-13170826D01*
X18819042Y-13175395D01*
X18819557Y-13175558D01*
X18820033Y-13175814D01*
X18829103Y-13178587D01*
X18838148Y-13181456D01*
X18838685Y-13181516D01*
X18839201Y-13181674D01*
X18848631Y-13182632D01*
X18858066Y-13183690D01*
X18859123Y-13183697D01*
X18859142Y-13183699D01*
X18859159Y-13183698D01*
X18859500Y-13183700D01*
X18982763Y-13183700D01*
X18989850Y-13188626D01*
X19011900Y-13198259D01*
X19035402Y-13203426D01*
X19059459Y-13203930D01*
X19083156Y-13199752D01*
X19105590Y-13191050D01*
X19125907Y-13178157D01*
X19143333Y-13161563D01*
X19157203Y-13141900D01*
X19166990Y-13119917D01*
X19172322Y-13096453D01*
X19172705Y-13068969D01*
X19168032Y-13045364D01*
X19158862Y-13023117D01*
X19145546Y-13003075D01*
X19128590Y-12986001D01*
X19108642Y-12972545D01*
X19086459Y-12963220D01*
X19062888Y-12958382D01*
X19038826Y-12958214D01*
X19015189Y-12962723D01*
X18992879Y-12971737D01*
X18982849Y-12978300D01*
X18902040Y-12978300D01*
X18835200Y-12911460D01*
X18835200Y-12382500D01*
X18834274Y-12373057D01*
X18833448Y-12363608D01*
X18833297Y-12363089D01*
X18833244Y-12362552D01*
X18830503Y-12353471D01*
X18827856Y-12344360D01*
X18827607Y-12343881D01*
X18827451Y-12343364D01*
X18822999Y-12334992D01*
X18818632Y-12326565D01*
X18818294Y-12326143D01*
X18818041Y-12325667D01*
X18812049Y-12318320D01*
X18806127Y-12310901D01*
X18805385Y-12310149D01*
X18805373Y-12310134D01*
X18805359Y-12310123D01*
X18805120Y-12309880D01*
X18614620Y-12119380D01*
X18607288Y-12113358D01*
X18600022Y-12107261D01*
X18599549Y-12107000D01*
X18599132Y-12106658D01*
X18590771Y-12102175D01*
X18582458Y-12097605D01*
X18581943Y-12097442D01*
X18581467Y-12097186D01*
X18581200Y-12097105D01*
X18581200Y-11790040D01*
X18775040Y-11596200D01*
X18855763Y-11596200D01*
X18862850Y-11601126D01*
X18884900Y-11610759D01*
X18908402Y-11615926D01*
X18932459Y-11616430D01*
X18956156Y-11612252D01*
X18978590Y-11603550D01*
X18998907Y-11590657D01*
X19016333Y-11574063D01*
X19030203Y-11554400D01*
X19039990Y-11532417D01*
X19045322Y-11508953D01*
X19045348Y-11507087D01*
X19264800Y-11726540D01*
M02*
