G04 #@! TF.FileFunction,Copper,L2,Bot,Signal*
%FSLAX45Y45*%
G04 Gerber Fmt 4.5, Leading zero omitted, Abs format (unit mm)*
G04 Created by KiCad (PCBNEW 4.0.1-stable) date 2017年09月08日金曜日 13:41:55*
%MOMM*%
G01*
G04 APERTURE LIST*
%ADD10C,0.100000*%
%ADD11C,2.200000*%
%ADD12C,1.400000*%
%ADD13O,3.000000X1.700000*%
%ADD14O,3.000000X1.800000*%
%ADD15O,2.500000X1.800000*%
%ADD16C,1.250000*%
%ADD17C,4.300000*%
%ADD18O,3.000000X1.600000*%
%ADD19O,1.400000X1.400000*%
%ADD20C,2.800000*%
%ADD21O,3.000000X2.000000*%
%ADD22O,2.800000X4.000000*%
%ADD23O,4.500000X2.500000*%
%ADD24O,1.800000X3.000000*%
%ADD25O,3.500000X1.500000*%
%ADD26O,5.500000X2.500000*%
%ADD27O,4.000000X1.500000*%
%ADD28C,2.000000*%
%ADD29C,1.300000*%
%ADD30O,1.790000X2.500000*%
%ADD31O,1.500000X2.500000*%
%ADD32O,1.540000X1.000000*%
%ADD33C,1.000000*%
%ADD34O,1.000000X2.000000*%
%ADD35C,0.600000*%
%ADD36C,0.508000*%
%ADD37C,0.400000*%
%ADD38C,1.000000*%
%ADD39C,0.254000*%
G04 APERTURE END LIST*
D10*
D11*
X18478500Y-10985500D03*
X18478500Y-11493500D03*
D12*
X18478500Y-10985500D03*
X18478500Y-11493500D03*
D11*
X18478500Y-12192000D03*
X18478500Y-12700000D03*
D12*
X18478500Y-12192000D03*
X18478500Y-12700000D03*
D11*
X19621500Y-13652500D03*
X19113500Y-13652500D03*
D12*
X19621500Y-13652500D03*
X19113500Y-13652500D03*
D11*
X19621500Y-13970000D03*
X19113500Y-13970000D03*
D12*
X19621500Y-13970000D03*
X19113500Y-13970000D03*
D13*
X19837400Y-12954000D03*
X19837400Y-12694000D03*
D14*
X20331400Y-13184000D03*
X20331400Y-12464000D03*
D15*
X20331400Y-13184000D03*
X20331400Y-12464000D03*
D16*
X19837400Y-12954000D03*
X19837400Y-12694000D03*
D17*
X19702000Y-10613500D03*
X19702000Y-11927500D03*
D18*
X19431000Y-11620500D03*
X19431000Y-11370500D03*
X19431000Y-11170500D03*
X19431000Y-10920500D03*
D19*
X19431000Y-11620500D03*
X19431000Y-11370500D03*
X19431000Y-11170500D03*
X19431000Y-10920500D03*
D20*
X19702000Y-11927500D03*
X19702000Y-10613500D03*
D21*
X18034000Y-10541000D03*
X18034000Y-10795000D03*
X18034000Y-11049000D03*
X18034000Y-11303000D03*
X18034000Y-11557000D03*
X18034000Y-11811000D03*
X18034000Y-12065000D03*
X18034000Y-12319000D03*
X18034000Y-12573000D03*
X18034000Y-12827000D03*
X18034000Y-13081000D03*
X18034000Y-13335000D03*
X18034000Y-13589000D03*
X18034000Y-13843000D03*
D12*
X18034000Y-10541000D03*
X18034000Y-10795000D03*
X18034000Y-11049000D03*
X18034000Y-11303000D03*
X18034000Y-11557000D03*
X18034000Y-11811000D03*
X18034000Y-12065000D03*
X18034000Y-12319000D03*
X18034000Y-12573000D03*
X18034000Y-12827000D03*
X18034000Y-13081000D03*
X18034000Y-13335000D03*
X18034000Y-13589000D03*
X18034000Y-13843000D03*
D21*
X15494000Y-10541000D03*
X15494000Y-10795000D03*
X15494000Y-11049000D03*
X15494000Y-11303000D03*
X15494000Y-11557000D03*
X15494000Y-11811000D03*
X15494000Y-12065000D03*
X15494000Y-12319000D03*
X15494000Y-12573000D03*
X15494000Y-12827000D03*
X15494000Y-13081000D03*
X15494000Y-13335000D03*
X15494000Y-13589000D03*
X15494000Y-13843000D03*
D12*
X15494000Y-10541000D03*
X15494000Y-10795000D03*
X15494000Y-11049000D03*
X15494000Y-11303000D03*
X15494000Y-11557000D03*
X15494000Y-11811000D03*
X15494000Y-12065000D03*
X15494000Y-12319000D03*
X15494000Y-12573000D03*
X15494000Y-12827000D03*
X15494000Y-13081000D03*
X15494000Y-13335000D03*
X15494000Y-13589000D03*
X15494000Y-13843000D03*
D21*
X19050000Y-12319000D03*
X19050000Y-12573000D03*
X19050000Y-12827000D03*
X19050000Y-13081000D03*
X19050000Y-13335000D03*
D12*
X19050000Y-12319000D03*
X19050000Y-12573000D03*
X19050000Y-12827000D03*
X19050000Y-13081000D03*
X19050000Y-13335000D03*
D22*
X13728700Y-11341100D03*
D23*
X14228700Y-11341100D03*
D24*
X13728700Y-11341100D03*
D25*
X14228700Y-11341100D03*
D26*
X14198700Y-10966100D03*
X14198700Y-11716100D03*
D27*
X14198700Y-10966100D03*
X14198700Y-11716100D03*
D28*
X18923000Y-10985500D03*
X18923000Y-11239500D03*
X18923000Y-11493500D03*
D12*
X18923000Y-10985500D03*
X18923000Y-11239500D03*
X18923000Y-11493500D03*
D28*
X14160500Y-13525500D03*
X14414500Y-13525500D03*
D12*
X14160500Y-13525500D03*
X14414500Y-13525500D03*
D11*
X15303500Y-10096500D03*
X14287500Y-10096500D03*
D12*
X15303500Y-10096500D03*
X14287500Y-10096500D03*
D11*
X14795500Y-10477500D03*
X14795500Y-11493500D03*
D12*
X14795500Y-10477500D03*
X14795500Y-11493500D03*
D11*
X14795500Y-11874500D03*
X14795500Y-12890500D03*
D12*
X14795500Y-11874500D03*
X14795500Y-12890500D03*
D11*
X14795500Y-14287500D03*
X14795500Y-13271500D03*
D12*
X14795500Y-14287500D03*
X14795500Y-13271500D03*
D11*
X13589000Y-12255500D03*
X13589000Y-12705500D03*
X14239000Y-12255500D03*
X14239000Y-12705500D03*
D12*
X13589000Y-12255500D03*
X14239000Y-12255500D03*
X13589000Y-12705500D03*
X14239000Y-12705500D03*
D11*
X18478500Y-13462000D03*
X18478500Y-13942000D03*
D29*
X18478500Y-13462000D03*
X18478500Y-13942000D03*
D30*
X19153000Y-14351000D03*
D31*
X19367500Y-14351000D03*
D30*
X19582000Y-14351000D03*
D32*
X19140500Y-14351000D03*
D33*
X19367500Y-14351000D03*
D32*
X19594500Y-14351000D03*
D24*
X19827500Y-14351000D03*
D34*
X19797500Y-14351000D03*
D24*
X18907500Y-14351000D03*
D34*
X18937500Y-14351000D03*
D35*
X19240500Y-11874500D03*
D36*
X19050000Y-13335000D02*
X19050000Y-13462000D01*
X19837400Y-12694000D02*
X19837400Y-12534900D01*
X19837400Y-12534900D02*
X19812000Y-12509500D01*
D37*
X19556500Y-10920500D02*
X19381000Y-10920500D01*
D38*
X15494000Y-12065000D02*
X16637000Y-12065000D01*
X16891000Y-12319000D02*
X18034000Y-12319000D01*
X16637000Y-12065000D02*
X16891000Y-12319000D01*
X19837400Y-12954000D02*
X19494500Y-12954000D01*
X19494500Y-12954000D02*
X19367500Y-12827000D01*
X19367500Y-12827000D02*
X19367500Y-12446000D01*
X19367500Y-12446000D02*
X19240500Y-12319000D01*
X19240500Y-12319000D02*
X19050000Y-12319000D01*
X19177000Y-12319000D02*
X19050000Y-12319000D01*
X18288000Y-10922000D02*
X18161000Y-10795000D01*
X18288000Y-11747500D02*
X18288000Y-10922000D01*
X18415000Y-11874500D02*
X18288000Y-11747500D01*
X19240500Y-11874500D02*
X18415000Y-11874500D01*
X18161000Y-10795000D02*
X18034000Y-10795000D01*
X19050000Y-12573000D02*
X18859500Y-12573000D01*
X15240000Y-11684000D02*
X15367000Y-11557000D01*
X15240000Y-14033500D02*
X15240000Y-11684000D01*
X15430500Y-14224000D02*
X15240000Y-14033500D01*
X18542000Y-14224000D02*
X15430500Y-14224000D01*
X18732500Y-14033500D02*
X18542000Y-14224000D01*
X18732500Y-12700000D02*
X18732500Y-14033500D01*
X18859500Y-12573000D02*
X18732500Y-12700000D01*
X15367000Y-11557000D02*
X15494000Y-11557000D01*
D39*
G36*
X20211425Y-9631094D02*
X20141839Y-9659209D01*
X20079038Y-9700304D01*
X20025416Y-9752815D01*
X19983015Y-9814741D01*
X19953449Y-9883723D01*
X19937845Y-9957134D01*
X19936797Y-10032179D01*
X19950345Y-10105997D01*
X19977973Y-10175778D01*
X20018629Y-10238863D01*
X20070764Y-10292851D01*
X20132393Y-10335684D01*
X20201167Y-10365730D01*
X20274468Y-10381847D01*
X20349502Y-10383418D01*
X20423414Y-10370386D01*
X20493386Y-10343245D01*
X20556754Y-10303031D01*
X20611104Y-10251274D01*
X20654366Y-10189946D01*
X20684892Y-10121383D01*
X20701519Y-10048197D01*
X20702300Y-9992295D01*
X20702300Y-10666407D01*
X20693413Y-10671212D01*
X20689078Y-10674136D01*
X20684702Y-10676999D01*
X20684077Y-10677509D01*
X20673551Y-10686217D01*
X20669864Y-10689929D01*
X20666129Y-10693587D01*
X20665616Y-10694208D01*
X20656981Y-10704795D01*
X20654087Y-10709150D01*
X20651133Y-10713466D01*
X20650749Y-10714174D01*
X20644336Y-10726237D01*
X20642341Y-10731077D01*
X20640283Y-10735878D01*
X20640045Y-10736648D01*
X20636096Y-10749726D01*
X20635080Y-10754857D01*
X20633993Y-10759972D01*
X20633909Y-10760773D01*
X20632575Y-10774370D01*
X20632575Y-10776789D01*
X20632306Y-10779194D01*
X20632300Y-10780000D01*
X20632300Y-11765000D01*
X20632301Y-11765010D01*
X20632300Y-11765201D01*
X20632302Y-11765689D01*
X20632557Y-11768197D01*
X20632539Y-11770718D01*
X20632618Y-11771520D01*
X20634046Y-11785107D01*
X20635097Y-11790225D01*
X20636077Y-11795367D01*
X20636310Y-11796138D01*
X20640350Y-11809189D01*
X20642376Y-11814009D01*
X20644336Y-11818858D01*
X20644714Y-11819570D01*
X20651212Y-11831587D01*
X20654137Y-11835924D01*
X20656999Y-11840298D01*
X20657509Y-11840923D01*
X20666217Y-11851449D01*
X20669929Y-11855136D01*
X20673587Y-11858871D01*
X20674208Y-11859384D01*
X20684795Y-11868019D01*
X20689150Y-11870913D01*
X20693466Y-11873867D01*
X20694174Y-11874251D01*
X20702300Y-11878571D01*
X20702300Y-12441406D01*
X20693413Y-12446212D01*
X20689078Y-12449136D01*
X20684702Y-12451999D01*
X20684077Y-12452509D01*
X20673551Y-12461217D01*
X20669864Y-12464929D01*
X20666129Y-12468587D01*
X20665616Y-12469208D01*
X20656981Y-12479795D01*
X20654087Y-12484150D01*
X20651133Y-12488466D01*
X20650749Y-12489174D01*
X20644336Y-12501237D01*
X20642341Y-12506077D01*
X20640283Y-12510878D01*
X20640045Y-12511648D01*
X20636096Y-12524726D01*
X20635080Y-12529857D01*
X20633993Y-12534972D01*
X20633909Y-12535773D01*
X20632575Y-12549370D01*
X20632575Y-12551789D01*
X20632306Y-12554194D01*
X20632300Y-12555000D01*
X20632300Y-13090000D01*
X20632301Y-13090010D01*
X20632300Y-13090201D01*
X20632302Y-13090689D01*
X20632557Y-13093197D01*
X20632539Y-13095718D01*
X20632618Y-13096520D01*
X20634046Y-13110107D01*
X20635097Y-13115225D01*
X20636077Y-13120367D01*
X20636310Y-13121138D01*
X20640350Y-13134189D01*
X20642376Y-13139009D01*
X20644336Y-13143858D01*
X20644714Y-13144570D01*
X20651212Y-13156587D01*
X20654137Y-13160924D01*
X20656999Y-13165298D01*
X20657509Y-13165923D01*
X20666217Y-13176449D01*
X20669929Y-13180136D01*
X20673587Y-13183871D01*
X20674208Y-13184384D01*
X20684795Y-13193019D01*
X20689150Y-13195913D01*
X20693466Y-13198867D01*
X20694174Y-13199251D01*
X20702300Y-13203571D01*
X20702300Y-14080371D01*
X20688139Y-14008852D01*
X20659539Y-13939464D01*
X20618006Y-13876952D01*
X20565123Y-13823698D01*
X20502902Y-13781730D01*
X20433715Y-13752646D01*
X20360197Y-13737555D01*
X20285147Y-13737031D01*
X20211425Y-13751094D01*
X20141839Y-13779209D01*
X20079038Y-13820304D01*
X20025416Y-13872815D01*
X19983015Y-13934741D01*
X19953449Y-14003723D01*
X19937845Y-14077134D01*
X19936797Y-14152178D01*
X19948258Y-14214623D01*
X19946358Y-14211050D01*
X19928756Y-14189468D01*
X19907297Y-14171715D01*
X19882799Y-14158469D01*
X19856194Y-14150234D01*
X19828496Y-14147323D01*
X19800761Y-14149847D01*
X19774044Y-14157710D01*
X19749363Y-14170613D01*
X19727658Y-14188064D01*
X19709756Y-14209398D01*
X19697287Y-14232080D01*
X19682901Y-14214441D01*
X19661517Y-14196751D01*
X19637105Y-14183551D01*
X19610593Y-14175345D01*
X19582993Y-14172444D01*
X19555354Y-14174959D01*
X19528731Y-14182795D01*
X19504137Y-14195652D01*
X19482508Y-14213042D01*
X19471329Y-14226364D01*
X19458112Y-14210158D01*
X19438909Y-14194272D01*
X19416986Y-14182418D01*
X19393178Y-14175048D01*
X19368392Y-14172443D01*
X19343571Y-14174702D01*
X19319663Y-14181739D01*
X19297576Y-14193285D01*
X19278153Y-14208902D01*
X19263564Y-14226289D01*
X19253901Y-14214441D01*
X19232517Y-14196751D01*
X19208105Y-14183551D01*
X19181593Y-14175345D01*
X19153993Y-14172444D01*
X19126354Y-14174959D01*
X19099731Y-14182795D01*
X19075137Y-14195652D01*
X19053508Y-14213042D01*
X19037537Y-14232075D01*
X19026358Y-14211050D01*
X19008756Y-14189468D01*
X18987297Y-14171715D01*
X18962799Y-14158469D01*
X18936194Y-14150234D01*
X18908496Y-14147323D01*
X18880761Y-14149847D01*
X18854044Y-14157710D01*
X18829363Y-14170613D01*
X18807658Y-14188064D01*
X18789756Y-14209398D01*
X18776339Y-14233804D01*
X18767918Y-14260350D01*
X18764814Y-14288027D01*
X18764800Y-14290019D01*
X18764800Y-14411981D01*
X18767518Y-14439698D01*
X18775567Y-14466359D01*
X18788642Y-14490950D01*
X18797899Y-14502300D01*
X13735845Y-14502300D01*
X13803414Y-14490386D01*
X13873386Y-14463245D01*
X13936754Y-14423031D01*
X13991104Y-14371274D01*
X14034366Y-14309946D01*
X14038269Y-14301180D01*
X14632586Y-14301180D01*
X14638346Y-14332563D01*
X14650092Y-14362230D01*
X14667376Y-14389050D01*
X14689541Y-14412002D01*
X14715741Y-14430212D01*
X14744980Y-14442986D01*
X14776142Y-14449837D01*
X14808043Y-14450505D01*
X14839465Y-14444965D01*
X14869213Y-14433426D01*
X14896153Y-14416330D01*
X14919259Y-14394326D01*
X14937651Y-14368253D01*
X14950629Y-14339105D01*
X14957698Y-14307990D01*
X14958207Y-14271546D01*
X14952009Y-14240247D01*
X14939851Y-14210747D01*
X14922193Y-14184171D01*
X14899711Y-14161531D01*
X14873258Y-14143689D01*
X14843844Y-14131324D01*
X14812589Y-14124908D01*
X14780683Y-14124686D01*
X14749341Y-14130664D01*
X14719757Y-14142617D01*
X14693058Y-14160088D01*
X14670261Y-14182412D01*
X14652235Y-14208739D01*
X14639665Y-14238066D01*
X14633032Y-14269276D01*
X14632586Y-14301180D01*
X14038269Y-14301180D01*
X14064892Y-14241383D01*
X14081519Y-14168197D01*
X14082716Y-14082474D01*
X14068139Y-14008852D01*
X14039539Y-13939464D01*
X13998006Y-13876952D01*
X13945122Y-13823698D01*
X13882902Y-13781730D01*
X13813715Y-13752646D01*
X13740197Y-13737555D01*
X13665147Y-13737031D01*
X13591425Y-13751094D01*
X13521839Y-13779209D01*
X13459038Y-13820304D01*
X13405416Y-13872815D01*
X13363015Y-13934741D01*
X13333449Y-14003723D01*
X13317845Y-14077134D01*
X13317700Y-14087511D01*
X13317700Y-13633254D01*
X14070706Y-13633254D01*
X14080895Y-13656674D01*
X14108015Y-13669683D01*
X14137152Y-13677152D01*
X14167187Y-13678793D01*
X14196964Y-13674543D01*
X14225341Y-13664565D01*
X14240105Y-13656674D01*
X14250294Y-13633254D01*
X14160500Y-13543460D01*
X14070706Y-13633254D01*
X13317700Y-13633254D01*
X13317700Y-13532187D01*
X14007207Y-13532187D01*
X14011457Y-13561964D01*
X14021435Y-13590341D01*
X14029326Y-13605105D01*
X14052746Y-13615294D01*
X14142539Y-13525500D01*
X14178460Y-13525500D01*
X14268254Y-13615294D01*
X14285783Y-13607668D01*
X14294251Y-13620808D01*
X14315053Y-13642350D01*
X14339643Y-13659440D01*
X14367085Y-13671429D01*
X14396332Y-13677859D01*
X14426272Y-13678487D01*
X14455763Y-13673287D01*
X14483682Y-13662457D01*
X14508966Y-13646411D01*
X14530652Y-13625760D01*
X14547914Y-13601290D01*
X14560094Y-13573933D01*
X14566729Y-13544731D01*
X14567207Y-13510527D01*
X14561390Y-13481151D01*
X14549978Y-13453465D01*
X14533407Y-13428522D01*
X14512306Y-13407273D01*
X14487479Y-13390528D01*
X14459873Y-13378923D01*
X14430539Y-13372902D01*
X14400593Y-13372693D01*
X14371178Y-13378304D01*
X14343412Y-13389522D01*
X14318355Y-13405919D01*
X14296959Y-13426871D01*
X14285710Y-13443300D01*
X14268254Y-13435706D01*
X14178460Y-13525500D01*
X14142539Y-13525500D01*
X14052746Y-13435706D01*
X14029326Y-13445895D01*
X14016317Y-13473015D01*
X14008848Y-13502152D01*
X14007207Y-13532187D01*
X13317700Y-13532187D01*
X13317700Y-13417746D01*
X14070706Y-13417746D01*
X14160500Y-13507539D01*
X14250294Y-13417746D01*
X14240105Y-13394326D01*
X14212985Y-13381317D01*
X14183848Y-13373848D01*
X14153813Y-13372207D01*
X14124036Y-13376457D01*
X14095659Y-13386435D01*
X14080895Y-13394326D01*
X14070706Y-13417746D01*
X13317700Y-13417746D01*
X13317700Y-13285180D01*
X14632586Y-13285180D01*
X14638346Y-13316563D01*
X14650092Y-13346230D01*
X14667376Y-13373050D01*
X14689541Y-13396002D01*
X14715741Y-13414212D01*
X14744980Y-13426986D01*
X14776142Y-13433837D01*
X14808043Y-13434505D01*
X14839465Y-13428965D01*
X14869213Y-13417426D01*
X14896153Y-13400330D01*
X14919259Y-13378326D01*
X14937651Y-13352253D01*
X14950629Y-13323105D01*
X14957698Y-13291990D01*
X14958207Y-13255546D01*
X14952009Y-13224247D01*
X14939851Y-13194747D01*
X14922193Y-13168171D01*
X14899711Y-13145531D01*
X14873258Y-13127689D01*
X14843844Y-13115324D01*
X14812589Y-13108908D01*
X14780683Y-13108686D01*
X14749341Y-13114664D01*
X14719757Y-13126617D01*
X14693058Y-13144088D01*
X14670261Y-13166412D01*
X14652235Y-13192739D01*
X14639665Y-13222066D01*
X14633032Y-13253276D01*
X14632586Y-13285180D01*
X13317700Y-13285180D01*
X13317700Y-12904180D01*
X14632586Y-12904180D01*
X14638346Y-12935563D01*
X14650092Y-12965230D01*
X14667376Y-12992050D01*
X14689541Y-13015002D01*
X14715741Y-13033212D01*
X14744980Y-13045986D01*
X14776142Y-13052837D01*
X14808043Y-13053505D01*
X14839465Y-13047965D01*
X14869213Y-13036426D01*
X14896153Y-13019330D01*
X14919259Y-12997326D01*
X14937651Y-12971253D01*
X14950629Y-12942105D01*
X14957698Y-12910990D01*
X14958207Y-12874546D01*
X14952009Y-12843247D01*
X14939851Y-12813747D01*
X14922193Y-12787171D01*
X14899711Y-12764531D01*
X14873258Y-12746689D01*
X14843844Y-12734324D01*
X14812589Y-12727908D01*
X14780683Y-12727686D01*
X14749341Y-12733664D01*
X14719757Y-12745617D01*
X14693058Y-12763088D01*
X14670261Y-12785412D01*
X14652235Y-12811739D01*
X14639665Y-12841066D01*
X14633032Y-12872276D01*
X14632586Y-12904180D01*
X13317700Y-12904180D01*
X13317700Y-12719180D01*
X13426086Y-12719180D01*
X13431846Y-12750563D01*
X13443592Y-12780230D01*
X13460876Y-12807050D01*
X13483041Y-12830002D01*
X13509241Y-12848212D01*
X13538480Y-12860986D01*
X13569642Y-12867837D01*
X13601543Y-12868505D01*
X13632965Y-12862965D01*
X13662713Y-12851426D01*
X13689653Y-12834330D01*
X13712759Y-12812326D01*
X13731151Y-12786253D01*
X13744129Y-12757105D01*
X13751198Y-12725990D01*
X13751293Y-12719180D01*
X14076086Y-12719180D01*
X14081846Y-12750563D01*
X14093592Y-12780230D01*
X14110876Y-12807050D01*
X14133041Y-12830002D01*
X14159241Y-12848212D01*
X14188480Y-12860986D01*
X14219642Y-12867837D01*
X14251543Y-12868505D01*
X14282965Y-12862965D01*
X14312713Y-12851426D01*
X14339653Y-12834330D01*
X14362759Y-12812326D01*
X14381151Y-12786253D01*
X14394129Y-12757105D01*
X14401198Y-12725990D01*
X14401707Y-12689546D01*
X14395509Y-12658247D01*
X14383351Y-12628747D01*
X14365693Y-12602171D01*
X14343211Y-12579531D01*
X14316758Y-12561689D01*
X14287344Y-12549324D01*
X14256089Y-12542908D01*
X14224183Y-12542686D01*
X14192841Y-12548664D01*
X14163257Y-12560617D01*
X14136558Y-12578088D01*
X14113761Y-12600412D01*
X14095735Y-12626739D01*
X14083165Y-12656066D01*
X14076532Y-12687276D01*
X14076086Y-12719180D01*
X13751293Y-12719180D01*
X13751707Y-12689546D01*
X13745509Y-12658247D01*
X13733351Y-12628747D01*
X13715693Y-12602171D01*
X13693211Y-12579531D01*
X13666758Y-12561689D01*
X13637344Y-12549324D01*
X13606089Y-12542908D01*
X13574183Y-12542686D01*
X13542841Y-12548664D01*
X13513257Y-12560617D01*
X13486558Y-12578088D01*
X13463761Y-12600412D01*
X13445735Y-12626739D01*
X13433165Y-12656066D01*
X13426532Y-12687276D01*
X13426086Y-12719180D01*
X13317700Y-12719180D01*
X13317700Y-12370387D01*
X13492074Y-12370387D01*
X13503469Y-12394829D01*
X13532295Y-12408838D01*
X13563299Y-12416954D01*
X13595291Y-12418866D01*
X13627041Y-12414500D01*
X13657330Y-12404023D01*
X13674530Y-12394829D01*
X13685926Y-12370387D01*
X14142074Y-12370387D01*
X14153469Y-12394829D01*
X14182295Y-12408838D01*
X14213299Y-12416954D01*
X14245291Y-12418866D01*
X14277041Y-12414500D01*
X14307330Y-12404023D01*
X14324530Y-12394829D01*
X14335926Y-12370387D01*
X14239000Y-12273460D01*
X14142074Y-12370387D01*
X13685926Y-12370387D01*
X13589000Y-12273460D01*
X13492074Y-12370387D01*
X13317700Y-12370387D01*
X13317700Y-12261791D01*
X13425634Y-12261791D01*
X13430000Y-12293541D01*
X13440477Y-12323830D01*
X13449671Y-12341030D01*
X13474113Y-12352426D01*
X13502674Y-12323866D01*
X13523820Y-12302720D01*
X13571039Y-12255500D01*
X13606960Y-12255500D01*
X13703887Y-12352426D01*
X13728329Y-12341030D01*
X13742338Y-12312205D01*
X13750454Y-12281201D01*
X13751614Y-12261791D01*
X14075634Y-12261791D01*
X14080000Y-12293541D01*
X14090477Y-12323830D01*
X14099671Y-12341030D01*
X14124113Y-12352426D01*
X14152674Y-12323866D01*
X14173820Y-12302720D01*
X14221039Y-12255500D01*
X14256960Y-12255500D01*
X14353887Y-12352426D01*
X14378329Y-12341030D01*
X14392338Y-12312205D01*
X14400454Y-12281201D01*
X14402366Y-12249209D01*
X14398000Y-12217459D01*
X14387523Y-12187170D01*
X14378329Y-12169969D01*
X14353887Y-12158574D01*
X14256960Y-12255500D01*
X14221039Y-12255500D01*
X14124113Y-12158574D01*
X14099671Y-12169969D01*
X14085662Y-12198795D01*
X14077545Y-12229799D01*
X14075634Y-12261791D01*
X13751614Y-12261791D01*
X13752366Y-12249209D01*
X13748000Y-12217459D01*
X13737523Y-12187170D01*
X13728329Y-12169969D01*
X13703887Y-12158574D01*
X13606960Y-12255500D01*
X13571039Y-12255500D01*
X13474113Y-12158574D01*
X13449671Y-12169969D01*
X13435662Y-12198795D01*
X13427545Y-12229799D01*
X13425634Y-12261791D01*
X13317700Y-12261791D01*
X13317700Y-12140613D01*
X13492074Y-12140613D01*
X13589000Y-12237539D01*
X13621187Y-12205352D01*
X13685926Y-12140613D01*
X14142074Y-12140613D01*
X14239000Y-12237539D01*
X14271187Y-12205352D01*
X14335926Y-12140613D01*
X14324530Y-12116171D01*
X14295705Y-12102162D01*
X14264701Y-12094045D01*
X14232709Y-12092134D01*
X14200959Y-12096500D01*
X14170670Y-12106977D01*
X14153469Y-12116171D01*
X14142074Y-12140613D01*
X13685926Y-12140613D01*
X13674530Y-12116171D01*
X13645705Y-12102162D01*
X13614701Y-12094045D01*
X13582709Y-12092134D01*
X13550959Y-12096500D01*
X13520670Y-12106977D01*
X13503469Y-12116171D01*
X13492074Y-12140613D01*
X13317700Y-12140613D01*
X13317700Y-11963700D01*
X13564000Y-11963700D01*
X13568016Y-11963048D01*
X13598016Y-11953048D01*
X13601214Y-11951452D01*
X13602980Y-11949980D01*
X13622980Y-11929980D01*
X13625127Y-11927123D01*
X13626048Y-11925016D01*
X13636048Y-11895016D01*
X13636700Y-11891000D01*
X13636700Y-11714859D01*
X13869419Y-11714859D01*
X13872562Y-11749398D01*
X13882354Y-11782668D01*
X13898421Y-11813402D01*
X13920153Y-11840430D01*
X13946720Y-11862723D01*
X13977111Y-11879430D01*
X14010168Y-11889917D01*
X14044633Y-11893783D01*
X14047114Y-11893800D01*
X14350286Y-11893800D01*
X14384801Y-11890416D01*
X14392205Y-11888180D01*
X14632586Y-11888180D01*
X14638346Y-11919563D01*
X14650092Y-11949230D01*
X14667376Y-11976050D01*
X14689541Y-11999002D01*
X14715741Y-12017212D01*
X14744980Y-12029986D01*
X14776142Y-12036837D01*
X14808043Y-12037505D01*
X14839465Y-12031965D01*
X14869213Y-12020426D01*
X14896153Y-12003330D01*
X14919259Y-11981326D01*
X14937651Y-11955253D01*
X14950629Y-11926105D01*
X14957698Y-11894990D01*
X14958207Y-11858546D01*
X14952009Y-11827247D01*
X14939851Y-11797747D01*
X14922193Y-11771171D01*
X14899711Y-11748531D01*
X14873258Y-11730689D01*
X14843844Y-11718324D01*
X14812589Y-11711908D01*
X14780683Y-11711686D01*
X14749341Y-11717664D01*
X14719757Y-11729617D01*
X14693058Y-11747088D01*
X14670261Y-11769412D01*
X14652235Y-11795739D01*
X14639665Y-11825066D01*
X14633032Y-11856276D01*
X14632586Y-11888180D01*
X14392205Y-11888180D01*
X14418002Y-11880392D01*
X14448623Y-11864110D01*
X14475499Y-11842191D01*
X14497606Y-11815469D01*
X14514101Y-11784961D01*
X14524356Y-11751831D01*
X14527981Y-11717341D01*
X14524947Y-11684000D01*
X15137300Y-11684000D01*
X15137300Y-14033500D01*
X15138226Y-14042943D01*
X15139052Y-14052392D01*
X15139203Y-14052911D01*
X15139256Y-14053448D01*
X15141997Y-14062529D01*
X15144644Y-14071639D01*
X15144893Y-14072119D01*
X15145049Y-14072636D01*
X15149501Y-14081008D01*
X15153868Y-14089434D01*
X15154206Y-14089857D01*
X15154459Y-14090333D01*
X15160451Y-14097680D01*
X15166373Y-14105099D01*
X15167115Y-14105851D01*
X15167127Y-14105866D01*
X15167141Y-14105877D01*
X15167380Y-14106120D01*
X15357880Y-14296620D01*
X15365212Y-14302642D01*
X15372478Y-14308739D01*
X15372951Y-14308999D01*
X15373368Y-14309342D01*
X15381729Y-14313825D01*
X15390042Y-14318395D01*
X15390557Y-14318558D01*
X15391033Y-14318814D01*
X15400103Y-14321587D01*
X15409147Y-14324456D01*
X15409685Y-14324516D01*
X15410201Y-14324674D01*
X15419635Y-14325632D01*
X15429066Y-14326690D01*
X15430121Y-14326697D01*
X15430141Y-14326699D01*
X15430160Y-14326698D01*
X15430500Y-14326700D01*
X18542000Y-14326700D01*
X18551443Y-14325774D01*
X18560892Y-14324947D01*
X18561411Y-14324797D01*
X18561948Y-14324744D01*
X18571029Y-14322002D01*
X18580140Y-14319355D01*
X18580619Y-14319107D01*
X18581136Y-14318951D01*
X18589508Y-14314499D01*
X18597935Y-14310131D01*
X18598357Y-14309794D01*
X18598833Y-14309541D01*
X18606180Y-14303549D01*
X18613599Y-14297627D01*
X18614351Y-14296885D01*
X18614366Y-14296873D01*
X18614377Y-14296859D01*
X18614620Y-14296620D01*
X18805120Y-14106120D01*
X18811142Y-14098788D01*
X18817239Y-14091522D01*
X18817500Y-14091048D01*
X18817842Y-14090631D01*
X18822325Y-14082271D01*
X18826895Y-14073958D01*
X18827058Y-14073443D01*
X18827314Y-14072967D01*
X18830088Y-14063893D01*
X18832956Y-14054852D01*
X18833016Y-14054315D01*
X18833174Y-14053799D01*
X18834132Y-14044365D01*
X18835190Y-14034934D01*
X18835197Y-14033879D01*
X18835199Y-14033858D01*
X18835198Y-14033840D01*
X18835200Y-14033500D01*
X18835200Y-13666180D01*
X18950586Y-13666180D01*
X18956346Y-13697563D01*
X18968092Y-13727230D01*
X18985376Y-13754050D01*
X19007541Y-13777002D01*
X19033741Y-13795212D01*
X19062980Y-13807986D01*
X19077618Y-13811204D01*
X19067341Y-13813164D01*
X19037757Y-13825117D01*
X19011058Y-13842588D01*
X18988262Y-13864912D01*
X18970235Y-13891239D01*
X18957666Y-13920566D01*
X18951032Y-13951776D01*
X18950586Y-13983680D01*
X18956346Y-14015063D01*
X18968092Y-14044730D01*
X18985376Y-14071550D01*
X19007541Y-14094502D01*
X19033741Y-14112712D01*
X19062980Y-14125486D01*
X19094143Y-14132337D01*
X19126043Y-14133005D01*
X19157465Y-14127465D01*
X19187213Y-14115926D01*
X19214153Y-14098830D01*
X19228794Y-14084887D01*
X19524574Y-14084887D01*
X19535970Y-14109329D01*
X19564795Y-14123338D01*
X19595799Y-14131454D01*
X19627791Y-14133366D01*
X19659541Y-14129000D01*
X19689830Y-14118523D01*
X19707031Y-14109329D01*
X19718426Y-14084887D01*
X19621500Y-13987960D01*
X19524574Y-14084887D01*
X19228794Y-14084887D01*
X19237259Y-14076826D01*
X19255651Y-14050753D01*
X19268629Y-14021605D01*
X19275698Y-13990490D01*
X19275896Y-13976291D01*
X19458134Y-13976291D01*
X19462500Y-14008041D01*
X19472977Y-14038330D01*
X19482171Y-14055530D01*
X19506613Y-14066926D01*
X19535174Y-14038366D01*
X19556810Y-14016730D01*
X19603540Y-13970000D01*
X19639461Y-13970000D01*
X19736387Y-14066926D01*
X19760829Y-14055530D01*
X19774838Y-14026705D01*
X19782955Y-13995701D01*
X19784866Y-13963709D01*
X19780500Y-13931959D01*
X19770023Y-13901670D01*
X19760829Y-13884469D01*
X19736387Y-13873074D01*
X19639461Y-13970000D01*
X19603540Y-13970000D01*
X19506613Y-13873074D01*
X19482171Y-13884469D01*
X19468162Y-13913295D01*
X19460046Y-13944299D01*
X19458134Y-13976291D01*
X19275896Y-13976291D01*
X19276207Y-13954046D01*
X19270010Y-13922747D01*
X19257851Y-13893247D01*
X19240194Y-13866671D01*
X19217711Y-13844031D01*
X19191259Y-13826189D01*
X19161845Y-13813824D01*
X19149707Y-13811333D01*
X19157465Y-13809965D01*
X19187213Y-13798426D01*
X19214153Y-13781330D01*
X19228794Y-13767387D01*
X19524574Y-13767387D01*
X19535970Y-13791829D01*
X19564795Y-13805838D01*
X19584150Y-13810905D01*
X19583459Y-13811000D01*
X19553170Y-13821477D01*
X19535970Y-13830671D01*
X19524574Y-13855113D01*
X19621500Y-13952039D01*
X19653956Y-13919584D01*
X19718426Y-13855113D01*
X19707031Y-13830671D01*
X19678205Y-13816662D01*
X19658850Y-13811595D01*
X19659541Y-13811500D01*
X19689830Y-13801023D01*
X19707031Y-13791829D01*
X19718426Y-13767387D01*
X19621500Y-13670460D01*
X19524574Y-13767387D01*
X19228794Y-13767387D01*
X19237259Y-13759326D01*
X19255651Y-13733253D01*
X19268629Y-13704105D01*
X19275698Y-13672990D01*
X19275896Y-13658791D01*
X19458134Y-13658791D01*
X19462500Y-13690541D01*
X19472977Y-13720830D01*
X19482171Y-13738030D01*
X19506613Y-13749426D01*
X19535174Y-13720866D01*
X19556989Y-13699050D01*
X19603540Y-13652500D01*
X19639461Y-13652500D01*
X19736387Y-13749426D01*
X19760829Y-13738030D01*
X19774838Y-13709205D01*
X19782955Y-13678201D01*
X19784866Y-13646209D01*
X19780500Y-13614459D01*
X19770023Y-13584170D01*
X19760829Y-13566969D01*
X19736387Y-13555574D01*
X19639461Y-13652500D01*
X19603540Y-13652500D01*
X19506613Y-13555574D01*
X19482171Y-13566969D01*
X19468162Y-13595795D01*
X19460046Y-13626799D01*
X19458134Y-13658791D01*
X19275896Y-13658791D01*
X19276207Y-13636546D01*
X19270010Y-13605247D01*
X19257851Y-13575747D01*
X19240194Y-13549171D01*
X19228716Y-13537613D01*
X19524574Y-13537613D01*
X19588250Y-13601290D01*
X19621500Y-13634539D01*
X19718426Y-13537613D01*
X19707031Y-13513171D01*
X19678205Y-13499162D01*
X19647201Y-13491045D01*
X19615209Y-13489134D01*
X19583459Y-13493500D01*
X19553170Y-13503977D01*
X19535970Y-13513171D01*
X19524574Y-13537613D01*
X19228716Y-13537613D01*
X19217711Y-13526531D01*
X19191259Y-13508689D01*
X19161845Y-13496324D01*
X19130589Y-13489908D01*
X19098683Y-13489686D01*
X19067341Y-13495664D01*
X19037757Y-13507617D01*
X19011058Y-13525088D01*
X18988262Y-13547412D01*
X18970235Y-13573739D01*
X18957666Y-13603066D01*
X18951032Y-13634276D01*
X18950586Y-13666180D01*
X18835200Y-13666180D01*
X18835200Y-12742540D01*
X18894259Y-12683480D01*
X18912749Y-12698995D01*
X18914404Y-12699905D01*
X18891422Y-12718648D01*
X18872425Y-12741611D01*
X18858251Y-12767826D01*
X18849438Y-12796295D01*
X18846323Y-12825934D01*
X18849024Y-12855613D01*
X18857438Y-12884202D01*
X18871245Y-12910613D01*
X18889919Y-12933839D01*
X18912749Y-12952995D01*
X18914404Y-12953905D01*
X18891422Y-12972648D01*
X18872425Y-12995611D01*
X18858251Y-13021826D01*
X18849438Y-13050295D01*
X18846323Y-13079934D01*
X18849024Y-13109613D01*
X18857438Y-13138202D01*
X18871245Y-13164613D01*
X18889919Y-13187839D01*
X18912749Y-13206995D01*
X18915116Y-13208296D01*
X18904605Y-13215090D01*
X18883045Y-13236005D01*
X18865979Y-13260724D01*
X18854064Y-13288297D01*
X18851689Y-13298652D01*
X18861054Y-13322300D01*
X18927663Y-13322300D01*
X18926958Y-13342875D01*
X18927747Y-13347700D01*
X18861054Y-13347700D01*
X18851689Y-13371348D01*
X18854064Y-13381703D01*
X18865979Y-13409276D01*
X18883045Y-13433995D01*
X18904605Y-13454910D01*
X18929831Y-13471216D01*
X18957754Y-13482288D01*
X18987300Y-13487700D01*
X19037300Y-13487700D01*
X19037300Y-13457337D01*
X19057876Y-13458042D01*
X19062700Y-13457253D01*
X19062700Y-13487700D01*
X19112700Y-13487700D01*
X19142246Y-13482288D01*
X19170169Y-13471216D01*
X19195395Y-13454910D01*
X19216956Y-13433995D01*
X19234021Y-13409276D01*
X19245937Y-13381703D01*
X19248311Y-13371348D01*
X19238946Y-13347700D01*
X19172337Y-13347700D01*
X19173042Y-13327124D01*
X19172253Y-13322300D01*
X19238946Y-13322300D01*
X19248311Y-13298652D01*
X19245937Y-13288297D01*
X19234021Y-13260724D01*
X19216956Y-13236005D01*
X19195395Y-13215090D01*
X19185063Y-13208411D01*
X19185484Y-13208187D01*
X19208578Y-13189351D01*
X19213830Y-13183004D01*
X20127723Y-13183004D01*
X20130247Y-13210739D01*
X20138110Y-13237456D01*
X20151013Y-13262137D01*
X20168464Y-13283842D01*
X20189798Y-13301744D01*
X20214204Y-13315161D01*
X20240750Y-13323582D01*
X20268427Y-13326686D01*
X20270419Y-13326700D01*
X20392381Y-13326700D01*
X20420098Y-13323982D01*
X20446760Y-13315933D01*
X20471350Y-13302858D01*
X20492932Y-13285256D01*
X20510685Y-13263797D01*
X20523931Y-13239298D01*
X20532166Y-13212694D01*
X20535077Y-13184996D01*
X20532553Y-13157261D01*
X20524690Y-13130544D01*
X20511787Y-13105863D01*
X20494336Y-13084158D01*
X20473002Y-13066256D01*
X20448596Y-13052839D01*
X20422050Y-13044418D01*
X20394373Y-13041314D01*
X20392381Y-13041300D01*
X20270419Y-13041300D01*
X20242702Y-13044018D01*
X20216041Y-13052067D01*
X20191450Y-13065142D01*
X20169868Y-13082744D01*
X20152116Y-13104203D01*
X20138869Y-13128701D01*
X20130634Y-13155306D01*
X20127723Y-13183004D01*
X19213830Y-13183004D01*
X19227575Y-13166389D01*
X19241749Y-13140174D01*
X19250562Y-13111705D01*
X19253677Y-13082066D01*
X19250976Y-13052387D01*
X19242562Y-13023798D01*
X19228755Y-12997387D01*
X19210081Y-12974161D01*
X19187251Y-12955005D01*
X19185596Y-12954095D01*
X19208578Y-12935351D01*
X19227575Y-12912389D01*
X19241749Y-12886174D01*
X19250562Y-12857705D01*
X19253677Y-12828066D01*
X19250976Y-12798387D01*
X19242562Y-12769798D01*
X19228755Y-12743387D01*
X19210081Y-12720161D01*
X19187251Y-12701005D01*
X19185596Y-12700095D01*
X19208578Y-12681351D01*
X19227575Y-12658389D01*
X19241749Y-12632174D01*
X19250562Y-12603705D01*
X19253677Y-12574066D01*
X19250976Y-12544387D01*
X19242562Y-12515798D01*
X19228755Y-12489387D01*
X19210081Y-12466161D01*
X19187251Y-12447005D01*
X19185596Y-12446095D01*
X19205843Y-12429583D01*
X19264800Y-12488540D01*
X19264800Y-12827000D01*
X19265726Y-12836443D01*
X19266553Y-12845892D01*
X19266703Y-12846411D01*
X19266756Y-12846948D01*
X19269498Y-12856029D01*
X19272145Y-12865139D01*
X19272393Y-12865619D01*
X19272549Y-12866136D01*
X19277001Y-12874508D01*
X19281369Y-12882934D01*
X19281706Y-12883357D01*
X19281959Y-12883833D01*
X19287951Y-12891180D01*
X19293873Y-12898599D01*
X19294615Y-12899351D01*
X19294627Y-12899366D01*
X19294641Y-12899377D01*
X19294880Y-12899620D01*
X19421880Y-13026620D01*
X19429214Y-13032644D01*
X19436478Y-13038739D01*
X19436951Y-13038999D01*
X19437368Y-13039342D01*
X19445731Y-13043826D01*
X19454042Y-13048395D01*
X19454557Y-13048558D01*
X19455033Y-13048814D01*
X19464103Y-13051587D01*
X19473148Y-13054456D01*
X19473685Y-13054516D01*
X19474201Y-13054674D01*
X19483631Y-13055632D01*
X19493066Y-13056690D01*
X19494123Y-13056697D01*
X19494142Y-13056699D01*
X19494159Y-13056698D01*
X19494500Y-13056700D01*
X19680612Y-13056700D01*
X19693623Y-13067618D01*
X19717173Y-13080565D01*
X19742790Y-13088691D01*
X19769497Y-13091687D01*
X19771419Y-13091700D01*
X19903381Y-13091700D01*
X19930127Y-13089077D01*
X19955854Y-13081310D01*
X19979583Y-13068693D01*
X20000409Y-13051708D01*
X20017539Y-13031001D01*
X20030321Y-13007361D01*
X20038268Y-12981688D01*
X20041077Y-12954961D01*
X20038642Y-12928198D01*
X20031054Y-12902417D01*
X20018603Y-12878600D01*
X20001764Y-12857656D01*
X19981177Y-12840382D01*
X19957627Y-12827435D01*
X19947502Y-12824223D01*
X19966829Y-12816358D01*
X19989462Y-12801438D01*
X20008749Y-12782388D01*
X20023949Y-12759942D01*
X20034478Y-12734962D01*
X20035838Y-12727993D01*
X20026276Y-12706700D01*
X19952294Y-12706700D01*
X19952869Y-12685827D01*
X19952097Y-12681300D01*
X20026276Y-12681300D01*
X20035838Y-12660007D01*
X20034478Y-12653038D01*
X20023949Y-12628058D01*
X20008749Y-12605612D01*
X19989462Y-12586562D01*
X19966829Y-12571642D01*
X19941720Y-12561423D01*
X19915100Y-12556300D01*
X19850100Y-12556300D01*
X19850100Y-12579106D01*
X19829227Y-12578531D01*
X19824700Y-12579303D01*
X19824700Y-12556300D01*
X19759700Y-12556300D01*
X19733080Y-12561423D01*
X19707971Y-12571642D01*
X19685338Y-12586562D01*
X19666051Y-12605612D01*
X19650851Y-12628058D01*
X19640322Y-12653038D01*
X19638962Y-12660007D01*
X19648524Y-12681300D01*
X19722506Y-12681300D01*
X19721931Y-12702173D01*
X19722703Y-12706700D01*
X19648524Y-12706700D01*
X19638962Y-12727993D01*
X19640322Y-12734962D01*
X19650851Y-12759942D01*
X19666051Y-12782388D01*
X19685338Y-12801438D01*
X19707971Y-12816358D01*
X19727220Y-12824192D01*
X19718946Y-12826690D01*
X19695217Y-12839307D01*
X19680512Y-12851300D01*
X19537040Y-12851300D01*
X19470200Y-12784460D01*
X19470200Y-12463004D01*
X20127723Y-12463004D01*
X20130247Y-12490739D01*
X20138110Y-12517456D01*
X20151013Y-12542137D01*
X20168464Y-12563842D01*
X20189798Y-12581744D01*
X20214204Y-12595161D01*
X20240750Y-12603582D01*
X20268427Y-12606686D01*
X20270419Y-12606700D01*
X20392381Y-12606700D01*
X20420098Y-12603982D01*
X20446760Y-12595933D01*
X20471350Y-12582858D01*
X20492932Y-12565256D01*
X20510685Y-12543797D01*
X20523931Y-12519298D01*
X20532166Y-12492694D01*
X20535077Y-12464996D01*
X20532553Y-12437261D01*
X20524690Y-12410544D01*
X20511787Y-12385863D01*
X20494336Y-12364158D01*
X20473002Y-12346256D01*
X20448596Y-12332839D01*
X20422050Y-12324418D01*
X20394373Y-12321314D01*
X20392381Y-12321300D01*
X20270419Y-12321300D01*
X20242702Y-12324018D01*
X20216041Y-12332067D01*
X20191450Y-12345142D01*
X20169868Y-12362744D01*
X20152116Y-12384203D01*
X20138869Y-12408701D01*
X20130634Y-12435306D01*
X20127723Y-12463004D01*
X19470200Y-12463004D01*
X19470200Y-12446000D01*
X19469274Y-12436558D01*
X19468448Y-12427108D01*
X19468297Y-12426589D01*
X19468244Y-12426052D01*
X19465503Y-12416972D01*
X19462856Y-12407860D01*
X19462607Y-12407381D01*
X19462451Y-12406864D01*
X19457999Y-12398492D01*
X19453632Y-12390065D01*
X19453294Y-12389643D01*
X19453041Y-12389167D01*
X19447049Y-12381820D01*
X19441127Y-12374401D01*
X19440385Y-12373649D01*
X19440373Y-12373634D01*
X19440359Y-12373623D01*
X19440120Y-12373380D01*
X19313120Y-12246380D01*
X19305788Y-12240358D01*
X19298522Y-12234261D01*
X19298049Y-12234000D01*
X19297632Y-12233658D01*
X19289271Y-12229175D01*
X19280958Y-12224605D01*
X19280443Y-12224442D01*
X19279967Y-12224186D01*
X19270897Y-12221413D01*
X19261853Y-12218544D01*
X19261315Y-12218484D01*
X19260799Y-12218326D01*
X19251369Y-12217368D01*
X19241934Y-12216310D01*
X19240878Y-12216303D01*
X19240859Y-12216301D01*
X19240841Y-12216302D01*
X19240500Y-12216300D01*
X19213408Y-12216300D01*
X19210081Y-12212161D01*
X19187251Y-12193005D01*
X19161136Y-12178648D01*
X19132729Y-12169637D01*
X19103113Y-12166315D01*
X19100981Y-12166300D01*
X18999019Y-12166300D01*
X18969360Y-12169208D01*
X18940830Y-12177822D01*
X18914516Y-12191813D01*
X18891422Y-12210648D01*
X18872425Y-12233611D01*
X18858251Y-12259826D01*
X18849438Y-12288295D01*
X18846323Y-12317934D01*
X18849024Y-12347613D01*
X18857438Y-12376202D01*
X18871245Y-12402613D01*
X18889919Y-12425839D01*
X18912749Y-12444995D01*
X18914404Y-12445905D01*
X18891422Y-12464648D01*
X18886746Y-12470300D01*
X18859500Y-12470300D01*
X18850058Y-12471226D01*
X18840608Y-12472052D01*
X18840089Y-12472203D01*
X18839552Y-12472256D01*
X18830473Y-12474997D01*
X18821361Y-12477644D01*
X18820881Y-12477893D01*
X18820364Y-12478049D01*
X18811992Y-12482501D01*
X18803566Y-12486868D01*
X18803143Y-12487206D01*
X18802667Y-12487459D01*
X18795320Y-12493451D01*
X18787901Y-12499373D01*
X18787149Y-12500115D01*
X18787134Y-12500127D01*
X18787123Y-12500141D01*
X18786880Y-12500380D01*
X18659880Y-12627380D01*
X18653858Y-12634712D01*
X18647761Y-12641978D01*
X18647501Y-12642451D01*
X18647158Y-12642868D01*
X18642675Y-12651229D01*
X18638105Y-12659542D01*
X18637942Y-12660057D01*
X18637686Y-12660533D01*
X18637368Y-12661576D01*
X18627023Y-12631670D01*
X18617829Y-12614469D01*
X18593387Y-12603074D01*
X18496461Y-12700000D01*
X18593387Y-12796926D01*
X18617829Y-12785530D01*
X18629800Y-12760899D01*
X18629800Y-13402108D01*
X18622851Y-13385247D01*
X18605194Y-13358671D01*
X18582711Y-13336031D01*
X18556259Y-13318189D01*
X18526845Y-13305824D01*
X18495589Y-13299408D01*
X18463683Y-13299186D01*
X18432341Y-13305164D01*
X18402757Y-13317117D01*
X18376058Y-13334588D01*
X18353262Y-13356912D01*
X18335235Y-13383239D01*
X18322666Y-13412566D01*
X18316032Y-13443776D01*
X18315586Y-13475680D01*
X18321346Y-13507063D01*
X18333092Y-13536730D01*
X18350376Y-13563550D01*
X18372541Y-13586502D01*
X18398741Y-13604712D01*
X18427980Y-13617486D01*
X18459143Y-13624337D01*
X18491043Y-13625005D01*
X18522465Y-13619465D01*
X18552213Y-13607926D01*
X18579153Y-13590830D01*
X18602259Y-13568826D01*
X18620651Y-13542753D01*
X18629800Y-13522205D01*
X18629800Y-13882108D01*
X18622851Y-13865247D01*
X18605194Y-13838671D01*
X18582711Y-13816031D01*
X18556259Y-13798189D01*
X18526845Y-13785824D01*
X18495589Y-13779408D01*
X18463683Y-13779186D01*
X18432341Y-13785164D01*
X18402757Y-13797117D01*
X18376058Y-13814588D01*
X18353262Y-13836912D01*
X18335235Y-13863239D01*
X18322666Y-13892566D01*
X18316032Y-13923776D01*
X18315586Y-13955680D01*
X18321346Y-13987063D01*
X18333092Y-14016730D01*
X18350376Y-14043550D01*
X18372541Y-14066502D01*
X18398741Y-14084712D01*
X18427980Y-14097486D01*
X18459143Y-14104337D01*
X18491043Y-14105005D01*
X18521045Y-14099715D01*
X18499460Y-14121300D01*
X15473040Y-14121300D01*
X15342700Y-13990960D01*
X15342700Y-13957207D01*
X15356749Y-13968995D01*
X15382864Y-13983352D01*
X15411271Y-13992363D01*
X15440887Y-13995685D01*
X15443019Y-13995700D01*
X15544981Y-13995700D01*
X15574640Y-13992792D01*
X15603170Y-13984178D01*
X15629484Y-13970187D01*
X15652578Y-13951351D01*
X15671575Y-13928389D01*
X15685749Y-13902174D01*
X15694562Y-13873705D01*
X15697677Y-13844066D01*
X15694976Y-13814387D01*
X15686562Y-13785798D01*
X15672755Y-13759387D01*
X15654081Y-13736161D01*
X15631251Y-13717005D01*
X15629596Y-13716095D01*
X15652578Y-13697351D01*
X15671575Y-13674389D01*
X15685749Y-13648174D01*
X15694562Y-13619705D01*
X15697677Y-13590066D01*
X15694976Y-13560387D01*
X15686562Y-13531798D01*
X15672755Y-13505387D01*
X15654081Y-13482161D01*
X15631251Y-13463005D01*
X15629596Y-13462095D01*
X15652578Y-13443351D01*
X15671575Y-13420389D01*
X15685749Y-13394174D01*
X15694562Y-13365705D01*
X15697677Y-13336066D01*
X15694976Y-13306387D01*
X15686562Y-13277798D01*
X15672755Y-13251387D01*
X15654081Y-13228161D01*
X15631251Y-13209005D01*
X15629596Y-13208095D01*
X15652578Y-13189351D01*
X15671575Y-13166389D01*
X15685749Y-13140174D01*
X15694562Y-13111705D01*
X15697677Y-13082066D01*
X15694976Y-13052387D01*
X15686562Y-13023798D01*
X15672755Y-12997387D01*
X15654081Y-12974161D01*
X15631251Y-12955005D01*
X15629596Y-12954095D01*
X15652578Y-12935351D01*
X15671575Y-12912389D01*
X15685749Y-12886174D01*
X15694562Y-12857705D01*
X15697677Y-12828066D01*
X15694976Y-12798387D01*
X15686562Y-12769798D01*
X15672755Y-12743387D01*
X15654081Y-12720161D01*
X15631251Y-12701005D01*
X15629596Y-12700095D01*
X15652578Y-12681351D01*
X15671575Y-12658389D01*
X15685749Y-12632174D01*
X15694562Y-12603705D01*
X15697677Y-12574066D01*
X15694976Y-12544387D01*
X15686562Y-12515798D01*
X15672755Y-12489387D01*
X15654081Y-12466161D01*
X15631251Y-12447005D01*
X15628884Y-12445704D01*
X15639395Y-12438910D01*
X15660955Y-12417995D01*
X15678021Y-12393276D01*
X15689936Y-12365703D01*
X15692311Y-12355348D01*
X15682946Y-12331700D01*
X15616337Y-12331700D01*
X15617042Y-12311124D01*
X15616253Y-12306300D01*
X15682946Y-12306300D01*
X15692311Y-12282652D01*
X15689936Y-12272297D01*
X15678021Y-12244724D01*
X15660955Y-12220005D01*
X15639395Y-12199090D01*
X15629063Y-12192411D01*
X15629484Y-12192187D01*
X15652578Y-12173351D01*
X15657254Y-12167700D01*
X16594460Y-12167700D01*
X16818380Y-12391620D01*
X16825711Y-12397641D01*
X16832978Y-12403739D01*
X16833451Y-12403999D01*
X16833868Y-12404342D01*
X16842231Y-12408826D01*
X16850542Y-12413395D01*
X16851057Y-12413558D01*
X16851533Y-12413814D01*
X16860603Y-12416587D01*
X16869648Y-12419456D01*
X16870185Y-12419516D01*
X16870701Y-12419674D01*
X16880131Y-12420632D01*
X16889566Y-12421690D01*
X16890623Y-12421697D01*
X16890642Y-12421699D01*
X16890659Y-12421698D01*
X16891000Y-12421700D01*
X17870592Y-12421700D01*
X17873919Y-12425839D01*
X17896749Y-12444995D01*
X17898404Y-12445905D01*
X17875422Y-12464648D01*
X17856425Y-12487611D01*
X17842251Y-12513826D01*
X17833438Y-12542295D01*
X17830323Y-12571934D01*
X17833024Y-12601613D01*
X17841438Y-12630202D01*
X17855245Y-12656613D01*
X17873919Y-12679839D01*
X17896749Y-12698995D01*
X17898404Y-12699905D01*
X17875422Y-12718648D01*
X17856425Y-12741611D01*
X17842251Y-12767826D01*
X17833438Y-12796295D01*
X17830323Y-12825934D01*
X17833024Y-12855613D01*
X17841438Y-12884202D01*
X17855245Y-12910613D01*
X17873919Y-12933839D01*
X17896749Y-12952995D01*
X17898404Y-12953905D01*
X17875422Y-12972648D01*
X17856425Y-12995611D01*
X17842251Y-13021826D01*
X17833438Y-13050295D01*
X17830323Y-13079934D01*
X17833024Y-13109613D01*
X17841438Y-13138202D01*
X17855245Y-13164613D01*
X17873919Y-13187839D01*
X17896749Y-13206995D01*
X17898404Y-13207905D01*
X17875422Y-13226648D01*
X17856425Y-13249611D01*
X17842251Y-13275826D01*
X17833438Y-13304295D01*
X17830323Y-13333934D01*
X17833024Y-13363613D01*
X17841438Y-13392202D01*
X17855245Y-13418613D01*
X17873919Y-13441839D01*
X17896749Y-13460995D01*
X17898404Y-13461905D01*
X17875422Y-13480648D01*
X17856425Y-13503611D01*
X17842251Y-13529826D01*
X17833438Y-13558295D01*
X17830323Y-13587934D01*
X17833024Y-13617613D01*
X17841438Y-13646202D01*
X17855245Y-13672613D01*
X17873919Y-13695839D01*
X17896749Y-13714995D01*
X17898404Y-13715905D01*
X17875422Y-13734648D01*
X17856425Y-13757611D01*
X17842251Y-13783826D01*
X17833438Y-13812295D01*
X17830323Y-13841934D01*
X17833024Y-13871613D01*
X17841438Y-13900202D01*
X17855245Y-13926613D01*
X17873919Y-13949839D01*
X17896749Y-13968995D01*
X17922864Y-13983352D01*
X17951271Y-13992363D01*
X17980887Y-13995685D01*
X17983019Y-13995700D01*
X18084981Y-13995700D01*
X18114640Y-13992792D01*
X18143170Y-13984178D01*
X18169484Y-13970187D01*
X18192578Y-13951351D01*
X18211575Y-13928389D01*
X18225749Y-13902174D01*
X18234562Y-13873705D01*
X18237677Y-13844066D01*
X18234976Y-13814387D01*
X18226562Y-13785798D01*
X18212755Y-13759387D01*
X18194081Y-13736161D01*
X18171251Y-13717005D01*
X18169596Y-13716095D01*
X18192578Y-13697351D01*
X18211575Y-13674389D01*
X18225749Y-13648174D01*
X18234562Y-13619705D01*
X18237677Y-13590066D01*
X18234976Y-13560387D01*
X18226562Y-13531798D01*
X18212755Y-13505387D01*
X18194081Y-13482161D01*
X18171251Y-13463005D01*
X18169596Y-13462095D01*
X18192578Y-13443351D01*
X18211575Y-13420389D01*
X18225749Y-13394174D01*
X18234562Y-13365705D01*
X18237677Y-13336066D01*
X18234976Y-13306387D01*
X18226562Y-13277798D01*
X18212755Y-13251387D01*
X18194081Y-13228161D01*
X18171251Y-13209005D01*
X18169596Y-13208095D01*
X18192578Y-13189351D01*
X18211575Y-13166389D01*
X18225749Y-13140174D01*
X18234562Y-13111705D01*
X18237677Y-13082066D01*
X18234976Y-13052387D01*
X18226562Y-13023798D01*
X18212755Y-12997387D01*
X18194081Y-12974161D01*
X18171251Y-12955005D01*
X18169596Y-12954095D01*
X18192578Y-12935351D01*
X18211575Y-12912389D01*
X18225749Y-12886174D01*
X18234562Y-12857705D01*
X18237677Y-12828066D01*
X18236478Y-12814887D01*
X18381574Y-12814887D01*
X18392970Y-12839329D01*
X18421795Y-12853338D01*
X18452799Y-12861454D01*
X18484791Y-12863366D01*
X18516541Y-12859000D01*
X18546830Y-12848523D01*
X18564031Y-12839329D01*
X18575426Y-12814887D01*
X18478500Y-12717960D01*
X18381574Y-12814887D01*
X18236478Y-12814887D01*
X18234976Y-12798387D01*
X18226562Y-12769798D01*
X18212755Y-12743387D01*
X18194081Y-12720161D01*
X18177551Y-12706291D01*
X18315134Y-12706291D01*
X18319500Y-12738041D01*
X18329977Y-12768330D01*
X18339171Y-12785530D01*
X18363613Y-12796926D01*
X18392174Y-12768366D01*
X18412791Y-12747748D01*
X18460540Y-12700000D01*
X18363613Y-12603074D01*
X18339171Y-12614469D01*
X18325162Y-12643295D01*
X18317046Y-12674299D01*
X18315134Y-12706291D01*
X18177551Y-12706291D01*
X18171251Y-12701005D01*
X18169596Y-12700095D01*
X18192578Y-12681351D01*
X18211575Y-12658389D01*
X18225749Y-12632174D01*
X18234562Y-12603705D01*
X18236516Y-12585113D01*
X18381574Y-12585113D01*
X18446044Y-12649584D01*
X18478500Y-12682039D01*
X18575426Y-12585113D01*
X18564031Y-12560671D01*
X18535205Y-12546662D01*
X18504201Y-12538545D01*
X18472209Y-12536634D01*
X18440459Y-12541000D01*
X18410170Y-12551477D01*
X18392970Y-12560671D01*
X18381574Y-12585113D01*
X18236516Y-12585113D01*
X18237677Y-12574066D01*
X18234976Y-12544387D01*
X18226562Y-12515798D01*
X18212755Y-12489387D01*
X18194081Y-12466161D01*
X18171251Y-12447005D01*
X18169596Y-12446095D01*
X18192578Y-12427351D01*
X18211575Y-12404389D01*
X18225749Y-12378174D01*
X18234562Y-12349705D01*
X18237677Y-12320066D01*
X18234976Y-12290387D01*
X18226562Y-12261798D01*
X18212755Y-12235387D01*
X18194081Y-12212161D01*
X18186357Y-12205680D01*
X18315586Y-12205680D01*
X18321346Y-12237063D01*
X18333092Y-12266730D01*
X18350376Y-12293550D01*
X18372541Y-12316502D01*
X18398741Y-12334712D01*
X18427980Y-12347486D01*
X18459143Y-12354337D01*
X18491043Y-12355005D01*
X18522465Y-12349465D01*
X18552213Y-12337926D01*
X18579153Y-12320830D01*
X18602259Y-12298826D01*
X18620651Y-12272753D01*
X18633629Y-12243605D01*
X18640698Y-12212490D01*
X18641207Y-12176046D01*
X18635010Y-12144747D01*
X18622851Y-12115247D01*
X18605194Y-12088671D01*
X18582711Y-12066031D01*
X18556259Y-12048189D01*
X18526845Y-12035824D01*
X18495589Y-12029408D01*
X18463683Y-12029186D01*
X18432341Y-12035164D01*
X18402757Y-12047117D01*
X18376058Y-12064588D01*
X18353262Y-12086912D01*
X18335235Y-12113239D01*
X18322666Y-12142566D01*
X18316032Y-12173776D01*
X18315586Y-12205680D01*
X18186357Y-12205680D01*
X18171251Y-12193005D01*
X18168885Y-12191704D01*
X18179395Y-12184910D01*
X18200956Y-12163995D01*
X18218021Y-12139276D01*
X18229937Y-12111703D01*
X18232311Y-12101348D01*
X18222946Y-12077700D01*
X18156337Y-12077700D01*
X18157042Y-12057124D01*
X18156253Y-12052300D01*
X18222946Y-12052300D01*
X18232311Y-12028652D01*
X18229937Y-12018297D01*
X18218021Y-11990724D01*
X18200956Y-11966005D01*
X18179395Y-11945090D01*
X18169063Y-11938411D01*
X18169484Y-11938187D01*
X18192578Y-11919351D01*
X18211575Y-11896389D01*
X18225749Y-11870174D01*
X18234562Y-11841705D01*
X18234790Y-11839530D01*
X18342380Y-11947120D01*
X18349714Y-11953144D01*
X18356978Y-11959239D01*
X18357451Y-11959499D01*
X18357868Y-11959842D01*
X18366231Y-11964326D01*
X18374542Y-11968895D01*
X18375057Y-11969058D01*
X18375533Y-11969314D01*
X18384603Y-11972087D01*
X18393648Y-11974956D01*
X18394185Y-11975016D01*
X18394701Y-11975174D01*
X18404131Y-11976132D01*
X18413566Y-11977190D01*
X18414623Y-11977197D01*
X18414642Y-11977199D01*
X18414659Y-11977198D01*
X18415000Y-11977200D01*
X19240500Y-11977200D01*
X19260448Y-11975244D01*
X19279636Y-11969451D01*
X19297333Y-11960041D01*
X19312866Y-11947373D01*
X19325642Y-11931929D01*
X19335175Y-11914298D01*
X19341102Y-11895151D01*
X19343198Y-11875217D01*
X19341381Y-11855256D01*
X19335722Y-11836028D01*
X19326436Y-11818265D01*
X19313876Y-11802645D01*
X19298522Y-11789761D01*
X19280958Y-11780105D01*
X19261853Y-11774044D01*
X19241934Y-11771810D01*
X19240500Y-11771800D01*
X18457540Y-11771800D01*
X18390700Y-11704960D01*
X18390700Y-11627961D01*
X18392970Y-11632829D01*
X18421795Y-11646838D01*
X18452799Y-11654954D01*
X18484791Y-11656866D01*
X18516541Y-11652500D01*
X18546830Y-11642023D01*
X18564031Y-11632829D01*
X18575426Y-11608387D01*
X18478500Y-11511460D01*
X18477086Y-11512875D01*
X18459125Y-11494914D01*
X18460540Y-11493500D01*
X18496461Y-11493500D01*
X18593387Y-11590426D01*
X18617829Y-11579030D01*
X18631838Y-11550205D01*
X18639955Y-11519201D01*
X18641866Y-11487209D01*
X18637500Y-11455459D01*
X18627023Y-11425170D01*
X18617829Y-11407969D01*
X18593387Y-11396574D01*
X18496461Y-11493500D01*
X18460540Y-11493500D01*
X18459125Y-11492086D01*
X18477086Y-11474125D01*
X18478500Y-11475539D01*
X18512644Y-11441395D01*
X18575426Y-11378613D01*
X18564031Y-11354171D01*
X18535205Y-11340162D01*
X18504201Y-11332045D01*
X18472209Y-11330134D01*
X18440459Y-11334500D01*
X18410170Y-11344977D01*
X18392970Y-11354171D01*
X18390700Y-11359038D01*
X18390700Y-11252339D01*
X18770099Y-11252339D01*
X18775505Y-11281793D01*
X18786529Y-11309637D01*
X18802751Y-11334808D01*
X18823553Y-11356350D01*
X18838175Y-11366512D01*
X18826855Y-11373919D01*
X18805459Y-11394871D01*
X18788541Y-11419580D01*
X18776744Y-11447105D01*
X18770517Y-11476396D01*
X18770099Y-11506339D01*
X18775505Y-11535793D01*
X18786529Y-11563637D01*
X18802751Y-11588808D01*
X18823553Y-11610350D01*
X18848143Y-11627440D01*
X18875585Y-11639429D01*
X18904832Y-11645859D01*
X18934772Y-11646487D01*
X18964263Y-11641287D01*
X18992182Y-11630457D01*
X19017466Y-11614411D01*
X19039153Y-11593760D01*
X19056414Y-11569290D01*
X19068595Y-11541933D01*
X19075229Y-11512731D01*
X19075707Y-11478527D01*
X19069890Y-11449151D01*
X19058479Y-11421465D01*
X19041907Y-11396522D01*
X19020806Y-11375273D01*
X19007835Y-11366524D01*
X19017466Y-11360411D01*
X19039153Y-11339760D01*
X19056414Y-11315290D01*
X19068595Y-11287933D01*
X19075229Y-11258731D01*
X19075707Y-11224527D01*
X19069890Y-11195151D01*
X19059348Y-11169574D01*
X19227322Y-11169574D01*
X19229670Y-11195365D01*
X19236982Y-11220210D01*
X19248981Y-11243162D01*
X19265209Y-11263345D01*
X19273706Y-11270475D01*
X19266514Y-11276340D01*
X19250006Y-11296295D01*
X19237688Y-11319077D01*
X19230030Y-11343817D01*
X19227322Y-11369574D01*
X19229670Y-11395365D01*
X19236982Y-11420210D01*
X19248981Y-11443162D01*
X19265209Y-11463345D01*
X19285048Y-11479993D01*
X19307743Y-11492469D01*
X19317207Y-11495471D01*
X19309451Y-11497813D01*
X19286584Y-11509971D01*
X19266514Y-11526340D01*
X19250006Y-11546295D01*
X19237688Y-11569077D01*
X19230030Y-11593817D01*
X19227322Y-11619574D01*
X19229670Y-11645365D01*
X19236982Y-11670210D01*
X19248981Y-11693162D01*
X19265209Y-11713345D01*
X19285048Y-11729993D01*
X19307743Y-11742469D01*
X19332429Y-11750300D01*
X19358166Y-11753187D01*
X19360019Y-11753200D01*
X19497360Y-11753200D01*
X19495938Y-11754593D01*
X19466278Y-11797910D01*
X19445596Y-11846164D01*
X19434681Y-11897515D01*
X19433948Y-11950009D01*
X19443425Y-12001645D01*
X19462751Y-12050457D01*
X19491190Y-12094586D01*
X19527659Y-12132350D01*
X19570768Y-12162312D01*
X19618876Y-12183330D01*
X19670150Y-12194603D01*
X19722637Y-12195702D01*
X19774338Y-12186586D01*
X19823284Y-12167601D01*
X19867610Y-12139471D01*
X19905628Y-12103267D01*
X19935890Y-12060368D01*
X19957243Y-12012408D01*
X19968874Y-11961214D01*
X19969712Y-11901251D01*
X19959514Y-11849752D01*
X19939509Y-11801214D01*
X19910456Y-11757487D01*
X19873464Y-11720236D01*
X19829941Y-11690879D01*
X19781544Y-11670535D01*
X19730118Y-11659978D01*
X19677620Y-11659612D01*
X19626052Y-11669449D01*
X19624939Y-11669899D01*
X19631970Y-11647183D01*
X19634678Y-11621426D01*
X19632330Y-11595634D01*
X19625018Y-11570790D01*
X19613019Y-11547838D01*
X19596791Y-11527655D01*
X19576952Y-11511007D01*
X19554257Y-11498531D01*
X19544794Y-11495529D01*
X19552549Y-11493187D01*
X19575416Y-11481029D01*
X19595486Y-11464660D01*
X19611994Y-11444705D01*
X19624312Y-11421923D01*
X19631970Y-11397183D01*
X19634678Y-11371426D01*
X19632330Y-11345634D01*
X19625018Y-11320790D01*
X19613019Y-11297838D01*
X19596791Y-11277655D01*
X19588295Y-11270525D01*
X19595486Y-11264660D01*
X19611994Y-11244705D01*
X19624312Y-11221923D01*
X19631970Y-11197183D01*
X19634678Y-11171426D01*
X19632330Y-11145635D01*
X19625018Y-11120790D01*
X19613019Y-11097838D01*
X19596791Y-11077655D01*
X19576952Y-11061007D01*
X19554257Y-11048531D01*
X19545349Y-11045705D01*
X19563515Y-11038239D01*
X19585284Y-11023780D01*
X19603813Y-11005353D01*
X19618392Y-10983665D01*
X19628459Y-10959549D01*
X19629478Y-10953707D01*
X19619848Y-10933200D01*
X19443700Y-10933200D01*
X19443700Y-10935200D01*
X19418300Y-10935200D01*
X19418300Y-10933200D01*
X19242152Y-10933200D01*
X19232522Y-10953707D01*
X19233541Y-10959549D01*
X19243608Y-10983665D01*
X19258187Y-11005353D01*
X19276716Y-11023780D01*
X19298485Y-11038239D01*
X19316559Y-11045667D01*
X19309451Y-11047813D01*
X19286584Y-11059971D01*
X19266514Y-11076340D01*
X19250006Y-11096295D01*
X19237688Y-11119077D01*
X19230030Y-11143817D01*
X19227322Y-11169574D01*
X19059348Y-11169574D01*
X19058479Y-11167465D01*
X19041907Y-11142522D01*
X19020806Y-11121273D01*
X19005187Y-11110739D01*
X19012794Y-11093254D01*
X18923000Y-11003461D01*
X18833206Y-11093254D01*
X18840829Y-11110775D01*
X18826855Y-11119919D01*
X18805459Y-11140871D01*
X18788541Y-11165580D01*
X18776744Y-11193105D01*
X18770517Y-11222396D01*
X18770099Y-11252339D01*
X18390700Y-11252339D01*
X18390700Y-11122623D01*
X18398741Y-11128212D01*
X18427980Y-11140986D01*
X18459143Y-11147837D01*
X18491043Y-11148505D01*
X18522465Y-11142965D01*
X18552213Y-11131426D01*
X18579153Y-11114330D01*
X18602259Y-11092326D01*
X18620651Y-11066253D01*
X18633629Y-11037105D01*
X18640698Y-11005990D01*
X18640891Y-10992187D01*
X18769707Y-10992187D01*
X18773957Y-11021964D01*
X18783935Y-11050341D01*
X18791826Y-11065105D01*
X18815246Y-11075294D01*
X18905040Y-10985500D01*
X18940961Y-10985500D01*
X19030754Y-11075294D01*
X19054174Y-11065105D01*
X19067183Y-11037985D01*
X19074652Y-11008848D01*
X19076293Y-10978813D01*
X19072043Y-10949036D01*
X19062065Y-10920659D01*
X19054174Y-10905895D01*
X19030754Y-10895706D01*
X18940961Y-10985500D01*
X18905040Y-10985500D01*
X18815246Y-10895706D01*
X18791826Y-10905895D01*
X18778817Y-10933015D01*
X18771348Y-10962152D01*
X18769707Y-10992187D01*
X18640891Y-10992187D01*
X18641207Y-10969546D01*
X18635010Y-10938247D01*
X18622851Y-10908747D01*
X18605194Y-10882171D01*
X18600799Y-10877746D01*
X18833206Y-10877746D01*
X18923000Y-10967540D01*
X19003247Y-10887293D01*
X19232522Y-10887293D01*
X19242152Y-10907800D01*
X19418300Y-10907800D01*
X19418300Y-10787800D01*
X19348300Y-10787800D01*
X19322656Y-10792827D01*
X19298485Y-10802761D01*
X19276716Y-10817220D01*
X19258187Y-10835647D01*
X19243608Y-10857336D01*
X19233541Y-10881451D01*
X19232522Y-10887293D01*
X19003247Y-10887293D01*
X19012794Y-10877746D01*
X19002605Y-10854326D01*
X18975485Y-10841317D01*
X18946348Y-10833848D01*
X18916313Y-10832207D01*
X18886536Y-10836457D01*
X18858159Y-10846435D01*
X18843395Y-10854326D01*
X18833206Y-10877746D01*
X18600799Y-10877746D01*
X18582711Y-10859531D01*
X18556259Y-10841689D01*
X18526845Y-10829324D01*
X18495589Y-10822908D01*
X18463683Y-10822686D01*
X18432341Y-10828664D01*
X18402757Y-10840617D01*
X18376058Y-10858088D01*
X18371449Y-10862602D01*
X18367549Y-10857820D01*
X18361627Y-10850401D01*
X18360885Y-10849649D01*
X18360873Y-10849634D01*
X18360859Y-10849623D01*
X18360620Y-10849380D01*
X18233620Y-10722380D01*
X18226288Y-10716358D01*
X18219022Y-10710261D01*
X18218549Y-10710001D01*
X18218132Y-10709658D01*
X18209771Y-10705175D01*
X18206167Y-10703194D01*
X18194081Y-10688161D01*
X18171251Y-10669005D01*
X18169596Y-10668095D01*
X18192578Y-10649352D01*
X18203616Y-10636009D01*
X19433948Y-10636009D01*
X19443425Y-10687645D01*
X19462751Y-10736457D01*
X19491190Y-10780586D01*
X19498157Y-10787800D01*
X19443700Y-10787800D01*
X19443700Y-10907800D01*
X19619848Y-10907800D01*
X19629478Y-10887293D01*
X19628459Y-10881451D01*
X19623856Y-10870425D01*
X19670150Y-10880603D01*
X19722637Y-10881703D01*
X19774338Y-10872586D01*
X19823284Y-10853601D01*
X19867610Y-10825471D01*
X19905628Y-10789267D01*
X19935890Y-10746368D01*
X19957243Y-10698408D01*
X19968874Y-10647214D01*
X19969712Y-10587251D01*
X19959514Y-10535752D01*
X19939509Y-10487214D01*
X19910456Y-10443487D01*
X19873464Y-10406236D01*
X19829941Y-10376879D01*
X19781544Y-10356535D01*
X19730118Y-10345978D01*
X19677620Y-10345612D01*
X19626052Y-10355449D01*
X19577376Y-10375115D01*
X19533447Y-10403862D01*
X19495938Y-10440593D01*
X19466278Y-10483911D01*
X19445596Y-10532164D01*
X19434681Y-10583515D01*
X19433948Y-10636009D01*
X18203616Y-10636009D01*
X18211575Y-10626389D01*
X18225749Y-10600174D01*
X18234562Y-10571705D01*
X18237677Y-10542066D01*
X18234976Y-10512387D01*
X18226562Y-10483798D01*
X18212755Y-10457387D01*
X18194081Y-10434161D01*
X18171251Y-10415005D01*
X18145136Y-10400648D01*
X18116729Y-10391637D01*
X18087113Y-10388315D01*
X18084981Y-10388300D01*
X17983019Y-10388300D01*
X17953360Y-10391208D01*
X17924830Y-10399822D01*
X17898516Y-10413813D01*
X17875422Y-10432649D01*
X17856425Y-10455611D01*
X17842251Y-10481826D01*
X17833438Y-10510295D01*
X17830323Y-10539934D01*
X17833024Y-10569613D01*
X17841438Y-10598202D01*
X17855245Y-10624613D01*
X17873919Y-10647839D01*
X17896749Y-10666995D01*
X17898404Y-10667905D01*
X17875422Y-10686649D01*
X17856425Y-10709611D01*
X17842251Y-10735826D01*
X17833438Y-10764295D01*
X17830323Y-10793934D01*
X17833024Y-10823613D01*
X17841438Y-10852202D01*
X17855245Y-10878613D01*
X17873919Y-10901839D01*
X17896749Y-10920995D01*
X17898404Y-10921905D01*
X17875422Y-10940649D01*
X17856425Y-10963611D01*
X17842251Y-10989826D01*
X17833438Y-11018295D01*
X17830323Y-11047934D01*
X17833024Y-11077613D01*
X17841438Y-11106202D01*
X17855245Y-11132613D01*
X17873919Y-11155839D01*
X17896749Y-11174995D01*
X17898404Y-11175905D01*
X17875422Y-11194648D01*
X17856425Y-11217611D01*
X17842251Y-11243826D01*
X17833438Y-11272295D01*
X17830323Y-11301934D01*
X17833024Y-11331613D01*
X17841438Y-11360202D01*
X17855245Y-11386613D01*
X17873919Y-11409839D01*
X17896749Y-11428995D01*
X17898404Y-11429905D01*
X17875422Y-11448648D01*
X17856425Y-11471611D01*
X17842251Y-11497826D01*
X17833438Y-11526295D01*
X17830323Y-11555934D01*
X17833024Y-11585613D01*
X17841438Y-11614202D01*
X17855245Y-11640613D01*
X17873919Y-11663839D01*
X17896749Y-11682995D01*
X17898404Y-11683905D01*
X17875422Y-11702648D01*
X17856425Y-11725611D01*
X17842251Y-11751826D01*
X17833438Y-11780295D01*
X17830323Y-11809934D01*
X17833024Y-11839613D01*
X17841438Y-11868202D01*
X17855245Y-11894613D01*
X17873919Y-11917839D01*
X17896749Y-11936995D01*
X17899116Y-11938296D01*
X17888605Y-11945090D01*
X17867045Y-11966005D01*
X17849979Y-11990724D01*
X17838064Y-12018297D01*
X17835689Y-12028652D01*
X17845054Y-12052300D01*
X17911663Y-12052300D01*
X17910958Y-12072875D01*
X17911747Y-12077700D01*
X17845054Y-12077700D01*
X17835689Y-12101348D01*
X17838064Y-12111703D01*
X17849979Y-12139276D01*
X17867045Y-12163995D01*
X17888605Y-12184910D01*
X17898937Y-12191589D01*
X17898516Y-12191813D01*
X17875422Y-12210648D01*
X17870746Y-12216300D01*
X16933540Y-12216300D01*
X16709620Y-11992380D01*
X16702288Y-11986358D01*
X16695022Y-11980261D01*
X16694548Y-11980000D01*
X16694131Y-11979658D01*
X16685769Y-11975174D01*
X16677458Y-11970605D01*
X16676943Y-11970442D01*
X16676467Y-11970186D01*
X16667397Y-11967413D01*
X16658352Y-11964544D01*
X16657815Y-11964484D01*
X16657299Y-11964326D01*
X16647869Y-11963368D01*
X16638434Y-11962310D01*
X16637377Y-11962303D01*
X16637358Y-11962301D01*
X16637341Y-11962302D01*
X16637000Y-11962300D01*
X15657408Y-11962300D01*
X15654081Y-11958161D01*
X15631251Y-11939005D01*
X15629596Y-11938095D01*
X15652578Y-11919351D01*
X15671575Y-11896389D01*
X15685749Y-11870174D01*
X15694562Y-11841705D01*
X15697677Y-11812066D01*
X15694976Y-11782387D01*
X15686562Y-11753798D01*
X15672755Y-11727387D01*
X15654081Y-11704161D01*
X15631251Y-11685005D01*
X15629596Y-11684095D01*
X15652578Y-11665351D01*
X15671575Y-11642389D01*
X15685749Y-11616174D01*
X15694562Y-11587705D01*
X15697677Y-11558066D01*
X15694976Y-11528387D01*
X15686562Y-11499798D01*
X15672755Y-11473387D01*
X15654081Y-11450161D01*
X15631251Y-11431005D01*
X15629596Y-11430095D01*
X15652578Y-11411351D01*
X15671575Y-11388389D01*
X15685749Y-11362174D01*
X15694562Y-11333705D01*
X15697677Y-11304066D01*
X15694976Y-11274387D01*
X15686562Y-11245798D01*
X15672755Y-11219387D01*
X15654081Y-11196161D01*
X15631251Y-11177005D01*
X15629596Y-11176095D01*
X15652578Y-11157352D01*
X15671575Y-11134389D01*
X15685749Y-11108174D01*
X15694562Y-11079705D01*
X15697677Y-11050066D01*
X15694976Y-11020387D01*
X15686562Y-10991798D01*
X15672755Y-10965387D01*
X15654081Y-10942161D01*
X15631251Y-10923005D01*
X15629596Y-10922095D01*
X15652578Y-10903352D01*
X15671575Y-10880389D01*
X15685749Y-10854174D01*
X15694562Y-10825705D01*
X15697677Y-10796066D01*
X15694976Y-10766387D01*
X15686562Y-10737798D01*
X15672755Y-10711387D01*
X15654081Y-10688161D01*
X15631251Y-10669005D01*
X15629596Y-10668095D01*
X15652578Y-10649352D01*
X15671575Y-10626389D01*
X15685749Y-10600174D01*
X15694562Y-10571705D01*
X15697677Y-10542066D01*
X15694976Y-10512387D01*
X15686562Y-10483798D01*
X15672755Y-10457387D01*
X15654081Y-10434161D01*
X15631251Y-10415005D01*
X15605136Y-10400648D01*
X15576729Y-10391637D01*
X15547113Y-10388315D01*
X15544981Y-10388300D01*
X15443019Y-10388300D01*
X15413360Y-10391208D01*
X15384830Y-10399822D01*
X15358516Y-10413813D01*
X15335422Y-10432649D01*
X15316425Y-10455611D01*
X15302251Y-10481826D01*
X15293438Y-10510295D01*
X15290323Y-10539934D01*
X15293024Y-10569613D01*
X15301438Y-10598202D01*
X15315245Y-10624613D01*
X15333919Y-10647839D01*
X15356749Y-10666995D01*
X15358404Y-10667905D01*
X15335422Y-10686649D01*
X15316425Y-10709611D01*
X15302251Y-10735826D01*
X15293438Y-10764295D01*
X15290323Y-10793934D01*
X15293024Y-10823613D01*
X15301438Y-10852202D01*
X15315245Y-10878613D01*
X15333919Y-10901839D01*
X15356749Y-10920995D01*
X15358404Y-10921905D01*
X15335422Y-10940649D01*
X15316425Y-10963611D01*
X15302251Y-10989826D01*
X15293438Y-11018295D01*
X15290323Y-11047934D01*
X15293024Y-11077613D01*
X15301438Y-11106202D01*
X15315245Y-11132613D01*
X15333919Y-11155839D01*
X15356749Y-11174995D01*
X15358404Y-11175905D01*
X15335422Y-11194648D01*
X15316425Y-11217611D01*
X15302251Y-11243826D01*
X15293438Y-11272295D01*
X15290323Y-11301934D01*
X15293024Y-11331613D01*
X15301438Y-11360202D01*
X15315245Y-11386613D01*
X15333919Y-11409839D01*
X15356749Y-11428995D01*
X15358404Y-11429905D01*
X15335422Y-11448648D01*
X15321565Y-11465398D01*
X15319492Y-11466501D01*
X15311065Y-11470868D01*
X15310643Y-11471206D01*
X15310167Y-11471459D01*
X15302820Y-11477451D01*
X15295401Y-11483373D01*
X15294649Y-11484115D01*
X15294634Y-11484127D01*
X15294623Y-11484141D01*
X15294380Y-11484380D01*
X15167380Y-11611380D01*
X15161358Y-11618712D01*
X15155261Y-11625978D01*
X15155000Y-11626451D01*
X15154658Y-11626868D01*
X15150175Y-11635229D01*
X15145605Y-11643542D01*
X15145442Y-11644057D01*
X15145186Y-11644533D01*
X15142413Y-11653603D01*
X15139544Y-11662647D01*
X15139484Y-11663185D01*
X15139326Y-11663701D01*
X15138368Y-11673131D01*
X15137310Y-11682566D01*
X15137303Y-11683622D01*
X15137301Y-11683641D01*
X15137302Y-11683659D01*
X15137300Y-11684000D01*
X14524947Y-11684000D01*
X14524838Y-11682802D01*
X14515046Y-11649532D01*
X14498979Y-11618798D01*
X14477247Y-11591770D01*
X14450680Y-11569477D01*
X14420289Y-11552770D01*
X14387231Y-11542283D01*
X14352767Y-11538417D01*
X14350286Y-11538400D01*
X14047114Y-11538400D01*
X14012599Y-11541784D01*
X13979398Y-11551808D01*
X13948777Y-11568090D01*
X13921901Y-11590009D01*
X13899794Y-11616731D01*
X13883299Y-11647238D01*
X13873044Y-11680368D01*
X13869419Y-11714859D01*
X13636700Y-11714859D01*
X13636700Y-11641000D01*
X13636048Y-11636984D01*
X13626048Y-11606984D01*
X13624452Y-11603786D01*
X13622980Y-11602020D01*
X13602980Y-11582020D01*
X13600123Y-11579873D01*
X13598016Y-11578952D01*
X13568016Y-11568952D01*
X13564000Y-11568300D01*
X13317700Y-11568300D01*
X13317700Y-11353800D01*
X13536000Y-11353800D01*
X13536000Y-11413800D01*
X13542180Y-11451150D01*
X13555528Y-11486576D01*
X13575532Y-11518718D01*
X13601421Y-11546340D01*
X13632201Y-11568380D01*
X13666690Y-11583992D01*
X13686077Y-11589027D01*
X13716000Y-11580175D01*
X13716000Y-11353800D01*
X13741400Y-11353800D01*
X13741400Y-11580175D01*
X13771323Y-11589027D01*
X13790710Y-11583992D01*
X13825199Y-11568380D01*
X13855979Y-11546340D01*
X13881868Y-11518718D01*
X13901871Y-11486576D01*
X13915220Y-11451150D01*
X13921400Y-11413800D01*
X13921400Y-11353800D01*
X13741400Y-11353800D01*
X13716000Y-11353800D01*
X13536000Y-11353800D01*
X13317700Y-11353800D01*
X13317700Y-11339859D01*
X13949661Y-11339859D01*
X13952804Y-11374398D01*
X13962596Y-11407668D01*
X13978663Y-11438402D01*
X14000394Y-11465430D01*
X14026962Y-11487723D01*
X14057353Y-11504430D01*
X14090410Y-11514917D01*
X14124875Y-11518783D01*
X14127356Y-11518800D01*
X14330044Y-11518800D01*
X14364559Y-11515416D01*
X14391836Y-11507180D01*
X14632586Y-11507180D01*
X14638346Y-11538563D01*
X14650092Y-11568230D01*
X14667376Y-11595050D01*
X14689541Y-11618002D01*
X14715741Y-11636212D01*
X14744980Y-11648986D01*
X14776142Y-11655837D01*
X14808043Y-11656505D01*
X14839465Y-11650965D01*
X14869213Y-11639426D01*
X14896153Y-11622330D01*
X14919259Y-11600326D01*
X14937651Y-11574253D01*
X14950629Y-11545105D01*
X14957698Y-11513990D01*
X14958207Y-11477546D01*
X14952009Y-11446247D01*
X14939851Y-11416747D01*
X14922193Y-11390171D01*
X14899711Y-11367531D01*
X14873258Y-11349689D01*
X14843844Y-11337324D01*
X14812589Y-11330908D01*
X14780683Y-11330686D01*
X14749341Y-11336664D01*
X14719757Y-11348617D01*
X14693058Y-11366088D01*
X14670261Y-11388412D01*
X14652235Y-11414739D01*
X14639665Y-11444066D01*
X14633032Y-11475276D01*
X14632586Y-11507180D01*
X14391836Y-11507180D01*
X14397760Y-11505392D01*
X14428381Y-11489110D01*
X14455257Y-11467191D01*
X14477364Y-11440469D01*
X14493859Y-11409961D01*
X14504114Y-11376831D01*
X14507739Y-11342341D01*
X14504596Y-11307802D01*
X14494804Y-11274532D01*
X14478737Y-11243798D01*
X14457005Y-11216770D01*
X14430438Y-11194477D01*
X14400047Y-11177770D01*
X14366990Y-11167283D01*
X14332525Y-11163417D01*
X14330044Y-11163400D01*
X14127356Y-11163400D01*
X14092841Y-11166784D01*
X14059640Y-11176808D01*
X14029019Y-11193090D01*
X14002143Y-11215009D01*
X13980036Y-11241731D01*
X13963541Y-11272238D01*
X13953286Y-11305368D01*
X13949661Y-11339859D01*
X13317700Y-11339859D01*
X13317700Y-11268400D01*
X13536000Y-11268400D01*
X13536000Y-11328400D01*
X13716000Y-11328400D01*
X13716000Y-11102025D01*
X13741400Y-11102025D01*
X13741400Y-11328400D01*
X13921400Y-11328400D01*
X13921400Y-11268400D01*
X13915220Y-11231050D01*
X13901871Y-11195624D01*
X13881868Y-11163482D01*
X13855979Y-11135860D01*
X13825199Y-11113820D01*
X13790710Y-11098208D01*
X13771323Y-11093173D01*
X13741400Y-11102025D01*
X13716000Y-11102025D01*
X13686077Y-11093173D01*
X13666690Y-11098208D01*
X13632201Y-11113820D01*
X13601421Y-11135860D01*
X13575532Y-11163482D01*
X13555528Y-11195624D01*
X13542180Y-11231050D01*
X13536000Y-11268400D01*
X13317700Y-11268400D01*
X13317700Y-11113700D01*
X13564000Y-11113700D01*
X13568016Y-11113048D01*
X13598016Y-11103048D01*
X13601214Y-11101452D01*
X13602980Y-11099980D01*
X13622980Y-11079980D01*
X13625127Y-11077123D01*
X13626048Y-11075016D01*
X13636048Y-11045016D01*
X13636700Y-11041000D01*
X13636700Y-10964859D01*
X13869419Y-10964859D01*
X13872562Y-10999398D01*
X13882354Y-11032668D01*
X13898421Y-11063402D01*
X13920153Y-11090430D01*
X13946720Y-11112723D01*
X13977111Y-11129430D01*
X14010168Y-11139917D01*
X14044633Y-11143783D01*
X14047114Y-11143800D01*
X14350286Y-11143800D01*
X14384801Y-11140416D01*
X14418002Y-11130392D01*
X14448623Y-11114110D01*
X14475499Y-11092191D01*
X14497606Y-11065469D01*
X14514101Y-11034962D01*
X14524356Y-11001832D01*
X14527981Y-10967341D01*
X14524838Y-10932802D01*
X14515046Y-10899532D01*
X14498979Y-10868798D01*
X14477247Y-10841770D01*
X14450680Y-10819477D01*
X14420289Y-10802770D01*
X14387231Y-10792283D01*
X14352767Y-10788417D01*
X14350286Y-10788400D01*
X14047114Y-10788400D01*
X14012599Y-10791784D01*
X13979398Y-10801808D01*
X13948777Y-10818090D01*
X13921901Y-10840009D01*
X13899794Y-10866731D01*
X13883299Y-10897239D01*
X13873044Y-10930369D01*
X13869419Y-10964859D01*
X13636700Y-10964859D01*
X13636700Y-10791000D01*
X13636048Y-10786984D01*
X13626048Y-10756984D01*
X13624452Y-10753786D01*
X13622980Y-10752020D01*
X13602980Y-10732020D01*
X13600123Y-10729873D01*
X13598016Y-10728952D01*
X13568016Y-10718952D01*
X13564000Y-10718300D01*
X13317700Y-10718300D01*
X13317700Y-10491180D01*
X14632586Y-10491180D01*
X14638346Y-10522563D01*
X14650092Y-10552230D01*
X14667376Y-10579050D01*
X14689541Y-10602002D01*
X14715741Y-10620212D01*
X14744980Y-10632986D01*
X14776142Y-10639837D01*
X14808043Y-10640505D01*
X14839465Y-10634965D01*
X14869213Y-10623426D01*
X14896153Y-10606330D01*
X14919259Y-10584326D01*
X14937651Y-10558253D01*
X14950629Y-10529105D01*
X14957698Y-10497990D01*
X14958207Y-10461546D01*
X14952009Y-10430247D01*
X14939851Y-10400747D01*
X14922193Y-10374171D01*
X14899711Y-10351531D01*
X14873258Y-10333689D01*
X14843844Y-10321324D01*
X14812589Y-10314908D01*
X14780683Y-10314686D01*
X14749341Y-10320664D01*
X14719757Y-10332617D01*
X14693058Y-10350088D01*
X14670261Y-10372413D01*
X14652235Y-10398739D01*
X14639665Y-10428066D01*
X14633032Y-10459276D01*
X14632586Y-10491180D01*
X13317700Y-10491180D01*
X13317700Y-10037099D01*
X13330345Y-10105997D01*
X13357973Y-10175778D01*
X13398629Y-10238863D01*
X13450764Y-10292851D01*
X13512393Y-10335684D01*
X13581167Y-10365730D01*
X13654468Y-10381847D01*
X13729502Y-10383418D01*
X13803414Y-10370386D01*
X13873386Y-10343245D01*
X13936754Y-10303031D01*
X13991104Y-10251274D01*
X14034366Y-10189946D01*
X14064892Y-10121383D01*
X14067437Y-10110180D01*
X14124586Y-10110180D01*
X14130346Y-10141563D01*
X14142092Y-10171230D01*
X14159376Y-10198050D01*
X14181541Y-10221002D01*
X14207741Y-10239212D01*
X14236980Y-10251986D01*
X14268142Y-10258837D01*
X14300043Y-10259505D01*
X14331465Y-10253965D01*
X14361213Y-10242426D01*
X14388153Y-10225330D01*
X14411259Y-10203326D01*
X14429651Y-10177253D01*
X14442629Y-10148105D01*
X14449698Y-10116990D01*
X14449793Y-10110180D01*
X15140586Y-10110180D01*
X15146346Y-10141563D01*
X15158092Y-10171230D01*
X15175376Y-10198050D01*
X15197541Y-10221002D01*
X15223741Y-10239212D01*
X15252980Y-10251986D01*
X15284142Y-10258837D01*
X15316043Y-10259505D01*
X15347465Y-10253965D01*
X15377213Y-10242426D01*
X15404153Y-10225330D01*
X15427259Y-10203326D01*
X15445651Y-10177253D01*
X15458629Y-10148105D01*
X15465698Y-10116990D01*
X15466207Y-10080546D01*
X15460009Y-10049247D01*
X15447851Y-10019747D01*
X15430193Y-9993171D01*
X15407711Y-9970531D01*
X15381258Y-9952689D01*
X15351844Y-9940324D01*
X15320589Y-9933908D01*
X15288683Y-9933686D01*
X15257341Y-9939664D01*
X15227757Y-9951617D01*
X15201058Y-9969088D01*
X15178261Y-9991413D01*
X15160235Y-10017739D01*
X15147665Y-10047066D01*
X15141032Y-10078276D01*
X15140586Y-10110180D01*
X14449793Y-10110180D01*
X14450207Y-10080546D01*
X14444009Y-10049247D01*
X14431851Y-10019747D01*
X14414193Y-9993171D01*
X14391711Y-9970531D01*
X14365258Y-9952689D01*
X14335844Y-9940324D01*
X14304589Y-9933908D01*
X14272683Y-9933686D01*
X14241341Y-9939664D01*
X14211757Y-9951617D01*
X14185058Y-9969088D01*
X14162261Y-9991413D01*
X14144235Y-10017739D01*
X14131665Y-10047066D01*
X14125032Y-10078276D01*
X14124586Y-10110180D01*
X14067437Y-10110180D01*
X14081519Y-10048197D01*
X14082716Y-9962474D01*
X14068139Y-9888852D01*
X14039539Y-9819464D01*
X13998006Y-9756952D01*
X13945122Y-9703698D01*
X13882902Y-9661730D01*
X13813715Y-9632646D01*
X13740903Y-9617700D01*
X20281640Y-9617700D01*
X20211425Y-9631094D01*
X20211425Y-9631094D01*
G37*
X20211425Y-9631094D02*
X20141839Y-9659209D01*
X20079038Y-9700304D01*
X20025416Y-9752815D01*
X19983015Y-9814741D01*
X19953449Y-9883723D01*
X19937845Y-9957134D01*
X19936797Y-10032179D01*
X19950345Y-10105997D01*
X19977973Y-10175778D01*
X20018629Y-10238863D01*
X20070764Y-10292851D01*
X20132393Y-10335684D01*
X20201167Y-10365730D01*
X20274468Y-10381847D01*
X20349502Y-10383418D01*
X20423414Y-10370386D01*
X20493386Y-10343245D01*
X20556754Y-10303031D01*
X20611104Y-10251274D01*
X20654366Y-10189946D01*
X20684892Y-10121383D01*
X20701519Y-10048197D01*
X20702300Y-9992295D01*
X20702300Y-10666407D01*
X20693413Y-10671212D01*
X20689078Y-10674136D01*
X20684702Y-10676999D01*
X20684077Y-10677509D01*
X20673551Y-10686217D01*
X20669864Y-10689929D01*
X20666129Y-10693587D01*
X20665616Y-10694208D01*
X20656981Y-10704795D01*
X20654087Y-10709150D01*
X20651133Y-10713466D01*
X20650749Y-10714174D01*
X20644336Y-10726237D01*
X20642341Y-10731077D01*
X20640283Y-10735878D01*
X20640045Y-10736648D01*
X20636096Y-10749726D01*
X20635080Y-10754857D01*
X20633993Y-10759972D01*
X20633909Y-10760773D01*
X20632575Y-10774370D01*
X20632575Y-10776789D01*
X20632306Y-10779194D01*
X20632300Y-10780000D01*
X20632300Y-11765000D01*
X20632301Y-11765010D01*
X20632300Y-11765201D01*
X20632302Y-11765689D01*
X20632557Y-11768197D01*
X20632539Y-11770718D01*
X20632618Y-11771520D01*
X20634046Y-11785107D01*
X20635097Y-11790225D01*
X20636077Y-11795367D01*
X20636310Y-11796138D01*
X20640350Y-11809189D01*
X20642376Y-11814009D01*
X20644336Y-11818858D01*
X20644714Y-11819570D01*
X20651212Y-11831587D01*
X20654137Y-11835924D01*
X20656999Y-11840298D01*
X20657509Y-11840923D01*
X20666217Y-11851449D01*
X20669929Y-11855136D01*
X20673587Y-11858871D01*
X20674208Y-11859384D01*
X20684795Y-11868019D01*
X20689150Y-11870913D01*
X20693466Y-11873867D01*
X20694174Y-11874251D01*
X20702300Y-11878571D01*
X20702300Y-12441406D01*
X20693413Y-12446212D01*
X20689078Y-12449136D01*
X20684702Y-12451999D01*
X20684077Y-12452509D01*
X20673551Y-12461217D01*
X20669864Y-12464929D01*
X20666129Y-12468587D01*
X20665616Y-12469208D01*
X20656981Y-12479795D01*
X20654087Y-12484150D01*
X20651133Y-12488466D01*
X20650749Y-12489174D01*
X20644336Y-12501237D01*
X20642341Y-12506077D01*
X20640283Y-12510878D01*
X20640045Y-12511648D01*
X20636096Y-12524726D01*
X20635080Y-12529857D01*
X20633993Y-12534972D01*
X20633909Y-12535773D01*
X20632575Y-12549370D01*
X20632575Y-12551789D01*
X20632306Y-12554194D01*
X20632300Y-12555000D01*
X20632300Y-13090000D01*
X20632301Y-13090010D01*
X20632300Y-13090201D01*
X20632302Y-13090689D01*
X20632557Y-13093197D01*
X20632539Y-13095718D01*
X20632618Y-13096520D01*
X20634046Y-13110107D01*
X20635097Y-13115225D01*
X20636077Y-13120367D01*
X20636310Y-13121138D01*
X20640350Y-13134189D01*
X20642376Y-13139009D01*
X20644336Y-13143858D01*
X20644714Y-13144570D01*
X20651212Y-13156587D01*
X20654137Y-13160924D01*
X20656999Y-13165298D01*
X20657509Y-13165923D01*
X20666217Y-13176449D01*
X20669929Y-13180136D01*
X20673587Y-13183871D01*
X20674208Y-13184384D01*
X20684795Y-13193019D01*
X20689150Y-13195913D01*
X20693466Y-13198867D01*
X20694174Y-13199251D01*
X20702300Y-13203571D01*
X20702300Y-14080371D01*
X20688139Y-14008852D01*
X20659539Y-13939464D01*
X20618006Y-13876952D01*
X20565123Y-13823698D01*
X20502902Y-13781730D01*
X20433715Y-13752646D01*
X20360197Y-13737555D01*
X20285147Y-13737031D01*
X20211425Y-13751094D01*
X20141839Y-13779209D01*
X20079038Y-13820304D01*
X20025416Y-13872815D01*
X19983015Y-13934741D01*
X19953449Y-14003723D01*
X19937845Y-14077134D01*
X19936797Y-14152178D01*
X19948258Y-14214623D01*
X19946358Y-14211050D01*
X19928756Y-14189468D01*
X19907297Y-14171715D01*
X19882799Y-14158469D01*
X19856194Y-14150234D01*
X19828496Y-14147323D01*
X19800761Y-14149847D01*
X19774044Y-14157710D01*
X19749363Y-14170613D01*
X19727658Y-14188064D01*
X19709756Y-14209398D01*
X19697287Y-14232080D01*
X19682901Y-14214441D01*
X19661517Y-14196751D01*
X19637105Y-14183551D01*
X19610593Y-14175345D01*
X19582993Y-14172444D01*
X19555354Y-14174959D01*
X19528731Y-14182795D01*
X19504137Y-14195652D01*
X19482508Y-14213042D01*
X19471329Y-14226364D01*
X19458112Y-14210158D01*
X19438909Y-14194272D01*
X19416986Y-14182418D01*
X19393178Y-14175048D01*
X19368392Y-14172443D01*
X19343571Y-14174702D01*
X19319663Y-14181739D01*
X19297576Y-14193285D01*
X19278153Y-14208902D01*
X19263564Y-14226289D01*
X19253901Y-14214441D01*
X19232517Y-14196751D01*
X19208105Y-14183551D01*
X19181593Y-14175345D01*
X19153993Y-14172444D01*
X19126354Y-14174959D01*
X19099731Y-14182795D01*
X19075137Y-14195652D01*
X19053508Y-14213042D01*
X19037537Y-14232075D01*
X19026358Y-14211050D01*
X19008756Y-14189468D01*
X18987297Y-14171715D01*
X18962799Y-14158469D01*
X18936194Y-14150234D01*
X18908496Y-14147323D01*
X18880761Y-14149847D01*
X18854044Y-14157710D01*
X18829363Y-14170613D01*
X18807658Y-14188064D01*
X18789756Y-14209398D01*
X18776339Y-14233804D01*
X18767918Y-14260350D01*
X18764814Y-14288027D01*
X18764800Y-14290019D01*
X18764800Y-14411981D01*
X18767518Y-14439698D01*
X18775567Y-14466359D01*
X18788642Y-14490950D01*
X18797899Y-14502300D01*
X13735845Y-14502300D01*
X13803414Y-14490386D01*
X13873386Y-14463245D01*
X13936754Y-14423031D01*
X13991104Y-14371274D01*
X14034366Y-14309946D01*
X14038269Y-14301180D01*
X14632586Y-14301180D01*
X14638346Y-14332563D01*
X14650092Y-14362230D01*
X14667376Y-14389050D01*
X14689541Y-14412002D01*
X14715741Y-14430212D01*
X14744980Y-14442986D01*
X14776142Y-14449837D01*
X14808043Y-14450505D01*
X14839465Y-14444965D01*
X14869213Y-14433426D01*
X14896153Y-14416330D01*
X14919259Y-14394326D01*
X14937651Y-14368253D01*
X14950629Y-14339105D01*
X14957698Y-14307990D01*
X14958207Y-14271546D01*
X14952009Y-14240247D01*
X14939851Y-14210747D01*
X14922193Y-14184171D01*
X14899711Y-14161531D01*
X14873258Y-14143689D01*
X14843844Y-14131324D01*
X14812589Y-14124908D01*
X14780683Y-14124686D01*
X14749341Y-14130664D01*
X14719757Y-14142617D01*
X14693058Y-14160088D01*
X14670261Y-14182412D01*
X14652235Y-14208739D01*
X14639665Y-14238066D01*
X14633032Y-14269276D01*
X14632586Y-14301180D01*
X14038269Y-14301180D01*
X14064892Y-14241383D01*
X14081519Y-14168197D01*
X14082716Y-14082474D01*
X14068139Y-14008852D01*
X14039539Y-13939464D01*
X13998006Y-13876952D01*
X13945122Y-13823698D01*
X13882902Y-13781730D01*
X13813715Y-13752646D01*
X13740197Y-13737555D01*
X13665147Y-13737031D01*
X13591425Y-13751094D01*
X13521839Y-13779209D01*
X13459038Y-13820304D01*
X13405416Y-13872815D01*
X13363015Y-13934741D01*
X13333449Y-14003723D01*
X13317845Y-14077134D01*
X13317700Y-14087511D01*
X13317700Y-13633254D01*
X14070706Y-13633254D01*
X14080895Y-13656674D01*
X14108015Y-13669683D01*
X14137152Y-13677152D01*
X14167187Y-13678793D01*
X14196964Y-13674543D01*
X14225341Y-13664565D01*
X14240105Y-13656674D01*
X14250294Y-13633254D01*
X14160500Y-13543460D01*
X14070706Y-13633254D01*
X13317700Y-13633254D01*
X13317700Y-13532187D01*
X14007207Y-13532187D01*
X14011457Y-13561964D01*
X14021435Y-13590341D01*
X14029326Y-13605105D01*
X14052746Y-13615294D01*
X14142539Y-13525500D01*
X14178460Y-13525500D01*
X14268254Y-13615294D01*
X14285783Y-13607668D01*
X14294251Y-13620808D01*
X14315053Y-13642350D01*
X14339643Y-13659440D01*
X14367085Y-13671429D01*
X14396332Y-13677859D01*
X14426272Y-13678487D01*
X14455763Y-13673287D01*
X14483682Y-13662457D01*
X14508966Y-13646411D01*
X14530652Y-13625760D01*
X14547914Y-13601290D01*
X14560094Y-13573933D01*
X14566729Y-13544731D01*
X14567207Y-13510527D01*
X14561390Y-13481151D01*
X14549978Y-13453465D01*
X14533407Y-13428522D01*
X14512306Y-13407273D01*
X14487479Y-13390528D01*
X14459873Y-13378923D01*
X14430539Y-13372902D01*
X14400593Y-13372693D01*
X14371178Y-13378304D01*
X14343412Y-13389522D01*
X14318355Y-13405919D01*
X14296959Y-13426871D01*
X14285710Y-13443300D01*
X14268254Y-13435706D01*
X14178460Y-13525500D01*
X14142539Y-13525500D01*
X14052746Y-13435706D01*
X14029326Y-13445895D01*
X14016317Y-13473015D01*
X14008848Y-13502152D01*
X14007207Y-13532187D01*
X13317700Y-13532187D01*
X13317700Y-13417746D01*
X14070706Y-13417746D01*
X14160500Y-13507539D01*
X14250294Y-13417746D01*
X14240105Y-13394326D01*
X14212985Y-13381317D01*
X14183848Y-13373848D01*
X14153813Y-13372207D01*
X14124036Y-13376457D01*
X14095659Y-13386435D01*
X14080895Y-13394326D01*
X14070706Y-13417746D01*
X13317700Y-13417746D01*
X13317700Y-13285180D01*
X14632586Y-13285180D01*
X14638346Y-13316563D01*
X14650092Y-13346230D01*
X14667376Y-13373050D01*
X14689541Y-13396002D01*
X14715741Y-13414212D01*
X14744980Y-13426986D01*
X14776142Y-13433837D01*
X14808043Y-13434505D01*
X14839465Y-13428965D01*
X14869213Y-13417426D01*
X14896153Y-13400330D01*
X14919259Y-13378326D01*
X14937651Y-13352253D01*
X14950629Y-13323105D01*
X14957698Y-13291990D01*
X14958207Y-13255546D01*
X14952009Y-13224247D01*
X14939851Y-13194747D01*
X14922193Y-13168171D01*
X14899711Y-13145531D01*
X14873258Y-13127689D01*
X14843844Y-13115324D01*
X14812589Y-13108908D01*
X14780683Y-13108686D01*
X14749341Y-13114664D01*
X14719757Y-13126617D01*
X14693058Y-13144088D01*
X14670261Y-13166412D01*
X14652235Y-13192739D01*
X14639665Y-13222066D01*
X14633032Y-13253276D01*
X14632586Y-13285180D01*
X13317700Y-13285180D01*
X13317700Y-12904180D01*
X14632586Y-12904180D01*
X14638346Y-12935563D01*
X14650092Y-12965230D01*
X14667376Y-12992050D01*
X14689541Y-13015002D01*
X14715741Y-13033212D01*
X14744980Y-13045986D01*
X14776142Y-13052837D01*
X14808043Y-13053505D01*
X14839465Y-13047965D01*
X14869213Y-13036426D01*
X14896153Y-13019330D01*
X14919259Y-12997326D01*
X14937651Y-12971253D01*
X14950629Y-12942105D01*
X14957698Y-12910990D01*
X14958207Y-12874546D01*
X14952009Y-12843247D01*
X14939851Y-12813747D01*
X14922193Y-12787171D01*
X14899711Y-12764531D01*
X14873258Y-12746689D01*
X14843844Y-12734324D01*
X14812589Y-12727908D01*
X14780683Y-12727686D01*
X14749341Y-12733664D01*
X14719757Y-12745617D01*
X14693058Y-12763088D01*
X14670261Y-12785412D01*
X14652235Y-12811739D01*
X14639665Y-12841066D01*
X14633032Y-12872276D01*
X14632586Y-12904180D01*
X13317700Y-12904180D01*
X13317700Y-12719180D01*
X13426086Y-12719180D01*
X13431846Y-12750563D01*
X13443592Y-12780230D01*
X13460876Y-12807050D01*
X13483041Y-12830002D01*
X13509241Y-12848212D01*
X13538480Y-12860986D01*
X13569642Y-12867837D01*
X13601543Y-12868505D01*
X13632965Y-12862965D01*
X13662713Y-12851426D01*
X13689653Y-12834330D01*
X13712759Y-12812326D01*
X13731151Y-12786253D01*
X13744129Y-12757105D01*
X13751198Y-12725990D01*
X13751293Y-12719180D01*
X14076086Y-12719180D01*
X14081846Y-12750563D01*
X14093592Y-12780230D01*
X14110876Y-12807050D01*
X14133041Y-12830002D01*
X14159241Y-12848212D01*
X14188480Y-12860986D01*
X14219642Y-12867837D01*
X14251543Y-12868505D01*
X14282965Y-12862965D01*
X14312713Y-12851426D01*
X14339653Y-12834330D01*
X14362759Y-12812326D01*
X14381151Y-12786253D01*
X14394129Y-12757105D01*
X14401198Y-12725990D01*
X14401707Y-12689546D01*
X14395509Y-12658247D01*
X14383351Y-12628747D01*
X14365693Y-12602171D01*
X14343211Y-12579531D01*
X14316758Y-12561689D01*
X14287344Y-12549324D01*
X14256089Y-12542908D01*
X14224183Y-12542686D01*
X14192841Y-12548664D01*
X14163257Y-12560617D01*
X14136558Y-12578088D01*
X14113761Y-12600412D01*
X14095735Y-12626739D01*
X14083165Y-12656066D01*
X14076532Y-12687276D01*
X14076086Y-12719180D01*
X13751293Y-12719180D01*
X13751707Y-12689546D01*
X13745509Y-12658247D01*
X13733351Y-12628747D01*
X13715693Y-12602171D01*
X13693211Y-12579531D01*
X13666758Y-12561689D01*
X13637344Y-12549324D01*
X13606089Y-12542908D01*
X13574183Y-12542686D01*
X13542841Y-12548664D01*
X13513257Y-12560617D01*
X13486558Y-12578088D01*
X13463761Y-12600412D01*
X13445735Y-12626739D01*
X13433165Y-12656066D01*
X13426532Y-12687276D01*
X13426086Y-12719180D01*
X13317700Y-12719180D01*
X13317700Y-12370387D01*
X13492074Y-12370387D01*
X13503469Y-12394829D01*
X13532295Y-12408838D01*
X13563299Y-12416954D01*
X13595291Y-12418866D01*
X13627041Y-12414500D01*
X13657330Y-12404023D01*
X13674530Y-12394829D01*
X13685926Y-12370387D01*
X14142074Y-12370387D01*
X14153469Y-12394829D01*
X14182295Y-12408838D01*
X14213299Y-12416954D01*
X14245291Y-12418866D01*
X14277041Y-12414500D01*
X14307330Y-12404023D01*
X14324530Y-12394829D01*
X14335926Y-12370387D01*
X14239000Y-12273460D01*
X14142074Y-12370387D01*
X13685926Y-12370387D01*
X13589000Y-12273460D01*
X13492074Y-12370387D01*
X13317700Y-12370387D01*
X13317700Y-12261791D01*
X13425634Y-12261791D01*
X13430000Y-12293541D01*
X13440477Y-12323830D01*
X13449671Y-12341030D01*
X13474113Y-12352426D01*
X13502674Y-12323866D01*
X13523820Y-12302720D01*
X13571039Y-12255500D01*
X13606960Y-12255500D01*
X13703887Y-12352426D01*
X13728329Y-12341030D01*
X13742338Y-12312205D01*
X13750454Y-12281201D01*
X13751614Y-12261791D01*
X14075634Y-12261791D01*
X14080000Y-12293541D01*
X14090477Y-12323830D01*
X14099671Y-12341030D01*
X14124113Y-12352426D01*
X14152674Y-12323866D01*
X14173820Y-12302720D01*
X14221039Y-12255500D01*
X14256960Y-12255500D01*
X14353887Y-12352426D01*
X14378329Y-12341030D01*
X14392338Y-12312205D01*
X14400454Y-12281201D01*
X14402366Y-12249209D01*
X14398000Y-12217459D01*
X14387523Y-12187170D01*
X14378329Y-12169969D01*
X14353887Y-12158574D01*
X14256960Y-12255500D01*
X14221039Y-12255500D01*
X14124113Y-12158574D01*
X14099671Y-12169969D01*
X14085662Y-12198795D01*
X14077545Y-12229799D01*
X14075634Y-12261791D01*
X13751614Y-12261791D01*
X13752366Y-12249209D01*
X13748000Y-12217459D01*
X13737523Y-12187170D01*
X13728329Y-12169969D01*
X13703887Y-12158574D01*
X13606960Y-12255500D01*
X13571039Y-12255500D01*
X13474113Y-12158574D01*
X13449671Y-12169969D01*
X13435662Y-12198795D01*
X13427545Y-12229799D01*
X13425634Y-12261791D01*
X13317700Y-12261791D01*
X13317700Y-12140613D01*
X13492074Y-12140613D01*
X13589000Y-12237539D01*
X13621187Y-12205352D01*
X13685926Y-12140613D01*
X14142074Y-12140613D01*
X14239000Y-12237539D01*
X14271187Y-12205352D01*
X14335926Y-12140613D01*
X14324530Y-12116171D01*
X14295705Y-12102162D01*
X14264701Y-12094045D01*
X14232709Y-12092134D01*
X14200959Y-12096500D01*
X14170670Y-12106977D01*
X14153469Y-12116171D01*
X14142074Y-12140613D01*
X13685926Y-12140613D01*
X13674530Y-12116171D01*
X13645705Y-12102162D01*
X13614701Y-12094045D01*
X13582709Y-12092134D01*
X13550959Y-12096500D01*
X13520670Y-12106977D01*
X13503469Y-12116171D01*
X13492074Y-12140613D01*
X13317700Y-12140613D01*
X13317700Y-11963700D01*
X13564000Y-11963700D01*
X13568016Y-11963048D01*
X13598016Y-11953048D01*
X13601214Y-11951452D01*
X13602980Y-11949980D01*
X13622980Y-11929980D01*
X13625127Y-11927123D01*
X13626048Y-11925016D01*
X13636048Y-11895016D01*
X13636700Y-11891000D01*
X13636700Y-11714859D01*
X13869419Y-11714859D01*
X13872562Y-11749398D01*
X13882354Y-11782668D01*
X13898421Y-11813402D01*
X13920153Y-11840430D01*
X13946720Y-11862723D01*
X13977111Y-11879430D01*
X14010168Y-11889917D01*
X14044633Y-11893783D01*
X14047114Y-11893800D01*
X14350286Y-11893800D01*
X14384801Y-11890416D01*
X14392205Y-11888180D01*
X14632586Y-11888180D01*
X14638346Y-11919563D01*
X14650092Y-11949230D01*
X14667376Y-11976050D01*
X14689541Y-11999002D01*
X14715741Y-12017212D01*
X14744980Y-12029986D01*
X14776142Y-12036837D01*
X14808043Y-12037505D01*
X14839465Y-12031965D01*
X14869213Y-12020426D01*
X14896153Y-12003330D01*
X14919259Y-11981326D01*
X14937651Y-11955253D01*
X14950629Y-11926105D01*
X14957698Y-11894990D01*
X14958207Y-11858546D01*
X14952009Y-11827247D01*
X14939851Y-11797747D01*
X14922193Y-11771171D01*
X14899711Y-11748531D01*
X14873258Y-11730689D01*
X14843844Y-11718324D01*
X14812589Y-11711908D01*
X14780683Y-11711686D01*
X14749341Y-11717664D01*
X14719757Y-11729617D01*
X14693058Y-11747088D01*
X14670261Y-11769412D01*
X14652235Y-11795739D01*
X14639665Y-11825066D01*
X14633032Y-11856276D01*
X14632586Y-11888180D01*
X14392205Y-11888180D01*
X14418002Y-11880392D01*
X14448623Y-11864110D01*
X14475499Y-11842191D01*
X14497606Y-11815469D01*
X14514101Y-11784961D01*
X14524356Y-11751831D01*
X14527981Y-11717341D01*
X14524947Y-11684000D01*
X15137300Y-11684000D01*
X15137300Y-14033500D01*
X15138226Y-14042943D01*
X15139052Y-14052392D01*
X15139203Y-14052911D01*
X15139256Y-14053448D01*
X15141997Y-14062529D01*
X15144644Y-14071639D01*
X15144893Y-14072119D01*
X15145049Y-14072636D01*
X15149501Y-14081008D01*
X15153868Y-14089434D01*
X15154206Y-14089857D01*
X15154459Y-14090333D01*
X15160451Y-14097680D01*
X15166373Y-14105099D01*
X15167115Y-14105851D01*
X15167127Y-14105866D01*
X15167141Y-14105877D01*
X15167380Y-14106120D01*
X15357880Y-14296620D01*
X15365212Y-14302642D01*
X15372478Y-14308739D01*
X15372951Y-14308999D01*
X15373368Y-14309342D01*
X15381729Y-14313825D01*
X15390042Y-14318395D01*
X15390557Y-14318558D01*
X15391033Y-14318814D01*
X15400103Y-14321587D01*
X15409147Y-14324456D01*
X15409685Y-14324516D01*
X15410201Y-14324674D01*
X15419635Y-14325632D01*
X15429066Y-14326690D01*
X15430121Y-14326697D01*
X15430141Y-14326699D01*
X15430160Y-14326698D01*
X15430500Y-14326700D01*
X18542000Y-14326700D01*
X18551443Y-14325774D01*
X18560892Y-14324947D01*
X18561411Y-14324797D01*
X18561948Y-14324744D01*
X18571029Y-14322002D01*
X18580140Y-14319355D01*
X18580619Y-14319107D01*
X18581136Y-14318951D01*
X18589508Y-14314499D01*
X18597935Y-14310131D01*
X18598357Y-14309794D01*
X18598833Y-14309541D01*
X18606180Y-14303549D01*
X18613599Y-14297627D01*
X18614351Y-14296885D01*
X18614366Y-14296873D01*
X18614377Y-14296859D01*
X18614620Y-14296620D01*
X18805120Y-14106120D01*
X18811142Y-14098788D01*
X18817239Y-14091522D01*
X18817500Y-14091048D01*
X18817842Y-14090631D01*
X18822325Y-14082271D01*
X18826895Y-14073958D01*
X18827058Y-14073443D01*
X18827314Y-14072967D01*
X18830088Y-14063893D01*
X18832956Y-14054852D01*
X18833016Y-14054315D01*
X18833174Y-14053799D01*
X18834132Y-14044365D01*
X18835190Y-14034934D01*
X18835197Y-14033879D01*
X18835199Y-14033858D01*
X18835198Y-14033840D01*
X18835200Y-14033500D01*
X18835200Y-13666180D01*
X18950586Y-13666180D01*
X18956346Y-13697563D01*
X18968092Y-13727230D01*
X18985376Y-13754050D01*
X19007541Y-13777002D01*
X19033741Y-13795212D01*
X19062980Y-13807986D01*
X19077618Y-13811204D01*
X19067341Y-13813164D01*
X19037757Y-13825117D01*
X19011058Y-13842588D01*
X18988262Y-13864912D01*
X18970235Y-13891239D01*
X18957666Y-13920566D01*
X18951032Y-13951776D01*
X18950586Y-13983680D01*
X18956346Y-14015063D01*
X18968092Y-14044730D01*
X18985376Y-14071550D01*
X19007541Y-14094502D01*
X19033741Y-14112712D01*
X19062980Y-14125486D01*
X19094143Y-14132337D01*
X19126043Y-14133005D01*
X19157465Y-14127465D01*
X19187213Y-14115926D01*
X19214153Y-14098830D01*
X19228794Y-14084887D01*
X19524574Y-14084887D01*
X19535970Y-14109329D01*
X19564795Y-14123338D01*
X19595799Y-14131454D01*
X19627791Y-14133366D01*
X19659541Y-14129000D01*
X19689830Y-14118523D01*
X19707031Y-14109329D01*
X19718426Y-14084887D01*
X19621500Y-13987960D01*
X19524574Y-14084887D01*
X19228794Y-14084887D01*
X19237259Y-14076826D01*
X19255651Y-14050753D01*
X19268629Y-14021605D01*
X19275698Y-13990490D01*
X19275896Y-13976291D01*
X19458134Y-13976291D01*
X19462500Y-14008041D01*
X19472977Y-14038330D01*
X19482171Y-14055530D01*
X19506613Y-14066926D01*
X19535174Y-14038366D01*
X19556810Y-14016730D01*
X19603540Y-13970000D01*
X19639461Y-13970000D01*
X19736387Y-14066926D01*
X19760829Y-14055530D01*
X19774838Y-14026705D01*
X19782955Y-13995701D01*
X19784866Y-13963709D01*
X19780500Y-13931959D01*
X19770023Y-13901670D01*
X19760829Y-13884469D01*
X19736387Y-13873074D01*
X19639461Y-13970000D01*
X19603540Y-13970000D01*
X19506613Y-13873074D01*
X19482171Y-13884469D01*
X19468162Y-13913295D01*
X19460046Y-13944299D01*
X19458134Y-13976291D01*
X19275896Y-13976291D01*
X19276207Y-13954046D01*
X19270010Y-13922747D01*
X19257851Y-13893247D01*
X19240194Y-13866671D01*
X19217711Y-13844031D01*
X19191259Y-13826189D01*
X19161845Y-13813824D01*
X19149707Y-13811333D01*
X19157465Y-13809965D01*
X19187213Y-13798426D01*
X19214153Y-13781330D01*
X19228794Y-13767387D01*
X19524574Y-13767387D01*
X19535970Y-13791829D01*
X19564795Y-13805838D01*
X19584150Y-13810905D01*
X19583459Y-13811000D01*
X19553170Y-13821477D01*
X19535970Y-13830671D01*
X19524574Y-13855113D01*
X19621500Y-13952039D01*
X19653956Y-13919584D01*
X19718426Y-13855113D01*
X19707031Y-13830671D01*
X19678205Y-13816662D01*
X19658850Y-13811595D01*
X19659541Y-13811500D01*
X19689830Y-13801023D01*
X19707031Y-13791829D01*
X19718426Y-13767387D01*
X19621500Y-13670460D01*
X19524574Y-13767387D01*
X19228794Y-13767387D01*
X19237259Y-13759326D01*
X19255651Y-13733253D01*
X19268629Y-13704105D01*
X19275698Y-13672990D01*
X19275896Y-13658791D01*
X19458134Y-13658791D01*
X19462500Y-13690541D01*
X19472977Y-13720830D01*
X19482171Y-13738030D01*
X19506613Y-13749426D01*
X19535174Y-13720866D01*
X19556989Y-13699050D01*
X19603540Y-13652500D01*
X19639461Y-13652500D01*
X19736387Y-13749426D01*
X19760829Y-13738030D01*
X19774838Y-13709205D01*
X19782955Y-13678201D01*
X19784866Y-13646209D01*
X19780500Y-13614459D01*
X19770023Y-13584170D01*
X19760829Y-13566969D01*
X19736387Y-13555574D01*
X19639461Y-13652500D01*
X19603540Y-13652500D01*
X19506613Y-13555574D01*
X19482171Y-13566969D01*
X19468162Y-13595795D01*
X19460046Y-13626799D01*
X19458134Y-13658791D01*
X19275896Y-13658791D01*
X19276207Y-13636546D01*
X19270010Y-13605247D01*
X19257851Y-13575747D01*
X19240194Y-13549171D01*
X19228716Y-13537613D01*
X19524574Y-13537613D01*
X19588250Y-13601290D01*
X19621500Y-13634539D01*
X19718426Y-13537613D01*
X19707031Y-13513171D01*
X19678205Y-13499162D01*
X19647201Y-13491045D01*
X19615209Y-13489134D01*
X19583459Y-13493500D01*
X19553170Y-13503977D01*
X19535970Y-13513171D01*
X19524574Y-13537613D01*
X19228716Y-13537613D01*
X19217711Y-13526531D01*
X19191259Y-13508689D01*
X19161845Y-13496324D01*
X19130589Y-13489908D01*
X19098683Y-13489686D01*
X19067341Y-13495664D01*
X19037757Y-13507617D01*
X19011058Y-13525088D01*
X18988262Y-13547412D01*
X18970235Y-13573739D01*
X18957666Y-13603066D01*
X18951032Y-13634276D01*
X18950586Y-13666180D01*
X18835200Y-13666180D01*
X18835200Y-12742540D01*
X18894259Y-12683480D01*
X18912749Y-12698995D01*
X18914404Y-12699905D01*
X18891422Y-12718648D01*
X18872425Y-12741611D01*
X18858251Y-12767826D01*
X18849438Y-12796295D01*
X18846323Y-12825934D01*
X18849024Y-12855613D01*
X18857438Y-12884202D01*
X18871245Y-12910613D01*
X18889919Y-12933839D01*
X18912749Y-12952995D01*
X18914404Y-12953905D01*
X18891422Y-12972648D01*
X18872425Y-12995611D01*
X18858251Y-13021826D01*
X18849438Y-13050295D01*
X18846323Y-13079934D01*
X18849024Y-13109613D01*
X18857438Y-13138202D01*
X18871245Y-13164613D01*
X18889919Y-13187839D01*
X18912749Y-13206995D01*
X18915116Y-13208296D01*
X18904605Y-13215090D01*
X18883045Y-13236005D01*
X18865979Y-13260724D01*
X18854064Y-13288297D01*
X18851689Y-13298652D01*
X18861054Y-13322300D01*
X18927663Y-13322300D01*
X18926958Y-13342875D01*
X18927747Y-13347700D01*
X18861054Y-13347700D01*
X18851689Y-13371348D01*
X18854064Y-13381703D01*
X18865979Y-13409276D01*
X18883045Y-13433995D01*
X18904605Y-13454910D01*
X18929831Y-13471216D01*
X18957754Y-13482288D01*
X18987300Y-13487700D01*
X19037300Y-13487700D01*
X19037300Y-13457337D01*
X19057876Y-13458042D01*
X19062700Y-13457253D01*
X19062700Y-13487700D01*
X19112700Y-13487700D01*
X19142246Y-13482288D01*
X19170169Y-13471216D01*
X19195395Y-13454910D01*
X19216956Y-13433995D01*
X19234021Y-13409276D01*
X19245937Y-13381703D01*
X19248311Y-13371348D01*
X19238946Y-13347700D01*
X19172337Y-13347700D01*
X19173042Y-13327124D01*
X19172253Y-13322300D01*
X19238946Y-13322300D01*
X19248311Y-13298652D01*
X19245937Y-13288297D01*
X19234021Y-13260724D01*
X19216956Y-13236005D01*
X19195395Y-13215090D01*
X19185063Y-13208411D01*
X19185484Y-13208187D01*
X19208578Y-13189351D01*
X19213830Y-13183004D01*
X20127723Y-13183004D01*
X20130247Y-13210739D01*
X20138110Y-13237456D01*
X20151013Y-13262137D01*
X20168464Y-13283842D01*
X20189798Y-13301744D01*
X20214204Y-13315161D01*
X20240750Y-13323582D01*
X20268427Y-13326686D01*
X20270419Y-13326700D01*
X20392381Y-13326700D01*
X20420098Y-13323982D01*
X20446760Y-13315933D01*
X20471350Y-13302858D01*
X20492932Y-13285256D01*
X20510685Y-13263797D01*
X20523931Y-13239298D01*
X20532166Y-13212694D01*
X20535077Y-13184996D01*
X20532553Y-13157261D01*
X20524690Y-13130544D01*
X20511787Y-13105863D01*
X20494336Y-13084158D01*
X20473002Y-13066256D01*
X20448596Y-13052839D01*
X20422050Y-13044418D01*
X20394373Y-13041314D01*
X20392381Y-13041300D01*
X20270419Y-13041300D01*
X20242702Y-13044018D01*
X20216041Y-13052067D01*
X20191450Y-13065142D01*
X20169868Y-13082744D01*
X20152116Y-13104203D01*
X20138869Y-13128701D01*
X20130634Y-13155306D01*
X20127723Y-13183004D01*
X19213830Y-13183004D01*
X19227575Y-13166389D01*
X19241749Y-13140174D01*
X19250562Y-13111705D01*
X19253677Y-13082066D01*
X19250976Y-13052387D01*
X19242562Y-13023798D01*
X19228755Y-12997387D01*
X19210081Y-12974161D01*
X19187251Y-12955005D01*
X19185596Y-12954095D01*
X19208578Y-12935351D01*
X19227575Y-12912389D01*
X19241749Y-12886174D01*
X19250562Y-12857705D01*
X19253677Y-12828066D01*
X19250976Y-12798387D01*
X19242562Y-12769798D01*
X19228755Y-12743387D01*
X19210081Y-12720161D01*
X19187251Y-12701005D01*
X19185596Y-12700095D01*
X19208578Y-12681351D01*
X19227575Y-12658389D01*
X19241749Y-12632174D01*
X19250562Y-12603705D01*
X19253677Y-12574066D01*
X19250976Y-12544387D01*
X19242562Y-12515798D01*
X19228755Y-12489387D01*
X19210081Y-12466161D01*
X19187251Y-12447005D01*
X19185596Y-12446095D01*
X19205843Y-12429583D01*
X19264800Y-12488540D01*
X19264800Y-12827000D01*
X19265726Y-12836443D01*
X19266553Y-12845892D01*
X19266703Y-12846411D01*
X19266756Y-12846948D01*
X19269498Y-12856029D01*
X19272145Y-12865139D01*
X19272393Y-12865619D01*
X19272549Y-12866136D01*
X19277001Y-12874508D01*
X19281369Y-12882934D01*
X19281706Y-12883357D01*
X19281959Y-12883833D01*
X19287951Y-12891180D01*
X19293873Y-12898599D01*
X19294615Y-12899351D01*
X19294627Y-12899366D01*
X19294641Y-12899377D01*
X19294880Y-12899620D01*
X19421880Y-13026620D01*
X19429214Y-13032644D01*
X19436478Y-13038739D01*
X19436951Y-13038999D01*
X19437368Y-13039342D01*
X19445731Y-13043826D01*
X19454042Y-13048395D01*
X19454557Y-13048558D01*
X19455033Y-13048814D01*
X19464103Y-13051587D01*
X19473148Y-13054456D01*
X19473685Y-13054516D01*
X19474201Y-13054674D01*
X19483631Y-13055632D01*
X19493066Y-13056690D01*
X19494123Y-13056697D01*
X19494142Y-13056699D01*
X19494159Y-13056698D01*
X19494500Y-13056700D01*
X19680612Y-13056700D01*
X19693623Y-13067618D01*
X19717173Y-13080565D01*
X19742790Y-13088691D01*
X19769497Y-13091687D01*
X19771419Y-13091700D01*
X19903381Y-13091700D01*
X19930127Y-13089077D01*
X19955854Y-13081310D01*
X19979583Y-13068693D01*
X20000409Y-13051708D01*
X20017539Y-13031001D01*
X20030321Y-13007361D01*
X20038268Y-12981688D01*
X20041077Y-12954961D01*
X20038642Y-12928198D01*
X20031054Y-12902417D01*
X20018603Y-12878600D01*
X20001764Y-12857656D01*
X19981177Y-12840382D01*
X19957627Y-12827435D01*
X19947502Y-12824223D01*
X19966829Y-12816358D01*
X19989462Y-12801438D01*
X20008749Y-12782388D01*
X20023949Y-12759942D01*
X20034478Y-12734962D01*
X20035838Y-12727993D01*
X20026276Y-12706700D01*
X19952294Y-12706700D01*
X19952869Y-12685827D01*
X19952097Y-12681300D01*
X20026276Y-12681300D01*
X20035838Y-12660007D01*
X20034478Y-12653038D01*
X20023949Y-12628058D01*
X20008749Y-12605612D01*
X19989462Y-12586562D01*
X19966829Y-12571642D01*
X19941720Y-12561423D01*
X19915100Y-12556300D01*
X19850100Y-12556300D01*
X19850100Y-12579106D01*
X19829227Y-12578531D01*
X19824700Y-12579303D01*
X19824700Y-12556300D01*
X19759700Y-12556300D01*
X19733080Y-12561423D01*
X19707971Y-12571642D01*
X19685338Y-12586562D01*
X19666051Y-12605612D01*
X19650851Y-12628058D01*
X19640322Y-12653038D01*
X19638962Y-12660007D01*
X19648524Y-12681300D01*
X19722506Y-12681300D01*
X19721931Y-12702173D01*
X19722703Y-12706700D01*
X19648524Y-12706700D01*
X19638962Y-12727993D01*
X19640322Y-12734962D01*
X19650851Y-12759942D01*
X19666051Y-12782388D01*
X19685338Y-12801438D01*
X19707971Y-12816358D01*
X19727220Y-12824192D01*
X19718946Y-12826690D01*
X19695217Y-12839307D01*
X19680512Y-12851300D01*
X19537040Y-12851300D01*
X19470200Y-12784460D01*
X19470200Y-12463004D01*
X20127723Y-12463004D01*
X20130247Y-12490739D01*
X20138110Y-12517456D01*
X20151013Y-12542137D01*
X20168464Y-12563842D01*
X20189798Y-12581744D01*
X20214204Y-12595161D01*
X20240750Y-12603582D01*
X20268427Y-12606686D01*
X20270419Y-12606700D01*
X20392381Y-12606700D01*
X20420098Y-12603982D01*
X20446760Y-12595933D01*
X20471350Y-12582858D01*
X20492932Y-12565256D01*
X20510685Y-12543797D01*
X20523931Y-12519298D01*
X20532166Y-12492694D01*
X20535077Y-12464996D01*
X20532553Y-12437261D01*
X20524690Y-12410544D01*
X20511787Y-12385863D01*
X20494336Y-12364158D01*
X20473002Y-12346256D01*
X20448596Y-12332839D01*
X20422050Y-12324418D01*
X20394373Y-12321314D01*
X20392381Y-12321300D01*
X20270419Y-12321300D01*
X20242702Y-12324018D01*
X20216041Y-12332067D01*
X20191450Y-12345142D01*
X20169868Y-12362744D01*
X20152116Y-12384203D01*
X20138869Y-12408701D01*
X20130634Y-12435306D01*
X20127723Y-12463004D01*
X19470200Y-12463004D01*
X19470200Y-12446000D01*
X19469274Y-12436558D01*
X19468448Y-12427108D01*
X19468297Y-12426589D01*
X19468244Y-12426052D01*
X19465503Y-12416972D01*
X19462856Y-12407860D01*
X19462607Y-12407381D01*
X19462451Y-12406864D01*
X19457999Y-12398492D01*
X19453632Y-12390065D01*
X19453294Y-12389643D01*
X19453041Y-12389167D01*
X19447049Y-12381820D01*
X19441127Y-12374401D01*
X19440385Y-12373649D01*
X19440373Y-12373634D01*
X19440359Y-12373623D01*
X19440120Y-12373380D01*
X19313120Y-12246380D01*
X19305788Y-12240358D01*
X19298522Y-12234261D01*
X19298049Y-12234000D01*
X19297632Y-12233658D01*
X19289271Y-12229175D01*
X19280958Y-12224605D01*
X19280443Y-12224442D01*
X19279967Y-12224186D01*
X19270897Y-12221413D01*
X19261853Y-12218544D01*
X19261315Y-12218484D01*
X19260799Y-12218326D01*
X19251369Y-12217368D01*
X19241934Y-12216310D01*
X19240878Y-12216303D01*
X19240859Y-12216301D01*
X19240841Y-12216302D01*
X19240500Y-12216300D01*
X19213408Y-12216300D01*
X19210081Y-12212161D01*
X19187251Y-12193005D01*
X19161136Y-12178648D01*
X19132729Y-12169637D01*
X19103113Y-12166315D01*
X19100981Y-12166300D01*
X18999019Y-12166300D01*
X18969360Y-12169208D01*
X18940830Y-12177822D01*
X18914516Y-12191813D01*
X18891422Y-12210648D01*
X18872425Y-12233611D01*
X18858251Y-12259826D01*
X18849438Y-12288295D01*
X18846323Y-12317934D01*
X18849024Y-12347613D01*
X18857438Y-12376202D01*
X18871245Y-12402613D01*
X18889919Y-12425839D01*
X18912749Y-12444995D01*
X18914404Y-12445905D01*
X18891422Y-12464648D01*
X18886746Y-12470300D01*
X18859500Y-12470300D01*
X18850058Y-12471226D01*
X18840608Y-12472052D01*
X18840089Y-12472203D01*
X18839552Y-12472256D01*
X18830473Y-12474997D01*
X18821361Y-12477644D01*
X18820881Y-12477893D01*
X18820364Y-12478049D01*
X18811992Y-12482501D01*
X18803566Y-12486868D01*
X18803143Y-12487206D01*
X18802667Y-12487459D01*
X18795320Y-12493451D01*
X18787901Y-12499373D01*
X18787149Y-12500115D01*
X18787134Y-12500127D01*
X18787123Y-12500141D01*
X18786880Y-12500380D01*
X18659880Y-12627380D01*
X18653858Y-12634712D01*
X18647761Y-12641978D01*
X18647501Y-12642451D01*
X18647158Y-12642868D01*
X18642675Y-12651229D01*
X18638105Y-12659542D01*
X18637942Y-12660057D01*
X18637686Y-12660533D01*
X18637368Y-12661576D01*
X18627023Y-12631670D01*
X18617829Y-12614469D01*
X18593387Y-12603074D01*
X18496461Y-12700000D01*
X18593387Y-12796926D01*
X18617829Y-12785530D01*
X18629800Y-12760899D01*
X18629800Y-13402108D01*
X18622851Y-13385247D01*
X18605194Y-13358671D01*
X18582711Y-13336031D01*
X18556259Y-13318189D01*
X18526845Y-13305824D01*
X18495589Y-13299408D01*
X18463683Y-13299186D01*
X18432341Y-13305164D01*
X18402757Y-13317117D01*
X18376058Y-13334588D01*
X18353262Y-13356912D01*
X18335235Y-13383239D01*
X18322666Y-13412566D01*
X18316032Y-13443776D01*
X18315586Y-13475680D01*
X18321346Y-13507063D01*
X18333092Y-13536730D01*
X18350376Y-13563550D01*
X18372541Y-13586502D01*
X18398741Y-13604712D01*
X18427980Y-13617486D01*
X18459143Y-13624337D01*
X18491043Y-13625005D01*
X18522465Y-13619465D01*
X18552213Y-13607926D01*
X18579153Y-13590830D01*
X18602259Y-13568826D01*
X18620651Y-13542753D01*
X18629800Y-13522205D01*
X18629800Y-13882108D01*
X18622851Y-13865247D01*
X18605194Y-13838671D01*
X18582711Y-13816031D01*
X18556259Y-13798189D01*
X18526845Y-13785824D01*
X18495589Y-13779408D01*
X18463683Y-13779186D01*
X18432341Y-13785164D01*
X18402757Y-13797117D01*
X18376058Y-13814588D01*
X18353262Y-13836912D01*
X18335235Y-13863239D01*
X18322666Y-13892566D01*
X18316032Y-13923776D01*
X18315586Y-13955680D01*
X18321346Y-13987063D01*
X18333092Y-14016730D01*
X18350376Y-14043550D01*
X18372541Y-14066502D01*
X18398741Y-14084712D01*
X18427980Y-14097486D01*
X18459143Y-14104337D01*
X18491043Y-14105005D01*
X18521045Y-14099715D01*
X18499460Y-14121300D01*
X15473040Y-14121300D01*
X15342700Y-13990960D01*
X15342700Y-13957207D01*
X15356749Y-13968995D01*
X15382864Y-13983352D01*
X15411271Y-13992363D01*
X15440887Y-13995685D01*
X15443019Y-13995700D01*
X15544981Y-13995700D01*
X15574640Y-13992792D01*
X15603170Y-13984178D01*
X15629484Y-13970187D01*
X15652578Y-13951351D01*
X15671575Y-13928389D01*
X15685749Y-13902174D01*
X15694562Y-13873705D01*
X15697677Y-13844066D01*
X15694976Y-13814387D01*
X15686562Y-13785798D01*
X15672755Y-13759387D01*
X15654081Y-13736161D01*
X15631251Y-13717005D01*
X15629596Y-13716095D01*
X15652578Y-13697351D01*
X15671575Y-13674389D01*
X15685749Y-13648174D01*
X15694562Y-13619705D01*
X15697677Y-13590066D01*
X15694976Y-13560387D01*
X15686562Y-13531798D01*
X15672755Y-13505387D01*
X15654081Y-13482161D01*
X15631251Y-13463005D01*
X15629596Y-13462095D01*
X15652578Y-13443351D01*
X15671575Y-13420389D01*
X15685749Y-13394174D01*
X15694562Y-13365705D01*
X15697677Y-13336066D01*
X15694976Y-13306387D01*
X15686562Y-13277798D01*
X15672755Y-13251387D01*
X15654081Y-13228161D01*
X15631251Y-13209005D01*
X15629596Y-13208095D01*
X15652578Y-13189351D01*
X15671575Y-13166389D01*
X15685749Y-13140174D01*
X15694562Y-13111705D01*
X15697677Y-13082066D01*
X15694976Y-13052387D01*
X15686562Y-13023798D01*
X15672755Y-12997387D01*
X15654081Y-12974161D01*
X15631251Y-12955005D01*
X15629596Y-12954095D01*
X15652578Y-12935351D01*
X15671575Y-12912389D01*
X15685749Y-12886174D01*
X15694562Y-12857705D01*
X15697677Y-12828066D01*
X15694976Y-12798387D01*
X15686562Y-12769798D01*
X15672755Y-12743387D01*
X15654081Y-12720161D01*
X15631251Y-12701005D01*
X15629596Y-12700095D01*
X15652578Y-12681351D01*
X15671575Y-12658389D01*
X15685749Y-12632174D01*
X15694562Y-12603705D01*
X15697677Y-12574066D01*
X15694976Y-12544387D01*
X15686562Y-12515798D01*
X15672755Y-12489387D01*
X15654081Y-12466161D01*
X15631251Y-12447005D01*
X15628884Y-12445704D01*
X15639395Y-12438910D01*
X15660955Y-12417995D01*
X15678021Y-12393276D01*
X15689936Y-12365703D01*
X15692311Y-12355348D01*
X15682946Y-12331700D01*
X15616337Y-12331700D01*
X15617042Y-12311124D01*
X15616253Y-12306300D01*
X15682946Y-12306300D01*
X15692311Y-12282652D01*
X15689936Y-12272297D01*
X15678021Y-12244724D01*
X15660955Y-12220005D01*
X15639395Y-12199090D01*
X15629063Y-12192411D01*
X15629484Y-12192187D01*
X15652578Y-12173351D01*
X15657254Y-12167700D01*
X16594460Y-12167700D01*
X16818380Y-12391620D01*
X16825711Y-12397641D01*
X16832978Y-12403739D01*
X16833451Y-12403999D01*
X16833868Y-12404342D01*
X16842231Y-12408826D01*
X16850542Y-12413395D01*
X16851057Y-12413558D01*
X16851533Y-12413814D01*
X16860603Y-12416587D01*
X16869648Y-12419456D01*
X16870185Y-12419516D01*
X16870701Y-12419674D01*
X16880131Y-12420632D01*
X16889566Y-12421690D01*
X16890623Y-12421697D01*
X16890642Y-12421699D01*
X16890659Y-12421698D01*
X16891000Y-12421700D01*
X17870592Y-12421700D01*
X17873919Y-12425839D01*
X17896749Y-12444995D01*
X17898404Y-12445905D01*
X17875422Y-12464648D01*
X17856425Y-12487611D01*
X17842251Y-12513826D01*
X17833438Y-12542295D01*
X17830323Y-12571934D01*
X17833024Y-12601613D01*
X17841438Y-12630202D01*
X17855245Y-12656613D01*
X17873919Y-12679839D01*
X17896749Y-12698995D01*
X17898404Y-12699905D01*
X17875422Y-12718648D01*
X17856425Y-12741611D01*
X17842251Y-12767826D01*
X17833438Y-12796295D01*
X17830323Y-12825934D01*
X17833024Y-12855613D01*
X17841438Y-12884202D01*
X17855245Y-12910613D01*
X17873919Y-12933839D01*
X17896749Y-12952995D01*
X17898404Y-12953905D01*
X17875422Y-12972648D01*
X17856425Y-12995611D01*
X17842251Y-13021826D01*
X17833438Y-13050295D01*
X17830323Y-13079934D01*
X17833024Y-13109613D01*
X17841438Y-13138202D01*
X17855245Y-13164613D01*
X17873919Y-13187839D01*
X17896749Y-13206995D01*
X17898404Y-13207905D01*
X17875422Y-13226648D01*
X17856425Y-13249611D01*
X17842251Y-13275826D01*
X17833438Y-13304295D01*
X17830323Y-13333934D01*
X17833024Y-13363613D01*
X17841438Y-13392202D01*
X17855245Y-13418613D01*
X17873919Y-13441839D01*
X17896749Y-13460995D01*
X17898404Y-13461905D01*
X17875422Y-13480648D01*
X17856425Y-13503611D01*
X17842251Y-13529826D01*
X17833438Y-13558295D01*
X17830323Y-13587934D01*
X17833024Y-13617613D01*
X17841438Y-13646202D01*
X17855245Y-13672613D01*
X17873919Y-13695839D01*
X17896749Y-13714995D01*
X17898404Y-13715905D01*
X17875422Y-13734648D01*
X17856425Y-13757611D01*
X17842251Y-13783826D01*
X17833438Y-13812295D01*
X17830323Y-13841934D01*
X17833024Y-13871613D01*
X17841438Y-13900202D01*
X17855245Y-13926613D01*
X17873919Y-13949839D01*
X17896749Y-13968995D01*
X17922864Y-13983352D01*
X17951271Y-13992363D01*
X17980887Y-13995685D01*
X17983019Y-13995700D01*
X18084981Y-13995700D01*
X18114640Y-13992792D01*
X18143170Y-13984178D01*
X18169484Y-13970187D01*
X18192578Y-13951351D01*
X18211575Y-13928389D01*
X18225749Y-13902174D01*
X18234562Y-13873705D01*
X18237677Y-13844066D01*
X18234976Y-13814387D01*
X18226562Y-13785798D01*
X18212755Y-13759387D01*
X18194081Y-13736161D01*
X18171251Y-13717005D01*
X18169596Y-13716095D01*
X18192578Y-13697351D01*
X18211575Y-13674389D01*
X18225749Y-13648174D01*
X18234562Y-13619705D01*
X18237677Y-13590066D01*
X18234976Y-13560387D01*
X18226562Y-13531798D01*
X18212755Y-13505387D01*
X18194081Y-13482161D01*
X18171251Y-13463005D01*
X18169596Y-13462095D01*
X18192578Y-13443351D01*
X18211575Y-13420389D01*
X18225749Y-13394174D01*
X18234562Y-13365705D01*
X18237677Y-13336066D01*
X18234976Y-13306387D01*
X18226562Y-13277798D01*
X18212755Y-13251387D01*
X18194081Y-13228161D01*
X18171251Y-13209005D01*
X18169596Y-13208095D01*
X18192578Y-13189351D01*
X18211575Y-13166389D01*
X18225749Y-13140174D01*
X18234562Y-13111705D01*
X18237677Y-13082066D01*
X18234976Y-13052387D01*
X18226562Y-13023798D01*
X18212755Y-12997387D01*
X18194081Y-12974161D01*
X18171251Y-12955005D01*
X18169596Y-12954095D01*
X18192578Y-12935351D01*
X18211575Y-12912389D01*
X18225749Y-12886174D01*
X18234562Y-12857705D01*
X18237677Y-12828066D01*
X18236478Y-12814887D01*
X18381574Y-12814887D01*
X18392970Y-12839329D01*
X18421795Y-12853338D01*
X18452799Y-12861454D01*
X18484791Y-12863366D01*
X18516541Y-12859000D01*
X18546830Y-12848523D01*
X18564031Y-12839329D01*
X18575426Y-12814887D01*
X18478500Y-12717960D01*
X18381574Y-12814887D01*
X18236478Y-12814887D01*
X18234976Y-12798387D01*
X18226562Y-12769798D01*
X18212755Y-12743387D01*
X18194081Y-12720161D01*
X18177551Y-12706291D01*
X18315134Y-12706291D01*
X18319500Y-12738041D01*
X18329977Y-12768330D01*
X18339171Y-12785530D01*
X18363613Y-12796926D01*
X18392174Y-12768366D01*
X18412791Y-12747748D01*
X18460540Y-12700000D01*
X18363613Y-12603074D01*
X18339171Y-12614469D01*
X18325162Y-12643295D01*
X18317046Y-12674299D01*
X18315134Y-12706291D01*
X18177551Y-12706291D01*
X18171251Y-12701005D01*
X18169596Y-12700095D01*
X18192578Y-12681351D01*
X18211575Y-12658389D01*
X18225749Y-12632174D01*
X18234562Y-12603705D01*
X18236516Y-12585113D01*
X18381574Y-12585113D01*
X18446044Y-12649584D01*
X18478500Y-12682039D01*
X18575426Y-12585113D01*
X18564031Y-12560671D01*
X18535205Y-12546662D01*
X18504201Y-12538545D01*
X18472209Y-12536634D01*
X18440459Y-12541000D01*
X18410170Y-12551477D01*
X18392970Y-12560671D01*
X18381574Y-12585113D01*
X18236516Y-12585113D01*
X18237677Y-12574066D01*
X18234976Y-12544387D01*
X18226562Y-12515798D01*
X18212755Y-12489387D01*
X18194081Y-12466161D01*
X18171251Y-12447005D01*
X18169596Y-12446095D01*
X18192578Y-12427351D01*
X18211575Y-12404389D01*
X18225749Y-12378174D01*
X18234562Y-12349705D01*
X18237677Y-12320066D01*
X18234976Y-12290387D01*
X18226562Y-12261798D01*
X18212755Y-12235387D01*
X18194081Y-12212161D01*
X18186357Y-12205680D01*
X18315586Y-12205680D01*
X18321346Y-12237063D01*
X18333092Y-12266730D01*
X18350376Y-12293550D01*
X18372541Y-12316502D01*
X18398741Y-12334712D01*
X18427980Y-12347486D01*
X18459143Y-12354337D01*
X18491043Y-12355005D01*
X18522465Y-12349465D01*
X18552213Y-12337926D01*
X18579153Y-12320830D01*
X18602259Y-12298826D01*
X18620651Y-12272753D01*
X18633629Y-12243605D01*
X18640698Y-12212490D01*
X18641207Y-12176046D01*
X18635010Y-12144747D01*
X18622851Y-12115247D01*
X18605194Y-12088671D01*
X18582711Y-12066031D01*
X18556259Y-12048189D01*
X18526845Y-12035824D01*
X18495589Y-12029408D01*
X18463683Y-12029186D01*
X18432341Y-12035164D01*
X18402757Y-12047117D01*
X18376058Y-12064588D01*
X18353262Y-12086912D01*
X18335235Y-12113239D01*
X18322666Y-12142566D01*
X18316032Y-12173776D01*
X18315586Y-12205680D01*
X18186357Y-12205680D01*
X18171251Y-12193005D01*
X18168885Y-12191704D01*
X18179395Y-12184910D01*
X18200956Y-12163995D01*
X18218021Y-12139276D01*
X18229937Y-12111703D01*
X18232311Y-12101348D01*
X18222946Y-12077700D01*
X18156337Y-12077700D01*
X18157042Y-12057124D01*
X18156253Y-12052300D01*
X18222946Y-12052300D01*
X18232311Y-12028652D01*
X18229937Y-12018297D01*
X18218021Y-11990724D01*
X18200956Y-11966005D01*
X18179395Y-11945090D01*
X18169063Y-11938411D01*
X18169484Y-11938187D01*
X18192578Y-11919351D01*
X18211575Y-11896389D01*
X18225749Y-11870174D01*
X18234562Y-11841705D01*
X18234790Y-11839530D01*
X18342380Y-11947120D01*
X18349714Y-11953144D01*
X18356978Y-11959239D01*
X18357451Y-11959499D01*
X18357868Y-11959842D01*
X18366231Y-11964326D01*
X18374542Y-11968895D01*
X18375057Y-11969058D01*
X18375533Y-11969314D01*
X18384603Y-11972087D01*
X18393648Y-11974956D01*
X18394185Y-11975016D01*
X18394701Y-11975174D01*
X18404131Y-11976132D01*
X18413566Y-11977190D01*
X18414623Y-11977197D01*
X18414642Y-11977199D01*
X18414659Y-11977198D01*
X18415000Y-11977200D01*
X19240500Y-11977200D01*
X19260448Y-11975244D01*
X19279636Y-11969451D01*
X19297333Y-11960041D01*
X19312866Y-11947373D01*
X19325642Y-11931929D01*
X19335175Y-11914298D01*
X19341102Y-11895151D01*
X19343198Y-11875217D01*
X19341381Y-11855256D01*
X19335722Y-11836028D01*
X19326436Y-11818265D01*
X19313876Y-11802645D01*
X19298522Y-11789761D01*
X19280958Y-11780105D01*
X19261853Y-11774044D01*
X19241934Y-11771810D01*
X19240500Y-11771800D01*
X18457540Y-11771800D01*
X18390700Y-11704960D01*
X18390700Y-11627961D01*
X18392970Y-11632829D01*
X18421795Y-11646838D01*
X18452799Y-11654954D01*
X18484791Y-11656866D01*
X18516541Y-11652500D01*
X18546830Y-11642023D01*
X18564031Y-11632829D01*
X18575426Y-11608387D01*
X18478500Y-11511460D01*
X18477086Y-11512875D01*
X18459125Y-11494914D01*
X18460540Y-11493500D01*
X18496461Y-11493500D01*
X18593387Y-11590426D01*
X18617829Y-11579030D01*
X18631838Y-11550205D01*
X18639955Y-11519201D01*
X18641866Y-11487209D01*
X18637500Y-11455459D01*
X18627023Y-11425170D01*
X18617829Y-11407969D01*
X18593387Y-11396574D01*
X18496461Y-11493500D01*
X18460540Y-11493500D01*
X18459125Y-11492086D01*
X18477086Y-11474125D01*
X18478500Y-11475539D01*
X18512644Y-11441395D01*
X18575426Y-11378613D01*
X18564031Y-11354171D01*
X18535205Y-11340162D01*
X18504201Y-11332045D01*
X18472209Y-11330134D01*
X18440459Y-11334500D01*
X18410170Y-11344977D01*
X18392970Y-11354171D01*
X18390700Y-11359038D01*
X18390700Y-11252339D01*
X18770099Y-11252339D01*
X18775505Y-11281793D01*
X18786529Y-11309637D01*
X18802751Y-11334808D01*
X18823553Y-11356350D01*
X18838175Y-11366512D01*
X18826855Y-11373919D01*
X18805459Y-11394871D01*
X18788541Y-11419580D01*
X18776744Y-11447105D01*
X18770517Y-11476396D01*
X18770099Y-11506339D01*
X18775505Y-11535793D01*
X18786529Y-11563637D01*
X18802751Y-11588808D01*
X18823553Y-11610350D01*
X18848143Y-11627440D01*
X18875585Y-11639429D01*
X18904832Y-11645859D01*
X18934772Y-11646487D01*
X18964263Y-11641287D01*
X18992182Y-11630457D01*
X19017466Y-11614411D01*
X19039153Y-11593760D01*
X19056414Y-11569290D01*
X19068595Y-11541933D01*
X19075229Y-11512731D01*
X19075707Y-11478527D01*
X19069890Y-11449151D01*
X19058479Y-11421465D01*
X19041907Y-11396522D01*
X19020806Y-11375273D01*
X19007835Y-11366524D01*
X19017466Y-11360411D01*
X19039153Y-11339760D01*
X19056414Y-11315290D01*
X19068595Y-11287933D01*
X19075229Y-11258731D01*
X19075707Y-11224527D01*
X19069890Y-11195151D01*
X19059348Y-11169574D01*
X19227322Y-11169574D01*
X19229670Y-11195365D01*
X19236982Y-11220210D01*
X19248981Y-11243162D01*
X19265209Y-11263345D01*
X19273706Y-11270475D01*
X19266514Y-11276340D01*
X19250006Y-11296295D01*
X19237688Y-11319077D01*
X19230030Y-11343817D01*
X19227322Y-11369574D01*
X19229670Y-11395365D01*
X19236982Y-11420210D01*
X19248981Y-11443162D01*
X19265209Y-11463345D01*
X19285048Y-11479993D01*
X19307743Y-11492469D01*
X19317207Y-11495471D01*
X19309451Y-11497813D01*
X19286584Y-11509971D01*
X19266514Y-11526340D01*
X19250006Y-11546295D01*
X19237688Y-11569077D01*
X19230030Y-11593817D01*
X19227322Y-11619574D01*
X19229670Y-11645365D01*
X19236982Y-11670210D01*
X19248981Y-11693162D01*
X19265209Y-11713345D01*
X19285048Y-11729993D01*
X19307743Y-11742469D01*
X19332429Y-11750300D01*
X19358166Y-11753187D01*
X19360019Y-11753200D01*
X19497360Y-11753200D01*
X19495938Y-11754593D01*
X19466278Y-11797910D01*
X19445596Y-11846164D01*
X19434681Y-11897515D01*
X19433948Y-11950009D01*
X19443425Y-12001645D01*
X19462751Y-12050457D01*
X19491190Y-12094586D01*
X19527659Y-12132350D01*
X19570768Y-12162312D01*
X19618876Y-12183330D01*
X19670150Y-12194603D01*
X19722637Y-12195702D01*
X19774338Y-12186586D01*
X19823284Y-12167601D01*
X19867610Y-12139471D01*
X19905628Y-12103267D01*
X19935890Y-12060368D01*
X19957243Y-12012408D01*
X19968874Y-11961214D01*
X19969712Y-11901251D01*
X19959514Y-11849752D01*
X19939509Y-11801214D01*
X19910456Y-11757487D01*
X19873464Y-11720236D01*
X19829941Y-11690879D01*
X19781544Y-11670535D01*
X19730118Y-11659978D01*
X19677620Y-11659612D01*
X19626052Y-11669449D01*
X19624939Y-11669899D01*
X19631970Y-11647183D01*
X19634678Y-11621426D01*
X19632330Y-11595634D01*
X19625018Y-11570790D01*
X19613019Y-11547838D01*
X19596791Y-11527655D01*
X19576952Y-11511007D01*
X19554257Y-11498531D01*
X19544794Y-11495529D01*
X19552549Y-11493187D01*
X19575416Y-11481029D01*
X19595486Y-11464660D01*
X19611994Y-11444705D01*
X19624312Y-11421923D01*
X19631970Y-11397183D01*
X19634678Y-11371426D01*
X19632330Y-11345634D01*
X19625018Y-11320790D01*
X19613019Y-11297838D01*
X19596791Y-11277655D01*
X19588295Y-11270525D01*
X19595486Y-11264660D01*
X19611994Y-11244705D01*
X19624312Y-11221923D01*
X19631970Y-11197183D01*
X19634678Y-11171426D01*
X19632330Y-11145635D01*
X19625018Y-11120790D01*
X19613019Y-11097838D01*
X19596791Y-11077655D01*
X19576952Y-11061007D01*
X19554257Y-11048531D01*
X19545349Y-11045705D01*
X19563515Y-11038239D01*
X19585284Y-11023780D01*
X19603813Y-11005353D01*
X19618392Y-10983665D01*
X19628459Y-10959549D01*
X19629478Y-10953707D01*
X19619848Y-10933200D01*
X19443700Y-10933200D01*
X19443700Y-10935200D01*
X19418300Y-10935200D01*
X19418300Y-10933200D01*
X19242152Y-10933200D01*
X19232522Y-10953707D01*
X19233541Y-10959549D01*
X19243608Y-10983665D01*
X19258187Y-11005353D01*
X19276716Y-11023780D01*
X19298485Y-11038239D01*
X19316559Y-11045667D01*
X19309451Y-11047813D01*
X19286584Y-11059971D01*
X19266514Y-11076340D01*
X19250006Y-11096295D01*
X19237688Y-11119077D01*
X19230030Y-11143817D01*
X19227322Y-11169574D01*
X19059348Y-11169574D01*
X19058479Y-11167465D01*
X19041907Y-11142522D01*
X19020806Y-11121273D01*
X19005187Y-11110739D01*
X19012794Y-11093254D01*
X18923000Y-11003461D01*
X18833206Y-11093254D01*
X18840829Y-11110775D01*
X18826855Y-11119919D01*
X18805459Y-11140871D01*
X18788541Y-11165580D01*
X18776744Y-11193105D01*
X18770517Y-11222396D01*
X18770099Y-11252339D01*
X18390700Y-11252339D01*
X18390700Y-11122623D01*
X18398741Y-11128212D01*
X18427980Y-11140986D01*
X18459143Y-11147837D01*
X18491043Y-11148505D01*
X18522465Y-11142965D01*
X18552213Y-11131426D01*
X18579153Y-11114330D01*
X18602259Y-11092326D01*
X18620651Y-11066253D01*
X18633629Y-11037105D01*
X18640698Y-11005990D01*
X18640891Y-10992187D01*
X18769707Y-10992187D01*
X18773957Y-11021964D01*
X18783935Y-11050341D01*
X18791826Y-11065105D01*
X18815246Y-11075294D01*
X18905040Y-10985500D01*
X18940961Y-10985500D01*
X19030754Y-11075294D01*
X19054174Y-11065105D01*
X19067183Y-11037985D01*
X19074652Y-11008848D01*
X19076293Y-10978813D01*
X19072043Y-10949036D01*
X19062065Y-10920659D01*
X19054174Y-10905895D01*
X19030754Y-10895706D01*
X18940961Y-10985500D01*
X18905040Y-10985500D01*
X18815246Y-10895706D01*
X18791826Y-10905895D01*
X18778817Y-10933015D01*
X18771348Y-10962152D01*
X18769707Y-10992187D01*
X18640891Y-10992187D01*
X18641207Y-10969546D01*
X18635010Y-10938247D01*
X18622851Y-10908747D01*
X18605194Y-10882171D01*
X18600799Y-10877746D01*
X18833206Y-10877746D01*
X18923000Y-10967540D01*
X19003247Y-10887293D01*
X19232522Y-10887293D01*
X19242152Y-10907800D01*
X19418300Y-10907800D01*
X19418300Y-10787800D01*
X19348300Y-10787800D01*
X19322656Y-10792827D01*
X19298485Y-10802761D01*
X19276716Y-10817220D01*
X19258187Y-10835647D01*
X19243608Y-10857336D01*
X19233541Y-10881451D01*
X19232522Y-10887293D01*
X19003247Y-10887293D01*
X19012794Y-10877746D01*
X19002605Y-10854326D01*
X18975485Y-10841317D01*
X18946348Y-10833848D01*
X18916313Y-10832207D01*
X18886536Y-10836457D01*
X18858159Y-10846435D01*
X18843395Y-10854326D01*
X18833206Y-10877746D01*
X18600799Y-10877746D01*
X18582711Y-10859531D01*
X18556259Y-10841689D01*
X18526845Y-10829324D01*
X18495589Y-10822908D01*
X18463683Y-10822686D01*
X18432341Y-10828664D01*
X18402757Y-10840617D01*
X18376058Y-10858088D01*
X18371449Y-10862602D01*
X18367549Y-10857820D01*
X18361627Y-10850401D01*
X18360885Y-10849649D01*
X18360873Y-10849634D01*
X18360859Y-10849623D01*
X18360620Y-10849380D01*
X18233620Y-10722380D01*
X18226288Y-10716358D01*
X18219022Y-10710261D01*
X18218549Y-10710001D01*
X18218132Y-10709658D01*
X18209771Y-10705175D01*
X18206167Y-10703194D01*
X18194081Y-10688161D01*
X18171251Y-10669005D01*
X18169596Y-10668095D01*
X18192578Y-10649352D01*
X18203616Y-10636009D01*
X19433948Y-10636009D01*
X19443425Y-10687645D01*
X19462751Y-10736457D01*
X19491190Y-10780586D01*
X19498157Y-10787800D01*
X19443700Y-10787800D01*
X19443700Y-10907800D01*
X19619848Y-10907800D01*
X19629478Y-10887293D01*
X19628459Y-10881451D01*
X19623856Y-10870425D01*
X19670150Y-10880603D01*
X19722637Y-10881703D01*
X19774338Y-10872586D01*
X19823284Y-10853601D01*
X19867610Y-10825471D01*
X19905628Y-10789267D01*
X19935890Y-10746368D01*
X19957243Y-10698408D01*
X19968874Y-10647214D01*
X19969712Y-10587251D01*
X19959514Y-10535752D01*
X19939509Y-10487214D01*
X19910456Y-10443487D01*
X19873464Y-10406236D01*
X19829941Y-10376879D01*
X19781544Y-10356535D01*
X19730118Y-10345978D01*
X19677620Y-10345612D01*
X19626052Y-10355449D01*
X19577376Y-10375115D01*
X19533447Y-10403862D01*
X19495938Y-10440593D01*
X19466278Y-10483911D01*
X19445596Y-10532164D01*
X19434681Y-10583515D01*
X19433948Y-10636009D01*
X18203616Y-10636009D01*
X18211575Y-10626389D01*
X18225749Y-10600174D01*
X18234562Y-10571705D01*
X18237677Y-10542066D01*
X18234976Y-10512387D01*
X18226562Y-10483798D01*
X18212755Y-10457387D01*
X18194081Y-10434161D01*
X18171251Y-10415005D01*
X18145136Y-10400648D01*
X18116729Y-10391637D01*
X18087113Y-10388315D01*
X18084981Y-10388300D01*
X17983019Y-10388300D01*
X17953360Y-10391208D01*
X17924830Y-10399822D01*
X17898516Y-10413813D01*
X17875422Y-10432649D01*
X17856425Y-10455611D01*
X17842251Y-10481826D01*
X17833438Y-10510295D01*
X17830323Y-10539934D01*
X17833024Y-10569613D01*
X17841438Y-10598202D01*
X17855245Y-10624613D01*
X17873919Y-10647839D01*
X17896749Y-10666995D01*
X17898404Y-10667905D01*
X17875422Y-10686649D01*
X17856425Y-10709611D01*
X17842251Y-10735826D01*
X17833438Y-10764295D01*
X17830323Y-10793934D01*
X17833024Y-10823613D01*
X17841438Y-10852202D01*
X17855245Y-10878613D01*
X17873919Y-10901839D01*
X17896749Y-10920995D01*
X17898404Y-10921905D01*
X17875422Y-10940649D01*
X17856425Y-10963611D01*
X17842251Y-10989826D01*
X17833438Y-11018295D01*
X17830323Y-11047934D01*
X17833024Y-11077613D01*
X17841438Y-11106202D01*
X17855245Y-11132613D01*
X17873919Y-11155839D01*
X17896749Y-11174995D01*
X17898404Y-11175905D01*
X17875422Y-11194648D01*
X17856425Y-11217611D01*
X17842251Y-11243826D01*
X17833438Y-11272295D01*
X17830323Y-11301934D01*
X17833024Y-11331613D01*
X17841438Y-11360202D01*
X17855245Y-11386613D01*
X17873919Y-11409839D01*
X17896749Y-11428995D01*
X17898404Y-11429905D01*
X17875422Y-11448648D01*
X17856425Y-11471611D01*
X17842251Y-11497826D01*
X17833438Y-11526295D01*
X17830323Y-11555934D01*
X17833024Y-11585613D01*
X17841438Y-11614202D01*
X17855245Y-11640613D01*
X17873919Y-11663839D01*
X17896749Y-11682995D01*
X17898404Y-11683905D01*
X17875422Y-11702648D01*
X17856425Y-11725611D01*
X17842251Y-11751826D01*
X17833438Y-11780295D01*
X17830323Y-11809934D01*
X17833024Y-11839613D01*
X17841438Y-11868202D01*
X17855245Y-11894613D01*
X17873919Y-11917839D01*
X17896749Y-11936995D01*
X17899116Y-11938296D01*
X17888605Y-11945090D01*
X17867045Y-11966005D01*
X17849979Y-11990724D01*
X17838064Y-12018297D01*
X17835689Y-12028652D01*
X17845054Y-12052300D01*
X17911663Y-12052300D01*
X17910958Y-12072875D01*
X17911747Y-12077700D01*
X17845054Y-12077700D01*
X17835689Y-12101348D01*
X17838064Y-12111703D01*
X17849979Y-12139276D01*
X17867045Y-12163995D01*
X17888605Y-12184910D01*
X17898937Y-12191589D01*
X17898516Y-12191813D01*
X17875422Y-12210648D01*
X17870746Y-12216300D01*
X16933540Y-12216300D01*
X16709620Y-11992380D01*
X16702288Y-11986358D01*
X16695022Y-11980261D01*
X16694548Y-11980000D01*
X16694131Y-11979658D01*
X16685769Y-11975174D01*
X16677458Y-11970605D01*
X16676943Y-11970442D01*
X16676467Y-11970186D01*
X16667397Y-11967413D01*
X16658352Y-11964544D01*
X16657815Y-11964484D01*
X16657299Y-11964326D01*
X16647869Y-11963368D01*
X16638434Y-11962310D01*
X16637377Y-11962303D01*
X16637358Y-11962301D01*
X16637341Y-11962302D01*
X16637000Y-11962300D01*
X15657408Y-11962300D01*
X15654081Y-11958161D01*
X15631251Y-11939005D01*
X15629596Y-11938095D01*
X15652578Y-11919351D01*
X15671575Y-11896389D01*
X15685749Y-11870174D01*
X15694562Y-11841705D01*
X15697677Y-11812066D01*
X15694976Y-11782387D01*
X15686562Y-11753798D01*
X15672755Y-11727387D01*
X15654081Y-11704161D01*
X15631251Y-11685005D01*
X15629596Y-11684095D01*
X15652578Y-11665351D01*
X15671575Y-11642389D01*
X15685749Y-11616174D01*
X15694562Y-11587705D01*
X15697677Y-11558066D01*
X15694976Y-11528387D01*
X15686562Y-11499798D01*
X15672755Y-11473387D01*
X15654081Y-11450161D01*
X15631251Y-11431005D01*
X15629596Y-11430095D01*
X15652578Y-11411351D01*
X15671575Y-11388389D01*
X15685749Y-11362174D01*
X15694562Y-11333705D01*
X15697677Y-11304066D01*
X15694976Y-11274387D01*
X15686562Y-11245798D01*
X15672755Y-11219387D01*
X15654081Y-11196161D01*
X15631251Y-11177005D01*
X15629596Y-11176095D01*
X15652578Y-11157352D01*
X15671575Y-11134389D01*
X15685749Y-11108174D01*
X15694562Y-11079705D01*
X15697677Y-11050066D01*
X15694976Y-11020387D01*
X15686562Y-10991798D01*
X15672755Y-10965387D01*
X15654081Y-10942161D01*
X15631251Y-10923005D01*
X15629596Y-10922095D01*
X15652578Y-10903352D01*
X15671575Y-10880389D01*
X15685749Y-10854174D01*
X15694562Y-10825705D01*
X15697677Y-10796066D01*
X15694976Y-10766387D01*
X15686562Y-10737798D01*
X15672755Y-10711387D01*
X15654081Y-10688161D01*
X15631251Y-10669005D01*
X15629596Y-10668095D01*
X15652578Y-10649352D01*
X15671575Y-10626389D01*
X15685749Y-10600174D01*
X15694562Y-10571705D01*
X15697677Y-10542066D01*
X15694976Y-10512387D01*
X15686562Y-10483798D01*
X15672755Y-10457387D01*
X15654081Y-10434161D01*
X15631251Y-10415005D01*
X15605136Y-10400648D01*
X15576729Y-10391637D01*
X15547113Y-10388315D01*
X15544981Y-10388300D01*
X15443019Y-10388300D01*
X15413360Y-10391208D01*
X15384830Y-10399822D01*
X15358516Y-10413813D01*
X15335422Y-10432649D01*
X15316425Y-10455611D01*
X15302251Y-10481826D01*
X15293438Y-10510295D01*
X15290323Y-10539934D01*
X15293024Y-10569613D01*
X15301438Y-10598202D01*
X15315245Y-10624613D01*
X15333919Y-10647839D01*
X15356749Y-10666995D01*
X15358404Y-10667905D01*
X15335422Y-10686649D01*
X15316425Y-10709611D01*
X15302251Y-10735826D01*
X15293438Y-10764295D01*
X15290323Y-10793934D01*
X15293024Y-10823613D01*
X15301438Y-10852202D01*
X15315245Y-10878613D01*
X15333919Y-10901839D01*
X15356749Y-10920995D01*
X15358404Y-10921905D01*
X15335422Y-10940649D01*
X15316425Y-10963611D01*
X15302251Y-10989826D01*
X15293438Y-11018295D01*
X15290323Y-11047934D01*
X15293024Y-11077613D01*
X15301438Y-11106202D01*
X15315245Y-11132613D01*
X15333919Y-11155839D01*
X15356749Y-11174995D01*
X15358404Y-11175905D01*
X15335422Y-11194648D01*
X15316425Y-11217611D01*
X15302251Y-11243826D01*
X15293438Y-11272295D01*
X15290323Y-11301934D01*
X15293024Y-11331613D01*
X15301438Y-11360202D01*
X15315245Y-11386613D01*
X15333919Y-11409839D01*
X15356749Y-11428995D01*
X15358404Y-11429905D01*
X15335422Y-11448648D01*
X15321565Y-11465398D01*
X15319492Y-11466501D01*
X15311065Y-11470868D01*
X15310643Y-11471206D01*
X15310167Y-11471459D01*
X15302820Y-11477451D01*
X15295401Y-11483373D01*
X15294649Y-11484115D01*
X15294634Y-11484127D01*
X15294623Y-11484141D01*
X15294380Y-11484380D01*
X15167380Y-11611380D01*
X15161358Y-11618712D01*
X15155261Y-11625978D01*
X15155000Y-11626451D01*
X15154658Y-11626868D01*
X15150175Y-11635229D01*
X15145605Y-11643542D01*
X15145442Y-11644057D01*
X15145186Y-11644533D01*
X15142413Y-11653603D01*
X15139544Y-11662647D01*
X15139484Y-11663185D01*
X15139326Y-11663701D01*
X15138368Y-11673131D01*
X15137310Y-11682566D01*
X15137303Y-11683622D01*
X15137301Y-11683641D01*
X15137302Y-11683659D01*
X15137300Y-11684000D01*
X14524947Y-11684000D01*
X14524838Y-11682802D01*
X14515046Y-11649532D01*
X14498979Y-11618798D01*
X14477247Y-11591770D01*
X14450680Y-11569477D01*
X14420289Y-11552770D01*
X14387231Y-11542283D01*
X14352767Y-11538417D01*
X14350286Y-11538400D01*
X14047114Y-11538400D01*
X14012599Y-11541784D01*
X13979398Y-11551808D01*
X13948777Y-11568090D01*
X13921901Y-11590009D01*
X13899794Y-11616731D01*
X13883299Y-11647238D01*
X13873044Y-11680368D01*
X13869419Y-11714859D01*
X13636700Y-11714859D01*
X13636700Y-11641000D01*
X13636048Y-11636984D01*
X13626048Y-11606984D01*
X13624452Y-11603786D01*
X13622980Y-11602020D01*
X13602980Y-11582020D01*
X13600123Y-11579873D01*
X13598016Y-11578952D01*
X13568016Y-11568952D01*
X13564000Y-11568300D01*
X13317700Y-11568300D01*
X13317700Y-11353800D01*
X13536000Y-11353800D01*
X13536000Y-11413800D01*
X13542180Y-11451150D01*
X13555528Y-11486576D01*
X13575532Y-11518718D01*
X13601421Y-11546340D01*
X13632201Y-11568380D01*
X13666690Y-11583992D01*
X13686077Y-11589027D01*
X13716000Y-11580175D01*
X13716000Y-11353800D01*
X13741400Y-11353800D01*
X13741400Y-11580175D01*
X13771323Y-11589027D01*
X13790710Y-11583992D01*
X13825199Y-11568380D01*
X13855979Y-11546340D01*
X13881868Y-11518718D01*
X13901871Y-11486576D01*
X13915220Y-11451150D01*
X13921400Y-11413800D01*
X13921400Y-11353800D01*
X13741400Y-11353800D01*
X13716000Y-11353800D01*
X13536000Y-11353800D01*
X13317700Y-11353800D01*
X13317700Y-11339859D01*
X13949661Y-11339859D01*
X13952804Y-11374398D01*
X13962596Y-11407668D01*
X13978663Y-11438402D01*
X14000394Y-11465430D01*
X14026962Y-11487723D01*
X14057353Y-11504430D01*
X14090410Y-11514917D01*
X14124875Y-11518783D01*
X14127356Y-11518800D01*
X14330044Y-11518800D01*
X14364559Y-11515416D01*
X14391836Y-11507180D01*
X14632586Y-11507180D01*
X14638346Y-11538563D01*
X14650092Y-11568230D01*
X14667376Y-11595050D01*
X14689541Y-11618002D01*
X14715741Y-11636212D01*
X14744980Y-11648986D01*
X14776142Y-11655837D01*
X14808043Y-11656505D01*
X14839465Y-11650965D01*
X14869213Y-11639426D01*
X14896153Y-11622330D01*
X14919259Y-11600326D01*
X14937651Y-11574253D01*
X14950629Y-11545105D01*
X14957698Y-11513990D01*
X14958207Y-11477546D01*
X14952009Y-11446247D01*
X14939851Y-11416747D01*
X14922193Y-11390171D01*
X14899711Y-11367531D01*
X14873258Y-11349689D01*
X14843844Y-11337324D01*
X14812589Y-11330908D01*
X14780683Y-11330686D01*
X14749341Y-11336664D01*
X14719757Y-11348617D01*
X14693058Y-11366088D01*
X14670261Y-11388412D01*
X14652235Y-11414739D01*
X14639665Y-11444066D01*
X14633032Y-11475276D01*
X14632586Y-11507180D01*
X14391836Y-11507180D01*
X14397760Y-11505392D01*
X14428381Y-11489110D01*
X14455257Y-11467191D01*
X14477364Y-11440469D01*
X14493859Y-11409961D01*
X14504114Y-11376831D01*
X14507739Y-11342341D01*
X14504596Y-11307802D01*
X14494804Y-11274532D01*
X14478737Y-11243798D01*
X14457005Y-11216770D01*
X14430438Y-11194477D01*
X14400047Y-11177770D01*
X14366990Y-11167283D01*
X14332525Y-11163417D01*
X14330044Y-11163400D01*
X14127356Y-11163400D01*
X14092841Y-11166784D01*
X14059640Y-11176808D01*
X14029019Y-11193090D01*
X14002143Y-11215009D01*
X13980036Y-11241731D01*
X13963541Y-11272238D01*
X13953286Y-11305368D01*
X13949661Y-11339859D01*
X13317700Y-11339859D01*
X13317700Y-11268400D01*
X13536000Y-11268400D01*
X13536000Y-11328400D01*
X13716000Y-11328400D01*
X13716000Y-11102025D01*
X13741400Y-11102025D01*
X13741400Y-11328400D01*
X13921400Y-11328400D01*
X13921400Y-11268400D01*
X13915220Y-11231050D01*
X13901871Y-11195624D01*
X13881868Y-11163482D01*
X13855979Y-11135860D01*
X13825199Y-11113820D01*
X13790710Y-11098208D01*
X13771323Y-11093173D01*
X13741400Y-11102025D01*
X13716000Y-11102025D01*
X13686077Y-11093173D01*
X13666690Y-11098208D01*
X13632201Y-11113820D01*
X13601421Y-11135860D01*
X13575532Y-11163482D01*
X13555528Y-11195624D01*
X13542180Y-11231050D01*
X13536000Y-11268400D01*
X13317700Y-11268400D01*
X13317700Y-11113700D01*
X13564000Y-11113700D01*
X13568016Y-11113048D01*
X13598016Y-11103048D01*
X13601214Y-11101452D01*
X13602980Y-11099980D01*
X13622980Y-11079980D01*
X13625127Y-11077123D01*
X13626048Y-11075016D01*
X13636048Y-11045016D01*
X13636700Y-11041000D01*
X13636700Y-10964859D01*
X13869419Y-10964859D01*
X13872562Y-10999398D01*
X13882354Y-11032668D01*
X13898421Y-11063402D01*
X13920153Y-11090430D01*
X13946720Y-11112723D01*
X13977111Y-11129430D01*
X14010168Y-11139917D01*
X14044633Y-11143783D01*
X14047114Y-11143800D01*
X14350286Y-11143800D01*
X14384801Y-11140416D01*
X14418002Y-11130392D01*
X14448623Y-11114110D01*
X14475499Y-11092191D01*
X14497606Y-11065469D01*
X14514101Y-11034962D01*
X14524356Y-11001832D01*
X14527981Y-10967341D01*
X14524838Y-10932802D01*
X14515046Y-10899532D01*
X14498979Y-10868798D01*
X14477247Y-10841770D01*
X14450680Y-10819477D01*
X14420289Y-10802770D01*
X14387231Y-10792283D01*
X14352767Y-10788417D01*
X14350286Y-10788400D01*
X14047114Y-10788400D01*
X14012599Y-10791784D01*
X13979398Y-10801808D01*
X13948777Y-10818090D01*
X13921901Y-10840009D01*
X13899794Y-10866731D01*
X13883299Y-10897239D01*
X13873044Y-10930369D01*
X13869419Y-10964859D01*
X13636700Y-10964859D01*
X13636700Y-10791000D01*
X13636048Y-10786984D01*
X13626048Y-10756984D01*
X13624452Y-10753786D01*
X13622980Y-10752020D01*
X13602980Y-10732020D01*
X13600123Y-10729873D01*
X13598016Y-10728952D01*
X13568016Y-10718952D01*
X13564000Y-10718300D01*
X13317700Y-10718300D01*
X13317700Y-10491180D01*
X14632586Y-10491180D01*
X14638346Y-10522563D01*
X14650092Y-10552230D01*
X14667376Y-10579050D01*
X14689541Y-10602002D01*
X14715741Y-10620212D01*
X14744980Y-10632986D01*
X14776142Y-10639837D01*
X14808043Y-10640505D01*
X14839465Y-10634965D01*
X14869213Y-10623426D01*
X14896153Y-10606330D01*
X14919259Y-10584326D01*
X14937651Y-10558253D01*
X14950629Y-10529105D01*
X14957698Y-10497990D01*
X14958207Y-10461546D01*
X14952009Y-10430247D01*
X14939851Y-10400747D01*
X14922193Y-10374171D01*
X14899711Y-10351531D01*
X14873258Y-10333689D01*
X14843844Y-10321324D01*
X14812589Y-10314908D01*
X14780683Y-10314686D01*
X14749341Y-10320664D01*
X14719757Y-10332617D01*
X14693058Y-10350088D01*
X14670261Y-10372413D01*
X14652235Y-10398739D01*
X14639665Y-10428066D01*
X14633032Y-10459276D01*
X14632586Y-10491180D01*
X13317700Y-10491180D01*
X13317700Y-10037099D01*
X13330345Y-10105997D01*
X13357973Y-10175778D01*
X13398629Y-10238863D01*
X13450764Y-10292851D01*
X13512393Y-10335684D01*
X13581167Y-10365730D01*
X13654468Y-10381847D01*
X13729502Y-10383418D01*
X13803414Y-10370386D01*
X13873386Y-10343245D01*
X13936754Y-10303031D01*
X13991104Y-10251274D01*
X14034366Y-10189946D01*
X14064892Y-10121383D01*
X14067437Y-10110180D01*
X14124586Y-10110180D01*
X14130346Y-10141563D01*
X14142092Y-10171230D01*
X14159376Y-10198050D01*
X14181541Y-10221002D01*
X14207741Y-10239212D01*
X14236980Y-10251986D01*
X14268142Y-10258837D01*
X14300043Y-10259505D01*
X14331465Y-10253965D01*
X14361213Y-10242426D01*
X14388153Y-10225330D01*
X14411259Y-10203326D01*
X14429651Y-10177253D01*
X14442629Y-10148105D01*
X14449698Y-10116990D01*
X14449793Y-10110180D01*
X15140586Y-10110180D01*
X15146346Y-10141563D01*
X15158092Y-10171230D01*
X15175376Y-10198050D01*
X15197541Y-10221002D01*
X15223741Y-10239212D01*
X15252980Y-10251986D01*
X15284142Y-10258837D01*
X15316043Y-10259505D01*
X15347465Y-10253965D01*
X15377213Y-10242426D01*
X15404153Y-10225330D01*
X15427259Y-10203326D01*
X15445651Y-10177253D01*
X15458629Y-10148105D01*
X15465698Y-10116990D01*
X15466207Y-10080546D01*
X15460009Y-10049247D01*
X15447851Y-10019747D01*
X15430193Y-9993171D01*
X15407711Y-9970531D01*
X15381258Y-9952689D01*
X15351844Y-9940324D01*
X15320589Y-9933908D01*
X15288683Y-9933686D01*
X15257341Y-9939664D01*
X15227757Y-9951617D01*
X15201058Y-9969088D01*
X15178261Y-9991413D01*
X15160235Y-10017739D01*
X15147665Y-10047066D01*
X15141032Y-10078276D01*
X15140586Y-10110180D01*
X14449793Y-10110180D01*
X14450207Y-10080546D01*
X14444009Y-10049247D01*
X14431851Y-10019747D01*
X14414193Y-9993171D01*
X14391711Y-9970531D01*
X14365258Y-9952689D01*
X14335844Y-9940324D01*
X14304589Y-9933908D01*
X14272683Y-9933686D01*
X14241341Y-9939664D01*
X14211757Y-9951617D01*
X14185058Y-9969088D01*
X14162261Y-9991413D01*
X14144235Y-10017739D01*
X14131665Y-10047066D01*
X14125032Y-10078276D01*
X14124586Y-10110180D01*
X14067437Y-10110180D01*
X14081519Y-10048197D01*
X14082716Y-9962474D01*
X14068139Y-9888852D01*
X14039539Y-9819464D01*
X13998006Y-9756952D01*
X13945122Y-9703698D01*
X13882902Y-9661730D01*
X13813715Y-9632646D01*
X13740903Y-9617700D01*
X20281640Y-9617700D01*
X20211425Y-9631094D01*
G36*
X19069375Y-13333586D02*
X19067961Y-13335000D01*
X19069375Y-13336414D01*
X19051414Y-13354375D01*
X19050000Y-13352960D01*
X19048586Y-13354375D01*
X19030625Y-13336414D01*
X19032040Y-13335000D01*
X19030625Y-13333586D01*
X19043911Y-13320300D01*
X19056089Y-13320300D01*
X19069375Y-13333586D01*
X19069375Y-13333586D01*
G37*
X19069375Y-13333586D02*
X19067961Y-13335000D01*
X19069375Y-13336414D01*
X19051414Y-13354375D01*
X19050000Y-13352960D01*
X19048586Y-13354375D01*
X19030625Y-13336414D01*
X19032040Y-13335000D01*
X19030625Y-13333586D01*
X19043911Y-13320300D01*
X19056089Y-13320300D01*
X19069375Y-13333586D01*
G36*
X19856775Y-12692586D02*
X19855361Y-12694000D01*
X19856775Y-12695414D01*
X19843489Y-12708700D01*
X19831311Y-12708700D01*
X19818025Y-12695414D01*
X19819440Y-12694000D01*
X19818025Y-12692586D01*
X19835986Y-12674625D01*
X19837400Y-12676039D01*
X19838814Y-12674625D01*
X19856775Y-12692586D01*
X19856775Y-12692586D01*
G37*
X19856775Y-12692586D02*
X19855361Y-12694000D01*
X19856775Y-12695414D01*
X19843489Y-12708700D01*
X19831311Y-12708700D01*
X19818025Y-12695414D01*
X19819440Y-12694000D01*
X19818025Y-12692586D01*
X19835986Y-12674625D01*
X19837400Y-12676039D01*
X19838814Y-12674625D01*
X19856775Y-12692586D01*
G36*
X15513375Y-12317586D02*
X15511960Y-12319000D01*
X15513375Y-12320414D01*
X15500089Y-12333700D01*
X15487911Y-12333700D01*
X15479300Y-12325089D01*
X15479300Y-12312911D01*
X15487911Y-12304300D01*
X15500089Y-12304300D01*
X15513375Y-12317586D01*
X15513375Y-12317586D01*
G37*
X15513375Y-12317586D02*
X15511960Y-12319000D01*
X15513375Y-12320414D01*
X15500089Y-12333700D01*
X15487911Y-12333700D01*
X15479300Y-12325089D01*
X15479300Y-12312911D01*
X15487911Y-12304300D01*
X15500089Y-12304300D01*
X15513375Y-12317586D01*
G36*
X18053375Y-12063586D02*
X18051961Y-12065000D01*
X18053375Y-12066414D01*
X18040089Y-12079700D01*
X18027911Y-12079700D01*
X18014625Y-12066414D01*
X18016040Y-12065000D01*
X18014625Y-12063586D01*
X18027911Y-12050300D01*
X18040089Y-12050300D01*
X18053375Y-12063586D01*
X18053375Y-12063586D01*
G37*
X18053375Y-12063586D02*
X18051961Y-12065000D01*
X18053375Y-12066414D01*
X18040089Y-12079700D01*
X18027911Y-12079700D01*
X18014625Y-12066414D01*
X18016040Y-12065000D01*
X18014625Y-12063586D01*
X18027911Y-12050300D01*
X18040089Y-12050300D01*
X18053375Y-12063586D01*
M02*
