M48
;DRILL file {KiCad 4.0.1-stable} date 2017年09月08日金曜日 13:41:49
;FORMAT={-:-/ absolute / metric / decimal}
FMAT,2
METRIC,TZ
T1C0.500
T2C0.750
T3C0.800
T4C0.900
T5C1.000
T6C1.300
T7C2.300
%
G90
G05
M71
T1
X192.405Y-118.745
T2
X198.374Y-126.94
X198.374Y-129.54
T3
X184.785Y-134.62
X184.785Y-139.42
X193.675Y-143.51
T4
X135.89Y-122.555
X135.89Y-127.055
X141.605Y-135.255
X142.39Y-122.555
X142.39Y-127.055
X142.875Y-100.965
X144.145Y-135.255
X147.955Y-104.775
X147.955Y-114.935
X147.955Y-118.745
X147.955Y-128.905
X147.955Y-132.715
X147.955Y-142.875
X153.035Y-100.965
X154.94Y-105.41
X154.94Y-107.95
X154.94Y-110.49
X154.94Y-113.03
X154.94Y-115.57
X154.94Y-118.11
X154.94Y-120.65
X154.94Y-123.19
X154.94Y-125.73
X154.94Y-128.27
X154.94Y-130.81
X154.94Y-133.35
X154.94Y-135.89
X154.94Y-138.43
X180.34Y-105.41
X180.34Y-107.95
X180.34Y-110.49
X180.34Y-113.03
X180.34Y-115.57
X180.34Y-118.11
X180.34Y-120.65
X180.34Y-123.19
X180.34Y-125.73
X180.34Y-128.27
X180.34Y-130.81
X180.34Y-133.35
X180.34Y-135.89
X180.34Y-138.43
X184.785Y-109.855
X184.785Y-114.935
X184.785Y-121.92
X184.785Y-127.
X189.23Y-109.855
X189.23Y-112.395
X189.23Y-114.935
X190.5Y-123.19
X190.5Y-125.73
X190.5Y-128.27
X190.5Y-130.81
X190.5Y-133.35
X191.135Y-136.525
X191.135Y-139.7
X194.31Y-109.205
X194.31Y-111.705
X194.31Y-113.705
X194.31Y-116.205
X196.215Y-136.525
X196.215Y-139.7
T7
X197.02Y-106.135
X197.02Y-119.275
T3
X189.375Y-143.01G85X189.375Y-144.01
G05
X191.135Y-143.51G85X191.675Y-143.51
G05
X195.675Y-143.51G85X196.215Y-143.51
G05
X197.975Y-143.01G85X197.975Y-144.01
G05
X202.964Y-124.64G85X203.664Y-124.64
G05
X202.964Y-131.84G85X203.664Y-131.84
G05
T5
X140.737Y-109.661G85X143.237Y-109.661
G05
X140.737Y-117.161G85X143.237Y-117.161
G05
X141.287Y-113.411G85X143.287Y-113.411
G05
T6
X137.287Y-112.811G85X137.287Y-114.011
G05
T0
M30
